<svg width="37" height="37" viewBox="0 0 37 37" fill="none" xmlns="http://www.w3.org/2000/svg">
<path d="M13.7934 0.179684C13.2629 0.179684 12.8303 0.597828 12.8303 1.11359V10.2389C12.8303 10.7534 13.2615 11.1728 13.7934 11.1728H18.417C20.3051 11.1728 22.1034 11.8878 23.4814 13.1844C24.8675 14.4903 25.6415 16.2143 25.6633 18.0413C25.6851 19.913 24.9492 21.6753 23.5929 23.0049C22.2367 24.3345 20.4275 25.0666 18.4986 25.0666H18.417C16.533 25.0455 14.7551 24.295 13.4084 22.9508C12.0713 21.6159 11.334 19.8708 11.334 18.0399V13.5564C11.334 13.042 10.9028 12.6225 10.3709 12.6225H0.963088C0.432573 12.6225 0 13.0406 0 13.5564V22.6818C0 23.1962 0.431213 23.6157 0.963088 23.6157H8.38893C9.38739 23.6157 10.0308 23.6288 10.5613 23.6988C11.266 23.7911 11.738 23.9863 12.0944 24.3306C12.4508 24.6749 12.6507 25.1339 12.746 25.8172C12.8181 26.3329 12.8317 26.9555 12.8317 27.9251V35.1246C12.8317 35.639 13.2629 36.0585 13.7947 36.0585H18.5C20.6125 36.0585 22.687 35.7142 24.6662 35.0362C32.0431 32.5075 37 25.709 37 18.1191C37 10.5291 32.0431 3.73063 24.6662 1.20196C22.687 0.52396 20.6125 0.179684 18.5 0.179684H13.7947H13.7934Z" fill="#F27A67"/>
</svg>
