<svg width="116" height="34" viewBox="0 0 116 34" fill="none" xmlns="http://www.w3.org/2000/svg">
<g id="Logo">
<path id="Vector" d="M12.3938 0.88092C11.9171 0.88092 11.5284 1.25664 11.5284 1.72006V9.91946C11.5284 10.3817 11.9159 10.7586 12.3938 10.7586H16.5482C18.2447 10.7586 19.8606 11.401 21.0987 12.5661C22.3442 13.7394 23.0397 15.2885 23.0592 16.9301C23.0788 18.6119 22.4176 20.1954 21.199 21.3901C19.9804 22.5848 18.3547 23.2426 16.6216 23.2426H16.5482C14.8554 23.2236 13.2579 22.5492 12.0479 21.3415C10.8464 20.142 10.1839 18.574 10.1839 16.9289V12.9003C10.1839 12.4381 9.79645 12.0612 9.31855 12.0612H0.865363C0.38868 12.0612 0 12.4369 0 12.9003V21.0997C0 21.5619 0.387458 21.9388 0.865363 21.9388H7.53771C8.43485 21.9388 9.01298 21.9507 9.48966 22.0135C10.1228 22.0965 10.5469 22.2719 10.8672 22.5812C11.1874 22.8906 11.3671 23.303 11.4526 23.917C11.5174 24.3804 11.5296 24.9398 11.5296 25.811V32.2799C11.5296 32.7422 11.9171 33.1191 12.395 33.1191H16.6228C18.521 33.1191 20.3849 32.8097 22.1633 32.2005C28.7917 29.9284 33.2456 23.8198 33.2456 17C33.2456 10.1802 28.7917 4.07155 22.1633 1.79947C20.3849 1.19026 18.521 0.88092 16.6228 0.88092H12.395H12.3938Z" fill="#F27A67"/>
<g id="Datum">
<path id="Vector_2" d="M112.135 12.254C113.391 12.254 114.347 12.6469 115.004 13.4329C115.668 14.2107 116 15.2762 116 16.6292V25.1975H112.986V17.3342C112.986 15.6894 112.346 14.867 111.066 14.867C110.329 14.867 109.717 15.2073 109.231 15.8879C108.745 16.5685 108.502 17.4476 108.502 18.5252V25.1975H105.5V17.3342C105.5 16.532 105.338 15.9203 105.013 15.499C104.689 15.0776 104.211 14.867 103.579 14.867C102.842 14.867 102.23 15.2073 101.744 15.8879C101.258 16.5685 101.015 17.4395 101.015 18.5009V25.1975H97.9766V12.5092H100.966V14.8184H101.039C101.266 14.1135 101.691 13.5098 102.315 13.0075C102.947 12.5051 103.733 12.254 104.673 12.254C105.629 12.254 106.407 12.4849 107.007 12.9467C107.614 13.4086 108.032 14.0648 108.258 14.9156H108.331C108.591 14.154 109.044 13.522 109.693 13.0196C110.341 12.5092 111.155 12.254 112.135 12.254Z" fill="white"/>
<path id="Vector_3" d="M85.2031 21.1165V12.5118H88.2172V20.4237C88.2172 22.0442 88.8775 22.8545 90.1982 22.8545C90.9761 22.8545 91.6202 22.506 92.1306 21.8092C92.6411 21.1124 92.8963 20.2171 92.8963 19.1233V12.5118H95.9226V25.2001H92.9449V22.8301H92.872C92.5803 23.5918 92.1388 24.2197 91.5473 24.7139C90.9558 25.2001 90.2104 25.4432 89.311 25.4432C86.5724 25.4432 85.2031 24.0009 85.2031 21.1165Z" fill="white"/>
<path id="Vector_4" d="M77.2588 21.5399V14.9892H75.5938V12.6314H76.2136C76.7159 12.6314 77.0481 12.522 77.2102 12.3033C77.3803 12.0845 77.4654 11.6389 77.4654 10.9664V8.5235H80.2729V12.5099H83.4328V14.9892H80.2729V21.0173C80.2729 21.7223 80.3944 22.2165 80.6375 22.5001C80.8805 22.7756 81.2816 22.9133 81.8407 22.9133C82.3835 22.9133 82.9142 22.7877 83.4328 22.5365V25.028C82.7198 25.3278 81.9339 25.4777 81.075 25.4777C79.7219 25.4777 78.7456 25.1739 78.146 24.5662C77.5545 23.9504 77.2588 22.9417 77.2588 21.5399Z" fill="white"/>
<path id="Vector_5" d="M61.8516 18.9506C61.8516 16.8926 62.3539 15.264 63.3586 14.0648C64.3633 12.8576 65.6961 12.254 67.3571 12.254C68.3213 12.254 69.0991 12.4687 69.6906 12.8981C70.2821 13.3194 70.6791 13.8015 70.8816 14.3444H70.9667V12.5092H73.92V25.1975H70.9667V22.9126H70.8816C70.7115 23.5932 70.2983 24.1847 69.642 24.687C68.9857 25.1894 68.1309 25.4406 67.0776 25.4406C66.3403 25.4406 65.6556 25.2988 65.0236 25.0152C64.3917 24.7316 63.8366 24.3224 63.3586 23.7877C62.8887 23.2529 62.52 22.5723 62.2526 21.7459C61.9853 20.9113 61.8516 19.9796 61.8516 18.9506ZM70.906 19.0235V18.4037C70.906 17.2531 70.6305 16.3457 70.0795 15.6813C69.5367 15.0088 68.852 14.6725 68.0256 14.6725C67.0776 14.6725 66.32 15.0493 65.7529 15.8028C65.1938 16.5563 64.9143 17.5732 64.9143 18.8533C64.9143 20.1659 65.1897 21.1868 65.7407 21.916C66.2917 22.6453 67.0128 23.0099 67.904 23.0099C68.7791 23.0099 69.4961 22.6574 70.0552 21.9525C70.6224 21.2476 70.906 20.2713 70.906 19.0235Z" fill="white"/>
<path id="Vector_6" d="M46.3438 8.5235H52.4934C53.5143 8.5235 54.4542 8.66124 55.3131 8.93672C56.18 9.2122 56.9254 9.59706 57.5493 10.0913C58.1813 10.5856 58.7161 11.173 59.1536 11.8536C59.5992 12.5342 59.9314 13.2836 60.1502 14.102C60.3689 14.9203 60.4783 15.7913 60.4783 16.715C60.4783 17.9141 60.296 19.0282 59.9314 20.0572C59.5749 21.0781 59.0604 21.9734 58.3879 22.7432C57.7154 23.5048 56.8606 24.1043 55.8235 24.5419C54.7864 24.9794 53.6237 25.1982 52.3354 25.1982H46.3438V8.5235ZM52.1653 22.4879C53.0242 22.4879 53.7817 22.3461 54.438 22.0626C55.1024 21.779 55.6412 21.382 56.0544 20.8715C56.4677 20.353 56.7755 19.7493 56.9781 19.0606C57.1888 18.3719 57.2941 17.6063 57.2941 16.7636C57.2941 15.9696 57.1928 15.2444 56.9903 14.5881C56.7877 13.9237 56.4839 13.3404 56.0787 12.838C55.6736 12.3276 55.1389 11.9346 54.4745 11.6591C53.8101 11.3755 53.0404 11.2337 52.1653 11.2337H49.4551V22.4879H52.1653Z" fill="white"/>
</g>
</g>
</svg>
