<svg width="1753" height="1060" viewBox="0 0 1753 1060" fill="none" xmlns="http://www.w3.org/2000/svg" xmlns:xlink="http://www.w3.org/1999/xlink">
  <rect x="0" y="0" width="1753" height="1060" fill="#000066"/>
  <!-- Filled path with color and opacity animation -->
  <path d="M443.5 767.5L1733.35 602.5L1759 597.68L1733.35 593.267C1732.01 596.189 1126 492.503 1126 492.503L1610.5 425.001V74C1610 74 1608.5 423.501 1608.5 423.501L1120.5 492.003L1120.42 492.591L1131.37 494.569L1734.5 601L1730.92 593.389L422.5 737L443.5 767.5Z" fill="#E6F59E">
    <animate 
      attributeName="fill" 
      values="#E6F59E;#EAF7B7;#F0FFCC;#EAF7B7;#E6F59E" 
      keyTimes="0;0.25;0.5;0.75;1" 
      calcMode="spline" 
      keySplines="0.42 0 0.58 1;0.42 0 0.58 1;0.42 0 0.58 1;0.42 0 0.58 1" 
      dur="2s" 
      repeatCount="indefinite" />
    <animate 
      attributeName="opacity" 
      values="0.8;1;0.8" 
      keyTimes="0;0.5;1" 
      calcMode="spline" 
      keySplines="0.42 0 0.58 1;0.42 0 0.58 1" 
      dur="2s" 
      repeatCount="indefinite" />
  </path>
  <!-- Stroked path for beam effect -->
  <path d="M443.5 767.5L1733.35 602.5L1759 597.68L1733.35 593.267C1732.01 596.189 1126 492.503 1126 492.503L1610.5 425.001V74C1610 74 1608.5 423.501 1608.5 423.501L1120.5 492.003L1120.42 492.591L1131.37 494.569L1734.5 601L1730.92 593.389L422.5 737L443.5 767.5Z" fill="none" stroke="#F0FFCC" stroke-width="20">
    <animate 
      attributeName="stroke-dasharray" 
      values="0 6000;6000 0" 
      dur="1s" 
      begin="0s" 
      fill="freeze" 
      calcMode="spline" 
      keySplines="0.42 0 0.58 1" />
  </path>
</svg>