<svg width="27" height="26" viewBox="0 0 27 26" fill="none" xmlns="http://www.w3.org/2000/svg">
<path d="M7.28995 25.2911C6.82995 25.2911 6.48995 25.1311 6.26995 24.8111C5.32995 24.9711 4.41995 25.1011 3.53995 25.2011C2.65995 25.3011 1.87995 25.3511 1.19995 25.3511C0.759951 25.3511 0.449951 25.2611 0.269951 25.0811C0.0899512 24.9011 -4.88237e-05 24.6211 -4.88237e-05 24.2411C-4.88237e-05 23.8211 0.489951 23.3811 1.46995 22.9211C2.44995 22.4411 4.02995 22.0711 6.20995 21.8111C6.34995 20.8711 6.56995 19.7011 6.86995 18.3011C7.16995 16.8811 7.49995 15.3711 7.85995 13.7711C8.23995 12.1511 8.60995 10.5811 8.96995 9.06109C8.26995 9.82109 7.53995 10.5411 6.77995 11.2211C6.01995 11.8811 5.29995 12.4211 4.61995 12.8411C3.93995 13.2411 3.34995 13.4411 2.84995 13.4411C2.36995 13.4411 2.12995 13.1411 2.12995 12.5411C2.12995 12.3011 2.34995 11.9611 2.78995 11.5211C3.24995 11.0811 3.82995 10.5311 4.52995 9.87109C5.24995 9.21109 6.01995 8.44109 6.83995 7.56109C7.65995 6.68109 8.45995 5.69109 9.23995 4.59109C10.02 3.49109 10.68 2.27109 11.22 0.931093C11.4 0.511092 11.59 0.251092 11.79 0.151092C11.99 0.0510924 12.16 0.00109243 12.3 0.00109243C12.6 0.00109243 12.87 0.141092 13.11 0.421092C13.35 0.681093 13.47 1.22109 13.47 2.04109C13.47 2.18109 13.37 2.70109 13.17 3.60109C12.97 4.48109 12.7 5.62109 12.36 7.02109C12.04 8.42109 11.67 9.96109 11.25 11.6411C10.85 13.3211 10.45 15.0211 10.05 16.7411C9.64995 18.4611 9.27995 20.0811 8.93995 21.6011C9.91995 21.5411 10.95 21.5111 12.03 21.5111C12.83 21.5111 13.39 21.5511 13.71 21.6311C14.05 21.6911 14.25 21.7811 14.31 21.9011C14.39 22.0011 14.43 22.1211 14.43 22.2611C14.43 22.4611 14.14 22.6911 13.56 22.9511C12.98 23.1911 12.22 23.4411 11.28 23.7011C10.34 23.9611 9.31995 24.2111 8.21995 24.4511C7.97995 25.0111 7.66995 25.2911 7.28995 25.2911ZM24.1005 11.7011C23.2405 11.7011 22.6305 11.5411 22.2705 11.2211C21.9105 10.9011 21.7305 10.4611 21.7305 9.90109C21.7305 9.26109 21.8705 8.75109 22.1505 8.37109C22.4305 7.99109 22.7705 7.71109 23.1705 7.53109C23.5705 7.35109 23.9605 7.26109 24.3405 7.26109C24.8605 7.26109 25.3405 7.42109 25.7805 7.74109C26.2205 8.04109 26.4405 8.64109 26.4405 9.54109C26.4405 10.1811 26.2405 10.7011 25.8405 11.1011C25.4405 11.5011 24.8605 11.7011 24.1005 11.7011ZM21.2805 24.3011C20.7805 24.3011 20.3305 24.0811 19.9305 23.6411C19.5505 23.2211 19.3605 22.7111 19.3605 22.1111C19.3605 21.6311 19.5005 21.2411 19.7805 20.9411C20.0605 20.6411 20.4005 20.4211 20.8005 20.2811C21.2005 20.1211 21.5805 20.0411 21.9405 20.0411C22.4005 20.0411 22.8305 20.1711 23.2305 20.4311C23.6305 20.6911 23.8305 21.1611 23.8305 21.8411C23.8305 22.2411 23.7105 22.6311 23.4705 23.0111C23.2505 23.3911 22.9405 23.7011 22.5405 23.9411C22.1605 24.1811 21.7405 24.3011 21.2805 24.3011Z" fill="currentColor"/>
</svg>
