<svg width="28" height="26" viewBox="0 0 28 26" fill="none" xmlns="http://www.w3.org/2000/svg">
<path d="M15.4501 14.4005C15.4501 15.2005 15.1601 16.0205 14.5801 16.8605C14.0201 17.7005 13.2801 18.5305 12.3601 19.3505C11.4401 20.1705 10.4401 20.9405 9.36012 21.6605C8.30012 22.3805 7.25012 23.0105 6.21012 23.5505C5.17012 24.1105 4.25012 24.5405 3.45012 24.8405C2.65012 25.1605 2.08012 25.3205 1.74012 25.3205C1.16012 25.3205 0.720117 25.1905 0.420117 24.9305C0.140117 24.6905 0.000117257 24.4705 0.000117257 24.2705C0.000117257 24.0505 0.0501173 23.8305 0.150117 23.6105C0.270117 23.4105 0.540117 23.2205 0.960117 23.0405C2.12012 22.5205 3.29012 21.9405 4.47012 21.3005C5.65012 20.6405 6.76012 19.9705 7.80012 19.2905C8.86012 18.6105 9.80012 17.9305 10.6201 17.2505C11.4401 16.5705 12.0901 15.9405 12.5701 15.3605C13.0501 14.7605 13.2901 14.2405 13.2901 13.8005C13.2901 13.1405 12.9501 12.6505 12.2701 12.3305C11.6101 11.9905 10.5101 11.8205 8.97012 11.8205C8.07012 11.8205 7.32012 11.8605 6.72012 11.9405C6.12012 12.0205 5.60012 12.1005 5.16012 12.1805C4.74012 12.2405 4.35012 12.2705 3.99012 12.2705C3.35012 12.2705 3.03012 11.9405 3.03012 11.2805C3.03012 10.9805 3.13012 10.6705 3.33012 10.3505C3.53012 10.0305 3.85012 9.80047 4.29012 9.66047C6.49012 8.96047 8.24012 8.12047 9.54012 7.14047C10.8401 6.14047 11.4901 5.03047 11.4901 3.81047C11.4901 3.07047 10.8501 2.70047 9.57012 2.70047C8.97012 2.70047 8.29012 2.76047 7.53012 2.88047C6.77012 3.00047 6.03012 3.15047 5.31012 3.33047C4.61012 3.49047 4.01012 3.63047 3.51012 3.75047C3.01012 3.87047 2.70012 3.93047 2.58012 3.93047C2.38012 3.93047 2.23012 3.87047 2.13012 3.75047C2.03012 3.61047 1.98012 3.47047 1.98012 3.33047C1.98012 3.15047 2.13012 2.88047 2.43012 2.52047C2.73012 2.16047 3.16012 1.79047 3.72012 1.41047C4.28012 1.01047 4.95012 0.680468 5.73012 0.420468C6.53012 0.140468 7.42012 0.000467777 8.40012 0.000467777C9.40012 0.000467777 10.2801 0.200468 11.0401 0.600467C11.8001 0.980467 12.4001 1.51047 12.8401 2.19047C13.2801 2.87047 13.5001 3.65047 13.5001 4.53047C13.5001 5.41047 13.2201 6.28047 12.6601 7.14047C12.1001 8.00047 11.4201 8.72047 10.6201 9.30047C11.5801 9.46047 12.4201 9.79047 13.1401 10.2905C13.8801 10.7705 14.4501 11.3705 14.8501 12.0905C15.2501 12.7905 15.4501 13.5605 15.4501 14.4005ZM24.8664 11.3105C24.0064 11.3105 23.3964 11.1505 23.0364 10.8305C22.6764 10.5105 22.4964 10.0705 22.4964 9.51047C22.4964 8.87047 22.6364 8.36047 22.9164 7.98047C23.1964 7.60047 23.5364 7.32047 23.9364 7.14047C24.3364 6.96047 24.7264 6.87047 25.1064 6.87047C25.6264 6.87047 26.1064 7.03047 26.5464 7.35047C26.9864 7.65047 27.2064 8.25047 27.2064 9.15047C27.2064 9.79047 27.0064 10.3105 26.6064 10.7105C26.2064 11.1105 25.6264 11.3105 24.8664 11.3105ZM22.0464 23.9105C21.5464 23.9105 21.0964 23.6905 20.6964 23.2505C20.3164 22.8305 20.1264 22.3205 20.1264 21.7205C20.1264 21.2405 20.2664 20.8505 20.5464 20.5505C20.8264 20.2505 21.1664 20.0305 21.5664 19.8905C21.9664 19.7305 22.3464 19.6505 22.7064 19.6505C23.1664 19.6505 23.5964 19.7805 23.9964 20.0405C24.3964 20.3005 24.5964 20.7705 24.5964 21.4505C24.5964 21.8505 24.4764 22.2405 24.2364 22.6205C24.0164 23.0005 23.7064 23.3105 23.3064 23.5505C22.9264 23.7905 22.5064 23.9105 22.0464 23.9105Z" fill="currentColor"/>
</svg>
