<svg width="16" height="20" viewBox="0 0 16 20" fill="none" xmlns="http://www.w3.org/2000/svg">
<g clip-path="url(#clip0_9893_82786)">
<path d="M15.4909 6.70074C15.3769 6.78919 13.3641 7.92334 13.3641 10.4452C13.3641 13.3622 15.9253 14.3941 16.002 14.4197C15.9902 14.4826 15.5951 15.8329 14.6516 17.2088C13.8103 18.4197 12.9317 19.6285 11.5951 19.6285C10.2585 19.6285 9.9145 18.8521 8.3715 18.8521C6.86781 18.8521 6.33317 19.6541 5.11057 19.6541C3.88796 19.6541 3.03489 18.5337 2.05405 17.1577C0.917936 15.542 0 13.0319 0 10.6496C0 6.8285 2.48452 4.80197 4.92973 4.80197C6.22899 4.80197 7.31204 5.65504 8.12776 5.65504C8.90418 5.65504 10.115 4.75086 11.5931 4.75086C12.1533 4.75086 14.1661 4.80197 15.4909 6.70074ZM10.8914 3.13317C11.5027 2.40786 11.9351 1.40147 11.9351 0.395086C11.9351 0.255528 11.9233 0.114005 11.8978 0C10.9032 0.0373464 9.7199 0.662408 9.00639 1.48993C8.44619 2.12678 7.92334 3.13317 7.92334 4.15332C7.92334 4.30663 7.94889 4.45995 7.96069 4.50909C8.02359 4.52088 8.1258 4.53464 8.22801 4.53464C9.12039 4.53464 10.2428 3.9371 10.8914 3.13317Z" fill="currentColor"/>
</g>
<defs>
<clipPath id="clip0_9893_82786">
<rect width="16" height="19.656" fill="currentColor"/>
</clipPath>
</defs>
</svg>
