<svg xmlns="http://www.w3.org/2000/svg" width="12" height="12" viewBox="0 0 12 12" fill="none">
  <path d="M4.48116 0C4.30948 0 4.16949 0.139548 4.16949 0.311672C4.16949 0.483797 4.16949 3.35709 4.16949 3.35709C4.16949 3.52877 4.30904 3.66102 4.48116 3.66102L5.96009 3.66876C6.57111 3.66876 7.15307 3.90736 7.59901 4.34009C8.04759 4.77591 8.29808 5.35127 8.30512 5.96097C8.31216 6.58563 8.07401 7.17376 7.63511 7.6175C7.19622 8.06124 6.61073 8.30556 5.9865 8.30556H5.96009C5.35039 8.29852 4.77503 8.04803 4.33921 7.59945C3.90648 7.15395 3.66101 6.57155 3.66101 5.96053V4.46423C3.66101 4.29255 3.52833 4.1695 3.35621 4.1695H0.311673C0.139989 4.1695 0 4.29211 0 4.46423V7.50965C0 7.68133 0.139549 7.83051 0.311673 7.83051H2.71481C3.03793 7.83051 3.24615 7.82572 3.41784 7.84906C3.64587 7.87987 3.79863 7.94502 3.91396 8.05992C4.0293 8.17481 4.09401 8.32801 4.12483 8.55604C4.14816 8.72817 4.16949 8.93595 4.16949 9.25951V11.6622C4.16949 11.8339 4.29211 12 4.46423 12H5.98694C6.6706 12 7.34193 11.859 7.98244 11.6327C10.3697 10.7888 11.9739 8.51994 11.9739 5.98694C11.9739 3.45394 10.3697 1.18506 7.98244 0.341167C7.34193 0.114896 6.6706 0 5.98694 0H4.4816H4.48116Z" fill="currentColor"/>
</svg>
