<svg width="17" height="13" viewBox="0 0 17 13" fill="none" xmlns="http://www.w3.org/2000/svg">
<path d="M3.341 1.04536C4.38477 0.557007 5.50082 0.202092 6.66761 0C6.81091 0.259074 6.97832 0.607535 7.09374 0.884735C8.33408 0.698204 9.56301 0.698204 10.7805 0.884735C10.8959 0.607535 11.0671 0.259074 11.2117 0C12.3798 0.202092 13.4971 0.558311 14.5409 1.04795C16.6462 4.22932 17.2169 7.33167 16.9315 10.39C15.5352 11.4327 14.182 12.0662 12.8516 12.4807C12.5231 12.0286 12.2301 11.548 11.9778 11.0415C12.4584 10.8589 12.9188 10.6335 13.3538 10.3718C13.2384 10.2863 13.1255 10.197 13.0165 10.105C10.3633 11.3459 7.48055 11.3459 4.85909 10.105C4.74875 10.197 4.63589 10.2863 4.52174 10.3718C4.95802 10.6348 5.41965 10.8602 5.90031 11.0428C5.64794 11.548 5.35624 12.0299 5.0265 12.4819C3.69483 12.0674 2.34035 11.434 0.944014 10.39C0.609191 6.84462 1.51598 3.77076 3.341 1.04536ZM11.6163 8.50914C12.4128 8.50914 13.0659 7.7656 13.0659 6.86016C13.0659 5.95471 12.4267 5.20989 11.6163 5.20989C10.8059 5.20989 10.1528 5.95341 10.1667 6.86016C10.1654 7.7656 10.8059 8.50914 11.6163 8.50914ZM6.25923 8.50914C7.05568 8.50914 7.70884 7.7656 7.70884 6.86016C7.70884 5.95471 7.06965 5.20989 6.25923 5.20989C5.44883 5.20989 4.79567 5.95341 4.80962 6.86016C4.80962 7.7656 5.44883 8.50914 6.25923 8.50914Z" fill="currentColor"/>
</svg>
