<svg width="20" height="20" viewBox="0 0 20 20" fill="none" xmlns="http://www.w3.org/2000/svg">
<g clip-path="url(#clip0_9893_82829)">
<path d="M11.5033 7.67432C10.8808 7.8263 10.26 7.98464 9.64077 8.14932L9.62202 8.15557C9.47827 8.19307 9.45952 8.19932 9.32202 8.04307C9.15952 7.85557 9.03452 7.73682 8.80327 7.63057C8.48647 7.47386 8.13304 7.4062 7.78076 7.43483C7.42848 7.46345 7.09061 7.58728 6.80327 7.79307C6.44769 8.004 6.15554 8.30689 5.95756 8.66984C5.75958 9.0328 5.6631 9.44241 5.67827 9.85557C5.67618 10.2723 5.82609 10.6754 6.09991 10.9895C6.37373 11.3036 6.75268 11.5071 7.16577 11.5618C7.51365 11.6117 7.86849 11.5718 8.19664 11.446C8.52479 11.3202 8.81536 11.1127 9.04077 10.8431C9.12202 10.7556 9.19077 10.6618 9.26577 10.5556L9.34702 10.4431H7.20952C6.97827 10.4431 6.92827 10.2993 7.00327 10.1181C7.14702 9.78057 7.40952 9.21807 7.56577 8.93057C7.59702 8.86807 7.67827 8.76182 7.84077 8.76182H11.397C11.5595 8.26182 11.8158 7.79307 12.1595 7.34932C12.5293 6.85724 12.9933 6.44359 13.5244 6.13243C14.0555 5.82127 14.6432 5.61881 15.2533 5.53682C16.3783 5.33682 17.4408 5.44932 18.4033 6.08682C18.8267 6.35044 19.1865 6.70465 19.4567 7.12396C19.7268 7.54328 19.9007 8.01726 19.9658 8.51182C20.0707 9.18291 20.0094 9.86951 19.7871 10.5114C19.5648 11.1532 19.1883 11.7307 18.6908 12.1931C17.751 13.1317 16.4814 13.6655 15.1533 13.6806C14.171 13.6876 13.2175 13.3492 12.4595 12.7243C11.9288 12.2865 11.5431 11.6981 11.3533 11.0368C11.2283 11.2868 11.072 11.5368 10.8908 11.7681C10.5185 12.2733 10.0472 12.6973 9.50562 13.0143C8.96403 13.3313 8.36353 13.5346 7.74077 13.6118C7.22339 13.6953 6.69461 13.6753 6.18502 13.553C5.67543 13.4307 5.19516 13.2085 4.77202 12.8993C4.38019 12.6197 4.05221 12.26 3.80979 11.8441C3.56737 11.4282 3.41602 10.9656 3.36577 10.4868C3.22202 9.29932 3.57827 8.23682 4.30327 7.29932C5.05998 6.30219 6.16879 5.63154 7.40327 5.42432C8.44077 5.23682 9.43452 5.36182 10.3283 5.95557C10.9158 6.33682 11.3283 6.86182 11.6095 7.48682C11.672 7.58682 11.6345 7.64307 11.497 7.67432H11.5033ZM17.7845 9.29307L17.7783 9.17432L17.7533 8.93682C17.7104 8.68894 17.6165 8.45265 17.4776 8.24289C17.3387 8.03314 17.1578 7.85447 16.9464 7.7182C16.7349 7.58192 16.4975 7.491 16.2491 7.45117C16.0007 7.41135 15.7467 7.42348 15.5033 7.48682C15.0268 7.56981 14.5867 7.79516 14.2408 8.13321C13.895 8.47126 13.6596 8.90614 13.5658 9.38057C13.4672 9.78677 13.5146 10.2147 13.6997 10.5895C13.8848 10.9642 14.1958 11.262 14.5783 11.4306C15.1908 11.6931 15.797 11.6618 16.3783 11.3681C16.7828 11.1877 17.1289 10.8979 17.3774 10.5312C17.6259 10.1645 17.7669 9.73567 17.7845 9.29307ZM0.690767 10.6868L0.990767 10.1243C1.02827 10.0556 1.11577 9.98682 1.19702 9.98682H2.66577C2.75327 9.98682 2.79077 10.0493 2.79077 10.1431L2.82827 10.6618C2.82827 10.7368 2.74077 10.8181 2.67827 10.8181H0.759517C0.672017 10.8181 0.653267 10.7556 0.697017 10.6868H0.690767ZM1.37827 7.22432L1.81577 6.61807C1.85952 6.55557 1.96577 6.50557 2.05327 6.50557H4.08452C4.17202 6.50557 4.19077 6.56807 4.14702 6.64307L3.69077 7.21807C3.64077 7.28057 3.54702 7.34932 3.48452 7.34932H1.44077C1.35952 7.34932 1.33452 7.29307 1.37827 7.22432ZM0.159517 8.87432C0.103267 8.94932 0.115767 9.01182 0.197017 9.01182H2.74077C2.82202 9.01182 2.90327 8.96807 2.92827 8.87432L3.09702 8.33682C3.11577 8.26807 3.07202 8.19932 2.99077 8.19932H0.690767C0.603267 8.19932 0.503267 8.24307 0.459517 8.31182L0.153267 8.87432H0.159517Z" fill="currentColor"/>
</g>
<defs>
<clipPath id="clip0_9893_82829">
<rect width="20" height="20" fill="currentColor"/>
</clipPath>
</defs>
</svg>
