<svg width="14" height="17" viewBox="0 0 14 17" fill="none" xmlns="http://www.w3.org/2000/svg">
<path d="M6.78172 4.01251C6.81297 4.03126 6.84422 4.06876 6.88172 4.06876C6.91297 4.06876 6.96922 4.05626 6.97547 4.01876C6.97547 3.97501 6.91297 3.94376 6.86922 3.92501C6.841 3.91121 6.81001 3.90403 6.7786 3.90403C6.74718 3.90403 6.71619 3.91121 6.68797 3.92501C6.67547 3.92501 6.66297 3.94376 6.66922 3.95626C6.68172 4.00001 6.74422 3.99376 6.78172 4.01876V4.01251ZM6.06922 4.06876C6.10672 4.06876 6.13172 4.03126 6.16297 4.01251C6.20047 3.99376 6.26922 4.00001 6.28172 3.96251C6.28172 3.95001 6.27547 3.93126 6.26297 3.92501C6.20672 3.89376 6.13797 3.90626 6.07547 3.92501C6.03797 3.95001 5.96922 3.97501 5.97547 4.02501C5.97547 4.05626 6.03797 4.07501 6.06922 4.06876ZM13.2567 13.1438C13.1442 13.0188 13.088 12.7688 13.0255 12.5C12.963 12.2375 12.9005 11.9563 12.6817 11.775C12.6045 11.7057 12.5157 11.6507 12.4192 11.6125C12.7192 10.725 12.6067 9.83751 12.2942 9.03751C11.9287 8.15385 11.4198 7.33661 10.788 6.61876C10.2255 5.91876 9.68797 5.25626 9.70047 4.27501C9.71297 2.77501 9.86297 0.00625869 7.23172 8.68509e-06C3.90047 -0.00624131 4.73172 3.36251 4.69422 4.40001C4.66809 5.1597 4.41322 5.89381 3.96297 6.50626C3.14961 7.43542 2.50833 8.5021 2.06922 9.65626C1.86729 10.2096 1.79877 10.8027 1.86922 11.3875C1.65672 11.575 1.49422 11.8688 1.33172 12.0438C1.19422 12.1875 0.994221 12.2375 0.775471 12.3188C0.556721 12.3938 0.319221 12.5063 0.175471 12.7875C0.106721 12.9125 0.0817207 13.05 0.0817207 13.1938C0.0817207 13.3188 0.100471 13.4438 0.119221 13.575C0.162971 13.8375 0.200471 14.0875 0.150471 14.2563C-0.0245292 14.725 -0.0432791 15.05 0.0754709 15.2875C0.200471 15.525 0.450471 15.625 0.731721 15.6875C1.29422 15.8 2.05672 15.775 2.66297 16.0938C3.30672 16.4313 3.95672 16.55 4.47547 16.4313C4.85672 16.3438 5.16297 16.1188 5.32547 15.775C5.73172 15.775 6.18172 15.6 6.89422 15.5563C7.38172 15.5188 7.98797 15.7313 8.68797 15.6938C8.76682 15.9948 8.95054 16.2578 9.20606 16.4354C9.46157 16.613 9.7721 16.6935 10.0817 16.6625C10.7061 16.5812 11.2726 16.2552 11.6567 15.7563C12.0942 15.2188 12.8255 15 13.313 14.7063C13.5505 14.5563 13.7505 14.375 13.763 14.1125C13.7755 13.8438 13.6192 13.55 13.263 13.1438H13.2567ZM6.88172 2.84376C7.20047 2.11876 7.99422 2.13126 8.31922 2.83126C8.52547 3.29376 8.43172 3.83126 8.17547 4.14376C8.11922 4.11876 7.98172 4.05626 7.76297 3.98126C7.80047 3.94376 7.86297 3.89376 7.88797 3.83126C8.04422 3.45001 7.88797 2.95626 7.59422 2.94376C7.35672 2.93126 7.14422 3.30001 7.21297 3.69376C7.0763 3.63218 6.93396 3.58404 6.78797 3.55001C6.75672 3.32501 6.77547 3.07501 6.88172 2.84376ZM5.55672 2.46876C5.88797 2.46876 6.23172 2.93126 6.18172 3.55626C6.06297 3.58751 5.95047 3.63751 5.84422 3.70626C5.88797 3.41876 5.73797 3.05626 5.53172 3.06876C5.26297 3.09376 5.21922 3.75626 5.47547 3.98126C5.50672 4.01251 5.53797 3.98126 5.28797 4.16876C4.77547 3.68751 4.94422 2.46876 5.55672 2.46876ZM5.11922 4.44376L5.57547 4.10001C5.72547 3.95626 6.01297 3.63751 6.48172 3.63751C6.71297 3.63751 6.98797 3.71251 7.32547 3.93126C7.53172 4.05626 7.69422 4.07501 8.06297 4.23126C8.33172 4.34376 8.50047 4.54376 8.40047 4.82501C8.31922 5.05626 8.04422 5.29376 7.66297 5.41251C7.30047 5.53126 7.01922 5.93126 6.41922 5.90001C6.29422 5.89376 6.19422 5.86251 6.10672 5.83126C5.84422 5.71876 5.71297 5.49376 5.45672 5.34376C5.17547 5.18751 5.02547 5.00001 4.97547 4.84376C4.93172 4.68126 4.97547 4.55001 5.11297 4.44376H5.11922ZM5.21922 15.3188C5.13172 16.4563 3.79422 16.4313 2.76922 15.9C1.80047 15.3875 0.537971 15.6875 0.281721 15.1875C0.200471 15.0375 0.200471 14.775 0.362971 14.3313V14.3188C0.444221 14.0688 0.387971 13.8 0.344221 13.5438C0.306721 13.2938 0.281721 13.0563 0.375471 12.8938C0.487971 12.675 0.650471 12.5938 0.856721 12.525C1.19422 12.4 1.23797 12.4125 1.49422 12.2C1.67547 12.0125 1.80672 11.7813 1.96297 11.6188C2.12547 11.4375 2.28797 11.3563 2.53797 11.3938C2.80047 11.4313 3.02547 11.6125 3.25047 11.9125L3.88797 13.0688C4.20047 13.7188 5.28797 14.65 5.21922 15.3188ZM5.17547 14.4688C5.04422 14.2563 4.86297 14.0313 4.70672 13.8313C4.93797 13.8313 5.16922 13.7625 5.25047 13.5438C5.32547 13.3438 5.25047 13.0563 5.01297 12.7313C4.57547 12.1438 3.76297 11.675 3.76297 11.675C3.38439 11.4607 3.09919 11.1131 2.96297 10.7C2.85739 10.329 2.85092 9.93679 2.94422 9.56251C3.11297 8.81251 3.55047 8.09376 3.83172 7.63751C3.90672 7.57501 3.85672 7.73751 3.55047 8.31251C3.26922 8.83751 2.75672 10.05 3.46297 11C3.48844 10.3093 3.64098 9.62918 3.91297 8.99376C4.30672 8.10001 5.12547 6.55626 5.19422 5.32501C5.22547 5.35001 5.34422 5.43126 5.39422 5.45626C5.54422 5.54376 5.65672 5.67501 5.80672 5.79376C6.20672 6.11876 6.73172 6.09376 7.18172 5.83126C7.38797 5.71876 7.55047 5.58751 7.70047 5.53751C8.02547 5.43751 8.28172 5.26251 8.42547 5.05001C8.72492 6.12733 9.1311 7.17208 9.63797 8.16876C9.83797 8.53751 10.2317 9.32501 10.4067 10.2688C10.513 10.2688 10.638 10.2813 10.763 10.3125C11.213 9.15001 10.3817 7.90001 10.0005 7.55001C9.85047 7.40001 9.84422 7.33751 9.91922 7.33751C10.4751 7.85786 10.8718 8.52544 11.063 9.26251C11.1567 9.63751 11.1692 10.0313 11.0755 10.425C11.613 10.6438 12.2442 11.0063 12.0755 11.55H11.938C12.0442 11.225 11.813 10.9875 11.2005 10.7063C10.563 10.425 10.0255 10.425 9.95047 11.1125C9.55672 11.25 9.35672 11.5875 9.25672 12C9.16939 12.4281 9.12128 12.8632 9.11297 13.3C9.09422 13.55 8.99422 13.8875 8.88797 14.2375C7.84422 14.9875 6.38797 15.3125 5.16922 14.475L5.17547 14.4688ZM13.5505 14.0938C13.5255 14.6438 12.213 14.7438 11.4942 15.6125C11.1457 16.0636 10.634 16.3599 10.0692 16.4375C9.84409 16.4636 9.61651 16.417 9.41973 16.3046C9.22295 16.1921 9.06729 16.0197 8.97547 15.8125C8.81922 15.45 8.89422 15.0625 9.01297 14.6313C9.13172 14.1688 9.31297 13.6938 9.33172 13.3125C9.35672 12.8125 9.38797 12.3813 9.46922 12.05C9.55672 11.7125 9.68172 11.4875 9.91297 11.3625L9.95047 11.3438C9.97547 11.7813 10.188 12.2125 10.563 12.3063C10.9692 12.4125 11.563 12.0625 11.813 11.775C12.1005 11.7688 12.3192 11.75 12.5442 11.9438C12.8692 12.2188 12.7755 12.9313 13.1067 13.2938C13.4442 13.6688 13.5567 13.9313 13.5442 14.1L13.5505 14.0938ZM5.23797 4.84376C5.30047 4.90626 5.39422 4.98751 5.50047 5.06876C5.71922 5.23751 6.01297 5.41876 6.38797 5.41876C6.76297 5.41876 7.12547 5.22501 7.42547 5.06251C7.58172 4.98126 7.78172 4.83751 7.90672 4.72501C8.03172 4.61251 8.09422 4.51876 8.00672 4.51251C7.91922 4.50001 7.92547 4.59376 7.81297 4.67501C7.66922 4.78126 7.50047 4.91876 7.36297 4.99376C7.11922 5.13126 6.72547 5.33126 6.38797 5.33126C6.05047 5.33126 5.77547 5.17501 5.57547 5.01251C5.47547 4.93126 5.38797 4.85001 5.32547 4.78751C5.27547 4.74376 5.26297 4.63751 5.18797 4.63126C5.13797 4.62501 5.12547 4.75001 5.24422 4.83751L5.23797 4.84376Z" fill="currentColor"/>
</svg>
