<svg width="12" height="26" viewBox="0 0 12 26" fill="none" xmlns="http://www.w3.org/2000/svg">
<path d="M3.54043 17.5498C2.80043 17.5498 2.22043 17.3798 1.80043 17.0398C1.38043 16.6798 1.17043 16.1298 1.17043 15.3898C1.17043 14.7298 1.38043 14.1098 1.80043 13.5298C2.22043 12.9298 2.76043 12.3398 3.42043 11.7598C4.10043 11.1798 4.80043 10.5898 5.52043 9.98984C6.34043 9.30984 7.07043 8.63984 7.71043 7.97984C8.35043 7.31984 8.67043 6.67984 8.67043 6.05984C8.67043 5.07984 8.12043 4.26984 7.02043 3.62984C5.94043 2.98984 4.36043 2.66984 2.28043 2.66984C2.14043 2.66984 1.98043 2.59984 1.80043 2.45984C1.64043 2.29984 1.56043 1.94984 1.56043 1.40984C1.56043 0.469843 2.13043 -0.000157952 3.27043 -0.000157952C5.05043 -0.000157952 6.54043 0.239843 7.74043 0.719844C8.96043 1.17984 9.88043 1.77984 10.5004 2.51984C11.1404 3.23984 11.4604 4.00984 11.4604 4.82984C11.4604 5.90984 11.2304 6.87984 10.7704 7.73984C10.3304 8.57984 9.76043 9.33984 9.06043 10.0198C8.38043 10.6798 7.67043 11.2898 6.93043 11.8498C6.03043 12.5098 5.28043 13.0998 4.68043 13.6198C4.10043 14.1198 3.81043 14.5298 3.81043 14.8498C3.81043 14.9498 3.92043 14.9998 4.14043 14.9998C4.50043 14.9998 4.85043 14.9698 5.19043 14.9098C5.55043 14.8298 5.88043 14.7898 6.18043 14.7898C6.30043 14.7898 6.41043 14.8298 6.51043 14.9098C6.61043 14.9898 6.66043 15.1698 6.66043 15.4498C6.66043 15.9498 6.40043 16.4298 5.88043 16.8898C5.38043 17.3298 4.60043 17.5498 3.54043 17.5498ZM4.29043 23.0098C4.29043 23.2898 4.21043 23.5298 4.05043 23.7298C3.91043 23.9298 3.69043 24.0698 3.39043 24.1498C3.25043 24.4898 3.03043 24.7298 2.73043 24.8698C2.45043 25.0098 2.08043 25.0798 1.62043 25.0798C1.14043 25.0798 0.75043 24.9398 0.45043 24.6598C0.15043 24.3998 0.000429899 24.0198 0.000429899 23.5198C0.000429899 22.7598 0.22043 22.1698 0.66043 21.7498C1.10043 21.3298 1.61043 21.1198 2.19043 21.1198C2.81043 21.1198 3.31043 21.2498 3.69043 21.5098C4.09043 21.7698 4.29043 22.2698 4.29043 23.0098Z" fill="currentColor"/>
</svg>
