<svg width="20" height="20" viewBox="0 0 20 20" fill="none" xmlns="http://www.w3.org/2000/svg">
<path d="M18.6274 9.7808L17.8962 9.3308C17.8962 9.2558 17.8837 9.18705 17.8774 9.11205L18.5024 8.52455C18.534 8.49567 18.5577 8.45915 18.5711 8.4185C18.5845 8.37785 18.5873 8.33443 18.5792 8.2924C18.571 8.25037 18.5522 8.21114 18.5245 8.17847C18.4969 8.14579 18.4613 8.12077 18.4212 8.1058L17.6149 7.79955C17.5953 7.73044 17.5745 7.66168 17.5524 7.5933L18.0524 6.8933C18.0775 6.85874 18.0933 6.81833 18.0984 6.77591C18.1034 6.73349 18.0975 6.69049 18.0812 6.651C18.0649 6.61151 18.0388 6.57686 18.0053 6.55035C17.9718 6.52384 17.9321 6.50635 17.8899 6.49955L17.0399 6.36205L16.9399 6.1683L17.2962 5.3808C17.3226 5.32252 17.3256 5.25634 17.3047 5.19589C17.2837 5.13543 17.2404 5.08529 17.1837 5.0558C17.1454 5.03464 17.1023 5.02387 17.0587 5.02455L16.1962 5.0558C16.1515 5.00066 16.1056 4.94648 16.0587 4.8933L16.2524 4.04955C16.2643 4.00651 16.2645 3.96106 16.2529 3.91792C16.2413 3.87479 16.2184 3.83555 16.1865 3.80429C16.1546 3.77303 16.1149 3.75088 16.0715 3.74016C16.0281 3.72943 15.9827 3.73052 15.9399 3.7433L15.1024 3.9433L14.9399 3.8058L14.9712 2.9433C14.9737 2.89943 14.9646 2.85567 14.9449 2.81642C14.9251 2.77717 14.8953 2.74382 14.8586 2.71973C14.8218 2.69565 14.7794 2.68168 14.7355 2.67924C14.6916 2.67679 14.6479 2.68596 14.6087 2.7058L13.8274 3.06205L13.6399 2.96205L13.4962 2.1058C13.4894 2.06363 13.4719 2.0239 13.4454 1.99041C13.4189 1.95691 13.3842 1.93077 13.3447 1.91447C13.3052 1.89818 13.2622 1.89227 13.2198 1.89732C13.1774 1.90237 13.137 1.9182 13.1024 1.9433L12.4024 2.4433C12.332 2.4212 12.2611 2.40037 12.1899 2.3808L11.8899 1.57455C11.8749 1.53444 11.8499 1.49885 11.8172 1.47118C11.7846 1.44351 11.7453 1.4247 11.7033 1.41655C11.6613 1.40839 11.6179 1.41117 11.5772 1.42461C11.5366 1.43805 11.5 1.4617 11.4712 1.4933L10.8774 2.12455L10.6649 2.1058L10.2087 1.3683C10.1862 1.33213 10.155 1.30227 10.1178 1.28157C10.0806 1.26087 10.0387 1.25 9.99616 1.25C9.9536 1.25 9.91174 1.26087 9.87455 1.28157C9.83736 1.30227 9.80608 1.33213 9.78366 1.3683L9.32741 2.1058C9.25651 2.1113 9.18567 2.11755 9.11491 2.12455L8.52116 1.4933C8.49227 1.4617 8.45576 1.43805 8.41511 1.42461C8.37446 1.41117 8.33104 1.40839 8.28901 1.41655C8.24698 1.4247 8.20775 1.44351 8.17507 1.47118C8.1424 1.49885 8.11738 1.53444 8.10241 1.57455L7.80241 2.38705L7.58991 2.44955L6.88991 1.9433C6.85535 1.9182 6.81493 1.90237 6.77251 1.89732C6.73009 1.89227 6.68709 1.89818 6.6476 1.91447C6.60812 1.93077 6.57346 1.95691 6.54695 1.99041C6.52044 2.0239 6.50295 2.06363 6.49616 2.1058L6.35866 2.96205L6.17116 3.06205L5.38366 2.7058C5.34445 2.68596 5.3007 2.67679 5.25683 2.67924C5.21295 2.68168 5.17049 2.69565 5.13373 2.71973C5.09697 2.74382 5.06721 2.77717 5.04745 2.81642C5.02768 2.85567 5.01862 2.89943 5.02116 2.9433L5.05241 3.8058L4.88991 3.9433L4.05241 3.74955C4.01001 3.73818 3.96536 3.73816 3.92295 3.74952C3.88055 3.76087 3.84188 3.78319 3.81084 3.81424C3.7798 3.84528 3.75748 3.88395 3.74612 3.92635C3.73477 3.96876 3.73478 4.0134 3.74616 4.0558L3.94616 4.89955L3.80866 5.06205L2.94616 5.0308C2.90313 5.02885 2.86032 5.03805 2.82189 5.05751C2.78346 5.07697 2.75072 5.10603 2.72682 5.14187C2.70293 5.17771 2.6887 5.21912 2.68552 5.26208C2.68234 5.30503 2.69031 5.34808 2.70866 5.38705L3.06491 6.17455L2.96491 6.36205L2.11491 6.5058C2.0722 6.51169 2.03174 6.52852 1.99745 6.55466C1.96317 6.5808 1.93623 6.61536 1.91924 6.65498C1.90226 6.69461 1.89581 6.73796 1.90053 6.78081C1.90525 6.82366 1.92096 6.86457 1.94616 6.89955L2.44616 7.59955L2.38366 7.8058L1.58366 8.11205C1.54308 8.12632 1.50687 8.15082 1.47852 8.18318C1.45018 8.21554 1.43067 8.25466 1.42187 8.29676C1.41307 8.33887 1.41529 8.38253 1.4283 8.42353C1.44131 8.46453 1.46469 8.50148 1.49616 8.5308L2.12741 9.1183L2.10866 9.33705L1.37116 9.78705C1.33208 9.80867 1.29951 9.84037 1.27683 9.87883C1.25415 9.9173 1.24219 9.96115 1.24219 10.0058C1.24219 10.0505 1.25415 10.0943 1.27683 10.1328C1.29951 10.1712 1.33208 10.2029 1.37116 10.2246L2.10866 10.6746L2.12741 10.8871L1.50241 11.4746C1.46927 11.5032 1.44427 11.5401 1.4299 11.5816C1.41553 11.623 1.41229 11.6674 1.42052 11.7105C1.42875 11.7535 1.44816 11.7937 1.47679 11.8268C1.50542 11.86 1.54228 11.8851 1.58366 11.8996L2.38991 12.1996L2.45241 12.4121L1.95241 13.1058C1.92576 13.1404 1.90864 13.1814 1.90276 13.2246C1.89687 13.2679 1.90242 13.312 1.91886 13.3524C1.93529 13.3929 1.96204 13.4283 1.99644 13.4553C2.03084 13.4822 2.07168 13.4996 2.11491 13.5058L2.96491 13.6433L3.06491 13.8308L2.70866 14.6183C2.69031 14.6573 2.68234 14.7003 2.68552 14.7433C2.6887 14.7862 2.70293 14.8276 2.72682 14.8635C2.75072 14.8993 2.78346 14.9284 2.82189 14.9478C2.86032 14.9673 2.90313 14.9765 2.94616 14.9746L3.80866 14.9496L3.94616 15.1121L3.75241 15.9496C3.74282 15.9909 3.74392 16.034 3.7556 16.0748C3.76728 16.1156 3.78916 16.1528 3.81917 16.1828C3.84918 16.2128 3.88634 16.2347 3.92715 16.2464C3.96795 16.258 4.01106 16.2591 4.05241 16.2496L4.89616 16.0558L5.05866 16.1933L5.03366 17.0558C5.03171 17.0988 5.04091 17.1416 5.06037 17.1801C5.07983 17.2185 5.10888 17.2512 5.14473 17.2751C5.18057 17.299 5.22197 17.3133 5.26493 17.3164C5.30789 17.3196 5.35094 17.3117 5.38991 17.2933L6.17116 16.9371L6.35866 17.0371L6.50241 17.8871C6.50768 17.9308 6.52442 17.9724 6.55095 18.0076C6.57747 18.0428 6.61283 18.0704 6.65344 18.0875C6.69405 18.1046 6.73847 18.1107 6.78219 18.1052C6.82591 18.0996 6.86739 18.0826 6.90241 18.0558L7.59616 17.5558L7.80866 17.6183L8.10866 18.4183C8.12293 18.4589 8.14742 18.4951 8.17978 18.5234C8.21214 18.5518 8.25126 18.5713 8.29337 18.5801C8.33547 18.5889 8.37914 18.5867 8.42014 18.5737C8.46113 18.5606 8.49808 18.5373 8.52741 18.5058L9.12116 17.8746L9.33366 17.8933L9.78991 18.6308C9.81233 18.667 9.84361 18.6968 9.8808 18.7175C9.91799 18.7382 9.95984 18.7491 10.0024 18.7491C10.045 18.7491 10.0868 18.7382 10.124 18.7175C10.1612 18.6968 10.1925 18.667 10.2149 18.6308L10.6712 17.8933C10.7462 17.8933 10.8149 17.8808 10.8837 17.8746L11.4774 18.4996C11.5063 18.5312 11.5428 18.5548 11.5835 18.5682C11.6241 18.5817 11.6675 18.5845 11.7096 18.5763C11.7516 18.5682 11.7908 18.5493 11.8235 18.5217C11.8562 18.494 11.8812 18.4584 11.8962 18.4183L12.1962 17.6121L12.4087 17.5496L13.1087 18.0496C13.1432 18.0747 13.1836 18.0905 13.2261 18.0955C13.2685 18.1006 13.3115 18.0947 13.351 18.0784C13.3904 18.0621 13.4251 18.0359 13.4516 18.0024C13.4781 17.969 13.4956 17.9292 13.5024 17.8871L13.6399 17.0371L13.8274 16.9371L14.6149 17.2933C14.6541 17.3132 14.6979 17.3223 14.7417 17.3199C14.7856 17.3174 14.8281 17.3035 14.8648 17.2794C14.9016 17.2553 14.9314 17.2219 14.9511 17.1827C14.9709 17.1434 14.9799 17.0997 14.9774 17.0558L14.9462 16.1933L15.1087 16.0558L15.9524 16.2496C15.9938 16.2591 16.0369 16.258 16.0777 16.2464C16.1185 16.2347 16.1556 16.2128 16.1856 16.1828C16.2157 16.1528 16.2375 16.1156 16.2492 16.0748C16.2609 16.034 16.262 15.9909 16.2524 15.9496L16.0587 15.1058L16.1899 14.9433L17.0587 14.9683C17.1017 14.9703 17.1445 14.9611 17.1829 14.9416C17.2214 14.9221 17.2541 14.8931 17.278 14.8572C17.3019 14.8214 17.3161 14.78 17.3193 14.737C17.3225 14.6941 17.3145 14.651 17.2962 14.6121L16.9399 13.8308L17.0399 13.6433L17.8899 13.4996C17.9337 13.4943 17.9753 13.4775 18.0105 13.451C18.0457 13.4245 18.0732 13.3891 18.0904 13.3485C18.1075 13.3079 18.1136 13.2635 18.108 13.2198C18.1024 13.176 18.0854 13.1346 18.0587 13.0996L17.5587 12.4058L17.6212 12.1933L18.4212 11.8933C18.463 11.8796 18.5005 11.855 18.5298 11.8222C18.5591 11.7893 18.5792 11.7493 18.5881 11.7062C18.597 11.663 18.5943 11.6183 18.5804 11.5766C18.5664 11.5348 18.5417 11.4974 18.5087 11.4683L17.8774 10.8808L17.8962 10.6683L18.6337 10.2121C18.6713 10.19 18.7024 10.1585 18.7241 10.1207C18.7457 10.0828 18.7571 10.04 18.7571 9.99643C18.7571 9.95284 18.7457 9.91001 18.7241 9.87219C18.7024 9.83436 18.6713 9.80286 18.6337 9.7808H18.6274ZM13.7149 15.8746C13.6412 15.857 13.5723 15.8234 13.513 15.7764C13.4536 15.7293 13.4053 15.6698 13.3714 15.602C13.3375 15.5343 13.3189 15.4599 13.3168 15.3842C13.3147 15.3085 13.3293 15.2332 13.3594 15.1637C13.3895 15.0942 13.4345 15.0322 13.4912 14.9819C13.5478 14.9316 13.6148 14.8944 13.6874 14.8728C13.76 14.8512 13.8365 14.8457 13.9114 14.8568C13.9863 14.8679 14.0579 14.8953 14.1212 14.9371C14.2229 15.0042 14.2978 15.1051 14.3326 15.222C14.3674 15.3389 14.3598 15.4643 14.3114 15.5762C14.2629 15.6881 14.1765 15.7794 14.0674 15.8339C13.9583 15.8885 13.8335 15.9029 13.7149 15.8746ZM13.4649 14.1871C13.4038 14.1743 13.3407 14.1736 13.2793 14.1852C13.2179 14.1969 13.1594 14.2205 13.1072 14.2547C13.0549 14.289 13.0099 14.3332 12.9748 14.3849C12.9397 14.4365 12.9151 14.4946 12.9024 14.5558L12.6462 15.7683C11.8078 16.1509 10.8962 16.3469 9.97466 16.3426C9.05308 16.3383 8.14344 16.1338 7.30866 15.7433L7.05241 14.5308C7.03976 14.4696 7.01516 14.4115 6.98003 14.3599C6.94489 14.3082 6.89991 14.264 6.84766 14.2297C6.79541 14.1955 6.73692 14.1719 6.67553 14.1602C6.61414 14.1486 6.55106 14.1493 6.48991 14.1621L5.41491 14.3933C5.21491 14.1871 5.02741 13.9683 4.85241 13.7433H10.0837C10.1462 13.7433 10.1837 13.7308 10.1837 13.6808V11.8246C10.1837 11.7746 10.1462 11.7621 10.0837 11.7621H8.56491V10.5871H10.2149C10.3649 10.5871 11.0274 10.6308 11.2337 11.4683C11.2962 11.7308 11.4399 12.5683 11.5462 12.8371C11.6399 13.1371 12.0399 13.7433 12.4649 13.7433H15.0712L15.1649 13.7308C14.9837 13.9808 14.7899 14.2058 14.5712 14.4246L13.4712 14.1871H13.4649ZM6.23991 15.8496C6.17342 15.8651 6.10452 15.8675 6.03713 15.8565C5.96975 15.8454 5.90519 15.8212 5.84715 15.7852C5.78912 15.7493 5.73874 15.7022 5.69889 15.6467C5.65904 15.5913 5.6305 15.5285 5.61491 15.4621C5.59931 15.3956 5.59696 15.3267 5.608 15.2593C5.61903 15.1919 5.64323 15.1273 5.67921 15.0693C5.7152 15.0113 5.76226 14.9609 5.81771 14.921C5.87317 14.8812 5.93593 14.8526 6.00241 14.8371C6.13667 14.8056 6.27795 14.8287 6.39516 14.9014C6.51237 14.974 6.59591 15.0903 6.62741 15.2246C6.6589 15.3588 6.63577 15.5001 6.5631 15.6173C6.49043 15.7345 6.37417 15.8181 6.23991 15.8496ZM4.25241 7.81205C4.31208 7.93637 4.31992 8.07931 4.27421 8.20941C4.2285 8.33951 4.13298 8.44613 4.00866 8.5058C3.88434 8.56548 3.7414 8.57332 3.6113 8.52761C3.4812 8.4819 3.37458 8.38637 3.31491 8.26205C3.25523 8.13773 3.24739 7.9948 3.2931 7.8647C3.33881 7.73459 3.43434 7.62798 3.55866 7.5683C3.68298 7.50863 3.82591 7.50079 3.95601 7.5465C4.08612 7.59221 4.19273 7.68773 4.25241 7.81205ZM3.64616 9.24955L4.76491 8.7558C4.87888 8.70396 4.96777 8.60921 5.01224 8.49217C5.05672 8.37512 5.05318 8.24525 5.00241 8.1308L4.77741 7.61205H5.68366V11.6933H3.85241C3.6285 10.9015 3.55848 10.074 3.64616 9.2558V9.24955ZM8.55866 8.8558V7.6558H10.7149C10.8274 7.6558 11.5024 7.7808 11.5024 8.28705C11.5024 8.7058 10.9837 8.8558 10.5587 8.8558H8.55866ZM16.4024 9.9433L16.3837 10.4183H15.7274C15.6649 10.4183 15.6337 10.4621 15.6337 10.5246V10.8246C15.6337 11.5371 15.2337 11.6871 14.8837 11.7308C14.5524 11.7683 14.1774 11.5871 14.1337 11.3871C13.9399 10.2746 13.6087 10.0371 13.0899 9.63705C13.7337 9.22455 14.4024 8.6183 14.4024 7.81205C14.4024 6.9433 13.8087 6.3933 13.4024 6.12455C12.9905 5.85852 12.5169 5.70351 12.0274 5.67455H5.23991C6.17725 4.62693 7.43372 3.91742 8.81491 3.6558L9.61491 4.4933C9.65824 4.53873 9.71015 4.57511 9.76763 4.60035C9.82512 4.62559 9.88703 4.63918 9.9498 4.64034C10.0126 4.64151 10.0749 4.63022 10.1333 4.60712C10.1917 4.58403 10.2449 4.54959 10.2899 4.5058L11.1837 3.64955C12.0959 3.82194 12.9597 4.19074 13.7152 4.73036C14.4707 5.26999 15.0997 5.96752 15.5587 6.77455L14.9462 8.1558C14.8958 8.27103 14.8931 8.40153 14.9388 8.51869C14.9845 8.63585 15.0748 8.73011 15.1899 8.7808L16.3649 9.3058C16.3899 9.5183 16.3962 9.72455 16.3962 9.9433H16.4024ZM9.62116 2.93705C9.66906 2.88404 9.7274 2.84149 9.79252 2.81207C9.85764 2.78266 9.92813 2.76701 9.99958 2.76612C10.071 2.76523 10.1419 2.7791 10.2077 2.80688C10.2736 2.83466 10.3329 2.87574 10.3822 2.92754C10.4314 2.97934 10.4694 3.04076 10.4937 3.10793C10.5181 3.1751 10.5283 3.24658 10.5238 3.31789C10.5192 3.3892 10.5 3.4588 10.4673 3.52232C10.4345 3.58585 10.3891 3.64193 10.3337 3.68705C10.2323 3.76962 10.1035 3.81086 9.97301 3.80252C9.84253 3.79419 9.72002 3.7369 9.62997 3.64212C9.53993 3.54733 9.48899 3.42204 9.48736 3.29131C9.48572 3.16059 9.53351 3.03406 9.62116 2.93705ZM15.6962 7.8308C15.7335 7.74333 15.7941 7.6678 15.8714 7.61245C15.9487 7.55711 16.0398 7.52408 16.1346 7.51699C16.2294 7.50989 16.3244 7.529 16.4091 7.57222C16.4938 7.61544 16.565 7.68111 16.6149 7.76205C16.6612 7.83816 16.6871 7.92491 16.6902 8.01394C16.6932 8.10297 16.6733 8.19129 16.6323 8.27039C16.5913 8.34949 16.5307 8.41669 16.4562 8.46554C16.3817 8.51438 16.2958 8.54322 16.207 8.54926C16.1181 8.55531 16.0291 8.53836 15.9487 8.50006C15.8683 8.46175 15.7991 8.40338 15.7477 8.33057C15.6964 8.25775 15.6647 8.17294 15.6557 8.08432C15.6466 7.99569 15.6606 7.90623 15.6962 7.82455V7.8308Z" fill="currentColor"/>
</svg>
