<svg width="20" height="20" viewBox="0 0 20 20" fill="none" xmlns="http://www.w3.org/2000/svg">
<path d="M16.4375 2C17.3004 2 18 2.69956 18 3.5625V16.4375C18 17.3004 17.3004 18 16.4375 18H3.5625C2.69956 18 2 17.3004 2 16.4375V3.5625C2 2.69956 2.69956 2 3.5625 2H16.4375ZM14.6289 9.4375C14.2572 9.4375 13.9048 9.47779 13.5723 9.55762C13.2397 9.63746 12.9471 9.76217 12.6943 9.93164C12.4417 10.1011 12.2414 10.3168 12.0947 10.5791C11.9481 10.8414 11.875 11.1556 11.875 11.5205C11.8751 11.9863 12.0095 12.3838 12.2783 12.7129C12.5473 13.042 12.9561 13.3207 13.5039 13.5488C13.719 13.6368 13.9197 13.7229 14.1055 13.8076C14.2913 13.8924 14.4517 13.981 14.5869 14.0723C14.7221 14.1635 14.829 14.2626 14.9072 14.3701C14.9855 14.4776 15.0244 14.6004 15.0244 14.7373C15.0244 14.8381 14.9999 14.9314 14.9512 15.0176C14.9023 15.104 14.828 15.1796 14.7285 15.2432C14.6292 15.3066 14.5054 15.3558 14.3574 15.3916C14.209 15.4275 14.0348 15.4453 13.8359 15.4453C13.4971 15.4453 13.1615 15.3864 12.8291 15.2676C12.4966 15.1487 12.1879 14.9703 11.9043 14.7324V16.2969C12.1586 16.4272 12.4595 16.5247 12.8066 16.5898C13.1538 16.655 13.5197 16.6875 13.9043 16.6875C14.2793 16.6875 14.6362 16.6518 14.9736 16.5801C15.311 16.5084 15.6071 16.3901 15.8613 16.2256C16.1155 16.061 16.3165 15.8456 16.4648 15.5801C16.6132 15.3145 16.6875 14.9858 16.6875 14.5947C16.6875 14.3114 16.6453 14.063 16.5605 13.8496C16.4758 13.6362 16.3531 13.4465 16.1934 13.2803C16.0337 13.1141 15.8423 12.965 15.6191 12.833C15.3958 12.701 15.1436 12.5763 14.8633 12.459C14.6579 12.3742 14.4736 12.2918 14.3105 12.2119C14.1475 12.132 14.0087 12.0509 13.8945 11.9678C13.7804 11.8847 13.6928 11.796 13.6309 11.7031C13.569 11.6103 13.5381 11.505 13.5381 11.3877C13.5382 11.2804 13.5658 11.1839 13.6211 11.0977C13.6765 11.0114 13.7546 10.9369 13.8555 10.875C13.9566 10.8131 14.0808 10.7647 14.2275 10.7305C14.3743 10.6963 14.5375 10.6797 14.7168 10.6797C14.8471 10.6797 14.9849 10.6895 15.1299 10.709C15.2749 10.7285 15.4207 10.7581 15.5674 10.7988C15.714 10.8396 15.8566 10.8913 15.9951 10.9531C16.1335 11.015 16.2616 11.0866 16.3789 11.168V9.70605C16.1411 9.61494 15.8813 9.54788 15.5996 9.50391C15.3177 9.45992 14.9939 9.43752 14.6289 9.4375ZM5.6875 10.8779H7.68457V16.5938H9.27441V10.8779H11.2812V9.59375H5.6875V10.8779Z" fill="currentColor"/>
</svg>
