<svg viewBox="0 0 22 20" fill="none" xmlns="http://www.w3.org/2000/svg">
  <path
    d="M5.71 12.72c-.67.14-1.34.28-2.01.41-.7.16-1.41.24-2.13.23a1.1 1.1 0 01-.45-.12 1.1 1.1 0 01-.34-.32c-.24-.32-.38-.69-.43-1.08a8.5 8.5 0 00-.31-1.52c-.03-.13-.03-.27 0-.4.03-.13.1-.25.19-.35l.14-.2c.95-.14 1.87-.28 2.79-.42.67-.1 1.33-.23 2-.33.29-.04.57-.03.86-.06.21-.02.42-.06.69-.09-.25-.26-.47-.47-.67-.68C4.88 6.62 3.73 5.43 2.59 4.24a.18.18 0 01-.1-.16.17.17 0 01.03-.19c.1-.38.39-.64.59-.95.21-.22.49-.36.79-.39.4-.09.81-.14 1.21-.25.14-.05.3-.06.45-.03.15.03.29.1.4.21.33.31.65.64.96.96.1.1.18.21.26.32l.09-.05c0-.07.01-.14.01-.21-.05-.87-.01-1.75.11-2.62.02-.14.01-.29-.03-.43l-.01-.08c.01-.03.02-.05.04-.08a.15.15 0 01.1-.07c.12-.05.23-.13.37-.2l2.31.28c.14.02.27.05.4.09.12.03.23.1.32.18.09.09.16.19.2.31.16.48.22.97.18 1.5 0 1.23 0 2.46-.02 3.68v.35l.22-.18c.81-.97 1.62-1.93 2.43-2.9l2.42-2.88c.32.16.66.14.92.39.11.08.19.2.24.33.05.13.05.26.03.39-.02.09-.02.19 0 .28.02.09.06.18.11.25.05.08.09.17.12.26a.27.27 0 01-.04.36c-.19.13-.38.28-.55.44-.09.08-.17.18-.23.28-.49 1-.25 1.8-.91 2.67-.2.26-.42.51-.62.77-.08.13-.15.26-.21.39.32-.04.57-.06.82-.1l4.78-.72c.13-.02.29-.1.38-.05.19.1.35.25.47.43.02.06.06.1.11.14.05.03.11.05.17.05.18.03.35.1.48.22.14.12.23.27.28.45.13.43.24.87.32 1.31.03.16.05.32.07.48.06.39-.09.54-.48.58-.7.07-1.4.14-2.08.28-1.46.28-2.91.58-4.37.88l-.13.05c.05.1.12.19.19.28 1.03 1.09 2.13 2.11 3.29 3.07.31.25.63.48.93.74.13.12.23.27.3.43.02.04.03.09.03.14s-.01.1-.03.14c-.37.71-.79 1.39-1.5 1.82-.16.11-.35.19-.54.22-.2.03-.4.02-.59-.04a1.3 1.3 0 00-.48.07c-.08.02-.16.02-.24-.01a.33.33 0 01-.19-.14c-.75-.78-1.49-1.56-2.25-2.31-.57-.55-1.14-1.06-1.73-1.58-.19-.17-.36-.35-.62-.59 0 .36-.02.62 0 .89.13 1.36.26 2.72.4 4.08.03.13.05.26.05.4-.03.13-.09.25-.18.34a.56.56 0 01-.33.19c-.45.18-.91.31-1.35.5-.12.05-.25.07-.38.07a.72.72 0 01-.37-.12c-.13-.07-.25-.15-.39-.24l-.57-4.92c-.07.07-.14.14-.2.22-.67.92-1.34 1.85-2 2.77-.46.65-.92 1.3-1.36 1.95a.52.52 0 01-.46.39.52.52 0 01-.6-.03c-.63-.21-1.22-.53-1.73-.95-.08-.06-.15-.12-.21-.19a.52.52 0 010-.83c.56-.63 1.09-1.29 1.58-1.98.52-.77 1.12-1.48 1.67-2.23.24-.31.45-.64.68-.96l-.01-.08z"
    fill="currentColor"
  />
</svg>
