<svg xmlns="http://www.w3.org/2000/svg" width="20" height="20" viewBox="0 0 20 20" fill="none">
<path fill-rule="evenodd" clip-rule="evenodd" d="M9.9974 3.33594C10.7099 3.33594 11.4407 3.35427 12.1491 3.38427L12.9857 3.42427L13.7866 3.47177L14.5366 3.5226L15.2216 3.57594C15.9651 3.63251 16.6647 3.94963 17.1974 4.47144C17.73 4.99325 18.0614 5.68627 18.1332 6.42844L18.1666 6.7826L18.2291 7.54094C18.2874 8.32677 18.3307 9.18344 18.3307 10.0026C18.3307 10.8218 18.2874 11.6784 18.2291 12.4643L18.1666 13.2226L18.1332 13.5768C18.0614 14.3191 17.7298 15.0122 17.197 15.534C16.6642 16.0558 15.9644 16.3729 15.2207 16.4293L14.5374 16.4818L13.7874 16.5334L12.9857 16.5809L12.1491 16.6209C11.4323 16.652 10.7149 16.6681 9.9974 16.6693C9.27992 16.6681 8.56254 16.652 7.84573 16.6209L7.00906 16.5809L6.20823 16.5334L5.45823 16.4818L4.77323 16.4293C4.02974 16.3727 3.33006 16.0556 2.79743 15.5338C2.2648 15.012 1.93339 14.3189 1.86156 13.5768L1.82823 13.2226L1.76573 12.4643C1.70226 11.6452 1.66835 10.8241 1.66406 10.0026C1.66406 9.18344 1.7074 8.32677 1.76573 7.54094L1.82823 6.7826L1.86156 6.42844C1.93336 5.6864 2.26466 4.99348 2.79712 4.47169C3.32957 3.9499 4.02906 3.6327 4.7724 3.57594L5.45656 3.5226L6.20656 3.47177L7.00823 3.42427L7.8449 3.38427C8.56198 3.35321 9.27964 3.3371 9.9974 3.33594ZM8.33073 7.98177V12.0234C8.33073 12.4084 8.7474 12.6484 9.08073 12.4568L12.5807 10.4359C12.6569 10.3921 12.7202 10.329 12.7641 10.2529C12.8081 10.1768 12.8313 10.0905 12.8313 10.0026C12.8313 9.91473 12.8081 9.8284 12.7641 9.75233C12.7202 9.67625 12.6569 9.61311 12.5807 9.56927L9.08073 7.54927C9.0047 7.50537 8.91845 7.48227 8.83065 7.48228C8.74285 7.4823 8.65661 7.50543 8.58059 7.54935C8.50457 7.59327 8.44146 7.65644 8.3976 7.73249C8.35373 7.80855 8.33067 7.89481 8.33073 7.9826V7.98177Z" fill="currentColor"/>
</svg>
