<svg width="87" height="70" viewBox="0 0 87 70" fill="none" xmlns="http://www.w3.org/2000/svg">
<path d="M38.6552 6.48499e-05C38.1027 6.48499e-05 37.6522 0.449142 37.6522 1.00306C37.6522 1.55697 37.6522 10.8035 37.6522 10.8035C37.6522 11.356 38.1013 11.7816 38.6552 11.7816L43.4145 11.8065C45.3808 11.8065 47.2536 12.5743 48.6887 13.9669C50.1323 15.3694 50.9384 17.2209 50.961 19.183C50.9837 21.1933 50.2173 23.0859 48.8049 24.5139C47.3925 25.9419 45.5083 26.7281 43.4995 26.7281H43.4145C41.4524 26.7055 39.6009 25.8994 38.1984 24.4558C36.8058 23.0222 36.0159 21.1479 36.0159 19.1816V14.3664C36.0159 13.8139 35.5889 13.4179 35.035 13.4179H25.2374C24.6849 13.4179 24.2344 13.8125 24.2344 14.3664V24.1668C24.2344 24.7193 24.6835 25.1994 25.2374 25.1994H32.9709C34.0107 25.1994 34.6808 25.184 35.2333 25.2591C35.9671 25.3582 36.4587 25.5679 36.8299 25.9376C37.201 26.3074 37.4093 26.8004 37.5085 27.5342C37.5835 28.0881 37.6522 28.7568 37.6522 29.798V37.5301C37.6522 38.0826 38.0468 38.6172 38.6007 38.6172H43.5009C45.701 38.6172 47.8614 38.1634 49.9226 37.4352C57.6051 34.7195 62.7674 27.418 62.7674 19.2666C62.7674 11.1152 57.6051 3.81371 49.9226 1.09797C47.8614 0.369812 45.701 6.48499e-05 43.5009 6.48499e-05H38.6566H38.6552Z" fill="var(--color-logo-object)"/>
<path d="M72.237 59.2736H72.2015L71.3873 69.6813H69.1562L69.9705 56.8087H73.3525L78.0298 66.7597L82.778 56.8087H86.0891L86.9034 69.6813H84.6724L83.8581 59.2736H83.8227L79.0391 69.6813H77.0383L72.237 59.2736Z" fill="var(--color-logo-text)"/>
<path d="M65.2007 64.1569C65.2007 65.1957 65.0413 66.0869 64.7226 66.8306C64.4039 67.5625 63.9494 68.1645 63.3592 68.6367C62.769 69.1088 62.0489 69.4571 61.199 69.6813C60.3609 69.8938 59.4165 70.0001 58.366 70.0001C57.3154 70.0001 56.3651 69.8938 55.5152 69.6813C54.6771 69.4571 53.9629 69.1088 53.3727 68.6367C52.7825 68.1645 52.328 67.5625 52.0093 66.8306C51.6906 66.0869 51.5312 65.1957 51.5312 64.1569V56.8087H54.0456V63.9798C54.0456 64.511 54.1046 65.0127 54.2226 65.4849C54.3407 65.9453 54.5591 66.3525 54.8778 66.7066C55.1965 67.0608 55.6333 67.3382 56.1881 67.5388C56.7547 67.7395 57.4806 67.8399 58.366 67.8399C59.2513 67.8399 59.9713 67.7395 60.5261 67.5388C61.0927 67.3382 61.5354 67.0608 61.8541 66.7066C62.1728 66.3525 62.3912 65.9453 62.5093 65.4849C62.6273 65.0127 62.6863 64.511 62.6863 63.9798V56.8087H65.2007V64.1569Z" fill="var(--color-logo-text)"/>
<path d="M39.364 58.9689H33.6094V56.8087H47.6329V58.9689H41.8783V69.6813H39.364V58.9689Z" fill="var(--color-logo-text)"/>
<path d="M23.4483 56.8087H26.3167L32.5671 69.6813H29.9112L28.5655 66.7243H21.1465L19.7831 69.6813H17.1094L23.4483 56.8087ZM27.5739 64.5642L24.8825 58.8273L22.1911 64.5642H27.5739Z" fill="var(--color-logo-text)"/>
<path d="M0 56.8087H6.19728C7.21245 56.8087 8.1627 56.9268 9.04802 57.1628C9.94515 57.3871 10.7242 57.7531 11.3853 58.2606C12.0463 58.7564 12.5657 59.4116 12.9434 60.2261C13.333 61.0288 13.5278 62.0085 13.5278 63.1653C13.5278 64.2631 13.3507 65.2193 12.9966 66.0338C12.6424 66.8483 12.1467 67.527 11.5092 68.07C10.8718 68.613 10.1104 69.0203 9.22508 69.2918C8.33976 69.5515 7.3659 69.6813 6.30351 69.6813H0V56.8087ZM5.06406 67.5211C6.13825 67.5211 7.04719 67.4385 7.79086 67.2733C8.54634 67.108 9.16016 66.8483 9.63233 66.4942C10.1163 66.14 10.4645 65.6915 10.677 65.1485C10.9013 64.6055 11.0134 63.9562 11.0134 63.2008C11.0134 62.4099 10.9013 61.7488 10.677 61.2176C10.4527 60.6746 10.0986 60.2379 9.61463 59.9074C9.14245 59.5768 8.52863 59.3407 7.77315 59.1991C7.01768 59.0456 6.11464 58.9689 5.06406 58.9689H2.51432V67.5211H5.06406Z" fill="var(--color-logo-text)"/>
</svg>
