<svg preserveAspectRatio="none" width="100%" height="100%" overflow="visible" style="display: block;" viewBox="0 0 24 20" fill="none" xmlns="http://www.w3.org/2000/svg">
<path id="Vector" d="M12.6862 0.407931C12.5404 0.610886 12.3946 0.822217 12.3599 0.860147C11.5656 1.7232 11.5398 1.87886 12.2349 2.65719C12.9435 3.45078 13.8886 4.12763 14.6789 4.85225C14.9021 5.07393 15.4971 5.59117 15.4971 5.59117C15.7202 5.88673 16.0177 6.10841 16.3152 6.33008C16.4639 6.47787 16.7614 6.69954 16.7614 6.69954C17.0391 6.99708 17.3173 7.27836 17.5954 7.56506C15.8129 7.52171 14.1444 8.09018 12.3936 8.00545C10.1356 7.89609 7.89388 7.88131 5.63335 7.91431C4.34715 7.93303 2.91467 7.56555 1.66417 7.99609C0.369037 8.4419 -0.496696 10.0542 0.315487 11.3473C0.788517 12.0971 2.51403 11.5335 3.1735 11.4508C4.19493 11.3222 5.0086 11.5685 6.01069 11.6384C8.94208 11.8434 12.1204 11.6419 15.0513 11.4286C16.0519 11.3291 17.0183 11.3601 17.9743 11.3483C17.7685 11.6207 17.5627 11.8892 17.357 12.0936C16.9851 12.4631 16.1669 13.1281 16.1669 13.202C16.0182 13.3498 15.6463 13.6453 15.6463 13.6453C14.4563 14.6059 13.2663 15.5665 12.0763 16.5271C11.8531 16.7488 11.5556 16.9704 11.4069 17.266C11.3325 17.4138 11.2581 17.7094 11.2581 17.7094L11.3524 17.498C11.1912 18.07 11.4153 18.6296 11.936 18.9522C11.9335 18.9567 11.9295 18.9611 11.9275 18.9655C11.9275 19.1133 11.9275 19.4089 11.9275 19.4089L11.9548 19.3C11.9652 19.6729 12.225 20 12.7457 20C13.0432 19.9261 13.4894 19.5566 13.6382 19.4089C13.7125 19.335 13.8613 19.1133 13.9357 19.1133C14.605 19.0394 15.4232 18.1527 15.9438 17.7094C16.0926 17.5616 16.3157 17.4877 16.4644 17.266C16.5388 17.1921 16.7619 16.8966 16.7619 16.8966C17.1338 16.601 17.4313 16.3054 17.7288 15.936C17.8032 15.8621 18.0263 15.7143 18.0263 15.7143C18.6957 15.1971 19.5882 14.6798 20.1832 14.0887C20.4807 13.7192 20.8526 13.3498 21.1501 13.0542C21.3732 12.8325 21.6707 12.4631 21.6707 12.4631C22.1616 11.9754 22.5861 11.4833 23.007 10.8719C23.5941 10.9734 24.2526 10.6315 23.902 9.87687C23.4558 9.06407 22.2658 8.32515 21.5964 7.80791C19.6626 6.10841 17.8032 4.26112 15.7951 2.63551C15.2834 2.22123 13.6456 -0.159062 13.0119 0.00842551C12.9723 0.0182777 12.8295 0.208917 12.6862 0.407931ZM20.7034 10.837C20.6781 10.8621 20.6389 10.904 20.6027 10.9434C20.6201 10.8813 20.629 10.837 20.629 10.837C20.629 10.7961 20.6498 10.7591 20.6696 10.7306C20.6949 10.7522 20.7202 10.7719 20.746 10.7921C20.7331 10.8084 20.7158 10.8207 20.7034 10.837Z" fill="var(--fill-0, #0C1D31)"/>
</svg>
