<svg width="100" height="20" viewBox="0 0 100 20" fill="none" xmlns="http://www.w3.org/2000/svg">
<path d="M7.45501 0.00158119C7.16939 0.00158119 6.93646 0.232258 6.93646 0.516743C6.93646 0.801229 6.93646 5.55037 6.93646 5.55037C6.93646 5.83414 7.16862 6.05275 7.45501 6.05275L9.91536 6.06554C10.9319 6.06554 11.9 6.45991 12.6419 7.17515C13.3882 7.89551 13.8049 8.8465 13.8166 9.85424C13.8284 10.8867 13.4322 11.8588 12.702 12.5922C11.9718 13.3257 10.9978 13.7295 9.95932 13.7295H9.91536C8.90108 13.7179 7.94385 13.3039 7.21883 12.5624C6.49894 11.8261 6.09056 10.8634 6.09056 9.85351V7.38035C6.09056 7.09659 5.86983 6.89318 5.58349 6.89318H0.518504C0.23289 6.89318 0 7.09586 0 7.38035V12.414C0 12.6978 0.232151 12.9443 0.518504 12.9443H4.51644C5.05398 12.9443 5.40038 12.9364 5.686 12.975C6.06535 13.0259 6.31952 13.1336 6.5114 13.3235C6.70328 13.5134 6.81093 13.7666 6.86216 14.1435C6.90098 14.4281 6.93646 14.7715 6.93646 15.3063V19.2776C6.93646 19.5614 7.14046 19.8359 7.42685 19.8359H9.96004C11.0974 19.8359 12.2142 19.6028 13.2798 19.2288C17.2514 17.834 19.9201 14.0839 19.9201 9.89719C19.9201 5.71045 17.2514 1.96031 13.2798 0.565485C12.2142 0.191481 11.0974 0.00158119 9.96004 0.00158119H7.45574H7.45501Z" fill="#0C1D31"/>
<path d="M88.7564 7.07942H88.7292L88.1049 15.0234H86.3945L87.0188 5.19796H89.6113L93.1969 12.7934L96.8368 5.19796H99.3751L99.9993 15.0234H98.2894L97.6651 7.07942H97.638L93.9709 15.0234H92.437L88.7564 7.07942Z" fill="#0C1D31"/>
<path d="M83.3732 10.8017C83.3732 11.5946 83.251 12.2749 83.0068 12.8425C82.7625 13.4012 82.414 13.8607 81.9618 14.2211C81.5091 14.5815 80.9571 14.8473 80.3057 15.0184C79.6635 15.1806 78.9394 15.2617 78.1339 15.2617C77.3288 15.2617 76.6003 15.1806 75.9485 15.0184C75.3063 14.8473 74.7586 14.5815 74.3064 14.2211C73.8537 13.8607 73.5052 13.4012 73.2609 12.8425C73.0167 12.2749 72.8945 11.5946 72.8945 10.8017V5.19296H74.8221V10.6666C74.8221 11.072 74.8672 11.455 74.9578 11.8154C75.0484 12.1668 75.2156 12.4776 75.4599 12.7479C75.7042 13.0182 76.0391 13.23 76.4646 13.3832C76.8989 13.5363 77.4553 13.6129 78.1339 13.6129C78.8129 13.6129 79.3644 13.5363 79.79 13.3832C80.2243 13.23 80.5635 13.0182 80.8078 12.7479C81.0521 12.4776 81.2198 12.1668 81.3104 11.8154C81.4006 11.455 81.4461 11.072 81.4461 10.6666V5.19296H83.3732V10.8017Z" fill="#0C1D31"/>
<path d="M63.5482 6.84681H59.1367V5.19796H69.8868V6.84681H65.4753V15.0234H63.5482V6.84681Z" fill="#0C1D31"/>
<path d="M54.5179 11.1176L52.4552 6.73871L50.3919 11.1176H54.5179ZM51.3554 5.19796H53.5544L58.3459 15.0234H56.3098L55.2784 12.7664H49.5907L48.5458 15.0234H46.4961L51.3554 5.19796Z" fill="#0C1D31"/>
<path d="M37.2492 13.3746C38.0727 13.3746 38.7695 13.3116 39.3395 13.1854C39.9187 13.0593 40.389 12.861 40.7511 12.5907C41.1224 12.3204 41.3889 11.978 41.5523 11.5636C41.7238 11.1491 41.8101 10.6536 41.8101 10.0769C41.8101 9.47325 41.7238 8.9687 41.5523 8.56323C41.3802 8.14879 41.1088 7.81542 40.7375 7.56312C40.3755 7.31082 39.9051 7.13062 39.326 7.02252C38.7468 6.9054 38.0546 6.84681 37.2492 6.84681H35.2946V13.3746H37.2492ZM33.3672 5.19796H38.1179C38.8962 5.19796 39.6246 5.28806 40.3033 5.46825C40.991 5.63948 41.5881 5.9188 42.0951 6.30622C42.6016 6.68462 43 7.18467 43.2893 7.80639C43.5879 8.41908 43.7372 9.1669 43.7372 10.0499C43.7372 10.8878 43.6015 11.6176 43.33 12.2393C43.0586 12.861 42.6786 13.3791 42.1901 13.7936C41.7015 14.2081 41.1175 14.5189 40.439 14.7261C39.7603 14.9243 39.0138 15.0234 38.1994 15.0234H33.3672V5.19796Z" fill="#0C1D31"/>
</svg>
