<svg width="159" height="18" viewBox="0 0 159 18" fill="none" xmlns="http://www.w3.org/2000/svg">
<path d="M155.055 11.8341C154.413 13.5099 153.131 14.471 151.381 14.471C148.472 14.471 146.697 12.4009 146.697 9.02463C146.697 5.59912 148.472 3.52903 151.381 3.52903C153.131 3.52903 154.413 4.49013 155.055 6.16593H158.975C158.013 2.46933 155.128 0.0788574 151.381 0.0788574C146.401 0.0788574 142.875 3.77547 142.875 9.02463C142.875 14.2245 146.401 17.9211 151.381 17.9211C155.153 17.9211 158.038 15.506 158.999 11.8341H155.055Z" fill="#0C1D31"/>
<path d="M131.484 0.380005L138.367 17.6313H142.141L135.259 0.380005H131.484Z" fill="#0C1D31"/>
<path d="M123.522 8.04443H118.958V3.70698H123.522C125.347 3.70698 126.31 4.44632 126.31 5.8757C126.31 7.30509 125.347 8.04443 123.522 8.04443ZM123.695 0.379946H115.258V17.6312H118.958V11.3714H123.695C127.617 11.3714 130.01 9.30131 130.01 5.8757C130.01 2.45009 127.617 0.379946 123.695 0.379946Z" fill="#0C1D31"/>
<path d="M103.341 14.471C100.432 14.471 98.6571 12.4009 98.6571 9.02463C98.6571 5.59912 100.432 3.52903 103.341 3.52903C106.226 3.52903 107.976 5.59912 107.976 9.02463C107.976 12.4009 106.226 14.471 103.341 14.471ZM103.341 0.0788574C98.3613 0.0788574 94.8359 3.77547 94.8359 9.02463C94.8359 14.2245 98.3613 17.9211 103.341 17.9211C108.296 17.9211 111.797 14.2245 111.797 9.02463C111.797 3.77547 108.296 0.0788574 103.341 0.0788574Z" fill="#0C1D31"/>
<path d="M80.9649 3.70704H85.5274C87.3523 3.70704 88.3142 4.37243 88.3142 5.62932C88.3142 6.88619 87.3523 7.5516 85.5274 7.5516H80.9649V3.70704ZM92.0135 5.62932C92.0135 2.37622 89.6212 0.380005 85.7 0.380005H77.2656V17.6313H80.9649V10.8786H85.0832L88.7827 17.6313H92.8767L88.7803 10.3643C90.8363 9.57442 92.0135 7.91115 92.0135 5.62932Z" fill="#0C1D31"/>
<path d="M68.9986 7.25586H60.8624V0.380005H57.1641V17.6313H60.8624V10.5829H68.9986V17.6313H72.6969V0.380005H68.9986V7.25586Z" fill="#0C1D31"/>
<path d="M38.9141 3.70704H44.7085V17.6313H48.407V3.70704H54.2015V0.380005H38.9141V3.70704Z" fill="#0C1D31"/>
<path d="M32.3797 12.4559L24.6133 0.380005H20.4219V17.6313H23.9969V5.55539L31.7633 17.6313H35.9548V0.380005H32.3797V12.4559Z" fill="#0C1D31"/>
<path d="M6.49949 10.8046L8.85442 4.74204L11.2093 10.8046H6.49949ZM6.88129 0.379946L0 17.6312H3.8476L5.25493 14.0084H12.4541L13.8612 17.6312H17.7088L10.8275 0.379946H6.88129Z" fill="#0C1D31"/>
</svg>
