<svg width="59" height="35" viewBox="0 0 59 35" fill="none" xmlns="http://www.w3.org/2000/svg">
<g clip-path="url(#clip0_6566_63820)">
<path d="M16.6248 12.7113C16.6248 13.4316 16.7032 14.0156 16.8407 14.4438C16.9976 14.8721 17.1938 15.3392 17.4686 15.8454C17.5667 16.0011 17.6059 16.1569 17.6059 16.2931C17.6059 16.4877 17.4882 16.6825 17.2331 16.8771L15.9969 17.6946C15.8203 17.8115 15.6436 17.8698 15.4867 17.8698C15.2904 17.8698 15.0942 17.7725 14.8979 17.5973C14.6232 17.3054 14.3878 16.9939 14.1916 16.6825C13.9953 16.3515 13.7991 15.9817 13.5833 15.534C12.0527 17.3248 10.1297 18.2202 7.81414 18.2202C6.16583 18.2202 4.8511 17.7531 3.88959 16.8187C2.92807 15.8844 2.4375 14.6385 2.4375 13.0813C2.4375 11.4266 3.02618 10.0834 4.22317 9.07119C5.42016 8.05895 7.0096 7.55284 9.03075 7.55284C9.69789 7.55284 10.3847 7.61124 11.1108 7.70857C11.8368 7.80589 12.5825 7.96163 13.3674 8.13682V6.7158C13.3674 5.23637 13.0534 4.20468 12.4451 3.60123C11.8172 2.99778 10.7576 2.70578 9.2466 2.70578C8.5598 2.70578 7.85339 2.78365 7.12734 2.95884C6.4013 3.13404 5.69488 3.34817 5.00808 3.62069C4.69412 3.75695 4.45865 3.83481 4.32128 3.87375C4.18393 3.91268 4.08582 3.93214 4.00733 3.93214C3.73261 3.93214 3.59524 3.73748 3.59524 3.32869V2.37486C3.59524 2.06341 3.63449 1.82981 3.73261 1.69355C3.83072 1.55729 4.00733 1.42102 4.28204 1.28476C4.96884 0.934372 5.79299 0.64238 6.75451 0.408787C7.71603 0.155729 8.73641 0.0389322 9.8157 0.0389322C12.1507 0.0389322 13.858 0.564516 14.9568 1.61569C16.036 2.66685 16.5855 4.26307 16.5855 6.40434V12.7113H16.6248ZM8.65792 15.6702C9.30547 15.6702 9.97268 15.5534 10.679 15.3198C11.3855 15.0862 12.0134 14.658 12.5432 14.074C12.8572 13.7042 13.0927 13.2953 13.2104 12.8282C13.3281 12.3609 13.4067 11.7965 13.4067 11.1346V10.317C12.8376 10.1807 12.2293 10.064 11.6014 9.98608C10.9734 9.90821 10.3651 9.86932 9.7568 9.86932C8.44207 9.86932 7.48055 10.1224 6.833 10.648C6.18545 11.1736 5.87148 11.9132 5.87148 12.8865C5.87148 13.8015 6.10696 14.4828 6.59753 14.95C7.06848 15.4366 7.75528 15.6702 8.65792 15.6702ZM24.415 17.7725C24.0618 17.7725 23.8264 17.7141 23.6694 17.5779C23.5124 17.4611 23.375 17.1885 23.2573 16.8187L18.6459 1.77141C18.5282 1.38209 18.4694 1.12903 18.4694 0.992765C18.4694 0.681313 18.6263 0.506118 18.9403 0.506118H20.8633C21.2362 0.506118 21.4912 0.564516 21.6286 0.700779C21.7855 0.817575 21.9033 1.0901 22.0211 1.45996L25.3176 14.3465L28.3788 1.45996C28.4769 1.07063 28.5946 0.817575 28.7516 0.700779C28.9086 0.583982 29.1834 0.506118 29.5366 0.506118H31.1064C31.4792 0.506118 31.7343 0.564516 31.8913 0.700779C32.0483 0.817575 32.1856 1.0901 32.2641 1.45996L35.3645 14.5023L38.7593 1.45996C38.877 1.07063 39.0143 0.817575 39.1518 0.700779C39.3087 0.583982 39.5638 0.506118 39.917 0.506118H41.742C42.0559 0.506118 42.2325 0.661846 42.2325 0.992765C42.2325 1.0901 42.2129 1.18743 42.1933 1.30423C42.1736 1.42102 42.1344 1.57675 42.0559 1.79088L37.3268 16.8381C37.209 17.2275 37.0717 17.4806 36.9147 17.5973C36.7577 17.7141 36.5027 17.792 36.1691 17.792H34.4815C34.1086 17.792 33.8536 17.7336 33.6966 17.5973C33.5396 17.4611 33.4023 17.208 33.3237 16.8187L30.2822 4.26307L27.2604 16.7992C27.1622 17.1885 27.0445 17.4416 26.8875 17.5779C26.7305 17.7141 26.4557 17.7725 26.1026 17.7725H24.415ZM49.6303 18.2981C48.6099 18.2981 47.5895 18.1813 46.6084 17.9477C45.6273 17.7141 44.8619 17.4611 44.3518 17.1691C44.0378 16.9939 43.8219 16.7992 43.7434 16.624C43.665 16.4488 43.6257 16.2542 43.6257 16.079V15.0862C43.6257 14.6774 43.7827 14.4828 44.077 14.4828C44.1948 14.4828 44.3125 14.5023 44.4302 14.5411C44.5479 14.5801 44.7246 14.658 44.9208 14.7358C45.588 15.0278 46.3141 15.2614 47.0793 15.4171C47.8642 15.5729 48.6295 15.6507 49.4145 15.6507C50.6507 15.6507 51.6122 15.4366 52.2794 15.0084C52.9465 14.5801 53.2998 13.9572 53.2998 13.159C53.2998 12.614 53.1232 12.1663 52.7699 11.7965C52.4167 11.4266 51.7495 11.0957 50.788 10.7842L47.9428 9.90821C46.5102 9.46051 45.4506 8.79867 44.8031 7.92269C44.1555 7.06619 43.8219 6.11235 43.8219 5.10011C43.8219 4.28253 43.9986 3.56229 44.3518 2.93938C44.7049 2.31647 45.1759 1.77141 45.7646 1.34316C46.3532 0.895439 47.0204 0.564516 47.8053 0.330923C48.5903 0.0973301 49.4145 0 50.2778 0C50.7096 0 51.1609 0.019466 51.5925 0.0778643C52.0438 0.136263 52.456 0.214127 52.868 0.291991C53.2605 0.389322 53.6334 0.486652 53.9866 0.603449C54.3397 0.720245 54.6145 0.837042 54.8106 0.953838C55.0854 1.10957 55.2817 1.2653 55.3994 1.44049C55.5171 1.59621 55.576 1.81035 55.576 2.08287V2.99778C55.576 3.40656 55.419 3.62069 55.1247 3.62069C54.9677 3.62069 54.7126 3.54283 54.379 3.3871C53.2605 2.88098 52.0047 2.62792 50.6114 2.62792C49.4929 2.62792 48.6099 2.80311 48.0016 3.17297C47.3933 3.54283 47.0793 4.10734 47.0793 4.90545C47.0793 5.4505 47.2756 5.91768 47.668 6.28755C48.0605 6.6574 48.7865 7.02725 49.8265 7.35818L52.6129 8.23415C54.0258 8.68187 55.0462 9.30478 55.6544 10.1028C56.2628 10.901 56.5571 11.8159 56.5571 12.8282C56.5571 13.6652 56.3805 14.4244 56.0469 15.0862C55.6937 15.7481 55.2228 16.3321 54.6145 16.7992C54.0061 17.2859 53.2801 17.6363 52.4363 17.8893C51.5533 18.1619 50.631 18.2981 49.6303 18.2981Z" fill="#384555"/>
<path d="M53.341 27.7568C46.8851 32.4871 37.5054 34.9982 29.4404 34.9982C18.1378 34.9982 7.95351 30.852 0.261379 23.961C-0.346928 23.416 0.20251 22.6762 0.928554 23.1045C9.24861 27.8931 19.5113 30.7936 30.1272 30.7936C37.2895 30.7936 45.1583 29.3141 52.3991 26.2774C53.4784 25.7908 54.4006 26.9782 53.341 27.7568Z" fill="#384555"/>
<path d="M56.0325 24.7223C55.2084 23.6711 50.5774 24.2162 48.4777 24.4692C47.8498 24.5471 47.7517 24.002 48.3207 23.5933C52.0099 21.0237 58.0734 21.7634 58.7797 22.62C59.4862 23.4959 58.5836 29.5109 55.1299 32.3919C54.6001 32.8396 54.0899 32.606 54.3254 32.022C55.1103 30.0949 56.8567 25.7539 56.0325 24.7223Z" fill="#384555"/>
</g>
<defs>
<clipPath id="clip0_6566_63820">
<rect width="59" height="35" fill="white"/>
</clipPath>
</defs>
</svg>
