<svg width="61" height="36" viewBox="0 0 61 36" fill="none" xmlns="http://www.w3.org/2000/svg">
<path d="M17.1892 13.0745C17.1892 13.8154 17.2703 14.416 17.4124 14.8565C17.5747 15.297 17.7775 15.7775 18.0616 16.2981C18.163 16.4583 18.2036 16.6185 18.2036 16.7586C18.2036 16.9588 18.0819 17.1591 17.8181 17.3593L16.54 18.2002C16.3574 18.3204 16.1748 18.3804 16.0125 18.3804C15.8096 18.3804 15.6067 18.2803 15.4038 18.1001C15.1198 17.7998 14.8764 17.4794 14.6735 17.1591C14.4706 16.8187 14.2677 16.4383 14.0446 15.9778C12.4621 17.8198 10.4739 18.7408 8.07989 18.7408C6.3757 18.7408 5.01641 18.2603 4.0223 17.2992C3.02819 16.3382 2.52099 15.0567 2.52099 13.455C2.52099 11.7531 3.12963 10.3715 4.36719 9.33037C5.60476 8.28921 7.24808 7.76863 9.33774 7.76863C10.0275 7.76863 10.7376 7.8287 11.4883 7.92881C12.2389 8.02892 13.0099 8.1891 13.8214 8.3693V6.90768C13.8214 5.38598 13.4968 4.32481 12.8678 3.70412C12.2186 3.08343 11.1231 2.78309 9.56091 2.78309C8.85083 2.78309 8.12047 2.86318 7.36981 3.04338C6.61916 3.22358 5.88879 3.44383 5.17871 3.72414C4.85411 3.86429 4.61065 3.94438 4.46863 3.98443C4.32662 4.02447 4.22518 4.04449 4.14403 4.04449C3.86 4.04449 3.71798 3.84427 3.71798 3.4238V2.44271C3.71798 2.12236 3.75856 1.88209 3.86 1.74194C3.96144 1.60178 4.14403 1.46162 4.42806 1.32147C5.13814 0.961068 5.99023 0.660734 6.98434 0.420467C7.97845 0.160178 9.03342 0.0400445 10.1493 0.0400445C12.5635 0.0400445 14.3286 0.580645 15.4647 1.66185C16.5805 2.74305 17.1486 4.38487 17.1486 6.58732V13.0745H17.1892ZM8.95227 16.1179C9.62177 16.1179 10.3116 15.9978 11.0419 15.7575C11.7723 15.5172 12.4215 15.0768 12.9693 14.4761C13.2939 14.0957 13.5374 13.6752 13.6591 13.1947C13.7808 12.7141 13.862 12.1335 13.862 11.4527V10.6118C13.2736 10.4716 12.6447 10.3515 11.9955 10.2714C11.3462 10.1913 10.7173 10.1513 10.0884 10.1513C8.72911 10.1513 7.73499 10.4116 7.06549 10.9522C6.39599 11.4928 6.07138 12.2536 6.07138 13.2547C6.07138 14.1958 6.31484 14.8966 6.82204 15.3771C7.30895 15.8776 8.01903 16.1179 8.95227 16.1179ZM25.2435 18.2803C24.8783 18.2803 24.6349 18.2202 24.4726 18.0801C24.3103 17.96 24.1682 17.6796 24.0465 17.2992L19.2788 1.82202C19.1571 1.42158 19.0963 1.16129 19.0963 1.02113C19.0963 0.700779 19.2586 0.520578 19.5832 0.520578H21.5714C21.9569 0.520578 22.2206 0.580645 22.3626 0.720801C22.5249 0.840934 22.6466 1.12125 22.7684 1.50167L26.1767 14.7564L29.3417 1.50167C29.4431 1.10122 29.5648 0.840934 29.7271 0.720801C29.8894 0.600667 30.1735 0.520578 30.5387 0.520578H32.1617C32.5472 0.520578 32.8109 0.580645 32.9732 0.720801C33.1355 0.840934 33.2775 1.12125 33.3587 1.50167L36.5642 14.9166L40.074 1.50167C40.1957 1.10122 40.3377 0.840934 40.4798 0.720801C40.6421 0.600667 40.9058 0.520578 41.271 0.520578H43.1578C43.4824 0.520578 43.665 0.680756 43.665 1.02113C43.665 1.12125 43.6447 1.22136 43.6244 1.34149C43.6041 1.46162 43.5635 1.6218 43.4824 1.84205L38.593 17.3192C38.4712 17.7197 38.3292 17.98 38.1669 18.1001C38.0046 18.2202 37.7409 18.3003 37.396 18.3003H35.6512C35.2657 18.3003 35.002 18.2403 34.8397 18.1001C34.6774 17.96 34.5354 17.6997 34.4542 17.2992L31.3096 4.38487L28.1853 17.2792C28.0838 17.6796 27.9621 17.9399 27.7998 18.0801C27.6375 18.2202 27.3534 18.2803 26.9883 18.2803H25.2435ZM51.3135 18.8209C50.2586 18.8209 49.2036 18.7008 48.1892 18.4605C47.1748 18.2202 46.3835 17.96 45.8561 17.6596C45.5315 17.4794 45.3083 17.2792 45.2271 17.099C45.146 16.9188 45.1054 16.7186 45.1054 16.5384V15.5172C45.1054 15.0968 45.2677 14.8966 45.572 14.8966C45.6938 14.8966 45.8155 14.9166 45.9372 14.9566C46.0589 14.9967 46.2415 15.0768 46.4444 15.1568C47.1342 15.4572 47.8849 15.6974 48.6761 15.8576C49.4876 16.0178 50.2788 16.0979 51.0904 16.0979C52.3685 16.0979 53.3626 15.8776 54.0524 15.4372C54.7422 14.9967 55.1074 14.356 55.1074 13.535C55.1074 12.9744 54.9248 12.5139 54.5596 12.1335C54.1944 11.7531 53.5046 11.4127 52.5105 11.0923L49.5688 10.1913C48.0877 9.73081 46.9922 9.05006 46.3227 8.14905C45.6532 7.26808 45.3083 6.28699 45.3083 5.24583C45.3083 4.40489 45.4909 3.66407 45.8561 3.02336C46.2212 2.38265 46.7082 1.82202 47.3168 1.38154C47.9254 0.921023 48.6152 0.580645 49.4267 0.340378C50.2383 0.100111 51.0904 0 51.983 0C52.4294 0 52.896 0.0200222 53.3423 0.080089C53.8089 0.140156 54.235 0.220245 54.661 0.300334C55.0668 0.400445 55.4523 0.500556 55.8175 0.62069C56.1826 0.740823 56.4667 0.860957 56.6695 0.98109C56.9536 1.14127 57.1565 1.30145 57.2782 1.48165C57.3999 1.64182 57.4608 1.86207 57.4608 2.14238V3.08343C57.4608 3.50389 57.2985 3.72414 56.9942 3.72414C56.8319 3.72414 56.5681 3.64405 56.2232 3.48387C55.0668 2.96329 53.7684 2.703 52.3279 2.703C51.1715 2.703 50.2586 2.8832 49.6296 3.26363C49.0007 3.64405 48.6761 4.22469 48.6761 5.04561C48.6761 5.60623 48.879 6.08676 49.2847 6.46719C49.6905 6.84761 50.4411 7.22803 51.5164 7.56841L54.3973 8.46941C55.858 8.92992 56.913 9.57063 57.5419 10.3915C58.1709 11.2125 58.4752 12.1535 58.4752 13.1947C58.4752 14.0556 58.2926 14.8365 57.9477 15.5172C57.5825 16.198 57.0956 16.7987 56.4667 17.2792C55.8377 17.7798 55.0871 18.1402 54.2147 18.4004C53.3017 18.6808 52.3482 18.8209 51.3135 18.8209Z" fill="#0C1D31"/>
<path d="M55.1492 28.5517C48.4744 33.4171 38.7768 36 30.4384 36C18.7526 36 8.22312 31.7353 0.270239 24.6474C-0.358688 24.0868 0.209375 23.3259 0.96003 23.7664C9.56212 28.6919 20.1727 31.6752 31.1485 31.6752C38.5536 31.6752 46.6891 30.1535 54.1753 27.03C55.2912 26.5295 56.2447 27.7508 55.1492 28.5517Z" fill="#0C1D31"/>
<path d="M57.9286 25.4283C57.0765 24.3471 52.2886 24.9077 50.1177 25.168C49.4685 25.2481 49.3671 24.6874 49.9554 24.267C53.7696 21.624 60.0386 22.3849 60.7689 23.2659C61.4993 24.1669 60.5661 30.3537 56.9954 33.317C56.4476 33.7775 55.9201 33.5373 56.1636 32.9366C56.9751 30.9544 58.7807 26.4894 57.9286 25.4283Z" fill="#0C1D31"/>
</svg>
