<svg width="170" height="24" viewBox="0 0 170 24" fill="none" xmlns="http://www.w3.org/2000/svg">
<path fill-rule="evenodd" clip-rule="evenodd" d="M124.417 20.4473V13.932C124.417 13.332 124.357 12.2333 123.353 12.2333C122.61 12.2333 121.766 12.6135 121.265 12.9735V18.3293C121.265 18.6488 121.285 18.6893 121.586 18.729L122.55 18.8685V20.4473H117.008V18.8685L117.912 18.729C118.192 18.6893 118.232 18.6285 118.232 18.3293V7.77678C118.232 7.55703 118.172 7.41678 117.972 7.35678L116.867 6.97803L117.088 5.35803H121.224V11.0145L121.325 11.034C122.228 10.2953 123.273 9.83553 124.537 9.83553C126.666 9.83553 127.449 10.9943 127.449 13.0725V18.3293C127.449 18.6488 127.469 18.6893 127.771 18.729L128.774 18.8685V20.4473H124.417" fill="#0C1D31"/>
<path fill-rule="evenodd" clip-rule="evenodd" d="M39.3914 19.5878C38.2068 20.3078 36.1986 20.6873 34.3713 20.6873C29.3723 20.6873 27.3234 17.7893 27.3234 13.1535C27.3234 8.89578 29.7935 5.71877 34.7933 5.71877C36.4601 5.71877 38.2467 6.13877 39.3514 6.85728V10.7745L37.142 10.5945L36.8218 8.63703C36.7811 8.43678 36.7012 8.33703 36.5 8.27703C36.0585 8.13678 35.3757 8.03703 34.7126 8.03703C32.1626 8.03703 30.5365 9.75453 30.5365 13.1535C30.5365 16.6905 32.0828 18.4088 34.5725 18.4088C35.2356 18.4088 36.0584 18.309 36.5799 18.1493C36.821 18.0893 36.8813 18.0293 36.9416 17.7293L37.243 15.8715H39.3914V19.5878ZM47.926 15.1913C47.926 12.8333 47.2026 11.9933 45.8982 11.9933C44.572 11.9933 43.6888 12.8138 43.6888 15.2108C43.6888 17.6295 44.4725 18.5888 45.8176 18.5888C47.1227 18.5888 47.926 17.6888 47.926 15.1913ZM40.5164 15.3113C40.5164 11.9933 42.2639 9.83553 45.9382 9.83553C49.6524 9.83553 51.0984 12.0338 51.0984 15.0915C51.0984 18.489 49.3713 20.6865 45.6767 20.6865C42.0024 20.6865 40.5164 18.4485 40.5164 15.3113ZM61.3195 19.7085C60.3956 20.268 58.9699 20.6873 57.5043 20.6873C53.8699 20.6873 52.2438 18.4298 52.2438 15.3908C52.2438 11.6543 54.5331 9.83553 57.7454 9.83553C59.3113 9.83553 60.6971 10.275 61.3195 10.6755V13.8128L59.1711 13.7123L58.93 12.393C58.9096 12.2535 58.8697 12.1343 58.6889 12.0735C58.4477 11.9933 58.0664 11.934 57.6648 11.934C56.4606 11.934 55.4366 12.753 55.4366 15.0915C55.4366 17.6895 56.6008 18.429 58.0265 18.429C59.031 18.429 59.9337 18.1088 60.5365 17.8493L61.3195 19.7085ZM70.0546 20.4473L67.5046 15.3518L66.4202 16.5308V18.3293C66.4202 18.6488 66.4406 18.6893 66.742 18.729L67.9469 18.8685V20.4473H62.0632V18.8685L63.0677 18.729C63.348 18.6893 63.388 18.6285 63.388 18.3293V7.77678C63.388 7.55703 63.3277 7.41678 63.1272 7.35678L62.0233 6.97803L62.2441 5.35802H66.4202V13.8923L70.0952 10.035H72.866V11.6145L71.8216 11.814C71.5601 11.8538 71.5006 11.9138 71.3198 12.114L69.894 13.6125L72.4636 18.3885C72.6045 18.669 72.7454 18.7088 73.0665 18.7485L73.9504 18.8888V20.4473H70.0546ZM74.875 20.4473V18.8288L75.7785 18.7088C76.0595 18.669 76.0995 18.609 76.0995 18.309V12.4538C76.0995 12.2333 76.0392 12.0938 75.838 12.0338L74.7544 11.6543L74.9744 10.035H78.5085L78.7497 11.634H78.8703C79.5334 10.614 80.4165 9.83553 81.7013 9.83553C82.1632 9.83553 83.0871 9.91578 83.4488 10.0155V13.653L81.0389 13.5728L80.8385 12.513C80.7986 12.333 80.7375 12.294 80.577 12.294C80.0548 12.294 79.4316 12.7328 79.1317 12.993V18.2888C79.1317 18.609 79.1521 18.669 79.4527 18.6893L81.4406 18.849V20.4473H74.875ZM91.7619 15.1913C91.7619 12.8333 91.0385 11.9933 89.7348 11.9933C88.4086 11.9933 87.5254 12.8138 87.5254 15.2108C87.5254 17.6295 88.3084 18.5888 89.6535 18.5888C90.9586 18.5888 91.7619 17.6888 91.7619 15.1913ZM84.353 15.3113C84.353 11.9933 86.0997 9.83553 89.774 9.83553C93.489 9.83553 94.9343 12.0338 94.9343 15.0915C94.9343 18.489 93.2079 20.6865 89.5133 20.6865C85.839 20.6865 84.353 18.4485 84.353 15.3113ZM101.843 16.1505L100.477 16.2503C99.292 16.3305 98.8708 16.6305 98.8708 17.4293C98.8708 18.2295 99.3531 18.5288 100.015 18.5288C100.698 18.5288 101.381 18.1493 101.843 17.8095V16.1505ZM102.385 20.448L102.183 19.368L102.083 19.3485C101.321 20.0873 100.317 20.6873 98.7095 20.6873C96.1799 20.6873 95.7783 18.9683 95.7783 17.7293C95.7783 15.7305 97.0231 14.8118 99.5332 14.652L101.843 14.4923V13.3928C101.843 12.4538 101.742 11.814 100.497 11.814C99.5332 11.814 99.0313 11.9543 99.0313 13.1535L96.2002 12.9128C96.2002 10.215 98.6696 9.83553 100.517 9.83553C103.569 9.83553 104.794 10.6553 104.794 13.4528V18.309C104.794 18.6285 104.814 18.669 105.115 18.7088L106.08 18.8685V20.4473L102.385 20.448ZM115.597 19.7085C114.674 20.268 113.248 20.6873 111.783 20.6873C108.148 20.6873 106.522 18.4298 106.522 15.3908C106.522 11.6543 108.811 9.83553 112.024 9.83553C113.59 9.83553 114.976 10.275 115.597 10.6755V13.8128L113.45 13.7123L113.208 12.393C113.188 12.2535 113.148 12.1343 112.967 12.0735C112.726 11.9933 112.344 11.934 111.943 11.934C110.738 11.934 109.714 12.753 109.714 15.0915C109.714 17.6895 110.879 18.429 112.305 18.429C113.309 18.429 114.212 18.1088 114.814 17.8493L115.598 19.7085" fill="#0C1D31"/>
<path fill-rule="evenodd" clip-rule="evenodd" d="M134.489 10.056H136.789V18.3338H141.05V20.4473H134.489V10.056ZM147.111 13.08L145.843 16.308H148.394L147.111 13.0793V13.08ZM146.226 10.056H148.129L152.671 20.4473H150.076L149.176 18.2453H145.12L144.251 20.4473H141.714L146.226 10.056ZM155.916 18.51H157.98C158.157 18.51 158.337 18.4905 158.518 18.4508C158.695 18.4144 158.863 18.3446 159.013 18.2453C159.16 18.1478 159.281 18.021 159.374 17.8643C159.472 17.6895 159.521 17.4914 159.514 17.2913C159.514 17.0468 159.453 16.8488 159.33 16.698C159.207 16.5462 159.047 16.4276 158.866 16.353C158.672 16.2729 158.468 16.2182 158.261 16.1903C158.06 16.1624 157.858 16.1478 157.656 16.1468H155.916V18.51ZM155.916 14.2095H157.582C157.759 14.2098 157.934 14.1901 158.106 14.151C158.277 14.112 158.433 14.0483 158.57 13.9605C158.707 13.8713 158.819 13.755 158.902 13.608C158.985 13.461 159.028 13.2855 159.028 13.0793C159.028 12.864 158.981 12.6855 158.887 12.5438C158.797 12.405 158.673 12.2914 158.526 12.2138C158.368 12.1321 158.199 12.0749 158.025 12.0443C157.845 12.0107 157.662 11.9936 157.479 11.9933H155.916V14.2095ZM153.615 10.056H157.508C157.961 10.056 158.416 10.0875 158.872 10.1513C159.302 10.2065 159.719 10.3357 160.104 10.533C160.468 10.7235 160.762 10.9905 160.988 11.3325C161.214 11.6753 161.327 12.1305 161.327 12.6975C161.327 13.2848 161.163 13.7715 160.834 14.1585C160.505 14.5455 160.07 14.8215 159.529 14.9873V15.0173C159.873 15.066 160.185 15.1613 160.465 15.303C160.746 15.4455 160.986 15.6255 161.188 15.846C161.389 16.0665 161.544 16.323 161.652 16.6163C161.761 16.9103 161.815 17.2238 161.815 17.556C161.815 18.1043 161.697 18.561 161.461 18.9285C161.224 19.296 160.92 19.5908 160.546 19.8165C160.173 20.0415 159.753 20.2028 159.285 20.3003C158.827 20.3975 158.36 20.4468 157.891 20.4473H153.615V10.056ZM168.407 12.5948C168.209 12.3524 167.945 12.1715 167.647 12.0735C167.357 11.9667 167.05 11.9099 166.74 11.9055C166.573 11.9055 166.401 11.925 166.224 11.964C166.049 12.0021 165.881 12.0637 165.723 12.147C165.571 12.2256 165.439 12.3386 165.339 12.477C165.241 12.6143 165.192 12.7815 165.192 12.9765C165.192 13.29 165.31 13.5293 165.546 13.6965C165.782 13.863 166.079 14.004 166.438 14.121C166.797 14.2388 167.182 14.3558 167.595 14.4735C168.008 14.5913 168.394 14.757 168.754 14.9723C169.112 15.1883 169.409 15.477 169.646 15.8385C169.882 16.2008 170 16.686 170 17.2913C170 17.8688 169.891 18.3728 169.675 18.804C169.468 19.223 169.168 19.5895 168.797 19.8758C168.414 20.1661 167.979 20.3801 167.514 20.5058C167.012 20.6452 166.494 20.7146 165.973 20.712C165.331 20.718 164.693 20.6138 164.086 20.4038C163.506 20.1983 162.965 19.866 162.463 19.4048L164.1 17.6145C164.336 17.928 164.634 18.1695 164.993 18.342C165.351 18.5123 165.723 18.5978 166.106 18.5978C166.293 18.5978 166.482 18.576 166.674 18.5318C166.865 18.4875 167.038 18.4223 167.19 18.3338C167.342 18.2453 167.465 18.1335 167.559 17.9963C167.652 17.859 167.699 17.6978 167.699 17.5118C167.699 17.199 167.578 16.9515 167.338 16.7708C167.097 16.5893 166.794 16.4355 166.43 16.308C166.04 16.1726 165.647 16.0453 165.251 15.9263C164.838 15.804 164.442 15.6317 164.071 15.4133C163.709 15.2 163.4 14.9092 163.165 14.562C162.923 14.2095 162.803 13.7445 162.803 13.167C162.803 12.6098 162.913 12.1208 163.134 11.7C163.349 11.2877 163.65 10.9268 164.019 10.6425C164.401 10.3526 164.833 10.1361 165.295 10.0043C165.779 9.86237 166.28 9.79088 166.785 9.79203C167.375 9.79203 167.945 9.87453 168.495 10.041C169.045 10.2075 169.543 10.4865 169.985 10.8773L168.406 12.5948" fill="#0C1D31"/>
<path fill-rule="evenodd" clip-rule="evenodd" d="M14.6337 6.87753C13.7673 7.07807 12.8806 7.17873 11.991 7.17753C11.083 7.17753 10.1961 7.07553 9.34459 6.87753C10.0539 5.75758 10.9487 4.7653 11.991 3.94277C13.0315 4.76634 13.9244 5.75847 14.6337 6.87753ZM22.6288 0.430523C21.5369 0.142646 20.4119 -0.00207797 19.2823 2.25392e-05C16.6863 -0.00352296 14.1477 0.759973 11.988 2.19377C9.8288 0.759106 7.28987 -0.0044713 4.69372 2.25392e-05C3.53703 2.25392e-05 2.41275 0.147023 1.34648 0.430523C0.901126 0.545063 0.46262 0.684535 0.033058 0.848273C0.0265086 0.850896 0.0205548 0.854801 0.0155495 0.859756C0.0105442 0.864711 0.00658922 0.870616 0.00391892 0.87712C0.00124862 0.883625 -8.26799e-05 0.890597 3.97395e-06 0.897623C9.06278e-05 0.904649 0.00159348 0.911586 0.0044234 0.918023C0.191302 1.32152 0.39928 1.71227 0.623082 2.09027C0.635139 2.11127 0.660759 2.12027 0.683366 2.11202C1.96804 1.64654 3.32506 1.40993 4.69222 1.41302C6.91894 1.41302 9.00173 2.03252 10.7808 3.10052C9.64958 4.05359 8.68767 5.18948 7.93547 6.46053C7.54005 7.12094 7.20585 7.81581 6.93702 8.53653C6.39065 9.99789 6.11145 11.5448 6.11265 13.104C6.11265 16.815 7.67248 20.1705 10.172 22.5585C10.3664 22.749 10.5683 22.9283 10.7808 23.1038C10.9466 23.2463 11.1124 23.3798 11.2857 23.5088C11.5035 23.6813 11.7303 23.8395 11.9586 23.991C11.9672 23.9969 11.9773 24 11.9876 24C11.998 24 12.0081 23.9969 12.0167 23.991C12.2442 23.8358 12.4688 23.6775 12.6866 23.5088C12.8629 23.3798 13.0287 23.2463 13.1944 23.1038C13.4032 22.9283 13.6127 22.7453 13.8071 22.5585C16.3028 20.1705 17.8634 16.8113 17.8634 13.1048C17.8648 11.2488 17.4682 9.41392 16.6999 7.72278C16.6215 7.54795 16.5396 7.37467 16.4543 7.20303C16.3232 6.95167 16.185 6.70407 16.0398 6.46053C15.2865 5.19028 14.3247 4.05456 13.1944 3.10052C15.0308 1.99528 17.1363 1.41167 19.2823 1.41302C20.6495 1.40993 22.0065 1.64654 23.2912 2.11202C23.3145 2.11952 23.3402 2.11052 23.3522 2.08952C23.5766 1.70916 23.7828 1.31848 23.9701 0.918773C23.9731 0.912297 23.9747 0.905292 23.9748 0.898182C23.975 0.891073 23.9737 0.884008 23.971 0.877415C23.9683 0.870822 23.9643 0.86484 23.9592 0.85983C23.9542 0.854821 23.9481 0.850889 23.9415 0.848273C23.512 0.687773 23.0749 0.543773 22.6288 0.430523Z" fill="#0C1D31"/>
<path fill-rule="evenodd" clip-rule="evenodd" d="M16.4437 13.1055C16.4437 16.206 15.2252 19.0268 13.2374 21.1215C12.8798 19.985 12.6978 18.801 12.6979 17.61C12.6979 14.5095 13.9163 11.6835 15.9042 9.59403C16.2538 10.7033 16.4437 11.883 16.4437 13.1055Z" fill="#0C1D31"/>
<path fill-rule="evenodd" clip-rule="evenodd" d="M11.2774 17.61C11.2774 18.8303 11.089 20.01 10.7379 21.1215C8.67655 18.9572 7.5288 16.0877 7.53157 13.1055C7.53157 11.883 7.72372 10.7033 8.07562 9.59403C10.1365 11.7583 11.2828 14.6282 11.2774 17.61Z" fill="#0C1D31"/>
</svg>
