<svg width="105" height="15" viewBox="0 0 105 15" fill="none" xmlns="http://www.w3.org/2000/svg">
<g clip-path="url(#clip0_6566_63824)">
<path fill-rule="evenodd" clip-rule="evenodd" d="M76.8432 12.7824V8.7103C76.8432 8.3353 76.8055 7.64862 76.1856 7.64862C75.7269 7.64862 75.2056 7.88626 74.8959 8.11126V11.4586C74.8959 11.6583 74.9081 11.6836 75.0937 11.7084L75.6898 11.7956V12.7824H72.2667V11.7956L72.8251 11.7084C72.9979 11.6836 73.0229 11.6456 73.0229 11.4586V4.86328C73.0229 4.72594 72.9857 4.63828 72.8617 4.60078L72.1797 4.36406L72.3165 3.35156H74.8704V6.88689L74.933 6.89905C75.4909 6.43737 76.1363 6.15001 76.9169 6.15001C78.232 6.15001 78.7157 6.87424 78.7157 8.17314V11.4586C78.7157 11.6583 78.7279 11.6836 78.914 11.7084L79.5339 11.7956V12.7824H76.8426" fill="#384555"/>
<path fill-rule="evenodd" clip-rule="evenodd" d="M24.3288 12.2452C23.5971 12.6952 22.3567 12.9324 21.2281 12.9324C18.1405 12.9324 16.875 11.1211 16.875 8.22376C16.875 5.56265 18.4007 3.57703 21.4887 3.57703C22.5183 3.57703 23.6218 3.83953 24.3041 4.28859V6.73689L22.9395 6.62439L22.7417 5.40092C22.7166 5.27578 22.6672 5.21344 22.5429 5.17594C22.2702 5.08828 21.8485 5.02594 21.4389 5.02594C19.8639 5.02594 18.8596 6.09939 18.8596 8.22376C18.8596 10.4344 19.8146 11.5083 21.3524 11.5083C21.762 11.5083 22.2702 11.4459 22.5923 11.3461C22.7412 11.3086 22.7784 11.2711 22.8157 11.0836L23.0019 9.92251H24.3288V12.2452ZM29.6002 9.49737C29.6002 8.02362 29.1534 7.49862 28.3477 7.49862C27.5286 7.49862 26.9831 8.0114 26.9831 9.50953C26.9831 11.0213 27.4671 11.6208 28.2979 11.6208C29.104 11.6208 29.6002 11.0583 29.6002 9.49737ZM25.0236 9.57237C25.0236 7.49862 26.103 6.15001 28.3723 6.15001C30.6664 6.15001 31.5596 7.5239 31.5596 9.43501C31.5596 11.5584 30.4928 12.9319 28.2109 12.9319C25.9414 12.9319 25.0236 11.5331 25.0236 9.57237ZM37.8726 12.3206C37.302 12.6703 36.4214 12.9324 35.5162 12.9324C33.2714 12.9324 32.267 11.5214 32.267 9.62203C32.267 7.28674 33.681 6.15001 35.6651 6.15001C36.6322 6.15001 37.4881 6.42467 37.8726 6.67501V8.63578L36.5457 8.57299L36.3967 7.74842C36.3842 7.66126 36.3595 7.58674 36.2478 7.54876C36.0989 7.49862 35.8633 7.46155 35.6153 7.46155C34.8715 7.46155 34.239 7.97342 34.239 9.43501C34.239 11.0588 34.9581 11.5209 35.8387 11.5209C36.4591 11.5209 37.0167 11.3208 37.389 11.1586L37.8726 12.3206ZM43.2678 12.7824L41.6928 9.59765L41.023 10.3345V11.4586C41.023 11.6583 41.0356 11.6836 41.2218 11.7084L41.966 11.7956V12.7824H38.332V11.7956L38.9524 11.7084C39.1255 11.6836 39.1502 11.6456 39.1502 11.4586V4.86328C39.1502 4.72594 39.1129 4.63828 38.9892 4.60078L38.3073 4.36406L38.4436 3.35156H41.023V8.68549L43.2929 6.27467H45.0043V7.26189L44.3592 7.38655C44.1977 7.4114 44.1609 7.4489 44.0492 7.57405L43.1686 8.51064L44.7557 11.4956C44.8428 11.6709 44.9298 11.6958 45.1281 11.7206L45.674 11.8083V12.7824H43.2678ZM46.2451 12.7824V11.7708L46.8031 11.6958C46.9768 11.6709 47.0014 11.6334 47.0014 11.4459V7.7864C47.0014 7.64862 46.9642 7.5614 46.8399 7.5239L46.1706 7.28674L46.3066 6.27467H48.4894L48.6383 7.27405H48.7128C49.1224 6.63655 49.6678 6.15001 50.4614 6.15001C50.7467 6.15001 51.3173 6.20015 51.5407 6.26251V8.53592L50.0522 8.48578L49.9285 7.82342C49.9038 7.71092 49.8661 7.68655 49.7669 7.68655C49.4444 7.68655 49.0595 7.96078 48.8743 8.12342V11.4333C48.8743 11.6334 48.8869 11.6709 49.0726 11.6836L50.3003 11.7834V12.7824H46.2451ZM56.6755 9.49737C56.6755 8.02362 56.2284 7.49862 55.4234 7.49862C54.6041 7.49862 54.0584 8.0114 54.0584 9.50953C54.0584 11.0213 54.5421 11.6208 55.373 11.6208C56.1791 11.6208 56.6755 11.0583 56.6755 9.49737ZM52.0992 9.57237C52.0992 7.49862 53.1781 6.15001 55.4473 6.15001C57.7419 6.15001 58.6349 7.5239 58.6349 9.43501C58.6349 11.5584 57.5685 12.9319 55.2866 12.9319C53.017 12.9319 52.0992 11.5331 52.0992 9.57237ZM62.9018 10.0969L62.058 10.1592C61.3262 10.2094 61.0658 10.3969 61.0658 10.8961C61.0658 11.3963 61.3639 11.5833 61.7733 11.5833C62.1949 11.5833 62.6164 11.3461 62.9018 11.1338V10.0969ZM63.2364 12.7828L63.1123 12.1078L63.0502 12.0956C62.5793 12.5574 61.9594 12.9324 60.9667 12.9324C59.4039 12.9324 59.1562 11.858 59.1562 11.0836C59.1562 9.83439 59.9246 9.26015 61.4752 9.1603L62.9018 9.06049V8.37328C62.9018 7.7864 62.8392 7.38655 62.0702 7.38655C61.4752 7.38655 61.165 7.47424 61.165 8.22376L59.4166 8.07328C59.4166 6.38717 60.9418 6.15001 62.083 6.15001C63.9682 6.15001 64.7249 6.66237 64.7249 8.41078V11.4459C64.7249 11.6456 64.7366 11.6709 64.9233 11.6958L65.5188 11.7956V12.7824L63.2364 12.7828ZM71.3972 12.3206C70.8271 12.6703 69.9463 12.9324 69.0411 12.9324C66.7958 12.9324 65.7914 11.5214 65.7914 9.62203C65.7914 7.28674 67.2057 6.15001 69.1901 6.15001C70.1574 6.15001 71.0133 6.42467 71.3972 6.67501V8.63578L70.0704 8.57299L69.9219 7.74842C69.9092 7.66126 69.8843 7.58674 69.7729 7.54876C69.6239 7.49862 69.3879 7.46155 69.1397 7.46155C68.3962 7.46155 67.7636 7.97342 67.7636 9.43501C67.7636 11.0588 68.4832 11.5209 69.3635 11.5209C69.9834 11.5209 70.5418 11.3208 70.9136 11.1586L71.3977 12.3206" fill="#384555"/>
<path fill-rule="evenodd" clip-rule="evenodd" d="M83.0703 6.2822H84.491V11.4558H87.1229V12.7768H83.0703V6.2822ZM90.8663 8.1722L90.083 10.1897H91.6591L90.8663 8.1722ZM90.3201 6.2822H91.4952L94.3005 12.7768H92.6974L92.1417 11.4005H89.6365L89.0999 12.7768H87.5328L90.3201 6.2822ZM96.3046 11.5659H97.5794C97.6892 11.5659 97.8 11.5538 97.9119 11.5289C98.0211 11.5062 98.1246 11.4626 98.2174 11.4005C98.3086 11.3396 98.3828 11.2603 98.4406 11.1624C98.5011 11.0531 98.5313 10.9293 98.5271 10.8043C98.5271 10.6514 98.4889 10.5277 98.413 10.4334C98.3372 10.3386 98.2386 10.2644 98.1267 10.2178C98.0068 10.1678 97.8811 10.1336 97.7528 10.1161C97.6293 10.0987 97.5046 10.0896 97.3795 10.0889H96.3046V11.5659ZM96.3046 8.87816H97.3339C97.4426 8.87827 97.5513 8.86605 97.6574 8.84157C97.7629 8.8172 97.8594 8.77739 97.9443 8.72254C98.0286 8.66677 98.0975 8.59407 98.149 8.5022C98.2004 8.41032 98.2264 8.30066 98.2264 8.17177C98.2264 8.0372 98.1977 7.92566 98.1399 7.83705C98.0843 7.75032 98.0074 7.67934 97.9167 7.6308C97.8196 7.57975 97.7152 7.54402 97.607 7.52489C97.4961 7.50389 97.3832 7.49323 97.2702 7.49302H96.3046V8.87816ZM94.8833 6.2822H97.2883C97.5677 6.2822 97.8488 6.30191 98.1309 6.34177C98.3961 6.37627 98.6538 6.457 98.8919 6.58032C99.1162 6.69941 99.2981 6.86629 99.4376 7.08004C99.5771 7.29427 99.6471 7.57878 99.6471 7.93316C99.6471 8.30018 99.5458 8.60441 99.3421 8.84628C99.139 9.08816 98.8702 9.26066 98.5366 9.36427V9.38302C98.7487 9.41345 98.9418 9.47302 99.1146 9.56157C99.288 9.65066 99.436 9.76316 99.5611 9.90095C99.6852 10.0388 99.7812 10.1991 99.8475 10.3824C99.9149 10.5661 99.9483 10.7621 99.9483 10.9697C99.9483 11.3124 99.8751 11.5978 99.7293 11.8275C99.5834 12.0572 99.3952 12.2414 99.1645 12.3825C98.9338 12.5232 98.6745 12.6239 98.386 12.6849C98.1028 12.7456 97.8143 12.7764 97.5248 12.7768H94.8833V6.2822ZM104.02 7.86893C103.897 7.71743 103.735 7.60439 103.551 7.54316C103.371 7.47641 103.182 7.44089 102.99 7.43816C102.887 7.43816 102.781 7.45032 102.671 7.4747C102.564 7.49854 102.459 7.537 102.362 7.58907C102.268 7.6382 102.187 7.70886 102.125 7.79532C102.065 7.88114 102.034 7.98566 102.034 8.10754C102.034 8.30345 102.107 8.45302 102.252 8.55753C102.398 8.66157 102.582 8.7497 102.803 8.82282C103.025 8.89643 103.263 8.96955 103.518 9.04316C103.773 9.11677 104.012 9.22032 104.234 9.35489C104.455 9.48989 104.639 9.67032 104.785 9.89629C104.93 10.1227 105.004 10.4259 105.004 10.8043C105.004 11.1652 104.936 11.4802 104.803 11.7497C104.675 12.0116 104.49 12.2406 104.261 12.4196C104.024 12.6011 103.755 12.7348 103.468 12.8133C103.158 12.9004 102.838 12.9438 102.517 12.9422C102.12 12.9459 101.726 12.8808 101.351 12.7496C100.992 12.6211 100.658 12.4134 100.349 12.1252L101.36 11.0063C101.506 11.2022 101.689 11.3532 101.911 11.4609C102.133 11.5674 102.362 11.6208 102.598 11.6208C102.714 11.6208 102.831 11.6072 102.949 11.5796C103.068 11.5519 103.174 11.5111 103.268 11.4558C103.362 11.4005 103.438 11.3307 103.496 11.2449C103.553 11.1591 103.582 11.0583 103.582 10.9421C103.582 10.7466 103.508 10.5919 103.359 10.4789C103.21 10.3655 103.023 10.2694 102.799 10.1897C102.558 10.1051 102.315 10.0255 102.071 9.95114C101.815 9.8747 101.57 9.76702 101.342 9.63052C101.118 9.49718 100.927 9.31541 100.782 9.09845C100.633 8.87816 100.559 8.58754 100.559 8.22657C100.559 7.8783 100.627 7.57268 100.763 7.3097C100.895 7.05196 101.082 6.82643 101.31 6.64878C101.546 6.46755 101.812 6.33228 102.098 6.24989C102.396 6.16118 102.706 6.1165 103.018 6.1172C103.382 6.1172 103.735 6.16879 104.074 6.27282C104.414 6.37691 104.721 6.55128 104.994 6.79552L104.019 7.86893" fill="#384555"/>
<path fill-rule="evenodd" clip-rule="evenodd" d="M9.03849 4.29845C8.50336 4.42379 7.95566 4.48671 7.40621 4.48595C6.84542 4.48595 6.29761 4.4222 5.77166 4.29845C6.2098 3.59849 6.76248 2.97831 7.40621 2.46423C8.04889 2.97896 8.60035 3.59905 9.03849 4.29845ZM13.9766 0.269077C13.3022 0.0891536 12.6073 -0.00129873 11.9097 1.4087e-05C10.3062 -0.00220185 8.73828 0.474983 7.40436 1.37111C6.07075 0.474441 4.50257 -0.00279456 2.89907 1.4087e-05C2.18464 1.4087e-05 1.49023 0.0918889 0.831653 0.269077C0.55658 0.340664 0.285736 0.427834 0.0204182 0.530171C0.0163729 0.53181 0.0126956 0.53425 0.00960411 0.537348C0.0065126 0.540445 0.00406981 0.544136 0.00242051 0.548202C0.000771204 0.552268 -5.1067e-05 0.556623 2.4545e-06 0.561016C5.59761e-05 0.565404 0.000984211 0.569743 0.0027321 0.573766C0.118157 0.825954 0.246614 1.07017 0.384845 1.30642C0.392292 1.31954 0.408116 1.32517 0.422079 1.32002C1.21556 1.02909 2.05372 0.881202 2.89813 0.883141C4.27346 0.883141 5.55991 1.27033 6.65875 1.93783C5.96002 2.53349 5.36592 3.24342 4.90132 4.03783C4.65709 4.45059 4.45067 4.88488 4.28463 5.33533C3.94717 6.24868 3.77472 7.21548 3.77546 8.19C3.77546 10.5094 4.73888 12.6066 6.28271 14.0991C6.40277 14.2181 6.5275 14.3302 6.65875 14.4399C6.76115 14.5289 6.86355 14.6124 6.97057 14.693C7.10511 14.8008 7.24521 14.8997 7.38622 14.9944C7.39147 14.9981 7.39773 15 7.40414 15C7.41051 15 7.41677 14.9981 7.42207 14.9944C7.5626 14.8974 7.70133 14.7985 7.83581 14.693C7.94474 14.6124 8.04714 14.5289 8.14949 14.4399C8.27846 14.3302 8.4078 14.2158 8.52791 14.0991C10.0694 12.6066 11.0333 10.5071 11.0333 8.19048C11.0342 7.0305 10.7892 5.8837 10.3147 4.82674C10.2662 4.71747 10.2156 4.60917 10.1629 4.50189C10.082 4.34479 9.99664 4.19004 9.90696 4.03783C9.44167 3.24392 8.84763 2.53411 8.14949 1.93783C9.28375 1.24705 10.5842 0.882295 11.9097 0.883141C12.7541 0.881202 13.5923 1.02909 14.3857 1.32002C14.4002 1.3247 14.416 1.31908 14.4234 1.30595C14.562 1.06822 14.6893 0.824046 14.8051 0.574232C14.8069 0.570187 14.8079 0.565805 14.808 0.561364C14.8081 0.556923 14.8073 0.552504 14.8056 0.548384C14.8039 0.544264 14.8015 0.540525 14.7984 0.537396C14.7952 0.534263 14.7915 0.531806 14.7874 0.530171C14.5221 0.429858 14.2522 0.339858 13.9766 0.269077Z" fill="#384555"/>
<path fill-rule="evenodd" clip-rule="evenodd" d="M10.1574 8.19471C10.1574 10.1325 9.40475 11.8955 8.17699 13.2047C7.95607 12.4944 7.84375 11.7544 7.84375 11.01C7.84375 9.07221 8.5963 7.30596 9.82411 6C10.0401 6.69332 10.1574 7.43062 10.1574 8.19471Z" fill="#384555"/>
<path fill-rule="evenodd" clip-rule="evenodd" d="M6.96207 11.01C6.96207 11.7727 6.84572 12.51 6.62883 13.2047C5.35562 11.852 4.64673 10.0586 4.64844 8.19471C4.64844 7.43062 4.76712 6.69332 4.98448 6C6.25735 7.35268 6.96536 9.14636 6.96207 11.01Z" fill="#384555"/>
</g>
<defs>
<clipPath id="clip0_6566_63824">
<rect width="105" height="15" fill="white"/>
</clipPath>
</defs>
</svg>
