<svg width="70" height="42" viewBox="0 0 70 42" fill="none" xmlns="http://www.w3.org/2000/svg">
<path fill-rule="evenodd" clip-rule="evenodd" d="M27.6269 31.6977H17.5565C16.9551 31.6977 16.3311 31.3068 15.9648 30.6614L11.2981 21.9114C11.063 21.2659 11.063 20.6205 11.2981 20.1114L15.9648 11.3614C16.3311 10.7159 16.9551 10.325 17.5565 10.325H23.3311C23.9551 10.325 24.5565 9.93409 24.9454 9.28863L29.1056 1.45681C29.4764 0.811359 28.9881 0.029541 28.3866 0.029541H12.8899C11.5514 0.029541 10.4435 0.811359 9.70188 1.9659L0.490643 19.2159C0.34594 19.5008 0.234399 19.7992 0.156018 20.1114C0.0806518 20.4235 0.0429688 20.7432 0.0429688 21.0704C0.0429688 21.3947 0.0806518 21.7129 0.156018 22.025C0.234399 22.3401 0.34594 22.6401 0.490643 22.925L9.70188 40.0568C9.85865 40.3447 10.0531 40.6053 10.2852 40.8386C10.5053 41.072 10.7585 41.2811 11.0449 41.4659C11.3162 41.6356 11.6147 41.7583 11.9403 41.8341C12.2508 41.925 12.5673 41.9704 12.8899 41.9704H32.6825C33.4196 41.9704 33.7904 41.2114 33.4196 40.5659L29.1056 32.5977C28.9881 31.9523 28.3866 31.6795 27.6496 31.6795L27.6269 31.6977Z" fill="#0C1D31"/>
<path d="M54.9034 7.62954L50.9784 0.674996C50.6076 0.029541 49.7529 0.029541 49.3821 0.674996L32.8001 31.5614C32.5468 32.2068 32.5468 32.8477 32.8001 33.3568L37.0959 41.4659C37.4667 42.1068 38.3214 42.1068 38.6877 41.4659L54.9034 11.3614C55.0602 11.0735 55.1763 10.7674 55.2516 10.4432C55.33 10.1311 55.3692 9.81136 55.3692 9.48409C55.3692 9.15984 55.33 8.84166 55.2516 8.52954C55.1763 8.21742 55.0602 7.91742 54.9034 7.62954Z" fill="#0C1D31"/>
<path fill-rule="evenodd" clip-rule="evenodd" d="M34.8802 21.775L39.7956 12.6523C40.0488 12.125 40.0488 11.3614 39.7956 10.7159L34.1386 0.556814C33.7723 -0.0840954 32.9176 -0.0840954 32.5468 0.556814L27.7626 9.425C27.5094 9.93409 27.5094 10.7159 27.7626 11.225L33.2839 21.6568C33.6547 22.4159 34.6269 22.4159 34.8802 21.775Z" fill="#0C1D31"/>
<path d="M69.3873 7.62954L65.4577 0.674996C65.0914 0.029541 64.2368 0.029541 63.866 0.674996L47.2839 31.5614C47.0488 32.2068 47.0488 32.8477 47.2839 33.3568L51.7154 41.4659C52.0862 42.1068 52.9409 42.1068 53.3072 41.4659L69.5229 11.3614C70.1244 10.1886 70.1244 8.78409 69.3873 7.62954Z" fill="#0C1D31"/>
</svg>
