<svg width="58" height="35" viewBox="0 0 58 35" fill="none" xmlns="http://www.w3.org/2000/svg">
<g clip-path="url(#clip0_6566_63835)">
<path fill-rule="evenodd" clip-rule="evenodd" d="M22.8866 26.4136H14.5425C14.0441 26.4136 13.5271 26.0878 13.2236 25.55L9.35699 18.2583C9.16211 17.7204 9.16211 17.1826 9.35699 16.7583L13.2236 9.46665C13.5271 8.92873 14.0441 8.60298 14.5425 8.60298H19.3271C19.8441 8.60298 20.3425 8.27722 20.6648 7.73935L24.1118 1.21283C24.419 0.674953 24.0143 0.0234375 23.516 0.0234375H10.6758C9.56678 0.0234375 8.64881 0.674953 8.03435 1.63707L0.40218 16.0121C0.282284 16.2495 0.189863 16.4981 0.124919 16.7583C0.0624731 17.0184 0.03125 17.2848 0.03125 17.5576C0.03125 17.8277 0.0624731 18.0929 0.124919 18.353C0.189863 18.6156 0.282284 18.8656 0.40218 19.103L8.03435 33.3795C8.16424 33.6194 8.32534 33.8366 8.51765 34.031C8.70002 34.2255 8.90981 34.3997 9.14711 34.5537C9.37199 34.6951 9.61923 34.7974 9.88902 34.8606C10.1463 34.9363 10.4085 34.9742 10.6758 34.9742H27.0754C27.6862 34.9742 27.9934 34.3416 27.6861 33.8037L24.1118 27.1636C24.0143 26.6257 23.516 26.3984 22.9053 26.3984L22.8866 26.4136Z" fill="#384555"/>
<path d="M45.4872 6.35511L42.235 0.559659C41.9278 0.0217803 41.2196 0.0217803 40.9123 0.559659L27.173 26.2983C26.9632 26.8362 26.9632 27.3702 27.173 27.7945L30.7324 34.5521C31.0397 35.0862 31.7478 35.0862 32.0513 34.5521L45.4872 9.46499C45.6171 9.22507 45.7132 8.96999 45.7757 8.69982C45.8406 8.43974 45.8731 8.1733 45.8731 7.90056C45.8731 7.63036 45.8406 7.36521 45.7757 7.10511C45.7132 6.84501 45.6171 6.59501 45.4872 6.35511Z" fill="#384555"/>
<path fill-rule="evenodd" clip-rule="evenodd" d="M28.8985 18.1449L32.9713 10.5426C33.1811 10.1032 33.1811 9.46688 32.9713 8.92897L28.2841 0.463068C27.9806 -0.0710227 27.2725 -0.0710227 26.9652 0.463068L23.0011 7.85322C22.7913 8.27746 22.7913 8.92897 23.0011 9.35322L27.576 18.0464C27.8832 18.679 28.6887 18.679 28.8985 18.1449Z" fill="#384555"/>
<path d="M57.4916 6.35511L54.2356 0.559659C53.9321 0.0217803 53.224 0.0217803 52.9168 0.559659L39.1773 26.2983C38.9826 26.8362 38.9826 27.3702 39.1773 27.7945L42.8492 34.5521C43.1565 35.0862 43.8646 35.0862 44.1681 34.5521L57.604 9.46499C58.1023 8.48766 58.1023 7.31723 57.4916 6.35511Z" fill="#384555"/>
</g>
<defs>
<clipPath id="clip0_6566_63835">
<rect width="58" height="35" fill="white"/>
</clipPath>
</defs>
</svg>
