<svg width="89" height="34" viewBox="0 0 89 34" fill="none" xmlns="http://www.w3.org/2000/svg">
<path d="M83.1906 7.38062H88.1554V24.235C88.1554 30.8003 84.3012 33.1194 78.2585 33.1194C76.8866 33.1194 75.4166 33.0214 73.8488 32.7928V28.3505C74.894 28.4485 75.874 28.5139 76.7559 28.5139C81.1655 28.5139 83.1906 27.142 83.1906 24.235V23.1244C82.1781 24.2676 80.7409 24.9535 78.8137 24.9535C74.6981 24.9535 72.7383 21.4912 72.7383 16.8203V7.38062H77.7031V16.8203C77.7031 18.7148 78.4218 20.3153 80.4469 20.3153C82.4394 20.3153 83.1906 18.7475 83.1906 16.8857V7.38062Z" fill="#0C1D31"/>
<path d="M64.8465 7.21733C69.4521 7.21733 71.8691 11.1696 71.8691 16.0691C71.8691 20.9686 68.9293 24.9536 63.4745 24.9536C58.0197 24.9536 55.0801 20.9686 55.0801 16.0691V0.880615H60.0449V9.73242C61.0248 8.13191 62.5927 7.21733 64.8465 7.21733ZM63.4745 20.348C65.6303 20.348 66.8063 18.4209 66.8063 16.0691C66.8063 13.7173 65.6303 11.8229 63.4745 11.8229C61.3187 11.8229 60.1429 13.7173 60.1429 16.0691C60.1429 18.4209 61.2861 20.348 63.4745 20.348Z" fill="#0C1D31"/>
<path d="M47.0817 12.5415C47.0817 14.5666 54.1698 14.0767 54.1698 20.0214C54.1698 23.2224 51.132 24.9536 48.0289 24.9536C44.8606 24.9536 41.6269 23.1244 41.6269 19.1722L46.2326 19.1395C46.2326 20.4134 47.1144 20.9687 47.8983 20.9687C48.5842 20.9687 49.2048 20.544 49.2048 19.8581C49.2048 16.9184 42.0516 18.2903 42.0516 12.3128C42.0516 8.91586 44.9586 7.1847 47.931 7.1847C50.936 7.1847 54.0065 9.01384 54.0065 12.7701H49.4336C49.4336 11.8882 48.8455 11.5289 48.2576 11.5289C47.6696 11.5289 47.0817 11.8882 47.0817 12.5415Z" fill="#0C1D31"/>
<path d="M32.7792 7.21729C38.234 7.21729 41.1738 11.1696 41.1738 16.0691C41.1738 20.9686 38.2014 24.9535 32.7792 24.9535C27.3244 24.9535 24.3848 20.9686 24.3848 16.0691C24.3848 11.1696 27.3244 7.21729 32.7792 7.21729ZM32.7792 20.348C34.935 20.348 36.111 18.4208 36.111 16.0691C36.111 13.7173 34.935 11.8228 32.7792 11.8228C30.6234 11.8228 29.4477 13.7173 29.4477 16.0691C29.4477 18.4208 30.6234 20.348 32.7792 20.348Z" fill="#0C1D31"/>
<path d="M20.8958 7.38062H24.3255V12.0188H22.5942C21.255 12.0188 20.7325 12.7701 20.7325 14.1419V24.7902H15.7676V12.4761C15.7676 9.2751 17.4661 7.38062 20.8958 7.38062Z" fill="#0C1D31"/>
<path d="M14.6278 11.9861C13.3866 11.7902 12.276 11.6922 11.2961 11.6922C7.44177 11.6922 5.90659 13.26 5.90659 16.0691C5.90659 18.8781 7.47443 20.4786 11.3287 20.4786C12.3086 20.4786 13.3866 20.3806 14.6278 20.1847V24.6269C13.0599 24.8555 11.6227 24.9535 10.3162 24.9535C4.3714 24.9535 0.84375 22.6018 0.84375 16.0691C0.84375 9.5364 4.3714 7.21729 10.2835 7.21729C11.6227 7.21729 13.0599 7.31528 14.6278 7.54393V11.9861Z" fill="#0C1D31"/>
</svg>
