<svg width="85" height="32" viewBox="0 0 85 32" fill="none" xmlns="http://www.w3.org/2000/svg">
<g clip-path="url(#clip0_6566_63840)">
<path d="M79.4513 6.94531H84.193V22.8083C84.193 28.9874 80.512 31.17 74.7408 31.17C73.4306 31.17 72.0268 31.0778 70.5294 30.8627V26.6817C71.5277 26.7739 72.4635 26.8355 73.3058 26.8355C77.5172 26.8355 79.4513 25.5443 79.4513 22.8083V21.763C78.4843 22.8389 77.1117 23.4845 75.2711 23.4845C71.3405 23.4845 69.4688 20.2259 69.4688 15.8297V6.94531H74.2105V15.8297C74.2105 17.6128 74.8968 19.1191 76.8309 19.1191C78.7338 19.1191 79.4513 17.6436 79.4513 15.8913V6.94531Z" fill="#384555"/>
<path d="M61.929 6.79209C66.3276 6.79209 68.6361 10.5119 68.6361 15.1232C68.6361 19.7345 65.8284 23.4851 60.6188 23.4851C55.4091 23.4851 52.6016 19.7345 52.6016 15.1232V0.828125H57.3433V9.15924C58.2792 7.65287 59.7765 6.79209 61.929 6.79209ZM60.6188 19.1504C62.6777 19.1504 63.8007 17.3366 63.8007 15.1232C63.8007 12.9097 62.6777 11.1267 60.6188 11.1267C58.5599 11.1267 57.4369 12.9097 57.4369 15.1232C57.4369 17.3366 58.5287 19.1504 60.6188 19.1504Z" fill="#384555"/>
<path d="M44.9675 11.8073C44.9675 13.7133 51.7369 13.2522 51.7369 18.8472C51.7369 21.8599 48.8357 23.4893 45.8721 23.4893C42.8462 23.4893 39.7578 21.7677 39.7578 18.048L44.1564 18.0172C44.1564 19.2162 44.9987 19.7388 45.7474 19.7388C46.4024 19.7388 46.9951 19.3391 46.9951 18.6935C46.9951 15.9268 40.1633 17.218 40.1633 11.5921C40.1633 8.39495 42.9398 6.76562 45.7786 6.76562C48.6485 6.76562 51.5809 8.48717 51.5809 12.0225H47.2136C47.2136 11.1924 46.652 10.8543 46.0905 10.8543C45.5289 10.8543 44.9675 11.1924 44.9675 11.8073Z" fill="#384555"/>
<path d="M31.3063 6.78906C36.5159 6.78906 39.3235 10.5089 39.3235 15.1202C39.3235 19.7315 36.4848 23.482 31.3063 23.482C26.0966 23.482 23.2891 19.7315 23.2891 15.1202C23.2891 10.5089 26.0966 6.78906 31.3063 6.78906ZM31.3063 19.1474C33.3652 19.1474 34.4882 17.3335 34.4882 15.1202C34.4882 12.9067 33.3652 11.1237 31.3063 11.1237C29.2474 11.1237 28.1244 12.9067 28.1244 15.1202C28.1244 17.3335 29.2474 19.1474 31.3063 19.1474Z" fill="#384555"/>
<path d="M19.9602 6.94531H23.2358V11.3107H21.5824C20.3034 11.3107 19.8043 12.0178 19.8043 13.3089V23.3308H15.0625V11.7411C15.0625 8.72835 16.6847 6.94531 19.9602 6.94531Z" fill="#384555"/>
<path d="M13.9692 11.2774C12.7838 11.093 11.7231 11.0007 10.7872 11.0007C7.10617 11.0007 5.63999 12.4763 5.63999 15.1202C5.63999 17.7639 7.13736 19.2703 10.8184 19.2703C11.7543 19.2703 12.7838 19.1781 13.9692 18.9937V23.1746C12.4717 23.3897 11.0991 23.482 9.85135 23.482C4.17379 23.482 0.804688 21.2686 0.804688 15.1202C0.804688 8.97175 4.1738 6.78906 9.82021 6.78906C11.0991 6.78906 12.4717 6.88129 13.9692 7.09649V11.2774Z" fill="#384555"/>
</g>
<defs>
<clipPath id="clip0_6566_63840">
<rect width="85" height="32" fill="white"/>
</clipPath>
</defs>
</svg>
