<svg width="153" height="26" viewBox="0 0 153 26" fill="none" xmlns="http://www.w3.org/2000/svg">
<path d="M21.2342 10.8385L11.2301 16.581L0.517749 10.445L0.00195312 10.7286V15.1841L11.2301 21.6025L21.233 15.8825V18.2403L11.2301 23.9839L0.517749 17.8479L0.00195312 18.1315V18.895L11.2301 25.3146L22.4362 18.895V14.4407L21.9204 14.1571L11.2301 20.2706L1.20393 14.5506V12.1917L11.2301 17.9117L22.4362 11.4945V7.10282L21.8775 6.77546L11.2301 12.8677L1.71973 7.45264L11.2301 2.01627L19.0435 6.49182L19.7308 6.09946V5.55346L11.2301 0.685547L0.00195312 7.104V7.80364L11.2301 14.2233L21.233 8.47964L21.2342 10.8385Z" fill="#0C1D31"/>
<path d="M43.4114 21.6735V2.06593H40.4487V9.40148C40.4487 9.51139 40.3838 9.59884 40.2772 9.64257C40.2294 9.65958 40.1779 9.66239 40.1287 9.65067C40.0794 9.63896 40.0344 9.61319 39.999 9.57639C38.9894 8.37566 37.4223 7.69848 35.7046 7.69848C32.0337 7.69848 29.1557 10.8421 29.1557 14.8603C29.1557 16.8257 29.8222 18.6386 31.045 19.9705C31.6399 20.623 32.3613 21.1422 33.1634 21.4954C33.9655 21.8486 34.8309 22.028 35.7046 22.0221C37.4003 22.0221 38.9674 21.3012 39.9979 20.0579C40.0628 19.9705 40.1914 19.948 40.276 19.9705C40.3838 20.0142 40.4499 20.1005 40.4499 20.2104V21.6735H43.4114ZM36.349 19.2933C33.9868 19.2933 32.1415 17.3504 32.1415 14.8615C32.1415 12.3714 33.9868 10.4285 36.349 10.4285C38.7113 10.4285 40.5565 12.3714 40.5565 14.8603C40.5565 17.3492 38.7101 19.2921 36.349 19.2921M59.255 21.6747V8.02703H56.3144V9.40266C56.3144 9.51257 56.2495 9.59884 56.1417 9.64257C56.0926 9.6627 56.0383 9.66512 55.9877 9.64943C55.9371 9.63374 55.8933 9.60088 55.8635 9.5563C54.8759 8.35439 53.3297 7.67721 51.5691 7.67721C47.8982 7.67721 45.0214 10.822 45.0214 14.839C45.0214 18.8572 47.8982 22.0008 51.5702 22.0008C53.266 22.0008 54.8331 21.2799 55.8635 20.0154C55.9272 19.9268 56.0559 19.9055 56.1417 19.9268C56.2495 19.9705 56.3144 20.0579 56.3144 20.1678V21.6522H59.255V21.6747ZM52.2355 19.2945C49.8733 19.2945 48.028 17.3504 48.028 14.8627C48.028 12.3726 49.8733 10.4297 52.2355 10.4297C54.5978 10.4297 56.443 12.3726 56.443 14.8615C56.443 17.3504 54.5966 19.2945 52.2355 19.2945ZM84.4362 21.6747V8.02703H81.4945V9.40266C81.4945 9.51257 81.4307 9.59884 81.3229 9.64257C81.2151 9.6863 81.1085 9.64257 81.0447 9.5563C80.056 8.35439 78.511 7.67721 76.7503 7.67721C73.0574 7.67721 70.2026 10.822 70.2026 14.8627C70.2026 18.9009 73.0795 22.0245 76.7503 22.0245C78.4461 22.0245 80.0132 21.3036 81.0436 20.0367C81.1085 19.9492 81.2371 19.9268 81.3229 19.9492C81.4307 19.9929 81.4945 20.0792 81.4945 20.1891V21.6735L84.4362 21.6747ZM77.4156 19.2945C75.0546 19.2945 73.2081 17.3504 73.2081 14.8627C73.2081 12.3726 75.0546 10.4297 77.4156 10.4297C79.7767 10.4297 81.6231 12.3726 81.6231 14.8615C81.6231 17.3504 79.7767 19.2945 77.4156 19.2945ZM89.8249 20.0579C89.8469 20.0579 89.8898 20.0355 89.9106 20.0355C89.9755 20.0355 90.0613 20.0792 90.1042 20.1229C91.1126 21.3237 92.6797 22.0008 94.3975 22.0008C98.0683 22.0008 100.946 18.8572 100.946 14.839C100.946 12.8737 100.28 11.0619 99.057 9.73003C98.4622 9.07734 97.7409 8.55783 96.9388 8.20444C96.1367 7.85106 95.2713 7.67152 94.3975 7.67721C92.7017 7.67721 91.1346 8.39812 90.1042 9.64257C90.0393 9.73003 89.9326 9.7513 89.826 9.73003C89.7182 9.6863 89.6533 9.59884 89.6533 9.48893V2.06593H86.6907V21.6723H89.6533V20.299C89.6533 20.1891 89.7182 20.1017 89.8249 20.0579ZM89.5235 14.8615C89.5235 12.3726 91.3711 10.4297 93.7322 10.4297C96.0932 10.4297 97.9397 12.3726 97.9397 14.8615C97.9397 17.3504 96.0932 19.2933 93.7322 19.2933C91.3711 19.2933 89.5235 17.3291 89.5235 14.8615ZM109.512 10.8244C109.79 10.8244 110.049 10.8468 110.219 10.8906V7.78948C110.056 7.76002 109.892 7.74539 109.726 7.74575C108.18 7.74575 106.764 8.55412 106.013 9.8423C105.948 9.95103 105.84 9.99594 105.733 9.95103C105.68 9.93761 105.632 9.90701 105.598 9.86379C105.563 9.82057 105.542 9.76702 105.54 9.71112V8.02939H102.599V21.6983H105.562V15.671C105.562 12.681 107.064 10.8256 109.512 10.8256M115.093 8.02821H112.088V21.6971H115.093V8.02821ZM113.547 2.08721C113.304 2.08096 113.062 2.12434 112.836 2.21481C112.61 2.30527 112.404 2.44099 112.23 2.61396C112.056 2.78692 111.917 2.99365 111.823 3.22194C111.729 3.45024 111.68 3.69549 111.68 3.94325C111.68 4.19101 111.729 4.43626 111.823 4.66456C111.917 4.89286 112.056 5.09958 112.23 5.27255C112.404 5.44552 112.61 5.58123 112.836 5.6717C113.062 5.76216 113.304 5.80555 113.547 5.7993C113.791 5.8082 114.035 5.76679 114.263 5.67755C114.492 5.58831 114.7 5.45307 114.876 5.2799C115.052 5.10672 115.192 4.89917 115.288 4.66962C115.383 4.44007 115.433 4.19324 115.433 3.94384C115.433 3.69445 115.383 3.44761 115.288 3.21807C115.192 2.98852 115.052 2.78096 114.876 2.60779C114.7 2.43462 114.492 2.29938 114.263 2.21014C114.035 2.1209 113.791 2.07949 113.547 2.08839M123.895 7.67721C119.773 7.67721 116.789 10.6908 116.789 14.8627C116.789 16.8918 117.498 18.7036 118.764 20.0154C120.053 21.3248 121.855 22.0458 123.873 22.0458C125.548 22.0458 126.836 21.7184 129.284 19.883L127.588 18.0713C126.385 18.8797 125.269 19.272 124.175 19.272C121.684 19.272 119.816 17.3728 119.816 14.8615C119.816 12.3501 121.684 10.4509 124.175 10.4509C125.354 10.4509 126.45 10.8445 127.545 11.6517L129.433 9.83994C127.223 7.9183 125.226 7.67721 123.895 7.67721ZM134.5 15.6687C134.523 15.6464 134.55 15.6291 134.579 15.6179C134.609 15.6068 134.641 15.6019 134.672 15.6037H134.693C134.758 15.6037 134.822 15.6474 134.887 15.6899L139.631 21.6735H143.281L137.141 14.1181C137.054 14.0094 137.054 13.8558 137.162 13.7695L142.808 8.02584H139.18L134.307 13.0048C134.242 13.0698 134.136 13.0923 134.028 13.0698C133.984 13.048 133.946 13.014 133.919 12.9716C133.893 12.9293 133.878 12.8802 133.877 12.8299V2.08721H130.894V21.6948H133.856V16.3671C133.856 16.3021 133.877 16.2135 133.942 16.1709L134.5 15.6687Z" fill="#0C1D31"/>
<path d="M148.105 22.0232C150.531 22.0232 153 20.5164 153 17.6564C153 15.7785 151.841 14.4891 149.479 13.7044L147.868 13.1584C146.774 12.7873 146.258 12.2626 146.258 11.5429C146.258 10.7132 146.989 10.1448 148.019 10.1448C149.007 10.1448 149.886 10.8007 150.445 11.9352L152.828 10.6258C151.948 8.7916 150.123 7.65587 148.019 7.65587C145.357 7.65587 143.426 9.4026 143.426 11.7828C143.426 13.682 144.542 14.9489 146.838 15.6911L148.492 16.2371C149.651 16.6081 150.145 17.088 150.145 17.8526C150.145 19.0108 149.092 19.4244 148.191 19.4244C146.989 19.4244 145.915 18.6385 145.401 17.3503L142.975 18.661C143.769 20.7351 145.722 22.0232 148.105 22.0232ZM67.4946 21.8921C68.4393 21.8921 69.2773 21.8046 69.7491 21.7384V19.1195C69.2569 19.1713 68.7626 19.2001 68.2678 19.2058C67.0658 19.2058 66.1431 18.9883 66.1431 16.3458V10.7345C66.1431 10.5809 66.2498 10.4721 66.4005 10.4721H69.2982V8.00451H66.4005C66.3664 8.00582 66.3325 7.99998 66.3008 7.98734C66.269 7.97469 66.2402 7.95552 66.216 7.93102C66.1919 7.90651 66.173 7.8772 66.1604 7.84491C66.1479 7.81262 66.142 7.77804 66.1431 7.74333V3.8126H63.1805V7.7646C63.1805 7.91823 63.0727 8.02696 62.922 8.02696H60.8612V10.4946H62.922C63.0727 10.4946 63.1805 10.6033 63.1805 10.7558V17.1104C63.1805 21.8921 66.3147 21.8921 67.4946 21.8921Z" fill="#0C1D31"/>
</svg>
