<svg width="105" height="18" viewBox="0 0 105 18" fill="none" xmlns="http://www.w3.org/2000/svg">
<g clip-path="url(#clip0_6566_63831)">
<path d="M14.5711 7.50559L7.70558 11.4811L0.353977 7.2331L0 7.42944V10.514L7.70558 14.9576L14.5703 10.9976V12.6298L7.70558 16.6062L0.353977 12.3582L0 12.5546V13.0831L7.70558 17.5274L15.396 13.0831V9.99936L15.0421 9.80302L7.70558 14.0354L0.824885 10.0754V8.44236L7.70558 12.4024L15.396 7.95968V4.91929L15.0126 4.69265L7.70558 8.91036L1.17887 5.16147L7.70558 1.39783L13.0677 4.49629L13.5395 4.22465V3.84665L7.70558 0.476562L0 4.92011V5.40447L7.70558 9.84885L14.5703 5.87247L14.5711 7.50559Z" fill="#384555"/>
<path d="M29.7911 15.0042V1.42969H27.758V6.50815C27.758 6.58424 27.7134 6.64478 27.6402 6.67505C27.6075 6.68683 27.5721 6.68878 27.5383 6.68066C27.5045 6.67255 27.4737 6.65471 27.4493 6.62924C26.7565 5.79796 25.681 5.32915 24.5022 5.32915C21.983 5.32915 20.0078 7.50549 20.0078 10.2873C20.0078 11.648 20.4652 12.9031 21.3045 13.8252C21.7127 14.2769 22.2077 14.6364 22.7582 14.8809C23.3087 15.1254 23.9026 15.2496 24.5022 15.2455C25.6659 15.2455 26.7413 14.7464 27.4485 13.8857C27.4931 13.8252 27.5813 13.8096 27.6395 13.8252C27.7134 13.8554 27.7587 13.9152 27.7587 13.9912V15.0042H29.7911ZM24.9445 13.3563C23.3233 13.3563 22.057 12.0112 22.057 10.2882C22.057 8.56424 23.3233 7.21915 24.9445 7.21915C26.5656 7.21915 27.832 8.56424 27.832 10.2873C27.832 12.0104 26.5648 13.3555 24.9445 13.3555M40.6642 15.005V5.5566H38.6461V6.50896C38.6461 6.58505 38.6016 6.64478 38.5276 6.67505C38.4939 6.68899 38.4567 6.69066 38.4219 6.6798C38.3872 6.66894 38.3571 6.64618 38.3367 6.61533C37.659 5.78324 36.5978 5.31442 35.3896 5.31442C32.8703 5.31442 30.896 7.49157 30.896 10.2726C30.896 13.0544 32.8703 15.2308 35.3903 15.2308C36.5541 15.2308 37.6296 14.7317 38.3367 13.8562C38.3805 13.7949 38.4687 13.7802 38.5276 13.7949C38.6016 13.8252 38.6461 13.8857 38.6461 13.9618V14.9894H40.6642V15.005ZM35.847 13.3572C34.2258 13.3572 32.9595 12.0112 32.9595 10.289C32.9595 8.56507 34.2258 7.21998 35.847 7.21998C37.4681 7.21998 38.7345 8.56507 38.7345 10.2882C38.7345 12.0112 37.4673 13.3572 35.847 13.3572ZM57.9455 15.005V5.5566H55.9266V6.50896C55.9266 6.58505 55.8828 6.64478 55.8088 6.67505C55.7348 6.70533 55.6617 6.67505 55.618 6.61533C54.9395 5.78324 53.8791 5.31442 52.6708 5.31442C50.1365 5.31442 48.1773 7.49158 48.1773 10.289C48.1773 13.0847 50.1516 15.2472 52.6708 15.2472C53.8346 15.2472 54.91 14.7481 55.6172 13.871C55.6617 13.8104 55.75 13.7949 55.8088 13.8104C55.8828 13.8407 55.9266 13.9004 55.9266 13.9765V15.0042L57.9455 15.005ZM53.1274 13.3572C51.5071 13.3572 50.2398 12.0112 50.2398 10.289C50.2398 8.56507 51.5071 7.21998 53.1274 7.21998C54.7477 7.21998 56.0149 8.56507 56.0149 10.2882C56.0149 12.0112 54.7477 13.3572 53.1274 13.3572ZM61.6435 13.8857C61.6586 13.8857 61.6881 13.8702 61.7024 13.8702C61.747 13.8702 61.8058 13.9004 61.8352 13.9307C62.5273 14.762 63.6027 15.2308 64.7816 15.2308C67.3008 15.2308 69.2762 13.0544 69.2762 10.2726C69.2762 8.91198 68.8185 7.65766 67.9793 6.7356C67.5712 6.28374 67.0761 5.92408 66.5256 5.67943C65.9752 5.43478 65.3813 5.31047 64.7816 5.31442C63.6178 5.31442 62.5424 5.8135 61.8352 6.67505C61.7907 6.7356 61.7175 6.75033 61.6443 6.7356C61.5703 6.70533 61.5258 6.64478 61.5258 6.56869V1.42969H59.4926V15.0033H61.5258V14.0526C61.5258 13.9765 61.5703 13.916 61.6435 13.8857ZM61.4367 10.2882C61.4367 8.56507 62.7047 7.21998 64.325 7.21998C65.9453 7.21998 67.2125 8.56507 67.2125 10.2882C67.2125 12.0112 65.9453 13.3563 64.325 13.3563C62.7047 13.3563 61.4367 11.9965 61.4367 10.2882ZM75.1542 7.49324C75.3449 7.49324 75.5227 7.50881 75.6394 7.53907V5.39214C75.5282 5.37175 75.4149 5.36162 75.3017 5.36187C74.24 5.36187 73.2683 5.92151 72.7529 6.81333C72.7083 6.8886 72.6342 6.91969 72.5614 6.8886C72.5244 6.87931 72.4921 6.85813 72.4681 6.82821C72.4441 6.79828 72.4303 6.76121 72.4283 6.72251V5.55824H70.4099V15.0213H72.4434V10.8486C72.4434 8.77858 73.4742 7.49407 75.1542 7.49407M78.9843 5.55742H76.922V15.0205H78.9843V5.55742ZM77.9233 1.44442C77.7565 1.44009 77.5904 1.47013 77.4353 1.53276C77.2802 1.59538 77.1389 1.68934 77.0194 1.80909C76.9 1.92883 76.8053 2.07195 76.7401 2.23C76.6756 2.38806 76.642 2.55784 76.642 2.72937C76.642 2.9009 76.6756 3.07069 76.7401 3.22874C76.8053 3.38679 76.9 3.52991 77.0194 3.64966C77.1389 3.7694 77.2802 3.86336 77.4353 3.92599C77.5904 3.98862 77.7565 4.01866 77.9233 4.01433C78.0907 4.02048 78.2582 3.99182 78.4153 3.93004C78.5718 3.86826 78.7145 3.77463 78.8353 3.65474C78.9561 3.53485 79.0522 3.39116 79.1181 3.23224C79.184 3.07332 79.2176 2.90243 79.2176 2.72978C79.2176 2.55712 79.184 2.38624 79.1181 2.22732C79.0522 2.0684 78.9561 1.92471 78.8353 1.80482C78.7145 1.68493 78.5718 1.5913 78.4153 1.52953C78.2582 1.46774 78.0907 1.43908 77.9233 1.44524M85.0248 5.31442C82.1967 5.31442 80.1482 7.40081 80.1482 10.289C80.1482 11.6938 80.6347 12.9481 81.5036 13.8562C82.3882 14.7628 83.6248 15.2619 85.0097 15.2619C86.1593 15.2619 87.0432 15.0352 88.7232 13.7646L87.5592 12.5103C86.7337 13.07 85.9678 13.3416 85.217 13.3416C83.5075 13.3416 82.2262 12.0268 82.2262 10.2882C82.2262 8.54949 83.5075 7.23466 85.217 7.23466C86.0268 7.23466 86.7783 7.50715 87.5297 8.06598L88.8261 6.81169C87.3088 5.48133 85.9383 5.31442 85.0248 5.31442ZM92.3028 10.847C92.3186 10.8315 92.3371 10.8196 92.3577 10.8118C92.3776 10.8041 92.3995 10.8007 92.4215 10.802H92.4359C92.4798 10.802 92.5238 10.8322 92.5684 10.8617L95.8241 15.0042H98.329L94.1159 9.77349C94.0562 9.69824 94.0562 9.5919 94.1296 9.53215L98.0044 5.55578H95.5145L92.171 9.00281C92.1264 9.04781 92.053 9.06332 91.9789 9.04781C91.9487 9.03265 91.9226 9.00911 91.9047 8.97976C91.8862 8.95048 91.8759 8.91648 91.8752 8.88166V1.44442H89.8281V15.0189H91.8615V11.3305C91.8615 11.2855 91.8752 11.2242 91.9198 11.1947L92.3028 10.847Z" fill="#384555"/>
<path d="M101.639 15.248C103.304 15.248 104.998 14.2048 104.998 12.2248C104.998 10.9247 104.203 10.0321 102.582 9.48879L101.477 9.11079C100.725 8.85387 100.372 8.49062 100.372 7.99236C100.372 7.41796 100.873 7.02445 101.58 7.02445C102.258 7.02445 102.861 7.47853 103.245 8.26396L104.88 7.35745C104.277 6.08763 103.024 5.30135 101.58 5.30135C99.7528 5.30135 98.4276 6.51062 98.4276 8.15845C98.4276 9.47328 99.1935 10.3504 100.769 10.8642L101.904 11.2422C102.7 11.4991 103.039 11.8313 103.039 12.3606C103.039 13.1625 102.317 13.4488 101.698 13.4488C100.873 13.4488 100.136 12.9047 99.783 12.0129L98.1181 12.9203C98.663 14.3562 100.003 15.248 101.639 15.248ZM46.318 15.1572C46.9663 15.1572 47.5414 15.0966 47.8652 15.0508V13.2377C47.5274 13.2736 47.1882 13.2935 46.8486 13.2974C46.0237 13.2974 45.3905 13.1469 45.3905 11.3174V7.4327C45.3905 7.32636 45.4637 7.25111 45.5671 7.25111H47.5557V5.54272H45.5671C45.5437 5.54362 45.5204 5.53958 45.4987 5.53082C45.4769 5.52207 45.4571 5.5088 45.4406 5.49184C45.4239 5.47487 45.411 5.45458 45.4024 5.43222C45.3938 5.40987 45.3897 5.38593 45.3905 5.36189V2.64062H43.3573V5.37663C43.3573 5.48298 43.2833 5.55826 43.18 5.55826H41.7656V7.26662H43.18C43.2833 7.26662 43.3573 7.34187 43.3573 7.44745V11.8468C43.3573 15.1572 45.5082 15.1572 46.318 15.1572Z" fill="#384555"/>
</g>
<defs>
<clipPath id="clip0_6566_63831">
<rect width="105" height="18" fill="white"/>
</clipPath>
</defs>
</svg>
