<svg width="61" height="60" viewBox="0 0 61 60" fill="none" xmlns="http://www.w3.org/2000/svg">
<path d="M60.5 0H0.5V60H60.5V0Z" fill="#0C1D31"/>
<path d="M11.7896 35.3138C12.7169 34.2752 13.3773 32.9934 13.6641 31.5761C14.4039 35.2364 17.6385 37.9921 21.5169 37.9921C25.3957 37.9921 28.6306 35.2357 29.37 31.5748V37.9921H32.0252V28.41L37.3821 33.7667L42.7156 28.41V37.9921H45.417V31.5748C46.1565 35.2357 49.3912 37.9921 53.2701 37.9921C56.4572 37.9921 59.2095 36.131 60.5 33.4364V26.5236C59.2095 23.829 56.4572 21.968 53.2701 21.968C49.3912 21.968 46.1565 24.7243 45.417 28.3853V21.968L37.3821 29.9799L29.37 21.968V28.3853C28.6306 24.7244 25.3957 21.968 21.5169 21.968C17.6386 21.968 14.404 24.7237 13.6641 28.384C13.3774 26.9667 12.717 25.685 11.7897 24.6464C10.3224 23.003 8.18802 21.968 5.81165 21.968H0.5V37.9921H5.81165C8.18795 37.9921 10.3223 36.9571 11.7896 35.3138ZM53.2701 24.6338C56.2226 24.6338 58.6164 27.0274 58.6164 29.98C58.6164 32.9327 56.2226 35.3262 53.2701 35.3262C50.3174 35.3262 47.9238 32.9327 47.9238 29.98C47.9238 27.0275 50.3174 24.6338 53.2701 24.6338ZM21.5169 24.6338C24.4695 24.6338 26.8632 27.0274 26.8632 29.98C26.8632 32.9327 24.4696 35.3262 21.5169 35.3262C18.5643 35.3262 16.1707 32.9327 16.1707 29.98C16.1707 27.0275 18.5642 24.6338 21.5169 24.6338ZM3.15523 24.6465H6.16152C8.95085 24.827 11.1578 27.1451 11.1578 29.98C11.1578 32.8157 8.9498 35.1344 6.1595 35.3138H3.15523V24.6465Z" fill="white"/>
</svg>
