<svg width="41" height="40" viewBox="0 0 41 40" fill="none" xmlns="http://www.w3.org/2000/svg">
<g clip-path="url(#clip0_6566_63850)">
<path d="M40.6638 0H0.335938V40H40.6638V0Z" fill="#384555"/>
<path d="M7.92403 23.5456C8.5473 22.8532 8.99117 21.9987 9.18394 21.0538C9.68118 23.494 11.8553 25.3312 14.4621 25.3312C17.0691 25.3312 19.2434 23.4936 19.7404 21.053V25.3312H21.525V18.9431L25.1255 22.5142L28.7104 18.9431V25.3312H30.5261V21.053C31.0231 23.4936 33.1972 25.3312 35.8044 25.3312C37.9465 25.3312 39.7964 24.0904 40.6638 22.294V17.6855C39.7964 15.8891 37.9465 14.6484 35.8044 14.6484C33.1972 14.6484 31.0231 16.486 30.5261 18.9266V14.6484L25.1255 19.9897L19.7404 14.6484V18.9266C19.2434 16.486 17.0691 14.6484 14.4621 14.6484C11.8553 14.6484 9.68125 16.4856 9.18394 18.9258C8.99124 17.9809 8.54736 17.1264 7.9241 16.434C6.93788 15.3384 5.5033 14.6484 3.90606 14.6484H0.335938V25.3312H3.90606C5.50325 25.3312 6.93781 24.6412 7.92403 23.5456ZM35.8044 16.4256C37.7888 16.4256 39.3978 18.0214 39.3978 19.9898C39.3978 21.9582 37.7888 23.5539 35.8044 23.5539C33.8198 23.5539 32.211 21.9582 32.211 19.9898C32.211 18.0214 33.8198 16.4256 35.8044 16.4256ZM14.4621 16.4256C16.4466 16.4256 18.0555 18.0214 18.0555 19.9898C18.0555 21.9582 16.4467 23.5539 14.4621 23.5539C12.4775 23.5539 10.8687 21.9582 10.8687 19.9898C10.8687 18.0214 12.4774 16.4256 14.4621 16.4256ZM2.1206 16.4341H4.14122C6.01602 16.5544 7.49938 18.0998 7.49938 19.9898C7.49938 21.8802 6.01531 23.426 4.13986 23.5456H2.1206V16.4341Z" fill="#F6F6F5"/>
</g>
<defs>
<clipPath id="clip0_6566_63850">
<rect width="41" height="40" fill="white"/>
</clipPath>
</defs>
</svg>
