<svg width="43" height="35" viewBox="0 0 43 35" fill="none" xmlns="http://www.w3.org/2000/svg">
<g clip-path="url(#clip0_6566_63855)">
<path d="M27.3612 9.77593L28.7385 9.7994L32.4808 6.06099L32.6622 4.47705C29.6939 1.83534 25.7749 0.226562 21.4923 0.226562C13.7389 0.226562 7.19483 5.49655 5.25781 12.635C5.66631 12.3505 6.53975 12.5639 6.53975 12.5639L14.0177 11.3357C14.0177 11.3357 14.402 10.7001 14.5969 10.7317C15.4713 9.77196 16.5367 9.00538 17.725 8.48101C18.9132 7.95667 20.198 7.68606 21.497 7.68656C23.7142 7.69125 25.7567 8.47385 27.3612 9.76854V9.77593Z" fill="#384555"/>
<path d="M37.7401 12.6493C36.8714 9.44788 35.0808 6.62093 32.6641 4.47656L27.365 9.77004C29.4881 11.4815 30.85 14.1004 30.85 17.0321V17.9663C33.4279 17.9663 35.5222 20.063 35.5222 22.6336C35.5222 25.2089 33.4233 27.3008 30.85 27.3008H21.5056L20.5703 28.2405V33.842L21.5056 34.7716H30.85C34.0711 34.7671 37.1591 33.487 39.4368 31.2118C41.7145 28.9366 42.9962 25.852 43.0009 22.6343C42.9962 18.5033 40.9181 14.8481 37.7401 12.6493Z" fill="#384555"/>
<path d="M12.1541 34.7771H21.4931V27.3003H12.1541C11.4906 27.3004 10.8348 27.158 10.2312 26.8828L8.88272 27.2956L5.14038 31.034L4.8125 32.2958C6.92144 33.9029 9.50081 34.7729 12.1534 34.7717L12.1541 34.7771Z" fill="#384555"/>
<path d="M12.1508 10.5C8.92975 10.5045 5.8418 11.7846 3.56405 14.0598C1.28631 16.335 0.00462142 19.4196 0 22.6374C0 26.5791 1.88999 30.0839 4.81465 32.3041L10.2326 26.8919C9.41254 26.5224 8.71658 25.9246 8.22805 25.1699C7.7396 24.4154 7.47939 23.536 7.47864 22.6374C7.47864 20.0621 9.57761 17.97 12.1508 17.97C14.0456 17.97 15.6741 19.111 16.4106 20.7218L21.8286 15.3096C19.6066 12.388 16.0968 10.5 12.1508 10.5Z" fill="#384555"/>
</g>
<defs>
<clipPath id="clip0_6566_63855">
<rect width="43" height="35" fill="white"/>
</clipPath>
</defs>
</svg>
