<svg width="54" height="44" viewBox="0 0 54 44" fill="none" xmlns="http://www.w3.org/2000/svg">
<path d="M34.3643 12.2869L36.0939 12.3164L40.7936 7.6167L41.0214 5.62545C37.2938 2.30445 32.3722 0.281982 26.9941 0.281982C17.2572 0.281982 9.03909 6.90711 6.60656 15.8812C7.11956 15.5235 8.21644 15.7918 8.21644 15.7918L17.6074 14.2477C17.6074 14.2477 18.09 13.4487 18.3347 13.4884C19.4328 12.2819 20.7708 11.3183 22.263 10.659C23.7552 9.99983 25.3687 9.65963 27 9.66026C29.7844 9.66617 32.3494 10.65 34.3643 12.2776V12.2869Z" fill="#0C1D31"/>
<path d="M47.3934 15.8998C46.3025 11.8751 44.0539 8.32123 41.0189 5.62545L34.3643 12.2801C37.0305 14.4317 38.7408 17.724 38.7408 21.4095V22.584C41.9782 22.584 44.6082 25.2199 44.6082 28.4514C44.6082 31.6889 41.9723 34.3189 38.7408 34.3189H27.0059L25.8314 35.5001V42.542L27.0059 43.7106H38.7408C42.7859 43.7051 46.6638 42.0957 49.5242 39.2355C52.3846 36.3752 53.9942 32.4974 54 28.4523C53.9941 23.259 51.3844 18.6639 47.3934 15.8998Z" fill="#0C1D31"/>
<path d="M15.2592 43.7182H26.9873V34.3189H15.2592C14.426 34.319 13.6024 34.14 12.8444 33.794L11.151 34.3129L6.45131 39.0126L6.03956 40.5989C8.688 42.6193 11.9272 43.713 15.2584 43.7115L15.2592 43.7182Z" fill="#0C1D31"/>
<path d="M15.2592 13.1998C11.2141 13.2054 7.33621 14.8147 4.47578 17.675C1.61536 20.5352 0.00580364 24.413 0 28.4582C0 33.4135 2.37347 37.8196 6.04631 40.6107L12.8503 33.8067C11.8204 33.3423 10.9464 32.5907 10.3329 31.642C9.7195 30.6934 9.39272 29.5879 9.39178 28.4582C9.39178 25.2207 12.0277 22.5907 15.2592 22.5907C17.6386 22.5907 19.6838 24.0251 20.6086 26.0501L27.4126 19.2461C24.6223 15.5733 20.2146 13.1998 15.2592 13.1998Z" fill="#0C1D31"/>
</svg>
