<svg width="105" height="17" viewBox="0 0 105 17" fill="none" xmlns="http://www.w3.org/2000/svg">
<g clip-path="url(#clip0_6566_63862)">
<path d="M29.7232 9.15261C29.6124 12.0998 27.249 14.4103 24.3133 14.4103C21.2113 14.4103 18.9219 11.9361 18.9219 8.95253C18.9219 5.95076 21.4144 3.47656 24.461 3.47656C25.8273 3.47656 27.1752 4.05872 28.32 5.0957L27.4337 6.16904C26.5659 5.42317 25.5134 4.91376 24.461 4.91376C22.2269 4.91376 20.3989 6.71481 20.3989 8.93429C20.3989 11.1902 22.1161 12.9367 24.3318 12.9367C26.3074 12.9367 27.8584 11.5177 28.1722 9.6802H23.6855V8.4067H29.7416L29.7232 9.15261Z" fill="#384555"/>
<path d="M34.8731 8.44774H34.0423C33.1376 8.44774 32.399 9.17541 32.399 10.085V14.3239H30.9219V7.04688H32.1405V7.66541C32.5467 7.26519 33.1745 7.04688 33.8761 7.04688H35.4639L34.8731 8.44774Z" fill="#384555"/>
<path d="M42.9118 14.3237H41.6563V13.414C40.6961 14.3419 39.1636 14.7967 37.6126 14.1235C36.4679 13.6324 35.6001 12.5954 35.3786 11.3765C34.9354 9.02961 36.7818 6.9375 39.1267 6.9375C40.1237 6.9375 40.9916 7.33772 41.6563 7.97443V7.06487H42.9302L42.9118 14.3237ZM41.3977 11.2127C41.7485 9.73917 40.6038 8.3929 39.1267 8.3929C37.8526 8.3929 36.8002 9.42983 36.8002 10.667C36.8002 12.0859 38.0558 13.1775 39.5329 12.9228C40.4561 12.7773 41.1946 12.086 41.3977 11.2127Z" fill="#384555"/>
<path d="M45.8805 6.64595V7.04617H48.2254V8.31967H45.8805V14.305H44.4219V6.66413C44.4219 5.06318 45.5851 4.11719 47.0437 4.11719H48.8163L48.2254 5.48163H47.0437C46.3975 5.51801 45.8805 6.02743 45.8805 6.64595Z" fill="#384555"/>
<path d="M56.0524 14.3237H54.7968V13.414C53.8366 14.3419 52.3044 14.7967 50.7531 14.1235C49.6085 13.6324 48.7407 12.5954 48.5192 11.3765C48.076 9.02961 49.9225 6.9375 52.2675 6.9375C53.2642 6.9375 54.1323 7.33772 54.7968 7.97443V7.06487H56.0707L56.0524 14.3237ZM54.5385 11.2127C54.889 9.73917 53.7443 8.3929 52.2675 8.3929C50.975 8.3929 49.9595 9.42983 49.9595 10.667C49.9595 12.0859 51.215 13.1775 52.6919 12.9228C53.5965 12.7773 54.3354 12.086 54.5385 11.2127Z" fill="#384555"/>
<path d="M63.9419 10.012V14.3237H62.465V10.012C62.465 9.10238 61.7078 8.37465 60.8032 8.37465C59.8799 8.37465 59.1415 9.10238 59.1415 10.012V14.3237H57.6641V7.04663H58.8826V7.68334C59.4185 7.21035 60.12 6.9375 60.8585 6.9375C62.5755 6.9375 63.9419 8.32012 63.9419 10.012Z" fill="#384555"/>
<path d="M72.6148 14.3237H71.3594V13.414C70.3994 14.3419 68.8668 14.7967 67.3159 14.1235C66.1707 13.6324 65.3033 12.5954 65.0816 11.3765C64.6389 9.02961 66.485 6.9375 68.8303 6.9375C69.8268 6.9375 70.6948 7.33772 71.3594 7.97443V7.06487H72.6337L72.6148 14.3237ZM71.1011 11.2127C71.4513 9.73917 70.3068 8.3929 68.8303 8.3929C67.5376 8.3929 66.5222 9.42983 66.5222 10.667C66.5222 12.0859 67.7776 13.1775 69.2542 12.9228C70.1405 12.7773 70.8794 12.086 71.1011 11.2127Z" fill="#384555"/>
<path d="M82.6985 14.3245H77.1406V3.5H78.6178V12.8509H82.6985V14.3245Z" fill="#384555"/>
<path d="M90.6024 14.3236H89.347V13.3957C88.7013 14.0325 87.7961 14.4327 86.799 14.4327C84.6755 14.4327 82.9766 12.7409 82.9766 10.6487C82.9766 8.59295 84.6755 6.88281 86.799 6.88281C87.7961 6.88281 88.6824 7.2831 89.3287 7.91981V6.992H90.6024V14.3236ZM89.1435 10.6487C89.1435 9.39339 88.1098 8.35645 86.799 8.35645C85.507 8.35645 84.4726 9.39339 84.4726 10.6487C84.4726 11.9403 85.507 12.9591 86.799 12.9591C88.1098 12.9591 89.1435 11.9403 89.1435 10.6487Z" fill="#384555"/>
<path d="M99.4807 10.6639C99.4807 12.7378 97.7636 14.4297 95.6583 14.4297C94.6612 14.4297 93.7383 14.0295 93.092 13.3927V14.3206H91.8359V4.07812H93.3138V7.753C93.9229 7.20723 94.7538 6.87978 95.6583 6.87978C97.7636 6.89796 99.4807 8.57168 99.4807 10.6639ZM97.9664 10.6639C97.9664 9.39036 96.9144 8.37153 95.6401 8.37153C94.3664 8.37153 93.3138 9.39036 93.3138 10.6639C93.3138 11.9191 94.3664 12.9379 95.6401 12.9379C96.9144 12.9379 97.9664 11.9191 97.9664 10.6639Z" fill="#384555"/>
<path d="M104.556 7.53515L103.911 8.60857C103.596 8.42661 103.061 8.11734 102.47 8.11734C101.916 8.11734 101.4 8.39019 101.4 8.84507C101.4 9.33624 101.972 9.53638 102.71 9.79105C103.892 10.1913 104.944 10.9918 104.944 12.1925C104.944 13.4114 103.892 14.4301 102.378 14.4301C101.454 14.4301 100.531 14.0663 99.9219 13.6842L100.494 12.4653C100.919 12.7201 101.732 13.0293 102.341 13.0293C103.08 13.0293 103.412 12.5927 103.412 12.1743C103.412 11.6831 102.951 11.392 101.934 11.01C101.196 10.7189 99.9962 10.2277 99.9962 8.93602C99.9962 7.71712 101.048 6.89844 102.452 6.89844C103.245 6.89844 103.929 7.17129 104.556 7.53515Z" fill="#384555"/>
<path d="M15.8228 7.498C15.8043 7.2069 15.7489 6.87946 15.6566 6.53379C15.5643 6.16994 15.4166 5.78788 15.2135 5.36948C15.0104 4.96921 14.7335 4.53261 14.3826 4.11418C14.2533 3.95045 14.0872 3.78672 13.9395 3.64118C14.1795 2.69517 13.6441 1.87651 13.6441 1.87651C12.7209 1.82193 12.1301 2.16759 11.9084 2.31313C11.8715 2.29494 11.8346 2.27674 11.7977 2.27674C11.6499 2.20397 11.4838 2.1494 11.3176 2.11301C11.1515 2.07662 10.9853 2.02205 10.8006 1.96747C10.6344 1.93108 10.4499 1.8947 10.2652 1.85832C10.2283 1.85832 10.2098 1.84012 10.1728 1.84012C9.76665 0.566646 8.60343 0.0390625 8.60343 0.0390625C7.31095 0.839534 7.07095 1.96747 7.07095 1.96747C7.07095 1.96747 7.07095 1.98566 7.05249 2.04024C6.9786 2.05843 6.90478 2.07662 6.83089 2.09481C6.7386 2.1312 6.6278 2.16759 6.53552 2.20397C6.44317 2.24035 6.33241 2.27674 6.24007 2.31313C6.05541 2.38589 5.85232 2.49505 5.6677 2.58602C5.48304 2.69517 5.29843 2.80432 5.13225 2.91347C5.11376 2.89528 5.09533 2.89528 5.09533 2.89528C3.30432 2.22216 1.71643 3.04082 1.71643 3.04082C1.60565 4.91466 2.45498 6.09718 2.62116 6.31546C2.58423 6.42465 2.5473 6.55195 2.51038 6.66114C2.38113 7.07953 2.28881 7.51617 2.21495 7.97099C2.19649 8.02558 2.19649 8.09836 2.19649 8.17113C0.553211 8.97157 0.0546875 10.6089 0.0546875 10.6089C1.43947 12.1735 3.02736 12.2645 3.02736 12.2645C3.23047 12.6283 3.47049 12.9558 3.72899 13.2832C3.83977 13.4105 3.95055 13.5379 4.07979 13.6653C3.58127 15.0842 4.15366 16.2485 4.15366 16.2485C5.68614 16.3031 6.70169 15.5937 6.90478 15.4299C7.05249 15.4845 7.21867 15.5209 7.36632 15.5755C7.82793 15.7028 8.32645 15.7574 8.80652 15.7938C8.93578 15.7938 9.04658 15.7938 9.17578 15.7938H9.41584C10.1359 16.8126 11.4099 16.9581 11.4099 16.9581C12.3146 16.0121 12.3701 15.0842 12.3701 14.8842V14.8659C12.3701 14.8477 12.3701 14.8296 12.3701 14.8296C12.3701 14.8114 12.3701 14.7932 12.3701 14.7932C12.5547 14.6658 12.7393 14.5203 12.9055 14.3748C13.2748 14.0473 13.5886 13.6834 13.8472 13.2832C13.8656 13.2468 13.9025 13.2104 13.921 13.174C14.9366 13.2286 15.6566 12.5555 15.6566 12.5555C15.4904 11.5003 14.8811 10.991 14.7519 10.9H14.715C14.715 10.9 14.6965 10.9 14.6965 10.8818C14.6965 10.8272 14.715 10.7545 14.715 10.6999C14.715 10.5907 14.7335 10.4816 14.7335 10.3543V10.2086C14.7335 10.1723 14.7335 10.1905 14.7335 10.1723V10.0086C14.7335 9.97215 14.7335 9.95397 14.7335 9.91755C14.7335 9.8812 14.7335 9.86302 14.715 9.82667L14.678 9.6447C14.6595 9.53558 14.6411 9.40821 14.6042 9.29908C14.4933 8.84426 14.3088 8.4258 14.0872 8.02558C13.8472 7.64354 13.5517 7.29785 13.2194 7.00676C12.887 6.71567 12.5178 6.4792 12.1301 6.31546C11.7423 6.15173 11.3361 6.02438 10.9299 5.988C10.7268 5.96983 10.5237 5.95162 10.3206 5.95162H10.2283C10.2283 5.95162 10.1913 5.95162 10.2098 5.95162H10.099C10.0621 5.95162 10.0436 5.95162 10.0066 5.95162C9.89591 5.95162 9.80356 5.96983 9.69282 5.988C9.28658 6.0608 8.89886 6.20632 8.56652 6.40644C8.23417 6.60654 7.93873 6.86128 7.69867 7.13413C7.45867 7.40698 7.27404 7.73449 7.14478 8.04376C7.01552 8.35303 6.94169 8.69872 6.92323 9.02616C6.92323 9.09894 6.92323 9.18989 6.92323 9.26266C6.92323 9.28084 6.92323 9.29908 6.92323 9.31726V9.38996C6.92323 9.42638 6.92323 9.4628 6.92323 9.49916C6.94169 9.66288 6.96015 9.82667 7.01551 9.97215C7.10786 10.2815 7.23712 10.5543 7.42175 10.7908C7.60638 11.0273 7.80947 11.2093 8.03102 11.373C8.25262 11.5186 8.49262 11.6277 8.73269 11.7005C8.97269 11.7732 9.1943 11.7914 9.4343 11.7914C9.47121 11.7914 9.48973 11.7914 9.52665 11.7914C9.5451 11.7914 9.56356 11.7914 9.56356 11.7914H9.60047C9.61893 11.7914 9.63738 11.7914 9.6743 11.7914H9.71121C9.72973 11.7914 9.74819 11.7914 9.74819 11.7914C9.7851 11.7914 9.80356 11.7732 9.82208 11.7732C9.84047 11.7732 9.87738 11.7551 9.89591 11.7551C9.95128 11.7369 9.98825 11.7369 10.0436 11.7186C10.1359 11.6823 10.2283 11.6459 10.3206 11.6095C10.4129 11.5732 10.4868 11.5186 10.5606 11.464C10.5791 11.4458 10.5975 11.4275 10.616 11.4275C10.6899 11.373 10.7083 11.2638 10.653 11.191C10.5975 11.1183 10.5052 11.1001 10.4313 11.1547C10.4129 11.1547 10.3944 11.1729 10.376 11.191C10.3206 11.2275 10.2467 11.2456 10.1728 11.2821C10.099 11.3002 10.0252 11.3184 9.95128 11.3366C9.91436 11.3366 9.87738 11.3548 9.84047 11.3548C9.82208 11.3548 9.80356 11.3548 9.7851 11.3548C9.76665 11.3548 9.74819 11.3548 9.72973 11.3548C9.71121 11.3548 9.69282 11.3548 9.6743 11.3548C9.65591 11.3548 9.61893 11.3548 9.60047 11.3548H9.58202C9.56356 11.3548 9.56356 11.3548 9.5451 11.3548C9.52665 11.3548 9.50812 11.3548 9.48973 11.3548C9.32349 11.3367 9.13886 11.2821 8.97269 11.2093C8.80652 11.1365 8.64034 11.0273 8.49262 10.9C8.34497 10.7727 8.21571 10.6089 8.12336 10.4451C8.03102 10.2815 7.95719 10.0813 7.92028 9.86302C7.90175 9.7539 7.90175 9.6447 7.90175 9.55369C7.90175 9.51733 7.90175 9.49916 7.90175 9.4628V9.42638C7.90175 9.40821 7.90175 9.38996 7.90175 9.38996C7.90175 9.33543 7.92028 9.28084 7.92028 9.22631C7.9941 8.77149 8.23417 8.33479 8.58497 8.00741C8.67732 7.91646 8.7696 7.84368 8.86195 7.78909C8.95423 7.71631 9.06504 7.66172 9.17578 7.60712C9.28658 7.55259 9.39738 7.51617 9.52665 7.47982C9.65591 7.4434 9.76665 7.42522 9.89591 7.42522C9.95128 7.42522 10.0252 7.42522 10.0805 7.42522C10.099 7.42522 10.1175 7.42522 10.1175 7.42522H10.2837C10.4129 7.4434 10.5606 7.46158 10.6899 7.47982C10.9483 7.53435 11.2068 7.62536 11.4653 7.77085C11.9454 8.04376 12.3515 8.44398 12.6101 8.93521C12.7393 9.18989 12.8317 9.44456 12.8686 9.71748C12.887 9.79025 12.887 9.86302 12.887 9.91755V10.0267C12.887 10.0449 12.887 10.0632 12.887 10.0813C12.887 10.0995 12.887 10.1178 12.887 10.1359V10.2269C12.887 10.2632 12.887 10.3178 12.887 10.3543C12.887 10.427 12.8686 10.4997 12.8686 10.5725C12.8501 10.6453 12.8501 10.7181 12.8317 10.7908C12.8131 10.8636 12.7948 10.9364 12.7762 11.0091C12.7393 11.1547 12.6839 11.3002 12.6286 11.4458C12.5178 11.7186 12.3701 11.9916 12.1854 12.2462C11.8161 12.7375 11.3176 13.1377 10.7637 13.3924C10.4868 13.5197 10.1728 13.6107 9.87739 13.6653C9.72973 13.6834 9.56356 13.7016 9.41584 13.7016H9.17578C9.08349 13.7016 9.00967 13.7016 8.93578 13.6834C8.60343 13.6653 8.27108 13.6107 7.95719 13.5197C7.6433 13.4288 7.32941 13.3014 7.03397 13.1559C6.44317 12.8466 5.92616 12.4282 5.51996 11.9188C5.31686 11.664 5.13225 11.3912 4.98451 11.1001C4.83682 10.8091 4.72603 10.518 4.63371 10.2086C4.54139 9.89938 4.48601 9.59017 4.46754 9.26266V8.86238C4.46754 8.82602 4.46754 8.78967 4.46754 8.75325C4.46754 8.58953 4.486 8.44398 4.50446 8.28026C4.52293 8.11653 4.55986 7.95281 4.57832 7.78909C4.59678 7.62536 4.65217 7.46158 4.68911 7.3161C4.78142 7.00676 4.89221 6.69756 5.02143 6.42465C5.29843 5.86064 5.64922 5.35127 6.05541 4.95104C6.16623 4.84188 6.277 4.75092 6.38777 4.65996C6.49858 4.56899 6.60934 4.47804 6.7386 4.40526C6.86786 4.3325 6.9786 4.25972 7.10786 4.18695C7.16323 4.15056 7.23712 4.11418 7.29249 4.09599C7.32941 4.0778 7.36632 4.05961 7.38484 4.05961C7.4033 4.05961 7.45867 4.02322 7.47712 4.02322C7.60639 3.96864 7.7541 3.91407 7.88336 3.87768C7.92028 3.85949 7.95719 3.85949 7.9941 3.8413C8.03102 3.8231 8.06799 3.82311 8.10491 3.80492C8.1788 3.78672 8.25262 3.76853 8.32645 3.75033C8.36336 3.75033 8.40034 3.73214 8.43725 3.73214C8.47423 3.73214 8.51115 3.71395 8.54806 3.71395C8.58497 3.71395 8.62188 3.69576 8.6588 3.69576H8.7696C8.80651 3.69576 8.84349 3.67757 8.88041 3.67757C8.91732 3.67757 8.95423 3.67757 9.00967 3.65938C9.04658 3.65938 9.10195 3.64118 9.13886 3.64118C9.15732 3.64118 9.1943 3.64118 9.21275 3.64118H9.32349C9.36047 3.64118 9.39738 3.64118 9.45275 3.64118H9.5451C9.58202 3.64118 9.61893 3.64118 9.65591 3.64118C9.80356 3.64118 9.93282 3.64118 10.0621 3.64118C10.339 3.65938 10.616 3.67757 10.8745 3.73214C11.3915 3.82311 11.89 3.98683 12.3331 4.20515C12.7762 4.42345 13.1825 4.67815 13.5333 4.96921C13.5517 4.98742 13.5702 5.00564 13.5886 5.0238C13.6071 5.04202 13.6256 5.06018 13.6441 5.0784C13.681 5.11478 13.7179 5.15116 13.7733 5.18754C13.8286 5.22392 13.8472 5.2603 13.8841 5.29668C13.921 5.33306 13.9579 5.36948 13.9948 5.40586C14.1426 5.5696 14.2719 5.71512 14.4011 5.87886C14.6411 6.18811 14.8442 6.51558 15.0104 6.80668C15.0288 6.82486 15.0288 6.84304 15.0473 6.86128C15.0658 6.87946 15.0658 6.89763 15.0842 6.91581C15.1027 6.95223 15.1211 6.98858 15.1396 7.025C15.1581 7.06136 15.1766 7.09778 15.195 7.13413C15.2135 7.17048 15.2319 7.2069 15.2319 7.24326C15.2873 7.38887 15.3427 7.51617 15.3796 7.64354C15.4535 7.84368 15.5089 8.02558 15.5458 8.18931C15.5643 8.2439 15.6197 8.29843 15.6935 8.28026C15.7674 8.28026 15.8228 8.22566 15.8228 8.15289C15.8597 7.93457 15.8413 7.73449 15.8228 7.498Z" fill="#384555"/>
</g>
<defs>
<clipPath id="clip0_6566_63862">
<rect width="105" height="17" fill="white"/>
</clipPath>
</defs>
</svg>
