<svg width="161" height="26" viewBox="0 0 161 26" fill="none" xmlns="http://www.w3.org/2000/svg">
<path d="M45.5782 14.0017C45.4083 18.5092 41.7845 22.0428 37.283 22.0428C32.5267 22.0428 29.0162 18.2587 29.0162 13.6957C29.0162 9.10474 32.8381 5.32068 37.5095 5.32068C39.6045 5.32068 41.6713 6.21104 43.4266 7.79701L42.0676 9.43858C40.737 8.29785 39.1232 7.51874 37.5095 7.51874C34.0839 7.51874 31.281 10.2733 31.281 13.6678C31.281 17.118 33.914 19.7891 37.3114 19.7891C40.3407 19.7891 42.7188 17.6188 43.2 14.8086H36.3204V12.8609H45.6065L45.5782 14.0017Z" fill="#0C1D31"/>
<path d="M53.4771 12.9169H52.2031C50.8159 12.9169 49.6834 14.0298 49.6834 15.421V21.9039H47.4185V10.7744H49.287V11.7204C49.9099 11.1083 50.8725 10.7744 51.9483 10.7744H54.383L53.4771 12.9169Z" fill="#0C1D31"/>
<path d="M65.7926 21.9039H63.8674V20.5126C62.3952 21.9317 60.0454 22.6273 57.6672 21.5978C55.9119 20.8466 54.5813 19.2606 54.2416 17.3964C53.5621 13.8071 56.3932 10.6074 59.9887 10.6074C61.5175 10.6074 62.8482 11.2195 63.8674 12.1933V10.8022H65.8208L65.7926 21.9039ZM63.471 17.1459C64.0089 14.8923 62.2537 12.8333 59.9887 12.8333C58.0352 12.8333 56.4215 14.4192 56.4215 16.3113C56.4215 18.4815 58.3467 20.1509 60.6116 19.7614C62.0271 19.5388 63.1596 18.4815 63.471 17.1459Z" fill="#0C1D31"/>
<path d="M70.3507 10.1623V10.7744H73.9462V12.7221H70.3507V21.8761H68.1141V10.1901C68.1141 7.74159 69.8977 6.29478 72.1343 6.29478H74.8522L73.9462 8.38157H72.1343C71.1434 8.43721 70.3507 9.21631 70.3507 10.1623Z" fill="#0C1D31"/>
<path d="M85.9502 21.9039H84.025V20.5126C82.5526 21.9317 80.2033 22.6273 77.8246 21.5978C76.0695 20.8466 74.7389 19.2606 74.3993 17.3964C73.7197 13.8071 76.551 10.6074 80.1467 10.6074C81.675 10.6074 83.0061 11.2195 84.025 12.1933V10.8022H85.9782L85.9502 21.9039ZM83.6289 17.1459C84.1664 14.8923 82.4112 12.8333 80.1467 12.8333C78.1648 12.8333 76.6077 14.4192 76.6077 16.3113C76.6077 18.4815 78.5329 20.1509 80.7975 19.7614C82.1845 19.5388 83.3175 18.4815 83.6289 17.1459Z" fill="#0C1D31"/>
<path d="M98.0388 15.3096V21.9039H95.7742V15.3096C95.7742 13.9184 94.6132 12.8054 93.2262 12.8054C91.8105 12.8054 90.6782 13.9184 90.6782 15.3096V21.9039H88.4128V10.7743H90.2813V11.7481C91.103 11.0247 92.1786 10.6074 93.3109 10.6074C95.9436 10.6074 98.0388 12.722 98.0388 15.3096Z" fill="#0C1D31"/>
<path d="M111.345 21.9039H109.42V20.5126C107.948 21.9317 105.598 22.6273 103.22 21.5978C101.464 20.8466 100.134 19.2606 99.794 17.3964C99.1152 13.8071 101.946 10.6074 105.542 10.6074C107.07 10.6074 108.401 11.2195 109.42 12.1933V10.8022H111.374L111.345 21.9039ZM109.024 17.1459C109.561 14.8923 107.806 12.8333 105.542 12.8333C103.56 12.8333 102.003 14.4192 102.003 16.3113C102.003 18.4815 103.928 20.1509 106.192 19.7614C107.551 19.5388 108.684 18.4815 109.024 17.1459Z" fill="#0C1D31"/>
<path d="M126.803 21.9038H118.281V5.34861H120.546V19.65H126.803V21.9038Z" fill="#0C1D31"/>
<path d="M138.92 21.904H136.995V20.4849C136.005 21.4588 134.617 22.0709 133.088 22.0709C129.832 22.0709 127.227 19.4833 127.227 16.2836C127.227 13.1395 129.832 10.524 133.088 10.524C134.617 10.524 135.976 11.1362 136.967 12.11V10.691H138.92V21.904ZM136.683 16.2836C136.683 14.3637 135.098 12.7778 133.088 12.7778C131.107 12.7778 129.521 14.3637 129.521 16.2836C129.521 18.259 131.107 19.8172 133.088 19.8172C135.098 19.8172 136.683 18.259 136.683 16.2836Z" fill="#0C1D31"/>
<path d="M152.538 16.3113C152.538 19.4833 149.905 22.0709 146.677 22.0709C145.148 22.0709 143.733 21.4587 142.742 20.4849V21.9039H140.816V6.2391H143.082V11.8595C144.016 11.0248 145.29 10.524 146.677 10.524C149.905 10.5518 152.538 13.1116 152.538 16.3113ZM150.216 16.3113C150.216 14.3636 148.603 12.8055 146.649 12.8055C144.696 12.8055 143.082 14.3636 143.082 16.3113C143.082 18.2312 144.696 19.7893 146.649 19.7893C148.603 19.7893 150.216 18.2312 150.216 16.3113Z" fill="#0C1D31"/>
<path d="M160.323 11.5254L159.333 13.1671C158.851 12.8888 158.031 12.4158 157.124 12.4158C156.275 12.4158 155.483 12.8331 155.483 13.5287C155.483 14.28 156.36 14.5861 157.492 14.9756C159.304 15.5877 160.918 16.812 160.918 18.6484C160.918 20.5126 159.304 22.0706 156.983 22.0706C155.567 22.0706 154.151 21.5142 153.217 20.9299L154.095 19.0657C154.746 19.4553 155.992 19.9282 156.926 19.9282C158.059 19.9282 158.568 19.2605 158.568 18.6205C158.568 17.8693 157.861 17.4241 156.303 16.8398C155.171 16.3946 153.331 15.6434 153.331 13.6679C153.331 11.8037 154.944 10.5516 157.096 10.5516C158.313 10.5516 159.361 10.9689 160.323 11.5254Z" fill="#0C1D31"/>
<path d="M24.2598 11.4698C24.2315 11.0246 24.1465 10.5237 24.005 9.99513C23.8634 9.43865 23.6369 8.85432 23.3255 8.21442C23.0141 7.60223 22.5895 6.9345 22.0515 6.29455C21.8533 6.04414 21.5985 5.79372 21.3721 5.57113C21.7401 4.12429 20.9191 2.87222 20.9191 2.87222C19.5035 2.78875 18.5976 3.3174 18.2578 3.53999C18.2012 3.51217 18.1446 3.48434 18.088 3.48434C17.8614 3.37304 17.6066 3.28958 17.3518 3.23393C17.0971 3.17828 16.8423 3.09481 16.5591 3.01134C16.3043 2.95569 16.0213 2.90005 15.7381 2.8444C15.6815 2.8444 15.6532 2.81657 15.5965 2.81657C14.9737 0.868903 13.1901 0.0620117 13.1901 0.0620117C11.2083 1.28626 10.8403 3.01134 10.8403 3.01134C10.8403 3.01134 10.8403 3.03916 10.812 3.12264C10.6987 3.15046 10.5855 3.17828 10.4722 3.2061C10.3307 3.26175 10.1608 3.3174 10.0193 3.37304C9.87771 3.42869 9.70787 3.48434 9.56629 3.53999C9.28314 3.65128 8.97173 3.81823 8.68865 3.95735C8.4055 4.12429 8.12243 4.29123 7.86763 4.45817C7.83928 4.43035 7.81101 4.43035 7.81101 4.43035C5.0648 3.40087 2.63003 4.65294 2.63003 4.65294C2.46017 7.51881 3.76248 9.32737 4.01729 9.66121C3.96067 9.82821 3.90404 10.0229 3.84742 10.1899C3.64924 10.8298 3.50768 11.4976 3.39444 12.1932C3.36613 12.2767 3.36613 12.3879 3.36613 12.4993C0.846434 13.7235 0.0820312 16.2276 0.0820312 16.2276C2.20537 18.6205 4.64013 18.7597 4.64013 18.7597C4.95156 19.3161 5.3196 19.817 5.71596 20.3178C5.88582 20.5125 6.05569 20.7073 6.25386 20.9021C5.48946 23.0723 6.36712 24.853 6.36712 24.853C8.71692 24.9365 10.2741 23.8514 10.5855 23.601C10.812 23.6844 11.0668 23.7401 11.2932 23.8236C12.001 24.0183 12.7654 24.1018 13.5015 24.1575C13.6997 24.1575 13.8696 24.1575 14.0677 24.1575H14.4358C15.5399 25.7155 17.4934 25.9382 17.4934 25.9382C18.8806 24.4913 18.9656 23.0723 18.9656 22.7663V22.7384C18.9656 22.7106 18.9656 22.6828 18.9656 22.6828C18.9656 22.655 18.9656 22.6271 18.9656 22.6271C19.2487 22.4323 19.5318 22.2098 19.7866 21.9872C20.3528 21.4864 20.8341 20.9299 21.2305 20.3178C21.2588 20.2621 21.3154 20.2064 21.3437 20.1508C22.9009 20.2343 24.005 19.2048 24.005 19.2048C23.7502 17.591 22.8159 16.812 22.6177 16.6728H22.5611C22.5611 16.6728 22.5328 16.6728 22.5328 16.645C22.5328 16.5615 22.5611 16.4503 22.5611 16.3668C22.5611 16.1998 22.5895 16.0329 22.5895 15.8381V15.6155C22.5895 15.5599 22.5895 15.5877 22.5895 15.5599V15.3095C22.5895 15.2538 22.5895 15.226 22.5895 15.1703C22.5895 15.1147 22.5895 15.0869 22.5611 15.0313L22.5045 14.753C22.4761 14.5861 22.4479 14.3913 22.3913 14.2244C22.2213 13.5287 21.9383 12.8888 21.5985 12.2767C21.2305 11.6924 20.7775 11.1637 20.2679 10.7185C19.7583 10.2733 19.1921 9.91163 18.5976 9.66121C18.003 9.41079 17.3802 9.21602 16.7573 9.16038C16.4459 9.13259 16.1345 9.10474 15.8231 9.10474H15.6815C15.6815 9.10474 15.6249 9.10474 15.6532 9.10474H15.4833C15.4267 9.10474 15.3983 9.10474 15.3417 9.10474C15.1719 9.10474 15.0303 9.13259 14.8605 9.16038C14.2376 9.27173 13.6431 9.49429 13.1335 9.80035C12.6239 10.1064 12.1709 10.496 11.8028 10.9133C11.4348 11.3306 11.1517 11.8315 10.9535 12.3045C10.7553 12.7775 10.6421 13.3062 10.6138 13.8069C10.6138 13.9183 10.6138 14.0574 10.6138 14.1687C10.6138 14.1965 10.6138 14.2244 10.6138 14.2521V14.3634C10.6138 14.4191 10.6138 14.4748 10.6138 14.5304C10.6421 14.7808 10.6704 15.0313 10.7553 15.2538C10.8969 15.7269 11.0951 16.1442 11.3782 16.5059C11.6613 16.8676 11.9727 17.1459 12.3124 17.3963C12.6522 17.6188 13.0202 17.7858 13.3883 17.8971C13.7563 18.0084 14.0961 18.0362 14.4641 18.0362C14.5207 18.0362 14.5491 18.0362 14.6057 18.0362C14.634 18.0362 14.6623 18.0362 14.6623 18.0362H14.7189C14.7472 18.0362 14.7755 18.0362 14.8321 18.0362H14.8887C14.9171 18.0362 14.9454 18.0362 14.9454 18.0362C15.002 18.0362 15.0303 18.0084 15.0587 18.0084C15.0869 18.0084 15.1435 17.9805 15.1719 17.9805C15.2568 17.9528 15.3135 17.9528 15.3983 17.9249C15.5399 17.8693 15.6815 17.8136 15.8231 17.758C15.9646 17.7023 16.0779 17.6188 16.1911 17.5353C16.2194 17.5076 16.2477 17.4797 16.2761 17.4797C16.3893 17.3963 16.4176 17.2293 16.3327 17.118C16.2477 17.0067 16.1061 16.9789 15.9929 17.0624C15.9646 17.0624 15.9363 17.0902 15.908 17.118C15.8231 17.1737 15.7098 17.2015 15.5965 17.2572C15.4833 17.2849 15.3701 17.3128 15.2568 17.3406C15.2002 17.3406 15.1435 17.3684 15.0869 17.3684C15.0587 17.3684 15.0303 17.3684 15.002 17.3684C14.9737 17.3684 14.9454 17.3684 14.9171 17.3684C14.8887 17.3684 14.8605 17.3684 14.8321 17.3684C14.8039 17.3684 14.7472 17.3684 14.7189 17.3684H14.6906C14.6623 17.3684 14.6623 17.3684 14.634 17.3684C14.6057 17.3684 14.5773 17.3684 14.5491 17.3684C14.2942 17.3406 14.0111 17.2571 13.7563 17.1459C13.5015 17.0345 13.2467 16.8676 13.0202 16.6728C12.7938 16.478 12.5956 16.2276 12.454 15.9772C12.3124 15.7269 12.1992 15.4207 12.1426 15.0869C12.1142 14.92 12.1142 14.753 12.1142 14.6138C12.1142 14.5582 12.1142 14.5304 12.1142 14.4748V14.4191C12.1142 14.3913 12.1142 14.3634 12.1142 14.3634C12.1142 14.28 12.1426 14.1965 12.1426 14.1131C12.2558 13.4175 12.6239 12.7496 13.1618 12.2489C13.3034 12.1097 13.4449 11.9985 13.5865 11.915C13.728 11.8037 13.8979 11.7202 14.0677 11.6367C14.2376 11.5533 14.4075 11.4976 14.6057 11.442C14.8039 11.3863 14.9737 11.3585 15.1719 11.3585C15.2568 11.3585 15.3701 11.3585 15.455 11.3585C15.4833 11.3585 15.5117 11.3585 15.5117 11.3585H15.7665C15.9646 11.3863 16.1911 11.4141 16.3893 11.442C16.7856 11.5254 17.182 11.6645 17.5783 11.8871C18.3144 12.3045 18.9372 12.9166 19.3336 13.6679C19.5318 14.0574 19.6734 14.4469 19.73 14.8643C19.7583 14.9756 19.7583 15.0869 19.7583 15.1703V15.3373C19.7583 15.3651 19.7583 15.3929 19.7583 15.4207C19.7583 15.4486 19.7583 15.4764 19.7583 15.5042V15.6434C19.7583 15.699 19.7583 15.7825 19.7583 15.8381C19.7583 15.9494 19.73 16.0607 19.73 16.172C19.7017 16.2833 19.7017 16.3946 19.6734 16.5059C19.645 16.6172 19.6168 16.7285 19.5884 16.8398C19.5318 17.0624 19.4469 17.2849 19.362 17.5076C19.1921 17.9249 18.9656 18.3422 18.6824 18.7318C18.1162 19.483 17.3518 20.0952 16.5025 20.4847C16.0779 20.6795 15.5965 20.8186 15.1435 20.9021C14.9171 20.9299 14.6623 20.9577 14.4358 20.9577H14.0677C13.9262 20.9577 13.813 20.9577 13.6997 20.9299C13.1901 20.9021 12.6805 20.8186 12.1992 20.6795C11.7179 20.5404 11.2366 20.3456 10.7836 20.123C9.87771 19.65 9.08495 19.0101 8.46212 18.231C8.1507 17.8414 7.86763 17.4241 7.64109 16.9789C7.41463 16.5338 7.24476 16.0886 7.1032 15.6155C6.96164 15.1425 6.87672 14.6696 6.8484 14.1687V13.5565C6.8484 13.5009 6.8484 13.4453 6.8484 13.3896C6.8484 13.1392 6.87671 12.9166 6.90502 12.6662C6.93334 12.4158 6.98996 12.1654 7.01827 11.915C7.04658 11.6645 7.13151 11.4141 7.18814 11.1916C7.32969 10.7185 7.49956 10.2455 7.69771 9.82821C8.12243 8.9656 8.66031 8.18657 9.28314 7.57445C9.45306 7.4075 9.62291 7.26838 9.79275 7.12926C9.96267 6.99014 10.1325 6.85103 10.3307 6.73973C10.5289 6.62844 10.6987 6.51714 10.8969 6.40584C10.9818 6.35019 11.0951 6.29455 11.18 6.26673C11.2366 6.2389 11.2932 6.21108 11.3216 6.21108C11.3499 6.21108 11.4348 6.15543 11.4631 6.15543C11.6613 6.07196 11.8878 5.98849 12.086 5.93284C12.1426 5.90501 12.1992 5.90501 12.2558 5.87719C12.3124 5.84937 12.3691 5.84937 12.4257 5.82155C12.539 5.79372 12.6522 5.7659 12.7654 5.73807C12.822 5.73807 12.8787 5.71025 12.9353 5.71025C12.992 5.71025 13.0486 5.68242 13.1052 5.68242C13.1618 5.68242 13.2184 5.6546 13.275 5.6546H13.4449C13.5015 5.6546 13.5582 5.62678 13.6148 5.62678C13.6714 5.62678 13.728 5.62678 13.813 5.59896C13.8696 5.59896 13.9545 5.57113 14.0111 5.57113C14.0394 5.57113 14.0961 5.57113 14.1244 5.57113H14.2942C14.3509 5.57113 14.4075 5.57113 14.4924 5.57113H14.634C14.6906 5.57113 14.7472 5.57113 14.8039 5.57113C15.0303 5.57113 15.2285 5.57113 15.4267 5.57113C15.8513 5.59896 16.2761 5.62678 16.6724 5.71025C17.4651 5.84937 18.2295 6.09978 18.909 6.43367C19.5884 6.76755 20.2113 7.15709 20.7492 7.60223C20.7775 7.63009 20.8058 7.65795 20.8341 7.68573C20.8624 7.71359 20.8907 7.74137 20.9191 7.76923C20.9757 7.82487 21.0323 7.88051 21.1172 7.93615C21.2021 7.99179 21.2305 8.04743 21.2871 8.10307C21.3437 8.15871 21.4003 8.21442 21.4569 8.27006C21.6835 8.52048 21.8817 8.74304 22.0798 8.99346C22.4479 9.46643 22.7593 9.96727 23.0141 10.4125C23.0424 10.4403 23.0424 10.4681 23.0707 10.496C23.099 10.5237 23.099 10.5516 23.1273 10.5794C23.1557 10.6351 23.1839 10.6907 23.2123 10.7464C23.2406 10.802 23.2689 10.8577 23.2972 10.9133C23.3255 10.9689 23.3538 11.0246 23.3538 11.0802C23.4387 11.3029 23.5237 11.4976 23.5803 11.6924C23.6935 11.9985 23.7785 12.2767 23.8351 12.5271C23.8634 12.6106 23.9484 12.694 24.0616 12.6662C24.1748 12.6662 24.2598 12.5827 24.2598 12.4714C24.3164 12.1375 24.2881 11.8315 24.2598 11.4698Z" fill="#0C1D31"/>
</svg>
