<svg width="127" height="38" viewBox="0 0 127 38" fill="none" xmlns="http://www.w3.org/2000/svg">
<path d="M21.4749 26.7423L17.9447 29.1278V29.2952H29.1234V29.1278L25.5933 26.7423V2.55286L29.1234 0.167401V0H17.9447V0.167401L21.4749 2.55286V13.1828H7.64858V2.55286L11.1787 0.167401V0H0V0.167401L3.53011 2.55286V26.7423L0 29.1278V29.2952H11.1787V29.1278L7.64858 26.7423V15.0242H21.4749V26.7423ZM37.0662 29.7137C39.2935 29.7137 41.5208 28.4163 43.0758 26.6167V29.2952H50.136V29.1278L46.9421 26.6586V14.6894C46.9421 10.63 44.0844 8.62115 39.5036 8.62115C37.1082 8.62115 33.8302 9.4163 31.729 10.2533V15.4427H31.8971C34.4186 12.011 36.814 10.2952 39.2095 10.2952C41.6049 10.2952 43.0758 11.9692 43.0758 15.1079V17.2004L37.8647 18.4141C33.1578 19.4604 31.0566 21.3018 31.0566 24.1894C31.0566 27.37 33.6621 29.7137 37.0662 29.7137ZM38.411 27.0352C36.5199 27.0352 35.133 25.6542 35.133 23.7709C35.133 21.8877 36.3938 20.3811 38.8733 19.837L43.0758 18.8744V25.152C41.3107 26.4075 39.7558 27.0352 38.411 27.0352ZM66.6939 12.9736L75.0989 29.8811H75.8554L84.0923 11.7599L86.6138 9.29075V9.12335H78.9232V9.2489L82.1171 11.5507L76.4437 23.9802L70.224 11.5507L73.3339 9.2489V9.12335H66.778C62.7856 9.12335 60.138 10.337 58.0367 12.7225V8.8304L50.9765 10.4626V10.6718L54.1704 12.5132V26.6586L50.9765 29.1278V29.2952H62.0711V29.1278L58.0367 26.6586V14.6894C59.5076 13.0573 61.2727 12.304 63.1218 12.304C64.2985 12.304 65.3911 12.4714 66.6939 12.9736ZM95.7333 29.7137C99.5996 29.7137 101.701 27.3282 103.886 24.9846L102.836 24.022C100.692 26.0308 99.0533 26.9097 96.91 26.9097C92.7915 26.9097 89.7237 23.1432 89.7237 17.87H103.76V17.2423C103.76 12.304 100.818 8.62115 95.9854 8.62115C90.6062 8.62115 86.1936 13.4339 86.1936 19.3767C86.1936 25.3612 90.3961 29.7137 95.7333 29.7137ZM99.5576 16.0705H89.8498C90.3541 12.4295 92.6655 10.337 95.313 10.337C97.9606 10.337 99.5996 12.2203 99.5996 15.2335C99.5996 15.6101 99.5996 15.9031 99.5576 16.0705ZM106.744 11.7599L115.443 29.0441L109.139 38H113.888L124.478 11.7599L127 9.29075V9.12335H119.309V9.2489L122.545 11.5507L117.292 24.2313L110.904 11.5507L114.014 9.2489V9.12335H104.054V9.29075L106.744 11.7599Z" fill="#0C1D31"/>
</svg>
