<svg width="85" height="25" viewBox="0 0 85 25" fill="none" xmlns="http://www.w3.org/2000/svg">
<g clip-path="url(#clip0_6566_63853)">
<path d="M14.373 17.5936L12.0102 19.163V19.2732H19.492V19.163L17.1294 17.5936V1.67951L19.492 0.110132V0H12.0102V0.110132L14.373 1.67951V8.67289H5.11913V1.67951L7.48181 0.110132V0H0V0.110132L2.36267 1.67951V17.5936L0 19.163V19.2732H7.48181V19.163L5.11913 17.5936V9.88434H14.373V17.5936ZM24.8081 19.5485C26.2988 19.5485 27.7895 18.6949 28.8303 17.511V19.2732H33.5556V19.163L31.4179 17.5386V9.66408C31.4179 6.99342 29.5053 5.67181 26.4394 5.67181C24.8362 5.67181 22.6423 6.19493 21.2359 6.74559V10.1597H21.3485C23.0361 7.90197 24.6393 6.77316 26.2426 6.77316C27.8458 6.77316 28.8303 7.87447 28.8303 9.93941V11.3161L25.3425 12.1145C22.1922 12.8029 20.7859 14.0143 20.7859 15.9141C20.7859 18.0066 22.5298 19.5485 24.8081 19.5485ZM25.7081 17.7863C24.4425 17.7863 23.5142 16.8778 23.5142 15.6388C23.5142 14.3998 24.3581 13.4086 26.0176 13.0507L28.8303 12.4174V16.5474C27.6489 17.3734 26.6082 17.7863 25.7081 17.7863ZM44.6376 8.53526L50.263 19.6586H50.7694L56.2822 7.73678L57.9699 6.11234V6.0022H52.8226V6.0848L54.9603 7.59914L51.1631 15.7764L47.0003 7.59914L49.0817 6.0848V6.0022H44.6939C42.0219 6.0022 40.2498 6.80066 38.8435 8.37007V5.80947L34.1181 6.88329V7.02092L36.2558 8.23237V17.5386L34.1181 19.163V19.2732H41.5436V19.163L38.8435 17.5386V9.66408C39.8279 8.59033 41.0093 8.09474 42.2469 8.09474C43.0344 8.09474 43.7657 8.20487 44.6376 8.53526ZM64.0735 19.5485C66.6611 19.5485 68.0676 17.9791 69.53 16.4372L68.8272 15.8039C67.3923 17.1255 66.2955 17.7038 64.861 17.7038C62.1045 17.7038 60.0513 15.2258 60.0513 11.7566H69.4457V11.3436C69.4457 8.09474 67.4766 5.67181 64.2422 5.67181C60.6419 5.67181 57.6886 8.83809 57.6886 12.7478C57.6886 16.685 60.5013 19.5485 64.0735 19.5485ZM66.633 10.5727H60.1357C60.4732 8.1773 62.0202 6.80066 63.7922 6.80066C65.5642 6.80066 66.6611 8.03967 66.6611 10.022C66.6611 10.2698 66.6611 10.4626 66.633 10.5727ZM71.4428 7.73678L77.265 19.108L73.0458 25H76.2242L83.312 7.73678L85 6.11234V6.0022H79.8525V6.0848L82.0183 7.59914L78.5025 15.9416L74.2271 7.59914L76.3086 6.0848V6.0022H69.6424V6.11234L71.4428 7.73678Z" fill="#384555"/>
</g>
<defs>
<clipPath id="clip0_6566_63853">
<rect width="85" height="25" fill="white"/>
</clipPath>
</defs>
</svg>
