<svg width="137" height="24" viewBox="0 0 137 24" fill="none" xmlns="http://www.w3.org/2000/svg">
<path d="M128.945 23.9522C127.253 23.9522 125.782 23.6199 124.534 22.9555C123.286 22.2801 122.312 21.2672 121.614 19.9165C120.926 18.5659 120.583 16.8937 120.583 14.9005C120.583 13.0051 120.942 11.3713 121.662 9.9988C122.381 8.61544 123.375 7.5643 124.645 6.8454C125.915 6.12648 127.359 5.76702 128.977 5.76702C130.532 5.76702 131.913 6.1156 133.119 6.81271C134.325 7.50984 135.261 8.52284 135.928 9.85175C136.605 11.1806 136.943 12.771 136.943 14.6227C136.943 15.2871 136.938 15.8155 136.927 16.2075H124.28V12.7764H133.865L132.056 13.4136C132.056 12.5204 131.929 11.7743 131.675 11.1752C131.432 10.5652 131.072 10.1077 130.596 9.80272C130.12 9.49774 129.543 9.34524 128.866 9.34524C128.157 9.34524 127.533 9.52497 126.994 9.88442C126.465 10.233 126.052 10.7558 125.756 11.4529C125.47 12.1501 125.327 12.9888 125.327 13.9691V15.6521C125.327 16.6542 125.475 17.5038 125.772 18.2009C126.068 18.898 126.491 19.4263 127.041 19.7858C127.591 20.1344 128.242 20.3086 128.993 20.3086C129.818 20.3086 130.501 20.0907 131.04 19.6551C131.58 19.2084 131.918 18.5821 132.056 17.776H136.864C136.716 19.0397 136.298 20.1344 135.61 21.0601C134.933 21.9861 134.029 22.6996 132.897 23.2006C131.765 23.7017 130.448 23.9522 128.945 23.9522Z" fill="#0C1D31"/>
<path d="M114.336 0.0480516H119.144V23.478H114.336V0.0480516Z" fill="#0C1D31"/>
<path d="M106.154 23.9518C105.244 23.9518 104.43 23.7884 103.71 23.4617C103.001 23.1348 102.398 22.6448 101.901 21.9912C101.404 21.3268 101.034 20.5097 100.79 19.5403L101.298 19.6873V23.478H96.5376V6.24049H101.346V10.0965L100.806 10.1945C101.05 9.26862 101.42 8.47892 101.917 7.82536C102.425 7.16091 103.044 6.6544 103.774 6.30583C104.504 5.94639 105.324 5.76665 106.233 5.76665C107.598 5.76665 108.783 6.13156 109.788 6.86136C110.793 7.59116 111.565 8.6423 112.105 10.0148C112.644 11.3763 112.914 12.9939 112.914 14.8674C112.914 16.7301 112.639 18.3475 112.089 19.72C111.539 21.0817 110.751 22.1273 109.724 22.8571C108.709 23.587 107.519 23.9518 106.154 23.9518ZM104.662 20.1776C105.382 20.1776 105.985 19.9597 106.471 19.524C106.969 19.0883 107.339 18.4728 107.582 17.6777C107.836 16.8826 107.963 15.9458 107.963 14.8674C107.963 13.789 107.836 12.8523 107.582 12.0571C107.339 11.262 106.969 10.6465 106.471 10.2108C105.985 9.76423 105.382 9.54094 104.662 9.54094C103.954 9.54094 103.345 9.76423 102.837 10.2108C102.34 10.6465 101.965 11.2674 101.711 12.0735C101.457 12.8686 101.33 13.7999 101.33 14.8674C101.33 15.9458 101.457 16.8826 101.711 17.6777C101.965 18.4728 102.34 19.0883 102.837 19.524C103.345 19.9597 103.954 20.1776 104.662 20.1776ZM96.5376 0.0480516H101.346V6.24049H96.5376V0.0480516Z" fill="#0C1D31"/>
<path d="M84.4686 23.9522C83.4212 23.9522 82.4797 23.7398 81.644 23.3149C80.8188 22.8902 80.1681 22.2857 79.6921 21.5013C79.2265 20.7062 78.9939 19.7804 78.9939 18.7238C78.9939 17.1116 79.4541 15.8808 80.3744 15.0312C81.2948 14.1706 82.6225 13.6097 84.3575 13.3483L87.2616 12.9235C87.8434 12.8363 88.3036 12.7274 88.6421 12.5967C88.9806 12.466 89.2292 12.2917 89.3879 12.0738C89.5467 11.8451 89.6259 11.5564 89.6259 11.2079C89.6259 10.8484 89.5307 10.5216 89.3403 10.2275C89.1605 9.92255 88.8854 9.68291 88.5152 9.50862C88.1555 9.32345 87.7163 9.23087 87.198 9.23087C86.3728 9.23087 85.7117 9.45417 85.2144 9.90077C84.7172 10.3365 84.4474 10.9356 84.4052 11.698H79.4381C79.4805 10.5434 79.8191 9.51952 80.4538 8.62634C81.0991 7.72225 81.993 7.01967 83.1356 6.51861C84.2781 6.01755 85.6006 5.76702 87.1028 5.76702C88.6791 5.76702 90.0121 6.0339 91.1018 6.56763C92.1915 7.09048 93.0114 7.84206 93.5615 8.82239C94.1221 9.80272 94.4024 10.9737 94.4024 12.3353V19.5243C94.4024 20.2977 94.4554 21.0166 94.5612 21.6811C94.6775 22.3346 94.8415 22.7485 95.0531 22.9229V23.4784H90.0544C89.9381 23.01 89.8482 22.4817 89.7847 21.8935C89.7211 21.3053 89.6841 20.6844 89.6736 20.0309L90.4511 19.6878C90.2502 20.4611 89.8799 21.1746 89.3403 21.8281C88.8113 22.4707 88.129 22.9882 87.2933 23.3803C86.468 23.7616 85.5264 23.9522 84.4686 23.9522ZM86.2459 20.325C86.9229 20.325 87.5207 20.1725 88.0391 19.8674C88.5574 19.5516 88.9541 19.1158 89.2292 18.5604C89.5149 18.0049 89.6577 17.3731 89.6577 16.6651V14.4103L90.0544 14.639C89.8005 14.9876 89.4832 15.2545 89.1023 15.4396C88.732 15.6248 88.2295 15.7828 87.5947 15.9135L86.3728 16.1586C85.5583 16.3219 84.9446 16.5725 84.5321 16.9102C84.1301 17.2479 83.9291 17.7217 83.9291 18.3316C83.9291 18.9416 84.1459 19.4263 84.5796 19.7858C85.0135 20.1452 85.5689 20.325 86.2459 20.325Z" fill="#0C1D31"/>
<path d="M62.6399 6.24078H67.7497L72.1453 21.0275H70.6061L74.8271 6.24078H79.7941L74.0019 23.4783H68.6541L62.6399 6.24078Z" fill="#0C1D31"/>
<path d="M55.1236 23.9522C53.4626 23.9522 52.0026 23.5819 50.7438 22.8411C49.4953 22.1005 48.5274 21.0439 47.8397 19.6714C47.1627 18.2989 46.8242 16.6923 46.8242 14.8514C46.8242 13.0106 47.1627 11.4094 47.8397 10.0478C48.5274 8.67534 49.4953 7.61877 50.7438 6.87807C52.0026 6.13738 53.4626 5.76702 55.1236 5.76702C56.7844 5.76702 58.2391 6.13738 59.4874 6.87807C60.7358 7.61877 61.6985 8.67534 62.3755 10.0478C63.0633 11.4094 63.407 13.0106 63.407 14.8514C63.407 16.6923 63.0633 18.2989 62.3755 19.6714C61.6985 21.0439 60.7358 22.1005 59.4874 22.8411C58.2391 23.5819 56.7844 23.9522 55.1236 23.9522ZM55.1236 20.1616C55.8218 20.1616 56.4194 19.9654 56.9167 19.5734C57.4139 19.1703 57.7947 18.5767 58.0592 17.7924C58.3237 16.9973 58.4559 16.0169 58.4559 14.8514C58.4559 13.1195 58.1651 11.807 57.5831 10.9138C57.0013 10.0097 56.1814 9.55765 55.1236 9.55765C54.4253 9.55765 53.8223 9.75915 53.3144 10.1622C52.8173 10.5543 52.4364 11.148 52.172 11.9431C51.9075 12.7274 51.7751 13.6968 51.7751 14.8514C51.7751 16.0061 51.9075 16.9809 52.172 17.776C52.4364 18.5713 52.8173 19.1703 53.3144 19.5734C53.8223 19.9654 54.4253 20.1616 55.1236 20.1616Z" fill="#0C1D31"/>
<path d="M32.7691 0.0479051H37.7519V19.8269L36.8632 18.7648C36.8632 18.7648 39.3311 18.7648 43.5766 18.7648C47.822 18.7648 47.2415 23.4778 47.2415 23.4778H32.7691V0.0479051Z" fill="#0C1D31"/>
<path fill-rule="evenodd" clip-rule="evenodd" d="M6.77328 0.0476074C10.4817 0.0476074 13.488 3.15109 13.488 6.97941V9.61393H15.7226C19.4311 9.61393 22.4373 12.7174 22.4373 16.5457C22.4373 20.3741 19.4311 23.4775 15.7226 23.4775H0.0585938V6.97941C0.0585938 3.15109 3.06486 0.0476074 6.77328 0.0476074Z" fill="#0C1D31"/>
</svg>
