<svg width="85" height="15" viewBox="0 0 85 15" fill="none" xmlns="http://www.w3.org/2000/svg">
<g clip-path="url(#clip0_6566_63877)">
<path d="M80.0006 14.9673C78.9508 14.9673 78.0382 14.7596 77.2638 14.3444C76.4895 13.9222 75.8852 13.2892 75.4522 12.445C75.0259 11.6008 74.8125 10.5557 74.8125 9.30993C74.8125 8.12537 75.0352 7.10418 75.482 6.24642C75.928 5.38182 76.5454 4.72486 77.3327 4.27554C78.1207 3.82623 79.0166 3.60156 80.0205 3.60156C80.9852 3.60156 81.8421 3.81942 82.5903 4.25512C83.3386 4.69083 83.9193 5.32395 84.3331 6.15451C84.7532 6.98506 84.9629 7.97899 84.9629 9.13637C84.9629 9.55162 84.9598 9.88181 84.9536 10.1269H77.1063V7.98243H83.0532L81.9308 8.38068C81.9308 7.82243 81.852 7.35612 81.6944 6.98168C81.5436 6.60043 81.3203 6.31449 81.0249 6.12387C80.7296 5.93326 80.3716 5.83794 79.9516 5.83794C79.5117 5.83794 79.1245 5.95028 78.7901 6.17493C78.4619 6.39281 78.2057 6.71956 78.022 7.15524C77.8446 7.59099 77.7559 8.11518 77.7559 8.72787V9.77974C77.7559 10.4061 77.8477 10.9371 78.032 11.3727C78.2156 11.8084 78.478 12.1386 78.8193 12.3633C79.1605 12.5812 79.5644 12.69 80.0304 12.69C80.5422 12.69 80.966 12.5539 81.3004 12.2816C81.6355 12.0024 81.8452 11.611 81.9308 11.1072H84.9139C84.822 11.8969 84.5627 12.5812 84.1358 13.1597C83.7158 13.7385 83.1549 14.1844 82.4526 14.4976C81.7502 14.8107 80.9331 14.9673 80.0006 14.9673Z" fill="#384555"/>
<path d="M70.9375 0.03125H73.9206V14.6749H70.9375V0.03125Z" fill="#384555"/>
<path d="M65.8648 14.971C65.3002 14.971 64.7951 14.869 64.3484 14.6648C63.9085 14.4605 63.535 14.1542 63.226 13.7457C62.9177 13.3305 62.6881 12.8198 62.5373 12.2139L62.8519 12.3058V14.6749H59.8984V3.90152H62.8817V6.31148L62.5467 6.37279C62.698 5.79411 62.9276 5.30054 63.236 4.89207C63.5511 4.47679 63.9352 4.16022 64.3881 3.94237C64.841 3.71771 65.3498 3.60538 65.9144 3.60538C66.7607 3.60538 67.4959 3.83345 68.1194 4.28957C68.743 4.7457 69.2219 5.40266 69.557 6.26042C69.8914 7.11142 70.0589 8.12242 70.0589 9.29335C70.0589 10.4575 69.8883 11.4684 69.5471 12.3262C69.2058 13.1773 68.7169 13.8308 68.0803 14.2869C67.45 14.743 66.7117 14.971 65.8648 14.971ZM64.9391 12.6122C65.3858 12.6122 65.7599 12.476 66.0614 12.2037C66.3704 11.9314 66.6 11.5467 66.7507 11.0498C66.9083 10.5529 66.9871 9.96735 66.9871 9.29335C66.9871 8.61935 66.9083 8.03392 66.7507 7.53692C66.6 7.03992 66.3704 6.65529 66.0614 6.38298C65.7599 6.10387 65.3858 5.9643 64.9391 5.9643C64.4998 5.9643 64.1219 6.10387 63.8074 6.38298C63.4984 6.65529 63.2657 7.04335 63.1082 7.5471C62.9506 8.0441 62.8718 8.62617 62.8718 9.29335C62.8718 9.96735 62.9506 10.5529 63.1082 11.0498C63.2657 11.5467 63.4984 11.9314 63.8074 12.2037C64.1219 12.476 64.4998 12.6122 64.9391 12.6122ZM59.8984 0.03125H62.8817V3.90152H59.8984V0.03125Z" fill="#384555"/>
<path d="M52.4045 14.9673C51.7547 14.9673 51.1705 14.8346 50.652 14.569C50.1401 14.3036 49.7363 13.9257 49.441 13.4355C49.1521 12.9386 49.0078 12.3599 49.0078 11.6996C49.0078 10.6919 49.2933 9.92268 49.8643 9.39162C50.4354 8.85381 51.2591 8.50324 52.3356 8.33987L54.1374 8.07431C54.4984 8.01987 54.7839 7.95181 54.9939 7.87012C55.2039 7.78837 55.3582 7.67949 55.4566 7.54331C55.5552 7.40037 55.6043 7.21993 55.6043 7.00212C55.6043 6.77743 55.5452 6.57318 55.4271 6.38937C55.3156 6.19877 55.1449 6.04899 54.9152 5.94006C54.692 5.82433 54.4195 5.76647 54.0979 5.76647C53.586 5.76647 53.1758 5.90603 52.8672 6.18515C52.5588 6.45749 52.3914 6.83187 52.3652 7.30843H49.2834C49.3097 6.58681 49.5197 5.94688 49.9136 5.38863C50.314 4.82358 50.8686 4.38446 51.5775 4.0713C52.2863 3.75814 53.1069 3.60156 54.0389 3.60156C55.0169 3.60156 55.8439 3.76836 56.52 4.10194C57.1961 4.42872 57.7048 4.89846 58.0461 5.51117C58.3939 6.12388 58.5678 6.85574 58.5678 7.70668V12.1999C58.5678 12.6832 58.6007 13.1326 58.6664 13.5478C58.7385 13.9563 58.8403 14.215 58.9716 14.3239V14.6712H55.8702C55.798 14.3784 55.7422 14.0482 55.7028 13.6806C55.6634 13.3129 55.6404 12.9249 55.6339 12.5165L56.1163 12.3021C55.9917 12.7854 55.7619 13.2313 55.4271 13.6397C55.0989 14.0414 54.6756 14.3648 54.1571 14.6098C53.645 14.8482 53.0608 14.9673 52.4045 14.9673ZM53.5072 12.7003C53.9273 12.7003 54.2982 12.6049 54.6197 12.4143C54.9414 12.2169 55.1875 11.9446 55.3582 11.5974C55.5354 11.2502 55.624 10.8554 55.624 10.4128V9.00362L55.8702 9.14656C55.7126 9.36443 55.5158 9.53124 55.2795 9.64693C55.0497 9.76268 54.7379 9.86143 54.3441 9.94306L53.586 10.0963C53.0806 10.1984 52.6999 10.3549 52.4439 10.566C52.1945 10.7771 52.0697 11.0732 52.0697 11.4544C52.0697 11.8357 52.2043 12.1386 52.4734 12.3633C52.7426 12.5879 53.0871 12.7003 53.5072 12.7003Z" fill="#384555"/>
<path d="M38.8672 3.89844H42.0375L44.7646 13.1401H43.8097L46.4285 3.89844H49.5103L45.9166 14.6718H42.5986L38.8672 3.89844Z" fill="#384555"/>
<path d="M34.204 14.9673C33.1735 14.9673 32.2676 14.7358 31.4866 14.2729C30.712 13.81 30.1115 13.1496 29.6848 12.2918C29.2648 11.434 29.0547 10.4299 29.0547 9.27931C29.0547 8.12881 29.2648 7.12806 29.6848 6.27706C30.1115 5.41926 30.712 4.7589 31.4866 4.29596C32.2676 3.83304 33.1735 3.60156 34.204 3.60156C35.2344 3.60156 36.137 3.83304 36.9115 4.29596C37.686 4.7589 38.2833 5.41926 38.7034 6.27706C39.13 7.12806 39.3433 8.12881 39.3433 9.27931C39.3433 10.4299 39.13 11.434 38.7034 12.2918C38.2833 13.1496 37.686 13.81 36.9115 14.2729C36.137 14.7358 35.2344 14.9673 34.204 14.9673ZM34.204 12.5982C34.6372 12.5982 35.008 12.4756 35.3165 12.2306C35.625 11.9786 35.8613 11.6076 36.0254 11.1174C36.1895 10.6205 36.2715 10.0077 36.2715 9.27931C36.2715 8.19687 36.0911 7.37649 35.73 6.81831C35.369 6.25324 34.8603 5.9707 34.204 5.9707C33.7708 5.9707 33.3966 6.09664 33.0815 6.34856C32.7731 6.59362 32.5367 6.96462 32.3727 7.46162C32.2086 7.95181 32.1265 8.55768 32.1265 9.27931C32.1265 10.0009 32.2086 10.6102 32.3727 11.1072C32.5367 11.6042 32.7731 11.9786 33.0815 12.2306C33.3966 12.4756 33.7708 12.5982 34.204 12.5982Z" fill="#384555"/>
<path d="M20.3281 0.03125H23.4196V12.3931L22.8683 11.7293C22.8683 11.7293 24.3994 11.7293 27.0335 11.7293C29.6675 11.7293 29.3074 14.6749 29.3074 14.6749H20.3281V0.03125Z" fill="#384555"/>
<path fill-rule="evenodd" clip-rule="evenodd" d="M4.20511 0.03125C6.50596 0.03125 8.37112 1.97092 8.37112 4.36363V6.0102H9.75762C12.0585 6.0102 13.9236 7.94988 13.9236 10.3426C13.9236 12.7353 12.0585 14.6749 9.75762 14.6749H0.0390625V4.36363C0.0390625 1.97092 1.90427 0.03125 4.20511 0.03125Z" fill="#384555"/>
</g>
<defs>
<clipPath id="clip0_6566_63877">
<rect width="85" height="15" fill="white"/>
</clipPath>
</defs>
</svg>
