<svg width="85" height="16" viewBox="0 0 85 16" fill="none" xmlns="http://www.w3.org/2000/svg">
<g clip-path="url(#clip0_6566_63875)">
<path d="M59.4995 3.33319C58.1917 3.33319 57.2577 3.77789 56.7993 4.61945L56.5531 5.07285V3.55298H54.4224V12.8135H56.6633V7.3044C56.6633 5.98809 57.3813 5.23281 58.635 5.23281C59.8888 5.23281 60.5146 5.96734 60.5146 7.24967V12.8135H62.7555V6.85133C62.7555 4.65012 61.5378 3.33319 59.4995 3.33319ZM48.6354 3.33319C45.9922 3.33319 44.3496 4.97333 44.3496 7.6156V8.916C44.3496 11.4551 46.0065 13.0339 48.6726 13.0339C50.4551 13.0339 51.7049 12.3827 52.4915 11.0465L51.1017 10.2525C50.5207 11.0237 49.5933 11.5008 48.6726 11.5008C47.3227 11.5008 46.5162 10.6719 46.5162 9.28247V8.91447H52.774V7.37747C52.774 4.91681 51.1495 3.33319 48.6354 3.33319ZM50.7355 7.41593H46.5162V7.19433C46.5162 5.66877 47.2686 4.82841 48.6354 4.82841C50.0021 4.82841 50.7355 5.65735 50.7355 7.04673V7.41593ZM85 2.0283V0.256767H77.2525V2.0283H79.9692V11.0429H77.2525V12.8135H85V11.0429H82.2833V2.0283H85ZM26.2519 0C22.7908 0 20.6402 2.14646 20.6402 5.60083V7.46887C20.6402 10.9241 22.7899 13.0697 26.2519 13.0697C29.714 13.0697 31.8637 10.9241 31.8637 7.46887V5.60083C31.8627 2.14646 29.7122 0 26.2519 0ZM29.5487 7.59667C29.5487 9.89073 28.3475 11.2071 26.2519 11.2071C24.1563 11.2071 22.9543 9.89073 22.9543 7.59667V5.47304C22.9543 3.17895 24.1554 1.86263 26.251 1.86263C28.3466 1.86263 29.5478 3.17895 29.5478 5.47304L29.5487 7.59667ZM38.8992 3.33801C37.7238 3.33801 36.7048 3.82148 36.1751 4.63358L35.9334 5.0028V3.55298H33.8036V16H36.0437V11.4924L36.2842 11.8463C36.7882 12.5893 37.7727 13.0339 38.9171 13.0339C40.8489 13.0339 42.7976 11.7771 42.7976 8.971V7.39433C42.7976 5.37382 41.5962 3.33319 38.898 3.33319L38.8992 3.33801ZM40.5582 8.86487C40.5582 10.3574 39.6831 11.2849 38.2756 11.2849C36.9629 11.2849 36.0461 10.3053 36.0461 8.90187V7.51067C36.0461 6.0855 36.9707 5.09059 38.2937 5.09059C39.6918 5.09059 40.5603 6.01815 40.5603 7.51067L40.5582 8.86487ZM68.9469 0.261278L64.4245 12.8135H66.698L67.5631 10.1219H72.7613L72.7699 10.1484L73.6258 12.8135H75.9017L71.375 0.256767L68.9469 0.261278ZM68.1226 8.35493L70.1619 1.99974L72.1808 8.34713L68.1226 8.35493ZM14.8197 6.54733C15.1834 5.45741 15.0575 4.26436 14.4742 3.27367C13.597 1.75469 11.8342 0.97326 10.1126 1.34037C8.61202 -0.320212 6.04291 -0.456113 4.37368 1.0367C3.84396 1.51055 3.44872 2.11429 3.22783 2.78809C2.09678 3.019 1.12074 3.72346 0.549325 4.72137C-0.337263 6.23794 -0.136007 8.15107 1.04702 9.4524C0.68199 10.5417 0.806788 11.7351 1.38939 12.7261C2.26751 14.2456 4.03162 15.0271 5.75403 14.6593C6.52035 15.5177 7.62088 16.0063 8.7749 15.9997C10.5396 16.0012 12.1031 14.8677 12.6419 13.196C13.7726 12.9647 14.7486 12.2603 15.3204 11.2627C16.1964 9.7488 15.9942 7.84563 14.8197 6.54733ZM8.7749 14.9528C8.07052 14.954 7.38821 14.7083 6.84764 14.2589L6.94279 14.2053L10.1444 12.3665C10.3063 12.2717 10.4064 12.0991 10.4076 11.9121V7.42073L11.761 8.1998C11.7746 8.20673 11.784 8.21967 11.7864 8.2344V11.956C11.7828 13.6094 10.4366 14.9492 8.7749 14.9528ZM2.30226 12.2026C1.94902 11.5958 1.8221 10.8845 1.94418 10.1935L2.03936 10.2503L5.24396 12.0889C5.40532 12.1833 5.60566 12.1833 5.76703 12.0889L9.6817 9.84353V11.3986C9.68084 11.4148 9.67267 11.4299 9.65969 11.4395L6.41701 13.3003C4.97593 14.1263 3.13476 13.6353 2.30226 12.2026ZM1.45919 5.26378C1.81486 4.65282 2.37629 4.18709 3.0441 3.94866V7.73347C3.04168 7.9196 3.14111 8.09247 3.30398 8.18447L7.19963 10.4205L5.84619 11.1995C5.83138 11.2074 5.81356 11.2074 5.79875 11.1995L2.56243 9.34173C1.12437 8.51247 0.631225 6.682 1.45919 5.24784V5.26378ZM12.5787 7.8342L8.67033 5.57587L10.0204 4.80015C10.0353 4.79233 10.0531 4.79233 10.0679 4.80015L13.3042 6.66098C14.7447 7.48813 15.2385 9.32067 14.4072 10.7537C14.0572 11.3571 13.507 11.8201 12.8509 12.0637V8.27887C12.8452 8.09307 12.7418 7.92407 12.5787 7.8342ZM13.9258 5.81881L13.8306 5.76199L10.6324 3.90747C10.4698 3.81276 10.2685 3.81276 10.1063 3.90747L6.19491 6.15285V4.5978C6.19339 4.58187 6.20066 4.56593 6.21395 4.55691L9.45029 2.69909C10.8928 1.87225 12.7362 2.36535 13.5671 3.80073C13.9183 4.40687 14.0452 5.11615 13.9261 5.80558L13.9258 5.81881ZM5.45638 8.57533L4.10293 7.7996C4.08933 7.79147 4.07997 7.77733 4.07756 7.76173V4.04938C4.07967 2.39271 5.43131 1.05173 7.09598 1.05383C7.79859 1.05474 8.47905 1.29979 9.01936 1.74687L8.92421 1.80039L5.7226 3.63927C5.56063 3.73398 5.46062 3.90657 5.45941 4.09358L5.45638 8.57533ZM6.19158 6.99833L7.93485 5.99861L9.68143 6.99833V8.99773L7.94117 9.9978L6.19491 8.99773L6.19158 6.99833Z" fill="#384555"/>
</g>
<defs>
<clipPath id="clip0_6566_63875">
<rect width="85" height="16" fill="white"/>
</clipPath>
</defs>
</svg>
