<svg width="129" height="24" viewBox="0 0 129 24" fill="none" xmlns="http://www.w3.org/2000/svg">
<path d="M90.2993 4.99979C88.3145 4.99979 86.897 5.66683 86.2013 6.92918L85.8276 7.60928V5.32947H82.594V19.2203H85.9949V10.9566C85.9949 8.98213 87.0846 7.84921 88.9873 7.84921C90.89 7.84921 91.8398 8.95101 91.8398 10.8745V19.2203H95.2407V10.277C95.2407 6.97518 93.3931 5.00025 90.2998 5.00025L90.2993 4.99979ZM73.8114 4.99979C69.8 4.99979 67.3071 7.46 67.3071 11.4234V13.374C67.3071 17.1827 69.8216 19.5509 73.8678 19.5509C76.573 19.5509 78.4698 18.574 79.6635 16.5698L77.5544 15.3787C76.6726 16.5355 75.2651 17.2512 73.8678 17.2512C71.8192 17.2512 70.5952 16.0078 70.5952 13.9237V13.3717H80.0923V11.0662C80.0923 7.37522 77.6269 5.00025 73.8114 5.00025V4.99979ZM76.9986 11.1239H70.5952V10.7915C70.5952 8.50316 71.7371 7.24262 73.8114 7.24262C75.8856 7.24262 76.9986 8.48603 76.9986 10.5701V11.1239ZM129 3.04245V0.385151H117.242V3.04245H121.365V16.5644H117.242V19.2203H129V16.5644H124.877V3.04245H129ZM39.8411 0C34.5884 0 31.3245 3.21969 31.3245 8.40124V11.2033C31.3245 16.3862 34.587 19.6045 39.8411 19.6045C45.0953 19.6045 48.3578 16.3862 48.3578 11.2033V8.40124C48.3564 3.21969 45.0926 0 39.8411 0ZM44.8445 11.395C44.8445 14.8361 43.0215 16.8106 39.8411 16.8106C36.6608 16.8106 34.8365 14.8361 34.8365 11.395V8.20956C34.8365 4.76843 36.6594 2.79395 39.8398 2.79395C43.0202 2.79395 44.8431 4.76843 44.8431 8.20956L44.8445 11.395ZM59.0353 5.00701C57.2514 5.00701 55.705 5.73222 54.9011 6.95037L54.5342 7.5042V5.32947H51.302V24H54.7016V17.2386L55.0666 17.7694C55.8315 18.8839 57.3257 19.5509 59.0624 19.5509C61.9942 19.5509 64.9517 17.6657 64.9517 13.4565V11.0915C64.9517 8.06073 63.1283 4.99979 59.0335 4.99979L59.0349 5.00701H59.0353ZM61.553 13.2973C61.553 15.5361 60.2249 16.9274 58.0888 16.9274C56.0966 16.9274 54.7052 15.458 54.7052 13.3528V11.266C54.7052 9.12825 56.1085 7.63589 58.1163 7.63589C60.2382 7.63589 61.5562 9.02723 61.5562 11.266L61.5535 13.2973H61.553ZM104.637 0.391917L97.7736 19.2203H101.224L102.537 15.1829H110.426L110.439 15.2226L111.738 19.2203H115.192L108.322 0.385151L104.637 0.392368L104.637 0.391917ZM103.386 12.5324L106.481 2.99961L109.545 12.5207L103.386 12.532V12.5324ZM22.491 9.82099C23.0431 8.18611 22.8519 6.39654 21.9668 4.9105C20.6355 2.63204 17.9601 1.45989 15.3474 2.01056C13.07 -0.480318 9.171 -0.684169 6.6377 1.55505C5.83378 2.26583 5.23394 3.17144 4.8987 4.18213C3.18217 4.5285 1.70089 5.58519 0.833681 7.08206C-0.511847 9.35691 -0.206411 12.2266 1.589 14.1786C1.03502 15.8125 1.22442 17.6026 2.1086 19.0891C3.44128 21.3684 6.11858 22.5406 8.73259 21.989C9.89559 23.2766 11.5658 24.0095 13.3172 23.9995C15.9954 24.0018 18.3682 22.3015 19.1859 19.794C20.902 19.4471 22.3832 18.3905 23.2509 16.894C24.5804 14.6232 24.2736 11.7689 22.491 9.82144V9.82099ZM13.3172 22.4292C12.2482 22.431 11.2127 22.0625 10.3923 21.3883L10.5367 21.308L15.3956 18.5497C15.6414 18.4076 15.7932 18.1487 15.795 17.8682V11.1311L17.8491 12.2997C17.8697 12.3101 17.8839 12.3295 17.8876 12.3516V17.934C17.8821 20.4141 15.839 22.4233 13.3172 22.4287V22.4292ZM3.49402 18.3039C2.95792 17.3937 2.7653 16.3267 2.95058 15.2903L3.09503 15.3755L7.95848 18.1334C8.20337 18.275 8.50742 18.275 8.75232 18.1334L14.6934 14.7653V17.0979C14.6921 17.1222 14.6797 17.1448 14.66 17.1592L9.73875 19.9505C7.5517 21.1894 4.75791 20.4529 3.49447 18.3039H3.49402ZM2.21454 7.89567C2.75431 6.97923 3.60637 6.28063 4.61987 5.92299V11.6002C4.6162 11.8794 4.76709 12.1387 5.01427 12.2767L10.9265 15.6308L8.87245 16.7993C8.84998 16.8111 8.82293 16.8111 8.80046 16.7993L3.88887 14.0126C1.7064 12.7687 0.957977 10.023 2.21454 7.87176V7.89567ZM19.09 11.7513L13.1585 8.36381L15.2075 7.20022C15.23 7.1885 15.2571 7.1885 15.2795 7.20022L20.1911 9.99147C22.3773 11.2322 23.1266 13.981 21.865 16.1305C21.3339 17.0356 20.4988 17.7302 19.5032 18.0955V12.4183C19.4945 12.1396 19.3372 11.8861 19.0896 11.7513H19.09ZM21.1345 8.72821L20.99 8.64298L16.1362 5.8612C15.8895 5.71914 15.584 5.71914 15.3378 5.8612L9.40168 9.22928V6.8967C9.39938 6.8728 9.41041 6.84889 9.43059 6.83536L14.3422 4.04863C16.5315 2.80838 19.329 3.54802 20.5901 5.7011C21.123 6.61031 21.3156 7.67423 21.1349 8.70837V8.72732L21.1345 8.72821ZM8.28086 12.863L6.2268 11.6994C6.20616 11.6872 6.19195 11.666 6.18829 11.6426V6.07407C6.1915 3.58906 8.24281 1.5776 10.7692 1.58075C11.8355 1.58211 12.8682 1.94968 13.6882 2.62031L13.5438 2.70059L8.68489 5.45891C8.43908 5.60097 8.28729 5.85985 8.28546 6.14037L8.28086 12.863ZM9.39664 10.4975L12.0423 8.99792L14.693 10.4975V13.4966L12.0519 14.9967L9.40168 13.4966L9.39711 10.4975H9.39664Z" fill="#0C1D31"/>
</svg>
