<svg width="34" height="40" viewBox="0 0 34 40" fill="none" xmlns="http://www.w3.org/2000/svg">
<g clip-path="url(#clip0_6566_63860)">
<path fill-rule="evenodd" clip-rule="evenodd" d="M4.626 0L15.8737 10.4943V10.4919V0.0242151H18.0633V10.5413L29.3614 0V11.965H34V29.2235H29.3756V39.8778L18.0633 29.8133V39.9934H15.8737V29.9792L4.63875 40V29.2235H0V11.965H4.626V0ZM14.2231 14.1552H2.18949V27.0334H4.636V22.9711L14.2231 14.1552ZM6.82812 23.9429V35.1129L15.8737 27.045V15.6229L6.82812 23.9429ZM18.1263 26.9382V15.6122L27.1745 23.9326V29.2235H27.1862V34.9989L18.1263 26.9382ZM29.3756 27.0334H31.8105V14.1552H19.8665L29.3756 22.8798V27.0334ZM27.1719 11.965V5.03776L19.7471 11.965H27.1719ZM14.2401 11.965H6.8155V5.03776L14.2401 11.965Z" fill="#384555"/>
</g>
<defs>
<clipPath id="clip0_6566_63860">
<rect width="34" height="40" fill="white"/>
</clipPath>
</defs>
</svg>
