<svg width="105" height="27" viewBox="0 0 105 27" fill="none" xmlns="http://www.w3.org/2000/svg">
<g clip-path="url(#clip0_6566_63847)">
<path d="M21.2949 13.4705C21.2949 14.0178 20.941 14.5042 20.5281 14.6867V19.7339C20.5281 21.4367 19.6432 23.0177 18.2275 23.8691L14.1573 26.3015C13.4494 26.7272 12.6236 26.9705 11.8568 26.9705C11.0899 26.9705 10.264 26.788 9.5562 26.3624H9.43817C9.43817 26.3015 9.61514 26.1799 9.61514 26.1799C10.0871 25.8758 10.677 25.7543 11.3258 25.8758C12.1517 25.9975 12.9775 25.8758 13.6854 25.4502L17.7556 23.0177C18.8764 22.3488 19.5843 21.1326 19.5843 19.7947V14.7474C19.1123 14.5651 18.8174 14.0786 18.8174 13.5312C18.8174 12.9839 19.4073 12.1934 20.1151 12.1934C20.823 12.1934 21.4129 12.8015 21.4129 13.5312L21.2949 13.4705ZM21.6489 9.21365L17.4017 6.65963V6.17314C17.2837 5.80828 17.1068 5.56503 16.8118 5.3826C16.5168 5.20017 16.1629 5.13936 15.809 5.26098C15.4551 5.3826 15.2191 5.56503 15.0421 5.86909C14.6882 6.538 14.9242 7.32858 15.514 7.69342C15.691 7.81505 15.927 7.87587 16.1629 7.87587C16.3989 7.87587 16.6938 7.75423 16.9298 7.6326L21.177 10.1867C22.2977 10.8556 23.0056 12.0718 23.0056 13.4097V18.2745C23.0056 19.1258 22.7107 19.9164 22.2387 20.5853C21.8258 21.0718 21.6489 21.6799 21.6489 22.288V22.5313H21.7668C22.4747 22.0448 23.0056 21.4367 23.4185 20.7069C23.8315 19.9772 24.0674 19.1258 24.0674 18.3353V13.4705C24.0674 11.7677 23.1826 10.1867 21.7668 9.33529L21.6489 9.21365ZM24.3623 9.3961C24.3623 8.60554 24.1264 7.75423 23.7135 7.08531C23.3006 6.35557 22.7107 5.74746 22.0028 5.32179L17.9326 2.88936C16.5168 2.03801 14.6882 2.03801 13.2725 2.88936L9.02528 5.44341C8.90732 5.32179 8.73035 5.26098 8.61239 5.20017C8.25845 5.07855 7.90451 5.20017 7.60958 5.32179C7.31458 5.50422 7.07866 5.80828 7.01965 6.11233C6.90169 6.47719 7.01965 6.84204 7.13761 7.14613C7.37359 7.57178 7.84549 7.81505 8.25845 7.81505C8.67134 7.81505 8.73035 7.81505 8.90732 7.6326C9.37923 7.32858 9.61514 6.84204 9.5562 6.29476L13.8034 3.74071C14.9242 3.07179 16.3399 3.07179 17.4017 3.74071L21.4719 6.17314C22.1798 6.59882 22.7107 7.26776 23.0056 7.99744C23.2416 8.60554 23.5955 9.09208 24.1264 9.33529L24.3034 9.45692V9.33529L24.3623 9.3961ZM4.36517 14.8083C5.07304 14.8083 5.66292 14.2001 5.66292 13.4705C5.66292 12.7407 5.30899 12.4366 4.89607 12.2543V7.20694C4.89607 5.86909 5.60393 4.65287 6.72472 3.98395L10.7949 1.55152C11.5028 1.12585 12.3287 1.00423 13.1545 1.12585C13.8034 1.24747 14.3932 1.12585 14.8651 0.821794L15.0421 0.700166H14.9242C14.2163 0.213682 13.4494 0.03125 12.6236 0.03125C11.7977 0.03125 10.9719 0.274493 10.323 0.700166L6.25281 3.1326C4.83708 3.98395 3.95225 5.56503 3.95225 7.26776V12.315C3.48034 12.4975 3.18539 12.9839 3.18539 13.5312C3.18539 14.0786 3.77528 14.8691 4.48315 14.8691L4.36517 14.8083ZM2.71349 17.788L6.9607 20.342V20.8286C7.07866 21.1934 7.25563 21.4367 7.55056 21.6191C7.72754 21.7407 7.96345 21.8015 8.19944 21.8015H8.55338C8.90732 21.6799 9.14324 21.4974 9.32021 21.1934C9.67416 20.5245 9.43817 19.7339 8.84831 19.3691C8.37641 19.065 7.84549 19.1258 7.4326 19.4299L3.18539 16.8758C2.06461 16.2069 1.35674 14.9907 1.35674 13.6529V8.788C1.35674 7.93669 1.65168 7.14613 2.1236 6.47719C2.53651 5.99071 2.71349 5.3826 2.71349 4.77449V4.53125H2.59551C1.88764 5.01774 1.35674 5.62584 0.943817 6.35557C0.530899 7.08531 0.294944 7.93669 0.294944 8.72718V13.592C0.294944 15.2948 1.17977 16.8758 2.59551 17.7272L2.71349 17.788ZM15.2781 21.5583C15.3961 21.6799 15.573 21.7407 15.691 21.8015H16.0449C16.2809 21.8015 16.5168 21.7407 16.6938 21.6191C16.9887 21.4367 17.2247 21.1326 17.2837 20.8286C17.4017 20.4637 17.2837 20.0988 17.1657 19.7947C16.8118 19.1258 15.986 18.9434 15.3961 19.3083C14.9242 19.6124 14.6882 20.0988 14.7472 20.6461L10.5 23.2002C9.954 23.5288 9.3331 23.7019 8.70085 23.7019C8.06859 23.7019 7.44769 23.5288 6.90169 23.2002L2.83146 20.7678C2.1236 20.342 1.5927 19.6731 1.29775 18.9434C1.0618 18.3353 0.707866 17.8488 0.176966 17.6056L0 17.484V17.6056C0 18.3961 0.235955 19.2475 0.648876 19.9164C1.0618 20.6461 1.65168 21.2542 2.35955 21.6799L6.42977 24.1123C7.13761 24.538 7.96345 24.7812 8.73035 24.7812C9.49718 24.7812 10.323 24.538 11.0309 24.1123L15.2781 21.5583Z" fill="#384555"/>
<path d="M53.6774 13.7751C53.5004 13.6535 53.3235 13.5319 53.1465 13.5319V13.3495C53.3235 13.3495 53.5004 13.2279 53.6774 13.1062C53.8544 12.9846 54.0314 12.8022 54.1493 12.5589C54.2673 12.3157 54.3263 12.0116 54.3263 11.6468V11.5252C54.3263 11.0994 54.2083 10.7954 54.0314 10.4913C53.8544 10.1873 53.5594 9.94405 53.2055 9.82241C52.8516 9.64003 52.4386 9.57921 52.0257 9.57921H49.1353V17.4846H52.0257C52.4976 17.4846 52.8516 17.4238 53.2055 17.2413C53.5594 17.059 53.7954 16.8157 54.0314 16.5117C54.2083 16.2076 54.3263 15.8427 54.3263 15.417V15.2954C54.3263 14.9305 54.2673 14.6265 54.1493 14.3832C54.0314 14.14 53.8544 13.9576 53.6774 13.836V13.7751ZM50.374 10.613H51.9078C52.2616 10.613 52.6156 10.7346 52.7926 10.9171C53.0285 11.0994 53.1465 11.3427 53.1465 11.7076V11.8292C53.1465 12.1333 53.0285 12.4373 52.7926 12.6197C52.5566 12.8022 52.2616 12.9238 51.9078 12.9238H50.374V10.613ZM53.2055 15.2346C53.2055 15.5995 53.0875 15.8427 52.8516 16.0251C52.6156 16.2076 52.3206 16.3292 51.9078 16.3292H50.374V14.0184H51.9078C52.3206 14.0184 52.6156 14.14 52.8516 14.3224C53.0875 14.5049 53.2055 14.8089 53.2055 15.113V15.2346ZM36.3347 9.76166C35.9808 9.57921 35.5678 9.51839 35.0959 9.51839H31.8516V17.4238H33.0314V14.3224H35.3909C35.6268 14.3224 35.8038 14.3224 35.8628 14.5049C35.9808 14.6265 36.0397 14.8089 36.0397 14.9914V17.4238H37.2195V14.8089C37.2195 14.5049 37.1605 14.2008 36.9836 14.0184C36.8066 13.836 36.5706 13.7751 36.3347 13.7143V13.5319C36.6886 13.4103 36.9246 13.2279 37.1605 12.9238C37.3965 12.6197 37.5145 12.2549 37.5145 11.7076V11.586C37.5145 11.1603 37.3965 10.7954 37.2195 10.4305C37.0426 10.1265 36.7476 9.88323 36.3937 9.70084L36.3347 9.76166ZM36.2757 11.9508C36.2757 12.3157 36.1578 12.6197 35.9218 12.863C35.6858 13.1062 35.3319 13.167 34.919 13.167H33.0314V10.613H34.919C35.3319 10.613 35.6858 10.7346 35.9218 10.9171C36.1578 11.1603 36.2757 11.4643 36.2757 11.8292V11.9508ZM70.2533 9.51839H71.492L69.3687 17.4238H67.3039L65.1802 9.51839H66.419L68.3068 16.6332H68.4244L70.2533 9.51839ZM73.9695 9.51839H75.149V17.4238H73.9695V9.51839ZM83.2899 14.0792C83.5258 14.3832 83.6434 14.7481 83.6434 15.2346C83.6434 15.7211 83.5258 16.1468 83.2899 16.4508C83.054 16.8157 82.7589 17.0589 82.2871 17.3022C81.8737 17.4846 81.3434 17.6062 80.8124 17.6062C80.2223 17.6062 79.7504 17.4846 79.2786 17.3022C78.8068 17.1198 78.5117 16.7549 78.2166 16.39C77.9807 15.9643 77.8631 15.4778 77.8631 14.8697V14.5657H79.0427V14.8697C79.0427 15.417 79.2195 15.8427 79.5145 16.1468C79.8687 16.4508 80.2814 16.5724 80.8124 16.5724C81.3434 16.5724 81.7561 16.4508 82.0511 16.2076C82.3462 15.9643 82.4638 15.6603 82.4638 15.2954C82.4638 14.9305 82.4047 14.8697 82.2871 14.6873C82.1688 14.5049 81.992 14.3832 81.7561 14.3224C81.5202 14.2008 81.2251 14.14 80.8715 14.0792L80.4582 13.9576C79.9864 13.836 79.5737 13.7143 79.1603 13.5319C78.8068 13.3495 78.5117 13.1062 78.3349 12.8022C78.1575 12.4981 78.0399 12.1333 78.0399 11.6468C78.0399 11.1603 78.1575 10.7954 78.3934 10.4305C78.6293 10.1265 78.9244 9.82241 79.3377 9.64002C79.7504 9.45757 80.2223 9.39675 80.7533 9.39675C81.2842 9.39675 81.7561 9.51839 82.1688 9.70084C82.5821 9.88323 82.9357 10.1873 83.1716 10.5522C83.4075 10.9171 83.5258 11.4035 83.5258 11.9508V12.3765H82.3462V11.9508C82.3462 11.586 82.2871 11.3427 82.1688 11.0994C82.0511 10.9171 81.8737 10.7346 81.5793 10.613C81.3434 10.4913 81.0483 10.4913 80.7533 10.4913C80.2814 10.4913 79.9272 10.613 79.6913 10.7954C79.4554 10.9779 79.2786 11.2819 79.2786 11.6468C79.2786 12.0116 79.2786 12.0725 79.4554 12.2549C79.5737 12.4373 79.7504 12.5589 79.9272 12.6197C80.1631 12.7414 80.399 12.8022 80.7533 12.863L81.1659 12.9846C81.6378 13.1062 82.1103 13.2279 82.4638 13.4103C82.818 13.5927 83.1716 13.836 83.349 14.14L83.2899 14.0792ZM86.2983 9.51839H87.4779V17.4238H86.2983V9.51839ZM104.998 9.51839V17.4238H102.697L100.632 10.3089H100.455V17.4238H99.2758V9.51839H101.576L103.641 16.6332H103.818V9.51839H104.998ZM43.1184 9.33594C41.4078 9.33594 40.051 10.7346 40.051 12.4981V14.3832C40.051 16.1468 41.4078 17.5454 43.1184 17.5454C44.8291 17.5454 46.1859 16.1468 46.1859 14.3832V12.4981C46.1859 10.7346 44.8291 9.33594 43.1184 9.33594ZM45.0061 14.4441C45.0061 15.5386 44.1212 16.39 43.1184 16.39C42.1156 16.39 41.2308 15.4778 41.2308 14.4441V12.5589C41.2308 11.4643 42.1156 10.613 43.1184 10.613C44.1212 10.613 45.0061 11.5252 45.0061 12.5589V14.4441ZM59.9892 9.39675C58.2785 9.39675 56.9218 10.7954 56.9218 12.5589V14.4441C56.9218 16.2076 58.2785 17.6062 59.9892 17.6062C61.6999 17.6062 63.0566 16.2076 63.0566 14.4441V12.5589C63.0566 10.7954 61.6999 9.39675 59.9892 9.39675ZM61.9358 14.4441C61.9358 15.5386 61.051 16.39 60.0482 16.39C59.0454 16.39 58.1605 15.4778 58.1605 14.4441V12.5589C58.1605 11.4643 59.0454 10.613 60.0482 10.613C61.051 10.613 61.9358 11.5252 61.9358 12.5589V14.4441ZM93.318 9.39675C91.6075 9.39675 90.2504 10.7954 90.2504 12.5589V14.4441C90.2504 16.2076 91.6075 17.6062 93.318 17.6062C95.0286 17.6062 96.385 16.2076 96.385 14.4441V12.5589C96.385 10.7954 95.0286 9.39675 93.318 9.39675ZM95.2645 14.4441C95.2645 15.5386 94.3793 16.39 93.3765 16.39C92.3737 16.39 91.4892 15.4778 91.4892 14.4441V12.5589C91.4892 11.4643 92.3737 10.613 93.3765 10.613C94.3793 10.613 95.2645 11.5252 95.2645 12.5589V14.4441Z" fill="#384555"/>
</g>
<defs>
<clipPath id="clip0_6566_63847">
<rect width="105" height="27" fill="white"/>
</clipPath>
</defs>
</svg>
