<svg width="158" height="40" viewBox="0 0 158 40" fill="none" xmlns="http://www.w3.org/2000/svg">
<path d="M32.0438 19.9548C32.0438 20.7656 31.5112 21.4864 30.8899 21.7566V29.2341C30.8899 31.7566 29.5584 34.099 27.4281 35.3602L21.3034 38.9638C20.2382 39.5945 18.9955 39.9548 17.8416 39.9548C16.6876 39.9548 15.4449 39.6846 14.3798 39.0539H14.2022C14.2022 38.9638 14.4685 38.7837 14.4685 38.7837C15.1787 38.3332 16.0663 38.153 17.0427 38.3332C18.2854 38.5134 19.5281 38.3332 20.5933 37.7026L26.718 34.099C28.4045 33.108 29.4697 31.3062 29.4697 29.3242V21.8467C28.7595 21.5765 28.3157 20.8557 28.3157 20.0449C28.3157 19.2341 29.2034 18.0629 30.2685 18.0629C31.3337 18.0629 32.2213 18.9638 32.2213 20.0449L32.0438 19.9548ZM32.5764 13.6485L26.1854 9.86474V9.14402C26.0079 8.60348 25.7416 8.24312 25.2978 7.97285C24.8539 7.70258 24.3213 7.61249 23.7888 7.79267C23.2562 7.97285 22.9011 8.24312 22.6348 8.69357C22.1022 9.68456 22.4573 10.8557 23.3449 11.3963C23.6112 11.5765 23.9663 11.6665 24.3213 11.6665C24.6764 11.6665 25.1202 11.4864 25.4753 11.3062L31.8663 15.09C33.5528 16.081 34.618 17.8828 34.618 19.8647V27.0719C34.618 28.3332 34.1742 29.5044 33.464 30.4954C32.8427 31.2161 32.5764 32.117 32.5764 33.0179V33.3783H32.7539C33.8191 32.6575 34.618 31.7566 35.2393 30.6756C35.8607 29.5945 36.2157 28.3332 36.2157 27.162V19.9548C36.2157 17.4323 34.8843 15.09 32.7539 13.8287L32.5764 13.6485ZM36.6595 13.9188C36.6595 12.7476 36.3045 11.4864 35.6831 10.4954C35.0618 9.41429 34.1742 8.51339 33.109 7.88276L26.9843 4.27916C24.8539 3.01789 22.1022 3.01789 19.9719 4.27916L13.5809 8.06294C13.4034 7.88276 13.1371 7.79267 12.9596 7.70258C12.427 7.5224 11.8944 7.70258 11.4506 7.88276C11.0067 8.15303 10.6517 8.60348 10.5629 9.05393C10.3854 9.59447 10.5629 10.135 10.7404 10.5855C11.0955 11.2161 11.8056 11.5765 12.427 11.5765C13.0483 11.5765 13.1371 11.5765 13.4034 11.3062C14.1135 10.8557 14.4685 10.135 14.3798 9.3242L20.7708 5.54042C22.4573 4.54943 24.5876 4.54943 26.1854 5.54042L32.3101 9.14402C33.3753 9.77465 34.1742 10.7656 34.618 11.8467C34.973 12.7476 35.5056 13.4683 36.3045 13.8287L36.5708 14.0089V13.8287L36.6595 13.9188ZM6.56854 21.9368C7.63371 21.9368 8.52135 21.0359 8.52135 19.9548C8.52135 18.8738 7.98876 18.4233 7.36742 18.153V10.6756C7.36742 8.69357 8.43258 6.89177 10.1191 5.90078L16.2438 2.29717C17.309 1.66654 18.5517 1.48636 19.7944 1.66654C20.7708 1.84672 21.6584 1.66654 22.3685 1.21609L22.6348 1.03591H22.4573C21.3921 0.315192 20.2382 0.0449219 18.9955 0.0449219C17.7528 0.0449219 16.5101 0.405282 15.5337 1.03591L9.40899 4.63952C7.27865 5.90078 5.94719 8.24312 5.94719 10.7656V18.2431C5.23708 18.5134 4.79326 19.2341 4.79326 20.0449C4.79326 20.8557 5.6809 22.0269 6.74607 22.0269L6.56854 21.9368ZM4.08315 26.3512L10.4742 30.135V30.8557C10.6517 31.3963 10.918 31.7566 11.3618 32.0269C11.6281 32.2071 11.9831 32.2972 12.3382 32.2972H12.8708C13.4034 32.117 13.7584 31.8467 14.0247 31.3963C14.5573 30.4053 14.2022 29.2341 13.3146 28.6936C12.6045 28.2431 11.8056 28.3332 11.1843 28.7837L4.79326 24.9999C3.10674 24.0089 2.04157 22.2071 2.04157 20.2251V13.0179C2.04157 11.7566 2.48539 10.5855 3.19551 9.59447C3.81685 8.87375 4.08315 7.97285 4.08315 7.07195V6.71159H3.90562C2.84045 7.43231 2.04157 8.33321 1.42022 9.41429C0.798876 10.4954 0.44382 11.7566 0.44382 12.9278V20.135C0.44382 22.6575 1.77528 24.9999 3.90562 26.2611L4.08315 26.3512ZM22.9899 31.9368C23.1674 32.117 23.4337 32.2071 23.6112 32.2972H24.1438C24.4989 32.2972 24.8539 32.2071 25.1202 32.0269C25.564 31.7566 25.9191 31.3062 26.0079 30.8557C26.1854 30.3152 26.0079 29.7747 25.8303 29.3242C25.2978 28.3332 24.0551 28.0629 23.1674 28.6035C22.4573 29.0539 22.1022 29.7747 22.191 30.5855L15.8 34.3692C14.9784 34.856 14.0441 35.1125 13.0927 35.1125C12.1413 35.1125 11.207 34.856 10.3854 34.3692L4.26067 30.7656C3.19551 30.135 2.39663 29.144 1.95281 28.0629C1.59775 27.162 1.06517 26.4413 0.266292 26.081L0 25.9008V26.081C0 27.2521 0.355056 28.5134 0.976404 29.5044C1.59775 30.5855 2.48539 31.4864 3.55056 32.117L9.67528 35.7206C10.7404 36.3512 11.9831 36.7116 13.1371 36.7116C14.291 36.7116 15.5337 36.3512 16.5989 35.7206L22.9899 31.9368Z" fill="#0C1D31"/>
<path d="M80.7753 20.4053C80.509 20.2251 80.2427 20.0449 79.9764 20.0449V19.7747C80.2427 19.7747 80.509 19.5945 80.7753 19.4143C81.0416 19.2341 81.3079 18.9638 81.4854 18.6035C81.6629 18.2431 81.7517 17.7927 81.7517 17.2521V17.0719C81.7517 16.4413 81.5742 15.9909 81.3079 15.5404C81.0416 15.09 80.5977 14.7296 80.0652 14.5494C79.5326 14.2792 78.9112 14.1891 78.2899 14.1891H73.9405V25.9008H78.2899C79 25.9008 79.5326 25.8107 80.0652 25.5404C80.5977 25.2701 80.9528 24.9098 81.3079 24.4593C81.5742 24.0089 81.7517 23.4683 81.7517 22.8377V22.6575C81.7517 22.117 81.6629 21.6665 81.4854 21.3062C81.3079 20.9458 81.0416 20.6756 80.7753 20.4954V20.4053ZM75.8045 15.7206H78.1124C78.6449 15.7206 79.1775 15.9008 79.4438 16.171C79.7989 16.4413 79.9764 16.8017 79.9764 17.3422V17.5224C79.9764 17.9728 79.7989 18.4233 79.4438 18.6936C79.0888 18.9638 78.6449 19.144 78.1124 19.144H75.8045V15.7206ZM80.0652 22.5674C80.0652 23.108 79.8876 23.4683 79.5326 23.7386C79.1775 24.0089 78.7337 24.1891 78.1124 24.1891H75.8045V20.7656H78.1124C78.7337 20.7656 79.1775 20.9458 79.5326 21.2161C79.8876 21.4864 80.0652 21.9368 80.0652 22.3873V22.5674ZM54.6786 14.4593C54.1461 14.1891 53.5247 14.099 52.8146 14.099H47.9326V25.8107H49.7079V21.2161H53.2584C53.6135 21.2161 53.8798 21.2161 53.9685 21.4864C54.1461 21.6665 54.2348 21.9368 54.2348 22.2071V25.8107H56.0101V21.9368C56.0101 21.4864 55.9213 21.0359 55.6551 20.7656C55.3888 20.4954 55.0337 20.4053 54.6786 20.3152V20.0449C55.2112 19.8647 55.5663 19.5945 55.9213 19.144C56.2764 18.6936 56.4539 18.153 56.4539 17.3422V17.162C56.4539 16.5314 56.2764 15.9909 56.0101 15.4503C55.7438 14.9999 55.3 14.6395 54.7674 14.3692L54.6786 14.4593ZM54.5899 17.7026C54.5899 18.2431 54.4124 18.6936 54.0573 19.0539C53.7022 19.4143 53.1697 19.5044 52.5483 19.5044H49.7079V15.7206H52.5483C53.1697 15.7206 53.7022 15.9008 54.0573 16.171C54.4124 16.5314 54.5899 16.9819 54.5899 17.5224V17.7026ZM105.718 14.099H107.582L104.387 25.8107H101.28L98.0843 14.099H99.9483L102.789 24.6395H102.966L105.718 14.099ZM111.31 14.099H113.085V25.8107H111.31V14.099ZM125.335 20.8557C125.69 21.3062 125.867 21.8467 125.867 22.5674C125.867 23.2882 125.69 23.9188 125.335 24.3692C124.98 24.9098 124.536 25.2701 123.826 25.6305C123.204 25.9008 122.406 26.081 121.607 26.081C120.719 26.081 120.009 25.9008 119.299 25.6305C118.589 25.3602 118.145 24.8197 117.701 24.2792C117.346 23.6485 117.169 22.9278 117.169 22.0269V21.5765H118.944V22.0269C118.944 22.8377 119.21 23.4683 119.654 23.9188C120.187 24.3692 120.808 24.5494 121.607 24.5494C122.406 24.5494 123.027 24.3692 123.471 24.0089C123.915 23.6485 124.092 23.1981 124.092 22.6575C124.092 22.117 124.003 22.0269 123.826 21.7566C123.648 21.4864 123.382 21.3062 123.027 21.2161C122.672 21.0359 122.228 20.9458 121.696 20.8557L121.074 20.6756C120.364 20.4954 119.743 20.3152 119.121 20.0449C118.589 19.7746 118.145 19.4143 117.879 18.9638C117.612 18.5134 117.435 17.9728 117.435 17.2521C117.435 16.5314 117.612 15.9909 117.967 15.4503C118.322 14.9999 118.766 14.5494 119.388 14.2792C120.009 14.0089 120.719 13.9188 121.518 13.9188C122.317 13.9188 123.027 14.099 123.648 14.3692C124.27 14.6395 124.802 15.09 125.157 15.6305C125.512 16.171 125.69 16.8918 125.69 17.7026V18.3332H123.915V17.7026C123.915 17.162 123.826 16.8017 123.648 16.4413C123.471 16.171 123.204 15.9008 122.761 15.7206C122.406 15.5404 121.962 15.5404 121.518 15.5404C120.808 15.5404 120.275 15.7206 119.92 15.9909C119.565 16.2611 119.299 16.7116 119.299 17.2521C119.299 17.7927 119.299 17.8828 119.565 18.153C119.743 18.4233 120.009 18.6035 120.275 18.6936C120.63 18.8737 120.985 18.9638 121.518 19.0539L122.139 19.2341C122.849 19.4143 123.56 19.5945 124.092 19.8647C124.625 20.135 125.157 20.4954 125.424 20.9458L125.335 20.8557ZM129.862 14.099H131.637V25.8107H129.862V14.099ZM158 14.099V25.8107H154.538L151.431 15.2701H151.165V25.8107H149.39V14.099H152.852L155.958 24.6395H156.225V14.099H158ZM64.8865 13.8287C62.3124 13.8287 60.2708 15.9008 60.2708 18.5134V21.3062C60.2708 23.9188 62.3124 25.9909 64.8865 25.9909C67.4607 25.9909 69.5023 23.9188 69.5023 21.3062V18.5134C69.5023 15.9008 67.4607 13.8287 64.8865 13.8287ZM67.727 21.3963C67.727 23.0179 66.3955 24.2792 64.8865 24.2792C63.3775 24.2792 62.0461 22.9278 62.0461 21.3963V18.6035C62.0461 16.9819 63.3775 15.7206 64.8865 15.7206C66.3955 15.7206 67.727 17.0719 67.727 18.6035V21.3963ZM90.273 13.9188C87.6989 13.9188 85.6573 15.9909 85.6573 18.6035V21.3963C85.6573 24.0089 87.6989 26.081 90.273 26.081C92.8472 26.081 94.8888 24.0089 94.8888 21.3963V18.6035C94.8888 15.9909 92.8472 13.9188 90.273 13.9188ZM93.2022 21.3963C93.2022 23.0179 91.8708 24.2792 90.3618 24.2792C88.8528 24.2792 87.5213 22.9278 87.5213 21.3963V18.6035C87.5213 16.9819 88.8528 15.7206 90.3618 15.7206C91.8708 15.7206 93.2022 17.0719 93.2022 18.6035V21.3963ZM140.425 13.9188C137.851 13.9188 135.809 15.9909 135.809 18.6035V21.3963C135.809 24.0089 137.851 26.081 140.425 26.081C142.999 26.081 145.04 24.0089 145.04 21.3963V18.6035C145.04 15.9909 142.999 13.9188 140.425 13.9188ZM143.354 21.3963C143.354 23.0179 142.022 24.2792 140.513 24.2792C139.004 24.2792 137.673 22.9278 137.673 21.3963V18.6035C137.673 16.9819 139.004 15.7206 140.513 15.7206C142.022 15.7206 143.354 17.0719 143.354 18.6035V21.3963Z" fill="#0C1D31"/>
</svg>
