<svg width="41" height="40" viewBox="0 0 41 40" fill="none" xmlns="http://www.w3.org/2000/svg">
<g clip-path="url(#clip0_6566_63886)">
<path fill-rule="evenodd" clip-rule="evenodd" d="M39.1307 17.28L34.4014 20.0057L39.1307 22.7229C39.4226 22.8814 39.6797 23.0964 39.887 23.3555C40.0943 23.6145 40.2475 23.9123 40.3376 24.2312C40.4276 24.5501 40.4528 24.8838 40.4115 25.2125C40.3704 25.5413 40.2636 25.8586 40.0975 26.1456C39.9315 26.4326 39.7095 26.6836 39.4446 26.8838C39.1799 27.0841 38.8775 27.2295 38.5555 27.3115C38.2334 27.3935 37.8982 27.4104 37.5695 27.3614C37.2408 27.3123 36.9251 27.1982 36.6414 27.0257L28.1701 22.1515C27.6249 21.8399 27.2199 21.3324 27.0379 20.7329C26.9553 20.472 26.9176 20.1991 26.9261 19.9257C26.9319 19.73 26.9606 19.5342 27.0121 19.3386C27.1869 18.7097 27.6016 18.174 28.1673 17.8457L36.6356 12.9771C36.9189 12.8142 37.2317 12.7087 37.5559 12.6663C37.8802 12.624 38.2097 12.6458 38.5255 12.7304C38.8413 12.8151 39.1373 12.9609 39.3966 13.1596C39.6558 13.3583 39.8732 13.6061 40.0364 13.8886C40.2015 14.1702 40.309 14.4815 40.3528 14.8046C40.3966 15.1278 40.3759 15.4564 40.2916 15.7716C40.2074 16.0867 40.0615 16.3821 39.8622 16.6407C39.663 16.8994 39.4144 17.1176 39.1307 17.28ZM34.6522 30.4886L26.1881 25.6229C25.7523 25.3685 25.2482 25.2547 24.7449 25.2971C24.1178 25.343 23.5313 25.6241 23.1037 26.0837C22.6762 26.5434 22.4391 27.1475 22.4405 27.7742V37.5171C22.4325 37.8483 22.491 38.1777 22.6127 38.486C22.7343 38.7942 22.9166 39.0751 23.1487 39.3122C23.3808 39.5492 23.6582 39.7376 23.9644 39.8662C24.2707 39.9948 24.5997 40.061 24.9319 40.061C25.2643 40.061 25.5933 39.9948 25.8995 39.8662C26.2057 39.7376 26.4831 39.5492 26.7152 39.3122C26.9474 39.0751 27.1296 38.7942 27.2512 38.486C27.3728 38.1777 27.4315 37.8483 27.4234 37.5171V32.0671L32.1629 34.7943C32.4457 34.9582 32.7582 35.0648 33.0826 35.1079C33.4069 35.151 33.7366 35.13 34.0527 35.0458C34.3687 34.9616 34.6651 34.8162 34.9246 34.6176C35.1842 34.4189 35.4018 34.1712 35.5651 33.8886C35.8956 33.3169 35.9851 32.6378 35.814 32.0004C35.6428 31.3629 35.225 30.8193 34.6522 30.4886ZM24.884 20.9571L21.3642 24.4615C21.2437 24.5734 21.0873 24.6392 20.9228 24.6471H19.8895C19.7252 24.6382 19.5691 24.5725 19.4481 24.4615L15.9283 20.9571C15.8188 20.8368 15.7545 20.6823 15.7463 20.52V19.4886C15.7463 19.3457 15.8265 19.1471 15.9283 19.0457L19.4452 15.5429C19.5665 15.4325 19.7226 15.3679 19.8866 15.36H20.9228C21.0661 15.36 21.2624 15.44 21.3642 15.5429L24.884 19.0471C24.9843 19.1471 25.0659 19.3457 25.0659 19.49V20.5215C25.0568 20.6835 24.9926 20.8363 24.884 20.9571ZM22.0708 19.9857C22.0594 19.8214 21.9934 19.6655 21.8829 19.5429L20.8654 18.53C20.7435 18.4196 20.5871 18.3546 20.4226 18.3457H20.3825C20.2192 18.3553 20.0642 18.4209 19.944 18.5315L18.9264 19.5429C18.8185 19.6663 18.7554 19.8223 18.7473 19.9857V20.0257C18.7473 20.1671 18.8247 20.3629 18.925 20.4629L19.944 21.4771C20.0443 21.5786 20.2406 21.6629 20.3825 21.6629H20.4226C20.5866 21.6528 20.7424 21.5873 20.864 21.4771L21.8829 20.4629C21.9933 20.3426 22.059 20.1883 22.0693 20.0257L22.0708 19.9857ZM6.15866 9.51147L14.6271 14.3829C15.0828 14.6443 15.5873 14.7486 16.0717 14.7086C16.699 14.6614 17.2852 14.3796 17.7128 13.9196C18.1404 13.4597 18.3779 12.8556 18.3775 12.2286V2.48571C18.3619 1.83735 18.0926 1.22076 17.6271 0.767692C17.1615 0.314624 16.5366 0.0609976 15.886 0.0609976C15.2354 0.0609976 14.6106 0.314624 14.145 0.767692C13.6795 1.22076 13.4102 1.83735 13.3945 2.48571V7.93715L8.65088 5.20571C8.07808 4.87609 7.39739 4.78678 6.75853 4.95744C6.11968 5.12809 5.57501 5.54474 5.24433 6.11571C4.91365 6.68669 4.82405 7.36522 4.99526 8.00204C5.16646 8.63886 5.58587 9.18182 6.15866 9.51147ZM24.7464 14.7086C25.249 14.7496 25.7523 14.6359 26.1881 14.3829L34.6522 9.51147C35.2248 9.18129 35.6425 8.63809 35.8138 8.00114C35.9849 7.36419 35.8954 6.68555 35.5651 6.11429C35.2347 5.54411 34.6907 5.12808 34.0527 4.95769C33.4147 4.7873 32.7349 4.87652 32.1629 5.20571L27.422 7.93857V2.48286C27.422 1.82436 27.1596 1.19284 26.6925 0.727212C26.2254 0.261586 25.5919 0 24.9312 0C24.2706 0 23.6371 0.261586 23.17 0.727212C22.7029 1.19284 22.4405 1.82436 22.4405 2.48286V12.2271C22.4391 12.8543 22.676 13.4587 23.1035 13.9188C23.5311 14.3789 24.1175 14.6606 24.7449 14.7071L24.7464 14.7086ZM16.0717 25.2971C15.5679 25.2544 15.0632 25.3682 14.6271 25.6229L6.15723 30.4886C5.58518 30.82 5.16821 31.3639 4.99764 32.0012C4.82707 32.6384 4.91681 33.3171 5.24719 33.8886C5.578 34.4579 6.12195 34.873 6.7596 35.0429C7.39725 35.2127 8.07644 35.1233 8.64801 34.7943L13.3917 32.0671V37.5186C13.3917 38.1773 13.6542 38.8089 14.1214 39.2747C14.5887 39.7405 15.2224 40.0022 15.8832 40.0022C16.544 40.0022 17.1777 39.7405 17.6449 39.2747C18.1122 38.8089 18.3746 38.1773 18.3746 37.5186V27.7742C18.3764 27.1476 18.1396 26.5435 17.7123 26.0838C17.2849 25.6242 16.6986 25.343 16.0717 25.2971ZM13.7758 20.7329C13.8589 20.4686 13.8933 20.1957 13.8875 19.9257C13.8756 19.5013 13.7545 19.087 13.5356 18.7228C13.3167 18.3585 13.0076 18.0565 12.6379 17.8457L4.17664 12.9771C3.89332 12.8139 3.58047 12.7079 3.256 12.6654C2.93154 12.6229 2.60185 12.6445 2.2858 12.7292C1.96976 12.8138 1.67358 12.9598 1.41423 13.1588C1.15487 13.3577 0.937443 13.6057 0.774389 13.8886C0.61014 14.1706 0.503412 14.4823 0.460336 14.8056C0.417261 15.1288 0.438687 15.4574 0.523382 15.7724C0.608078 16.0874 0.754374 16.3826 0.953869 16.6411C1.15336 16.8996 1.40212 17.1162 1.68586 17.2786L6.41519 20.0057L1.683 22.7229C1.39349 22.8827 1.13884 23.0984 0.933884 23.3575C0.728926 23.6165 0.577774 23.9136 0.48925 24.2315C0.400726 24.5494 0.376601 24.8816 0.418284 25.2089C0.459967 25.5362 0.566623 25.8519 0.732028 26.1376C0.897429 26.4234 1.11827 26.6734 1.38166 26.8731C1.64505 27.0729 1.94571 27.2183 2.2661 27.301C2.58648 27.3836 2.92019 27.4019 3.24771 27.3547C3.57525 27.3074 3.89006 27.1956 4.17377 27.0257L12.6364 22.1515C13.2097 21.8257 13.5966 21.3115 13.7758 20.7329Z" fill="#384555"/>
</g>
<defs>
<clipPath id="clip0_6566_63886">
<rect width="41" height="40" fill="white"/>
</clipPath>
</defs>
</svg>
