<svg width="47" height="46" viewBox="0 0 47 46" fill="none" xmlns="http://www.w3.org/2000/svg">
<path fill-rule="evenodd" clip-rule="evenodd" d="M44.8574 19.8688L39.436 23.0034L44.8574 26.1281C45.192 26.3104 45.4868 26.5577 45.7244 26.8556C45.962 27.1535 46.1376 27.4959 46.2409 27.8627C46.3441 28.2294 46.373 28.6132 46.3257 28.9913C46.2785 29.3694 46.1561 29.7342 45.9657 30.0642C45.7754 30.3943 45.5209 30.683 45.2173 30.9133C44.9138 31.1435 44.5672 31.3107 44.198 31.405C43.8288 31.4993 43.4445 31.5189 43.0677 31.4624C42.6909 31.406 42.3291 31.2747 42.0038 31.0764L32.2929 25.471C31.6679 25.1127 31.2036 24.5291 30.995 23.8396C30.9003 23.5396 30.857 23.2258 30.8669 22.9114C30.8734 22.6863 30.9063 22.4613 30.9654 22.2362C31.1658 21.513 31.6411 20.8969 32.2896 20.5194L41.9972 14.9205C42.322 14.7333 42.6805 14.6118 43.0522 14.5631C43.4239 14.5145 43.8016 14.5395 44.1636 14.6368C44.5257 14.7342 44.865 14.9019 45.1622 15.1304C45.4594 15.3589 45.7086 15.6438 45.8957 15.9687C46.0849 16.2925 46.2082 16.6505 46.2584 17.0222C46.3086 17.3938 46.2848 17.7717 46.1882 18.1341C46.0917 18.4965 45.9245 18.8362 45.696 19.1336C45.4676 19.4311 45.1826 19.682 44.8574 19.8688ZM39.7235 35.0587L30.0208 29.4631C29.5212 29.1706 28.9433 29.0397 28.3664 29.0885C27.6475 29.1413 26.9752 29.4645 26.4851 29.9931C25.9949 30.5217 25.7232 31.2164 25.7247 31.9373V43.1415C25.7156 43.5224 25.7827 43.9012 25.9221 44.2557C26.0616 44.6102 26.2705 44.9333 26.5366 45.2058C26.8027 45.4784 27.1207 45.695 27.4717 45.8429C27.8228 45.9908 28.1999 46.067 28.5808 46.067C28.9618 46.067 29.3389 45.9908 29.6899 45.8429C30.041 45.695 30.3589 45.4784 30.6251 45.2058C30.8912 44.9333 31.1001 44.6102 31.2395 44.2557C31.3789 43.9012 31.4461 43.5224 31.4369 43.1415V36.874L36.8699 40.0103C37.1941 40.1987 37.5524 40.3213 37.9242 40.3709C38.296 40.4206 38.6739 40.3963 39.0363 40.2995C39.3986 40.2028 39.7383 40.0354 40.0358 39.807C40.3334 39.5786 40.5829 39.2937 40.77 38.9687C41.1489 38.3112 41.2515 37.5303 41.0553 36.7973C40.8591 36.0642 40.3802 35.439 39.7235 35.0587ZM28.5258 24.0975L24.4909 28.1275C24.3528 28.2563 24.1735 28.3319 23.9849 28.341H22.8004C22.6121 28.3307 22.4332 28.2552 22.2944 28.1275L18.2596 24.0975C18.134 23.9591 18.0603 23.7815 18.0509 23.5948V22.4087C18.0509 22.2444 18.1429 22.016 18.2596 21.8994L22.2911 17.8711C22.4302 17.7442 22.6091 17.6699 22.7971 17.6608H23.9849C24.1492 17.6608 24.3743 17.7528 24.4909 17.8711L28.5258 21.901C28.6408 22.016 28.7344 22.2444 28.7344 22.4103V23.5965C28.7239 23.7829 28.6503 23.9585 28.5258 24.0975ZM25.3009 22.9804C25.2879 22.7914 25.2122 22.6121 25.0856 22.4711L23.9192 21.3063C23.7794 21.1794 23.6001 21.1046 23.4116 21.0944H23.3656C23.1784 21.1054 23.0007 21.1808 22.8629 21.308L21.6964 22.4711C21.5727 22.613 21.5004 22.7924 21.4911 22.9804V23.0264C21.4911 23.189 21.5798 23.4141 21.6948 23.5291L22.8629 24.6955C22.9779 24.8122 23.2029 24.9091 23.3656 24.9091H23.4116C23.5996 24.8976 23.7781 24.8222 23.9176 24.6955L25.0856 23.5291C25.2121 23.3908 25.2875 23.2134 25.2992 23.0264L25.3009 22.9804ZM7.06021 10.935L16.7679 16.5371C17.2903 16.8378 17.8686 16.9577 18.4239 16.9117C19.143 16.8574 19.815 16.5333 20.3052 16.0044C20.7954 15.4755 21.0676 14.7808 21.0672 14.0597V2.8554C21.0493 2.10977 20.7406 1.4007 20.2069 0.879672C19.6732 0.358644 18.9569 0.0669734 18.2111 0.0669734C17.4653 0.0669734 16.749 0.358644 16.2153 0.879672C15.6816 1.4007 15.3729 2.10977 15.355 2.8554V9.12454L9.91714 5.9834C9.26052 5.60433 8.48021 5.50162 7.74787 5.69788C7.01553 5.89414 6.39114 6.37328 6.01207 7.0299C5.633 7.68652 5.5303 8.46683 5.72655 9.19917C5.92281 9.93151 6.40359 10.5559 7.06021 10.935ZM28.3681 16.9117C28.9443 16.9588 29.5212 16.8281 30.0208 16.5371L39.7235 10.935C40.3799 10.5553 40.8588 9.93063 41.0551 9.19813C41.2513 8.46564 41.1487 7.68522 40.77 7.02825C40.3913 6.37255 39.7677 5.89411 39.0363 5.69817C38.3049 5.50222 37.5256 5.60482 36.8699 5.9834L31.4353 9.12618V2.85211C31.4353 2.09484 31.1345 1.36859 30.599 0.83312C30.0635 0.29765 29.3373 -0.00317383 28.58 -0.00317383C27.8227 -0.00317383 27.0965 0.29765 26.561 0.83312C26.0255 1.36859 25.7247 2.09484 25.7247 2.85211V14.058C25.7231 14.7793 25.9947 15.4743 26.4848 16.0034C26.9749 16.5326 27.6472 16.8565 28.3664 16.91L28.3681 16.9117ZM18.4239 29.0885C17.8464 29.0394 17.2679 29.1702 16.7679 29.4631L7.05857 35.0587C6.4028 35.4398 5.92481 36.0653 5.72928 36.7982C5.53375 37.531 5.63662 38.3115 6.01536 38.9687C6.39457 39.6234 7.01814 40.1008 7.7491 40.2961C8.48006 40.4914 9.25864 40.3886 9.91386 40.0103L15.3517 36.874V43.1432C15.3517 43.9007 15.6526 44.6271 16.1882 45.1628C16.7239 45.6984 17.4503 45.9993 18.2078 45.9993C18.9653 45.9993 19.6918 45.6984 20.2274 45.1628C20.763 44.6271 21.0639 43.9007 21.0639 43.1432V31.9373C21.0659 31.2165 20.7945 30.5219 20.3046 29.9932C19.8147 29.4646 19.1427 29.1413 18.4239 29.0885ZM15.792 23.8396C15.8873 23.5357 15.9267 23.2219 15.9201 22.9114C15.9065 22.4233 15.7676 21.9469 15.5167 21.528C15.2658 21.1091 14.9114 20.7618 14.4876 20.5194L4.78814 14.9205C4.46336 14.7328 4.10472 14.611 3.73278 14.562C3.36083 14.5131 2.98289 14.538 2.6206 14.6354C2.2583 14.7328 1.91878 14.9006 1.62147 15.1294C1.32416 15.3582 1.07491 15.6434 0.888 15.9687C0.699714 16.293 0.577368 16.6514 0.527989 17.0232C0.478609 17.3949 0.50317 17.7728 0.60026 18.1351C0.69735 18.4973 0.865056 18.8368 1.09374 19.1341C1.32243 19.4313 1.6076 19.6805 1.93286 19.8672L7.35428 23.0034L1.92957 26.1281C1.59771 26.3119 1.30578 26.56 1.07083 26.8579C0.835883 27.1558 0.662612 27.4975 0.561133 27.863C0.459654 28.2286 0.431999 28.6107 0.479782 28.987C0.527565 29.3634 0.649829 29.7265 0.839439 30.0551C1.02905 30.3837 1.28221 30.6712 1.58414 30.9009C1.88607 31.1306 2.23073 31.2979 2.59801 31.393C2.96528 31.4881 3.34781 31.509 3.72328 31.4547C4.09874 31.4003 4.45962 31.2717 4.78486 31.0764L14.4859 25.471C15.1431 25.0964 15.5866 24.505 15.792 23.8396Z" fill="#0C1D31"/>
</svg>
