<svg width="138" height="28" viewBox="0 0 138 28" fill="none" xmlns="http://www.w3.org/2000/svg">
<path d="M3.46396 8.45002H0.767578V6.1939H3.46396V1.89222H5.86725V6.1939H9.64805V8.45002H5.86725V17.5046C5.86725 18.1464 5.98449 18.6076 6.21896 18.8884C6.47297 19.149 6.90282 19.2794 7.50853 19.2794H10.117V21.5356H7.36198C5.95517 21.5356 4.94892 21.2146 4.34322 20.5729C3.75704 19.9312 3.46396 18.9184 3.46396 17.5346V8.45002Z" fill="#0C1D31"/>
<path d="M17.8602 21.716C16.4143 21.716 15.1248 21.3852 13.9915 20.7233C12.8778 20.0616 12.0082 19.139 11.383 17.9558C10.7577 16.7726 10.4451 15.4089 10.4451 13.8648C10.4451 12.3205 10.7577 10.9568 11.383 9.77361C12.0082 8.5904 12.8778 7.6679 13.9915 7.0061C15.1248 6.3443 16.4143 6.01341 17.8602 6.01341C19.3061 6.01341 20.5859 6.3443 21.6996 7.0061C22.8329 7.6679 23.7121 8.5904 24.3373 9.77361C24.9626 10.9568 25.2753 12.3205 25.2753 13.8648C25.2753 15.4089 24.9626 16.7726 24.3373 17.9558C23.7121 19.139 22.8329 20.0616 21.6996 20.7233C20.5859 21.3852 19.3061 21.716 17.8602 21.716ZM17.8602 19.5201C18.8371 19.5201 19.6968 19.2794 20.4394 18.7981C21.2013 18.3168 21.7875 17.645 22.1978 16.7826C22.6082 15.9202 22.8133 14.9477 22.8133 13.8648C22.8133 12.7818 22.6082 11.8091 22.1978 10.9468C21.7875 10.0844 21.2013 9.41264 20.4394 8.93133C19.6968 8.45002 18.8371 8.20937 17.8602 8.20937C16.8832 8.20937 16.0137 8.45002 15.2517 8.93133C14.5093 9.41264 13.9329 10.0844 13.5225 10.9468C13.1123 11.8091 12.907 12.7818 12.907 13.8648C12.907 14.9477 13.1123 15.9202 13.5225 16.7826C13.9329 17.645 14.5093 18.3168 15.2517 18.7981C16.0137 19.2794 16.8832 19.5201 17.8602 19.5201Z" fill="#0C1D31"/>
<path d="M41.7344 6.1939V20.7834C41.7344 25.4161 39.2628 27.7324 34.3194 27.7324C32.3851 27.7324 30.8024 27.2812 29.5714 26.3786C28.36 25.4762 27.6566 24.1928 27.4612 22.5282H29.9232C30.1186 23.4908 30.6168 24.2329 31.4179 24.7542C32.219 25.2757 33.2448 25.5364 34.4953 25.5364C37.7191 25.5364 39.3312 23.922 39.3312 20.6933V18.8884C38.2566 20.7734 36.5469 21.716 34.2022 21.716C32.8149 21.716 31.5742 21.4052 30.48 20.7834C29.4054 20.1618 28.5554 19.2593 27.9302 18.0761C27.3244 16.8929 27.0216 15.4892 27.0216 13.8648C27.0216 12.3205 27.3244 10.9568 27.9302 9.77361C28.5554 8.5904 29.4151 7.6679 30.5093 7.0061C31.6035 6.3443 32.8344 6.01341 34.2022 6.01341C35.4136 6.01341 36.4492 6.26409 37.3089 6.76545C38.1686 7.24676 38.8427 7.93864 39.3312 8.84108L39.6536 6.1939H41.7344ZM34.4367 19.5201C35.3941 19.5201 36.2441 19.2894 36.9865 18.8282C37.7485 18.3469 38.3346 17.685 38.745 16.8428C39.1553 15.9805 39.3605 15.0078 39.3605 13.9249C39.3605 12.8219 39.1553 11.8392 38.745 10.9769C38.3346 10.0945 37.7485 9.41264 36.9865 8.93133C36.2441 8.45002 35.3941 8.20937 34.4367 8.20937C32.9517 8.20937 31.7501 8.74081 30.8318 9.80369C29.9329 10.8465 29.4835 12.2002 29.4835 13.8648C29.4835 15.5293 29.9329 16.8929 30.8318 17.9558C31.7501 18.9986 32.9517 19.5201 34.4367 19.5201Z" fill="#0C1D31"/>
<path d="M43.9988 13.8648C43.9988 12.3005 44.2919 10.9267 44.878 9.74353C45.4838 8.56032 46.3239 7.64785 47.3986 7.0061C48.4732 6.3443 49.7042 6.01341 51.0915 6.01341C52.4591 6.01341 53.6706 6.3042 54.7257 6.88577C55.7808 7.46736 56.6112 8.30964 57.217 9.41264C57.8226 10.5156 58.145 11.8091 58.1841 13.2932C58.1841 13.5138 58.1645 13.8648 58.1255 14.346H46.5193V14.5566C46.5584 16.0606 47.0077 17.264 47.8675 18.1664C48.7272 19.0689 49.8507 19.5201 51.238 19.5201C52.3126 19.5201 53.2212 19.2493 53.9637 18.7078C54.7258 18.1464 55.2337 17.3742 55.4878 16.3916H57.9203C57.6272 17.9558 56.8945 19.2393 55.7221 20.242C54.5499 21.2246 53.1137 21.716 51.4138 21.716C49.9288 21.716 48.6295 21.3952 47.5158 20.7534C46.4021 20.0916 45.5327 19.1692 44.9074 17.9858C44.3017 16.7826 43.9988 15.4089 43.9988 13.8648ZM55.6929 12.3005C55.5756 10.9969 55.0969 9.98418 54.2568 9.26222C53.4362 8.54026 52.3908 8.17929 51.1207 8.17929C49.9875 8.17929 48.991 8.56032 48.1313 9.32238C47.2716 10.0844 46.7831 11.0771 46.6658 12.3005H55.6929Z" fill="#0C1D31"/>
<path d="M61.2692 8.45002H58.5729V6.1939H61.2692V1.89222H63.6725V6.1939H67.4533V8.45002H63.6725V17.5046C63.6725 18.1464 63.7898 18.6076 64.0243 18.8884C64.2783 19.149 64.7081 19.2794 65.3139 19.2794H67.9223V21.5356H65.1673C63.7604 21.5356 62.7542 21.2146 62.1486 20.5729C61.5623 19.9312 61.2692 18.9184 61.2692 17.5346V8.45002Z" fill="#0C1D31"/>
<path d="M76.4772 6.01341C78.2943 6.01341 79.7598 6.57493 80.8735 7.69798C81.9872 8.82102 82.5441 10.5858 82.5441 12.9923V21.5356H80.1408V13.1428C80.1408 11.5584 79.789 10.3552 79.0857 9.53295C78.3823 8.69067 77.376 8.26953 76.0669 8.26953C74.6797 8.26953 73.5757 8.77089 72.7551 9.77361C71.954 10.7763 71.5533 12.14 71.5533 13.8648V21.5356H69.1501V0.478393H71.5533V8.72075C72.0419 7.91858 72.6866 7.26681 73.4878 6.76545C74.3084 6.26409 75.3049 6.01341 76.4772 6.01341Z" fill="#0C1D31"/>
<path d="M84.5979 13.8648C84.5979 12.3005 84.891 10.9267 85.4772 9.74353C86.0829 8.56032 86.923 7.64785 87.9977 7.0061C89.0723 6.3443 90.3033 6.01341 91.6906 6.01341C93.0582 6.01341 94.2698 6.3042 95.3249 6.88577C96.38 7.46736 97.2103 8.30964 97.8161 9.41264C98.4217 10.5156 98.7441 11.8091 98.7832 13.2932C98.7832 13.5138 98.7636 13.8648 98.7246 14.346H87.1184V14.5566C87.1575 16.0606 87.6068 17.264 88.4666 18.1664C89.3263 19.0689 90.4498 19.5201 91.8371 19.5201C92.9117 19.5201 93.8203 19.2493 94.5628 18.7078C95.3249 18.1464 95.8328 17.3742 96.0868 16.3916H98.5194C98.2263 17.9558 97.4937 19.2393 96.3212 20.242C95.149 21.2246 93.7128 21.716 92.0129 21.716C90.5279 21.716 89.2286 21.3952 88.1149 20.7534C87.0012 20.0916 86.1318 19.1692 85.5065 17.9858C84.9008 16.7826 84.5979 15.4089 84.5979 13.8648ZM96.292 12.3005C96.1747 10.9969 95.696 9.98418 94.8559 9.26222C94.0353 8.54026 92.9899 8.17929 91.7198 8.17929C90.5866 8.17929 89.5901 8.56032 88.7304 9.32238C87.8707 10.0844 87.3822 11.0771 87.2649 12.3005H96.292Z" fill="#0C1D31"/>
<path d="M108.635 6.1939V8.60042H107.433C106.007 8.60042 104.981 9.09176 104.355 10.0744C103.75 11.0571 103.447 12.2704 103.447 13.7144V21.5356H101.044V6.1939H103.125L103.447 8.51018C103.877 7.80827 104.434 7.24676 105.117 6.82561C105.801 6.40448 106.749 6.1939 107.96 6.1939H108.635Z" fill="#0C1D31"/>
<path d="M133.114 19.2794V21.5356H131.794C130.836 21.5356 130.153 21.335 129.743 20.9338C129.333 20.5328 129.118 19.9412 129.098 19.159C127.945 20.8637 126.275 21.716 124.086 21.716C122.425 21.716 121.087 21.3149 120.071 20.5128C119.074 19.7106 118.576 18.6176 118.576 17.2338C118.576 15.6897 119.084 14.5065 120.1 13.6842C121.136 12.862 122.631 12.4509 124.584 12.4509H128.981V11.398C128.981 10.3953 128.649 9.61317 127.984 9.05165C127.339 8.49013 126.431 8.20937 125.259 8.20937C124.223 8.20937 123.363 8.45002 122.679 8.93133C122.015 9.39257 121.605 10.0143 121.448 10.7964H119.045C119.221 9.2923 119.866 8.11912 120.98 7.27684C122.113 6.43456 123.578 6.01341 125.376 6.01341C127.291 6.01341 128.766 6.49472 129.801 7.45733C130.856 8.39989 131.385 9.76358 131.385 11.5484V18.1664C131.385 18.9084 131.716 19.2794 132.381 19.2794H133.114ZM128.981 14.5265H124.35C122.123 14.5265 121.009 15.3788 121.009 17.0834C121.009 17.8456 121.302 18.4572 121.888 18.9184C122.474 19.3797 123.266 19.6104 124.262 19.6104C125.727 19.6104 126.88 19.2193 127.72 18.4372C128.561 17.6349 128.981 16.5821 128.981 15.2785V14.5265Z" fill="#0C1D31"/>
<path d="M135.681 0.267822C136.13 0.267822 136.502 0.41823 136.794 0.719046C137.087 1.01986 137.234 1.4009 137.234 1.86214C137.234 2.3234 137.087 2.70444 136.794 3.00525C136.502 3.30606 136.13 3.45648 135.681 3.45648C135.231 3.45648 134.86 3.30606 134.567 3.00525C134.274 2.70444 134.127 2.3234 134.127 1.86214C134.127 1.4009 134.274 1.01986 134.567 0.719046C134.86 0.41823 135.231 0.267822 135.681 0.267822ZM134.479 6.1939H136.882V21.5356H134.479V6.1939Z" fill="#0C1D31"/>
<path d="M113.877 19.1996C113.877 20.4897 112.846 21.5356 111.573 21.5356C110.301 21.5356 109.27 20.4897 109.27 19.1996C109.27 17.9094 110.301 16.8636 111.573 16.8636C112.846 16.8636 113.877 17.9094 113.877 19.1996Z" fill="#0C1D31"/>
</svg>
