<svg width="95" height="19" viewBox="0 0 95 19" fill="none" xmlns="http://www.w3.org/2000/svg">
<g clip-path="url(#clip0_6566_63888)">
<path d="M2.38745 5.73119H0.53125V4.20025H2.38745V1.28125H4.0419V4.20025H6.64462V5.73119H4.0419V11.8754C4.0419 12.3109 4.12261 12.6238 4.28402 12.8144C4.45887 12.9912 4.75478 13.0797 5.17176 13.0797H6.96746V14.6107H5.07088C4.10242 14.6107 3.40971 14.3929 2.99274 13.9574C2.58921 13.522 2.38745 12.8347 2.38745 11.8957V5.73119Z" fill="#384555"/>
<path d="M12.2921 14.7334C11.2967 14.7334 10.409 14.509 9.62879 14.0598C8.86219 13.6108 8.26355 12.9848 7.83316 12.1819C7.4027 11.379 7.1875 10.4536 7.1875 9.40585C7.1875 8.35793 7.4027 7.43256 7.83316 6.62969C8.26355 5.8268 8.86219 5.20081 9.62879 4.75174C10.409 4.30266 11.2967 4.07812 12.2921 4.07812C13.2874 4.07812 14.1685 4.30266 14.9352 4.75174C15.7153 5.20081 16.3206 5.8268 16.751 6.62969C17.1814 7.43256 17.3966 8.35793 17.3966 9.40585C17.3966 10.4536 17.1814 11.379 16.751 12.1819C16.3206 12.9848 15.7153 13.6108 14.9352 14.0598C14.1685 14.509 13.2874 14.7334 12.2921 14.7334ZM12.2921 13.2434C12.9646 13.2434 13.5564 13.08 14.0676 12.7534C14.5921 12.4268 14.9957 11.971 15.2781 11.3858C15.5606 10.8006 15.7018 10.1407 15.7018 9.40585C15.7018 8.67095 15.5606 8.01091 15.2781 7.42578C14.9957 6.84064 14.5921 6.38474 14.0676 6.05814C13.5564 5.73154 12.9646 5.56824 12.2921 5.56824C11.6195 5.56824 11.021 5.73154 10.4964 6.05814C9.98525 6.38474 9.58852 6.84064 9.306 7.42578C9.02355 8.01091 8.88229 8.67095 8.88229 9.40585C8.88229 10.1407 9.02355 10.8006 9.306 11.3858C9.58852 11.971 9.98525 12.4268 10.4964 12.7534C11.021 13.08 11.6195 13.2434 12.2921 13.2434Z" fill="#384555"/>
<path d="M28.7299 4.2006V14.1006C28.7299 17.2442 27.0285 18.816 23.6253 18.816C22.2938 18.816 21.2043 18.5098 20.3569 17.8974C19.5229 17.285 19.0387 16.4141 18.9042 15.2846H20.599C20.7336 15.9378 21.0764 16.4413 21.628 16.7951C22.1795 17.149 22.8856 17.3259 23.7464 17.3259C25.9658 17.3259 27.0755 16.2304 27.0755 14.0395V12.8147C26.3358 14.0938 25.1588 14.7334 23.5447 14.7334C22.5897 14.7334 21.7356 14.5225 20.9823 14.1006C20.2426 13.6788 19.6574 13.0664 19.227 12.2635C18.81 11.4606 18.6016 10.5081 18.6016 9.40585C18.6016 8.35793 18.81 7.43256 19.227 6.62969C19.6574 5.8268 20.2493 5.20081 21.0025 4.75174C21.7558 4.30266 22.6031 4.07812 23.5447 4.07812C24.3786 4.07812 25.0916 4.24823 25.6834 4.58844C26.2752 4.91504 26.7393 5.38453 27.0755 5.9969L27.2975 4.2006H28.7299ZM23.7062 13.2434C24.3652 13.2434 24.9503 13.0868 25.4615 12.7739C25.986 12.4473 26.3895 11.9981 26.672 11.4266C26.9544 10.8415 27.0957 10.1815 27.0957 9.44663C27.0957 8.69817 26.9544 8.03133 26.672 7.4462C26.3895 6.84743 25.986 6.38474 25.4615 6.05814C24.9503 5.73154 24.3652 5.56824 23.7062 5.56824C22.6839 5.56824 21.8567 5.92886 21.2245 6.6501C20.6057 7.35772 20.2963 8.2763 20.2963 9.40585C20.2963 10.5353 20.6057 11.4606 21.2245 12.1819C21.8567 12.8895 22.6839 13.2434 23.7062 13.2434Z" fill="#384555"/>
<path d="M30.2891 9.40585C30.2891 8.34436 30.4908 7.4122 30.8943 6.60928C31.3113 5.80638 31.8897 5.18721 32.6295 4.75174C33.3693 4.30266 34.2167 4.07812 35.1717 4.07812C36.1132 4.07812 36.9472 4.27544 37.6735 4.67008C38.3999 5.06473 38.9715 5.63628 39.3885 6.38475C39.8054 7.13318 40.0274 8.01091 40.0543 9.01798C40.0543 9.16767 40.0408 9.40585 40.014 9.73238H32.0242V9.87528C32.0511 10.8959 32.3604 11.7124 32.9522 12.3248C33.5441 12.9372 34.3175 13.2434 35.2726 13.2434C36.0123 13.2434 36.6378 13.0596 37.149 12.6922C37.6735 12.3112 38.0232 11.7872 38.1982 11.1205H39.8727C39.6709 12.1819 39.1665 13.0528 38.3595 13.7332C37.5524 14.4 36.5638 14.7334 35.3936 14.7334C34.3713 14.7334 33.4769 14.5158 32.7102 14.0803C31.9435 13.6312 31.3449 13.0053 30.9146 12.2022C30.4975 11.3858 30.2891 10.4536 30.2891 9.40585ZM38.3394 8.34436C38.2586 7.45977 37.9291 6.77258 37.3507 6.28267C36.7858 5.79277 36.0662 5.54783 35.1918 5.54783C34.4117 5.54783 33.7257 5.80638 33.1339 6.3235C32.5421 6.84064 32.2058 7.51426 32.125 8.34436H38.3394Z" fill="#384555"/>
<path d="M42.1765 5.73119H40.3203V4.20025H42.1765V1.28125H43.8309V4.20025H46.4336V5.73119H43.8309V11.8754C43.8309 12.3109 43.9117 12.6238 44.0731 12.8144C44.2479 12.9912 44.5438 13.0797 44.9609 13.0797H46.7564V14.6107H44.8599C43.8914 14.6107 43.1987 14.3929 42.7818 13.9574C42.3782 13.522 42.1765 12.8347 42.1765 11.8957V5.73119Z" fill="#384555"/>
<path d="M52.6457 4.08403C53.8966 4.08403 54.9054 4.46506 55.6721 5.22713C56.4387 5.98919 56.8221 7.18672 56.8221 8.8197V14.6169H55.1677V8.92182C55.1677 7.84676 54.9255 7.03024 54.4414 6.47229C53.9571 5.90074 53.2644 5.61497 52.3632 5.61497C51.4082 5.61497 50.6482 5.95518 50.0833 6.6356C49.5318 7.31599 49.256 8.24135 49.256 9.41175V14.6169H47.6016V0.328125H49.256V5.92115C49.5924 5.37682 50.0362 4.93455 50.5877 4.59434C51.1526 4.25413 51.8386 4.08403 52.6457 4.08403Z" fill="#384555"/>
<path d="M58.2344 9.40585C58.2344 8.34436 58.4361 7.4122 58.8396 6.60928C59.2567 5.80638 59.835 5.18721 60.5748 4.75174C61.3146 4.30266 62.162 4.07812 63.117 4.07812C64.0585 4.07812 64.8925 4.27544 65.6188 4.67008C66.3452 5.06473 66.9168 5.63628 67.3339 6.38475C67.7508 7.13318 67.9727 8.01091 67.9996 9.01798C67.9996 9.16767 67.9861 9.40585 67.9593 9.73238H59.9695V9.87528C59.9964 10.8959 60.3057 11.7124 60.8976 12.3248C61.4894 12.9372 62.2629 13.2434 63.2179 13.2434C63.9576 13.2434 64.5831 13.0596 65.0943 12.6922C65.6188 12.3112 65.9685 11.7872 66.1433 11.1205H67.818C67.6162 12.1819 67.1118 13.0528 66.3048 13.7332C65.4978 14.4 64.5091 14.7334 63.3389 14.7334C62.3166 14.7334 61.4222 14.5158 60.6555 14.0803C59.8888 13.6312 59.2903 13.0053 58.8599 12.2022C58.4428 11.3858 58.2344 10.4536 58.2344 9.40585ZM66.2847 8.34436C66.2039 7.45977 65.8744 6.77258 65.296 6.28267C64.7311 5.79277 64.0115 5.54783 63.1371 5.54783C62.357 5.54783 61.671 5.80638 61.0792 6.3235C60.4874 6.84064 60.1511 7.51426 60.0704 8.34436H66.2847Z" fill="#384555"/>
<path d="M74.7804 4.20312V5.83612H73.9529C72.9712 5.83612 72.2649 6.16952 71.8347 6.83631C71.4175 7.50315 71.2089 8.32646 71.2089 9.30632V14.6136H69.5547V4.20312H70.9873L71.2089 5.77489C71.5049 5.29859 71.8884 4.91756 72.3593 4.63179C72.8301 4.34601 73.482 4.20312 74.3164 4.20312H74.7804Z" fill="#384555"/>
<path d="M91.6331 13.08V14.611H90.7243C90.0655 14.611 89.5947 14.4749 89.3124 14.2027C89.0302 13.9306 88.8822 13.5291 88.8684 12.9983C88.0747 14.1551 86.925 14.7334 85.4181 14.7334C84.2747 14.7334 83.3536 14.4613 82.6542 13.917C81.9685 13.3726 81.625 12.631 81.625 11.692C81.625 10.6442 81.9747 9.84129 82.6741 9.2833C83.3873 8.72538 84.4165 8.44641 85.7616 8.44641H88.7879V7.73195C88.7879 7.05154 88.5593 6.52082 88.1015 6.13979C87.6582 5.75876 87.0324 5.56824 86.2256 5.56824C85.5124 5.56824 84.9204 5.73154 84.4502 6.05814C83.9924 6.37113 83.7102 6.79301 83.6028 7.32372H81.9479C82.069 6.30309 82.513 5.507 83.2799 4.93545C84.0599 4.36391 85.0684 4.07812 86.3062 4.07812C87.6245 4.07812 88.6399 4.40472 89.3524 5.05793C90.0786 5.69752 90.4428 6.62288 90.4428 7.834V12.3248C90.4428 12.8283 90.6707 13.08 91.1284 13.08H91.6331ZM88.7879 9.85486H85.5999C84.0668 9.85486 83.2999 10.4332 83.2999 11.5899C83.2999 12.1071 83.5016 12.5221 83.905 12.8351C84.3084 13.1481 84.8536 13.3046 85.5393 13.3046C86.5485 13.3046 87.3415 13.0393 87.9205 12.5085C88.4987 11.9641 88.7879 11.2497 88.7879 10.3651V9.85486Z" fill="#384555"/>
<path d="M93.4057 0.179688C93.7148 0.179688 93.9709 0.28175 94.1719 0.485875C94.3743 0.69 94.4748 0.948556 94.4748 1.26155C94.4748 1.57454 94.3743 1.8331 94.1719 2.03723C93.9709 2.24135 93.7148 2.34341 93.4057 2.34341C93.0959 2.34341 92.8405 2.24135 92.6388 2.03723C92.4371 1.8331 92.3359 1.57454 92.3359 1.26155C92.3359 0.948556 92.4371 0.69 92.6388 0.485875C92.8405 0.28175 93.0959 0.179688 93.4057 0.179688ZM92.5782 4.20096H94.2325V14.6114H92.5782V4.20096Z" fill="#384555"/>
<path d="M78.3902 13.0305C78.3902 13.9059 77.6805 14.6156 76.8048 14.6156C75.9285 14.6156 75.2188 13.9059 75.2188 13.0305C75.2188 12.155 75.9285 11.4453 76.8048 11.4453C77.6805 11.4453 78.3902 12.155 78.3902 13.0305Z" fill="#384555"/>
</g>
<defs>
<clipPath id="clip0_6566_63888">
<rect width="95" height="19" fill="white"/>
</clipPath>
</defs>
</svg>
