<svg width="85" height="17" viewBox="0 0 85 17" fill="none" xmlns="http://www.w3.org/2000/svg">
<g clip-path="url(#clip0_6566_63900)">
<path d="M19.4008 17L9.70041 0L0 17H19.4008ZM29.1846 16.2261L37.2913 0.772735H33.7849L28.1927 11.9955L22.6005 0.772735H19.094L27.2008 16.2261H29.1846ZM84.4317 0.772735V16.2262H81.529V0.772735H84.4317ZM68.2723 10.4583C68.2723 9.25395 68.522 8.19465 69.0212 7.28051C69.5199 6.3664 70.2153 5.66263 71.1074 5.16931C71.9996 4.67595 73.043 4.42928 74.2377 4.42928C75.2959 4.42928 76.2483 4.66143 77.0949 5.12576C77.9416 5.59009 78.6142 6.27934 79.1135 7.19348C79.6121 8.10763 79.8691 9.22492 79.8845 10.5454V11.2201H71.3343C71.3946 12.1778 71.6743 12.9323 72.1736 13.4837C72.6876 14.0206 73.3757 14.289 74.2377 14.289C74.7818 14.289 75.2805 14.1439 75.7342 13.8537C76.1873 13.5634 76.528 13.1717 76.7549 12.6783L79.7259 12.896C79.3625 13.9843 78.6825 14.8549 77.6846 15.5079C76.6866 16.1608 75.5375 16.4873 74.2377 16.4873C73.043 16.4873 71.9996 16.2406 71.1074 15.7472C70.2153 15.2539 69.5199 14.5502 69.0212 13.636C68.522 12.7219 68.2723 11.6626 68.2723 10.4583ZM76.8908 9.37001C76.785 8.42683 76.4899 7.73762 76.006 7.30235C75.5227 6.8525 74.9324 6.62758 74.2377 6.62758C73.4359 6.62758 72.786 6.86702 72.2867 7.34583C71.7881 7.82471 71.4782 8.49941 71.3571 9.37001H76.8908ZM63.3753 7.30235C63.8591 7.69407 64.1614 8.23827 64.2824 8.93474L67.2764 8.7824C67.17 7.89722 66.8603 7.12823 66.3464 6.47523C65.8322 5.82227 65.1668 5.32165 64.3505 4.97342C63.5492 4.61066 62.6649 4.42928 61.6971 4.42928C60.5025 4.42928 59.4595 4.67595 58.5673 5.16931C57.6752 5.66263 56.9799 6.3664 56.4809 7.28051C55.9819 8.19465 55.7325 9.25395 55.7325 10.4583C55.7325 11.6626 55.9819 12.7219 56.4809 13.636C56.9799 14.5502 57.6752 15.2539 58.5673 15.7472C59.4595 16.2406 60.5025 16.4873 61.6971 16.4873C62.695 16.4873 63.6021 16.3059 64.4187 15.9431C65.2349 15.5659 65.9003 15.0362 66.4142 14.3543C66.9284 13.6723 67.2383 12.8742 67.344 11.9601L64.3278 11.8295C64.2221 12.5985 63.9272 13.1935 63.4434 13.6143C62.9594 14.0206 62.3774 14.2237 61.6971 14.2237C60.7598 14.2237 60.0341 13.8972 59.5199 13.2442C59.0059 12.5912 58.7486 11.6626 58.7486 10.4583C58.7486 9.25395 59.0059 8.32529 59.5199 7.6723C60.0341 7.01937 60.7598 6.69283 61.6971 6.69283C62.3472 6.69283 62.9065 6.89605 63.3753 7.30235ZM48.6489 4.68994H51.3501L51.4283 6.91011C51.62 6.2817 51.8867 5.79367 52.2283 5.44605C52.7234 4.94197 53.4138 4.68994 54.2991 4.68994H55.4022V7.06631H54.2768C53.6464 7.06631 53.1286 7.15268 52.7234 7.3255C52.3331 7.49837 52.033 7.77201 51.8231 8.14647C51.6278 8.52092 51.5305 8.9962 51.5305 9.57224V16.2261H48.6489V4.68994ZM36.1886 7.28051C35.6897 8.19465 35.4402 9.25395 35.4402 10.4583C35.4402 11.6626 35.6897 12.7219 36.1886 13.636C36.6876 14.5502 37.3828 15.2539 38.275 15.7472C39.1672 16.2406 40.2102 16.4873 41.4047 16.4873C42.705 16.4873 43.8542 16.1608 44.8521 15.5079C45.8498 14.8549 46.5304 13.9843 46.8931 12.896L43.922 12.6783C43.6952 13.1717 43.3552 13.5634 42.9017 13.8537C42.4481 14.1439 41.9491 14.289 41.4047 14.289C40.5431 14.289 39.855 14.0206 39.3411 13.4837C38.8421 12.9323 38.5625 12.1778 38.5018 11.2201H47.0518V10.5454C47.0368 9.22492 46.7799 8.10763 46.2809 7.19348C45.782 6.27934 45.1091 5.59009 44.2624 5.12576C43.4156 4.66143 42.463 4.42928 41.4047 4.42928C40.2102 4.42928 39.1672 4.67595 38.275 5.16931C37.3828 5.66263 36.6876 6.3664 36.1886 7.28051ZM43.1739 7.30235C43.6576 7.73762 43.9525 8.42683 44.0583 9.37001H38.5245C38.6455 8.49941 38.9553 7.82471 39.4543 7.34583C39.9533 6.86702 40.6034 6.62758 41.4047 6.62758C42.1003 6.62758 42.6899 6.8525 43.1739 7.30235Z" fill="#384555"/>
</g>
<defs>
<clipPath id="clip0_6566_63900">
<rect width="85" height="17" fill="white"/>
</clipPath>
</defs>
</svg>
