<svg width="127" height="26" viewBox="0 0 127 26" fill="none" xmlns="http://www.w3.org/2000/svg">
<path d="M28.989 26L14.4955 0L0.00195312 26H28.989ZM43.6073 24.8164L55.7196 1.18183H50.4806L42.1252 18.3461L33.7698 1.18183H28.5307L40.6431 24.8164H43.6073ZM126.153 1.18183V24.8165H121.815V1.18183H126.153ZM102.009 15.995C102.009 14.1531 102.382 12.533 103.127 11.1349C103.873 9.73685 104.912 8.6605 106.245 7.906C107.578 7.15145 109.137 6.7742 110.921 6.7742C112.503 6.7742 113.926 7.12925 115.191 7.8394C116.456 8.54955 117.461 9.6037 118.207 11.0018C118.952 12.3999 119.336 14.1087 119.359 16.1282V17.1601H106.584C106.674 18.6248 107.092 19.7788 107.838 20.6221C108.606 21.4432 109.634 21.8538 110.921 21.8538C111.734 21.8538 112.48 21.6318 113.158 21.188C113.835 20.7441 114.344 20.1449 114.683 19.3904L119.122 19.7233C118.579 21.3877 117.563 22.7192 116.072 23.7179C114.581 24.7165 112.864 25.2159 110.921 25.2159C109.137 25.2159 107.578 24.8386 106.245 24.084C104.912 23.3295 103.873 22.2532 103.127 20.8551C102.382 19.457 102.009 17.8369 102.009 15.995ZM114.886 14.3306C114.728 12.8881 114.287 11.834 113.564 11.1683C112.842 10.4803 111.96 10.1363 110.921 10.1363C109.724 10.1363 108.753 10.5025 108.007 11.2348C107.262 11.9672 106.798 12.9991 106.618 14.3306H114.886ZM94.6921 11.1683C95.4149 11.7674 95.8666 12.5997 96.0474 13.6649L100.521 13.4319C100.362 12.0781 99.8991 10.902 99.1313 9.9033C98.363 8.90465 97.3688 8.139 96.1492 7.6064C94.9519 7.0516 93.6306 6.7742 92.1846 6.7742C90.3998 6.7742 88.8414 7.15145 87.5084 7.906C86.1754 8.6605 85.1366 9.73685 84.3911 11.1349C83.6456 12.533 83.2728 14.1531 83.2728 15.995C83.2728 17.8369 83.6456 19.457 84.3911 20.8551C85.1366 22.2532 86.1754 23.3295 87.5084 24.084C88.8414 24.8386 90.3998 25.2159 92.1846 25.2159C93.6756 25.2159 95.031 24.9384 96.251 24.3836C97.4706 23.8066 98.4648 22.9966 99.2326 21.9536C100.001 20.9106 100.464 19.69 100.622 18.2919L96.1153 18.0922C95.9573 19.2683 95.5167 20.1783 94.7939 20.8218C94.0707 21.4432 93.2011 21.7539 92.1846 21.7539C90.7842 21.7539 89.6999 21.2545 88.9316 20.2559C88.1638 19.2572 87.7794 17.8369 87.7794 15.995C87.7794 14.1531 88.1638 12.7328 88.9316 11.7341C89.6999 10.7355 90.7842 10.2361 92.1846 10.2361C93.156 10.2361 93.9917 10.5469 94.6921 11.1683ZM72.6891 7.17285H76.725L76.8418 10.5684C77.1283 9.6073 77.5268 8.8609 78.0372 8.32925C78.7769 7.5583 79.8084 7.17285 81.1312 7.17285H82.7793V10.8073H81.0978C80.156 10.8073 79.3823 10.9394 78.7769 11.2037C78.1938 11.4681 77.7454 11.8866 77.4318 12.4593C77.14 13.032 76.9945 13.7589 76.9945 14.6399V24.8164H72.6891V7.17285ZM54.072 11.1349C53.3265 12.533 52.9537 14.1531 52.9537 15.995C52.9537 17.8369 53.3265 19.457 54.072 20.8551C54.8175 22.2532 55.8563 23.3295 57.1893 24.084C58.5223 24.8386 60.0808 25.2159 61.8655 25.2159C63.8084 25.2159 65.5253 24.7165 67.0163 23.7179C68.5069 22.7192 69.5238 21.3877 70.0658 19.7233L65.6266 19.3904C65.2878 20.1449 64.7798 20.7441 64.1021 21.188C63.4244 21.6318 62.6789 21.8538 61.8655 21.8538C60.5781 21.8538 59.55 21.4432 58.7822 20.6221C58.0366 19.7788 57.6188 18.6248 57.5282 17.1601H70.3028V16.1282C70.2805 14.1087 69.8966 12.3999 69.1511 11.0018C68.4056 9.6037 67.4002 8.54955 66.1351 7.8394C64.8699 7.12925 63.4467 6.7742 61.8655 6.7742C60.0808 6.7742 58.5223 7.15145 57.1893 7.906C55.8563 8.6605 54.8175 9.73685 54.072 11.1349ZM64.5088 11.1683C65.2315 11.834 65.6721 12.8881 65.8302 14.3306H57.5621C57.7429 12.9991 58.2058 11.9672 58.9513 11.2348C59.6968 10.5025 60.6683 10.1363 61.8655 10.1363C62.9048 10.1363 63.7856 10.4803 64.5088 11.1683Z" fill="#0C1D31"/>
</svg>
