<svg width="85" height="17" viewBox="0 0 85 17" fill="none" xmlns="http://www.w3.org/2000/svg">
<g clip-path="url(#clip0_6566_63902)">
<path d="M0.0638648 6.43732C0.0638648 5.34469 0.0638648 4.79904 0.355839 4.62767C0.649178 4.45904 1.11989 4.73186 2.0613 5.27888L5.59773 7.32982C6.53915 7.87685 7.0112 8.1497 7.30319 8.6597C7.5965 9.16831 7.5965 9.71534 7.5965 10.808V14.9113C7.5965 16.0039 7.5965 16.551 7.30457 16.721C7.0112 16.8896 6.54053 16.6168 5.5991 16.0698L2.06266 14.0188C1.12125 13.4718 0.649178 13.1989 0.357203 12.6889C0.0625 12.1831 0.0625 11.6347 0.0625 10.542V6.43732H0.0638648Z" fill="#384555"/>
<path fill-rule="evenodd" clip-rule="evenodd" d="M4.03553 2.45509C3.74219 2.62509 3.74219 3.17073 3.74219 4.26477V4.55952C3.74355 4.55952 3.74628 4.55952 3.74765 4.56227L7.28408 6.61322C8.22548 7.16026 8.69622 7.43305 8.98952 7.94305C9.28152 8.45171 9.28152 8.99875 9.28152 10.0914V13.8999C10.2202 14.4442 10.6909 14.7157 10.9829 14.547C11.2748 14.377 11.2748 13.83 11.2748 12.7374V8.63543C11.2748 7.54276 11.2748 6.99572 10.9829 6.48712C10.6895 5.97711 10.2189 5.70565 9.27745 5.15727L5.74098 3.1063C4.79957 2.55928 4.3275 2.28646 4.03553 2.45646V2.45509Z" fill="#384555"/>
<path fill-rule="evenodd" clip-rule="evenodd" d="M7.7855 0.276773C7.49219 0.445402 7.49219 0.992419 7.49219 2.08645V2.37984L7.49763 2.38258L11.0341 4.43492C11.9755 4.98056 12.4476 5.25338 12.7395 5.76338C13.0329 6.27202 13.0329 6.81905 13.0329 7.91167V11.7202C13.9715 12.2659 14.4409 12.5373 14.7329 12.3673C15.0248 12.1973 15.0248 11.6517 15.0248 10.5577V6.45708C15.0248 5.36444 15.0248 4.81742 14.7329 4.30742C14.4409 3.79879 13.9688 3.52597 13.0274 2.97895L9.49094 0.926611C8.54954 0.379596 8.07749 0.106773 7.7855 0.276773Z" fill="#384555"/>
<path d="M20.0739 4.17969C20.052 4.1797 20.0304 4.18501 20.011 4.19517C19.9915 4.20533 19.9748 4.22004 19.9622 4.23806C19.9497 4.25607 19.9416 4.27687 19.9387 4.29869C19.9358 4.32051 19.9382 4.3427 19.9457 4.3634L23.1246 13.1925C23.1341 13.2189 23.1515 13.2418 23.1745 13.258C23.1974 13.2742 23.2248 13.2829 23.2529 13.2829H24.8164C24.8445 13.2829 24.8718 13.2742 24.8948 13.258C24.9177 13.2418 24.9352 13.2189 24.9447 13.1925L26.9175 7.8196L28.874 13.1925C28.8836 13.2189 28.901 13.2418 28.9239 13.258C28.9469 13.2742 28.9743 13.2829 29.0023 13.2829H30.5836C30.6116 13.2829 30.639 13.2742 30.6619 13.258C30.6849 13.2418 30.7023 13.2189 30.7119 13.1925L33.9099 4.3634C33.9174 4.3427 33.9197 4.32051 33.9168 4.29869C33.914 4.27687 33.9059 4.25607 33.8933 4.23806C33.8808 4.22004 33.864 4.20533 33.8446 4.19517C33.8251 4.18501 33.8036 4.1797 33.7817 4.17969H31.626C31.597 4.17981 31.5689 4.18917 31.5456 4.20641C31.5223 4.22367 31.5051 4.24792 31.4964 4.27566L29.7854 9.61693L27.8549 4.27018C27.8453 4.24368 27.8279 4.22078 27.8049 4.20459C27.782 4.18839 27.7546 4.17971 27.7266 4.17969H26.0921C26.0639 4.1798 26.0364 4.1887 26.0135 4.20515C25.9905 4.2216 25.9732 4.24479 25.9638 4.27155L24.0674 9.61559L22.3415 4.27429C22.3325 4.24658 22.3149 4.22247 22.2914 4.20546C22.2678 4.18845 22.2395 4.17942 22.2105 4.17969H20.0739Z" fill="#384555"/>
<path fill-rule="evenodd" clip-rule="evenodd" d="M43.2972 13.2828C43.3334 13.2828 43.3681 13.2684 43.3936 13.2427C43.4193 13.2169 43.4336 13.1821 43.4336 13.1457V4.31669C43.4336 4.28034 43.4193 4.24546 43.3936 4.21975C43.3681 4.19404 43.3334 4.1796 43.2972 4.1796H41.3025C41.2663 4.1796 41.2316 4.19404 41.206 4.21975C41.1804 4.24546 41.166 4.28034 41.166 4.31669V5.09266C40.9071 4.80874 40.5963 4.57743 40.2506 4.41129C39.7048 4.1371 39.1195 4 38.5001 4C37.6965 4 36.9584 4.21113 36.2898 4.63339C35.618 5.04851 35.0728 5.64139 34.7139 6.34712C34.329 7.07824 34.132 7.89449 34.1409 8.7216C34.1334 9.55472 34.3303 10.3768 34.7139 11.1153C35.0759 11.8229 35.6201 12.4199 36.2898 12.8441L36.2912 12.8455C36.9597 13.2568 37.6965 13.4624 38.5015 13.4624C39.1023 13.4639 39.695 13.323 40.2315 13.0511C40.5843 12.8857 40.9017 12.6528 41.166 12.3657V13.1443C41.166 13.1807 41.1804 13.2156 41.206 13.2413C41.2316 13.267 41.2663 13.2814 41.3025 13.2814H43.2972V13.2828ZM41.1824 10.2749C41.1797 10.2749 41.1783 10.2776 41.177 10.279C41.177 10.2818 41.1742 10.2845 41.1715 10.2872L41.1811 10.2736L41.1824 10.2749ZM38.9135 11.2757C38.4332 11.2757 38.0021 11.1661 37.6174 10.9508C37.2437 10.7235 36.9331 10.4052 36.7141 10.0254C36.4959 9.62673 36.3845 9.17793 36.3908 8.72299C36.3908 8.23904 36.4999 7.80445 36.7141 7.41782C36.9299 7.04188 37.2405 6.72981 37.6146 6.51299C38.0122 6.29327 38.4598 6.18125 38.9135 6.18805C39.3924 6.18805 39.8426 6.30736 40.2656 6.54863C40.6397 6.75257 40.9511 7.05554 41.166 7.42468V10.0501C40.9382 10.4118 40.6221 10.7091 40.2479 10.9138H40.2465C39.8372 11.1551 39.3924 11.2743 38.9135 11.2743V11.2757Z" fill="#384555"/>
<path d="M46.5302 13.1128H46.5329C47.2244 13.3431 47.9479 13.4611 48.6764 13.4624C49.3627 13.4624 49.9753 13.3459 50.51 13.1087H50.5114C51.0571 12.8578 51.4842 12.5192 51.7884 12.0874C52.1006 11.6551 52.267 11.1339 52.2633 10.5999C52.2633 9.97469 52.0995 9.45783 51.7625 9.06713C51.4553 8.69404 51.0618 8.40219 50.6165 8.21713C50.0908 8.0005 49.55 7.82316 48.9984 7.68655C48.63 7.59056 48.3161 7.50283 48.0569 7.41923C47.8546 7.346 47.6635 7.24449 47.4894 7.1176C47.4344 7.0672 47.391 7.00546 47.362 6.93655C47.333 6.8677 47.3192 6.79338 47.3215 6.71864C47.3215 6.50202 47.4102 6.34161 47.5985 6.22097C47.8086 6.09487 48.1156 6.02493 48.5331 6.02493C48.922 6.02493 49.349 6.10579 49.817 6.27033H49.8211C50.2528 6.39813 50.6527 6.61628 50.9944 6.91056C51.0099 6.9244 51.0282 6.93454 51.0482 6.94019C51.0681 6.94584 51.0891 6.94687 51.1095 6.94317C51.1298 6.93946 51.1491 6.93114 51.1658 6.91882C51.1826 6.90655 51.1962 6.89059 51.2059 6.87219L52.0314 5.26541C52.0456 5.23806 52.0503 5.20666 52.0446 5.1763C52.0389 5.14594 52.0232 5.1184 51.9999 5.09816C51.6002 4.74582 51.0913 4.47985 50.4787 4.29477C49.8796 4.09834 49.2533 3.99884 48.6232 4.00001C47.9369 4.00001 47.3188 4.11655 46.7717 4.35372C46.2633 4.56795 45.8257 4.92256 45.5096 5.37646C45.2057 5.82451 45.047 6.35606 45.0553 6.89824C45.0553 7.52341 45.2109 8.03341 45.5369 8.41452C45.8389 8.772 46.2215 9.05171 46.653 9.23027C47.1756 9.41703 47.7098 9.56954 48.252 9.68678C48.6204 9.76905 48.926 9.85265 49.173 9.93492H49.1743C49.424 10.0172 49.615 10.1214 49.7515 10.2503L49.7569 10.253C49.8163 10.301 49.8637 10.362 49.8957 10.4314C49.9277 10.5009 49.9432 10.5769 49.9411 10.6533C49.9411 10.8768 49.8402 11.0591 49.6096 11.2058C49.3749 11.3566 49.0556 11.4375 48.6409 11.4375C48.1043 11.4283 47.5732 11.3272 47.0705 11.1386C46.5193 10.9385 46.095 10.6889 45.788 10.3928C45.7727 10.3783 45.7543 10.3676 45.7342 10.3614C45.7141 10.3553 45.6928 10.3539 45.6721 10.3573C45.6514 10.3608 45.6317 10.369 45.6146 10.3814C45.5976 10.3937 45.5836 10.4098 45.5738 10.4285L44.7647 11.9996C44.7509 12.027 44.7467 12.0582 44.7526 12.0882C44.7585 12.1183 44.7743 12.1455 44.7974 12.1655C45.2436 12.5535 45.8235 12.8674 46.5302 13.1114V13.1128Z" fill="#384555"/>
<path fill-rule="evenodd" clip-rule="evenodd" d="M61.6643 13.2831C61.7008 13.2831 61.7355 13.2687 61.7612 13.243C61.7864 13.2173 61.8007 13.1824 61.8007 13.1461V7.49356C61.7888 7.40655 61.775 7.31967 61.76 7.23309C61.9306 6.94779 62.1635 6.70579 62.4424 6.52565L62.4436 6.52425C62.7806 6.27526 63.1865 6.13866 63.6049 6.13356C64.1724 6.13356 64.5992 6.31454 64.9032 6.66414L64.905 6.66687C65.2253 7.02059 65.3905 7.50315 65.3905 8.12693V13.1447C65.3905 13.181 65.4049 13.2159 65.4306 13.2416C65.4563 13.2674 65.4911 13.2818 65.527 13.2818H67.5574C67.5933 13.2818 67.628 13.2674 67.6538 13.2416C67.6795 13.2159 67.6939 13.181 67.6939 13.1447V7.74856C67.6939 7.00821 67.5341 6.35152 67.209 5.7867C66.9091 5.22239 66.4458 4.76294 65.8801 4.4692C65.2923 4.15038 64.6327 3.98936 63.9647 4.0017C63.2679 3.99405 62.5843 4.19653 62.0031 4.58299C61.6709 4.79723 61.3674 5.0529 61.0998 5.34387C60.855 4.93903 60.509 4.60611 60.0954 4.37872C59.6275 4.12508 59.0776 4.0017 58.4487 4.0017C57.7829 4.0017 57.2071 4.14428 56.7268 4.43629C56.4228 4.60944 56.1467 4.82811 55.9082 5.08476V4.31702C55.9082 4.28066 55.8938 4.24579 55.8682 4.22008C55.8427 4.19437 55.8079 4.17993 55.7718 4.17993H53.7771C53.7409 4.17993 53.7062 4.19437 53.6806 4.22008C53.655 4.24579 53.6406 4.28066 53.6406 4.31702V13.1461C53.6406 13.1824 53.655 13.2173 53.6806 13.243C53.7062 13.2687 53.7409 13.2831 53.7771 13.2831H55.7718C55.8079 13.2831 55.8427 13.2687 55.8682 13.243C55.8938 13.2173 55.9082 13.1824 55.9082 13.1461V7.25641C56.076 6.93881 56.321 6.66905 56.6204 6.47216C56.9596 6.24557 57.3592 6.12754 57.7665 6.13356C58.2945 6.13356 58.712 6.31175 59.0299 6.66687C59.3505 7.02059 59.5156 7.50315 59.5156 8.12693V13.1447C59.5156 13.181 59.53 13.2159 59.5555 13.2416C59.5812 13.2674 59.6158 13.2818 59.652 13.2818H61.6643V13.2831ZM65.8161 4.5871L65.8778 4.46646H65.8801V4.46783L65.8149 4.58847L65.8161 4.5871ZM67.0905 5.8525L67.2108 5.7867V5.78533L67.209 5.78396L67.0905 5.8525ZM71.3297 12.8486H71.3309C72.0522 13.2593 72.8693 13.4712 73.6984 13.4627C74.6136 13.4627 75.4307 13.2914 76.1472 12.9445C76.8757 12.5963 77.415 12.1082 77.7532 11.4776C77.77 11.4467 77.7742 11.4105 77.7646 11.3765C77.7556 11.3426 77.7341 11.3135 77.7041 11.2952L76.1238 10.3219C76.1083 10.3121 76.0909 10.3056 76.073 10.3028C76.0544 10.3 76.0359 10.3009 76.0179 10.3055C75.9999 10.3102 75.9832 10.3183 75.9688 10.3296C75.9544 10.3409 75.9419 10.3551 75.9329 10.3712C75.7569 10.6906 75.469 10.9498 75.0596 11.1444H75.0584C74.6513 11.3415 74.2048 11.4419 73.7528 11.4378C73.2344 11.4378 72.7801 11.3227 72.3844 11.0951C72.0001 10.869 71.6883 10.5381 71.4836 10.1409C71.3644 9.88928 71.28 9.62208 71.234 9.3471H77.8131C77.846 9.34704 77.8783 9.3349 77.9029 9.31298C77.928 9.29106 77.9442 9.26077 77.9484 9.2278C77.9711 9.0496 77.9849 8.89879 77.9849 8.78361C77.9986 8.63711 78.0106 8.49042 78.0208 8.34355C78.0304 7.57953 77.8364 6.82679 77.4575 6.16422C77.0786 5.50163 76.5297 4.95359 75.8676 4.5775C75.1966 4.19192 74.4358 3.99271 73.6624 4.00033C72.8364 3.99033 72.0229 4.20897 71.3118 4.63235C70.6126 5.03784 70.032 5.62135 69.6285 6.32414V6.32547C69.2209 7.04451 69.0102 7.85899 69.0168 8.68629C69.0066 9.53647 69.2167 10.3747 69.6267 11.1184V11.1198C70.0326 11.8369 70.6204 12.4333 71.3297 12.8486ZM71.4674 7.21111C71.4028 7.34578 71.3495 7.48566 71.3076 7.62925H75.6941C75.6384 7.34614 75.5199 7.07942 75.3463 6.84919C75.1583 6.571 74.8979 6.35037 74.5932 6.21169L74.5891 6.20896C74.2736 6.05066 73.9252 5.96939 73.5726 5.97178C73.0788 5.97178 72.6544 6.08146 72.2941 6.2953C71.9337 6.51065 71.6458 6.82964 71.4674 7.21111Z" fill="#384555"/>
<path d="M79.5505 4.1796C79.514 4.1796 79.4793 4.19404 79.4542 4.21975C79.4284 4.24546 79.4141 4.28034 79.4141 4.31669V13.1457C79.4141 13.1821 79.4284 13.2169 79.4542 13.2427C79.4793 13.2684 79.514 13.2828 79.5505 13.2828H81.545C81.5816 13.2828 81.6163 13.2684 81.6414 13.2427C81.6672 13.2169 81.6815 13.1821 81.6815 13.1457V7.54532C81.8833 7.14206 82.1838 6.79708 82.5549 6.54317L82.5573 6.54177C82.9505 6.26212 83.3079 6.13323 83.6287 6.13323C83.9969 6.13323 84.3285 6.19078 84.6218 6.30462C84.6416 6.31239 84.6631 6.31537 84.6847 6.31324C84.7062 6.31106 84.7266 6.30389 84.7445 6.2923C84.7631 6.28064 84.778 6.26492 84.7888 6.24634C84.7996 6.22776 84.8062 6.20687 84.8074 6.18532L84.9331 4.29065C84.9349 4.26029 84.9271 4.23008 84.9103 4.20476C84.8936 4.17945 84.869 4.16047 84.8403 4.15081C84.5356 4.04935 84.1854 4 83.7898 4C83.342 4 82.8865 4.14121 82.428 4.4154L82.4268 4.41677C82.1418 4.58874 81.8892 4.81016 81.6815 5.07073V4.31669C81.6815 4.28034 81.6672 4.24546 81.6414 4.21975C81.6163 4.19404 81.5816 4.1796 81.545 4.1796H79.5505Z" fill="#384555"/>
</g>
<defs>
<clipPath id="clip0_6566_63902">
<rect width="85" height="17" fill="white"/>
</clipPath>
</defs>
</svg>
