<svg width="142" height="28" viewBox="0 0 142 28" fill="none" xmlns="http://www.w3.org/2000/svg">
<path d="M0.107748 10.6021C0.107748 8.80241 0.107748 7.9037 0.595517 7.62144C1.08557 7.3437 1.87192 7.79305 3.44463 8.69402L9.35256 12.0721C10.9253 12.9731 11.7139 13.4224 12.2017 14.2624C12.6917 15.1002 12.6917 16.0011 12.6917 17.8008V24.5592C12.6917 26.3589 12.6917 27.2598 12.204 27.5398C11.7139 27.8176 10.9276 27.3682 9.35484 26.4672L3.44691 23.0892C1.8742 22.1882 1.08557 21.7389 0.597796 20.8989C0.105469 20.0656 0.105469 19.1624 0.105469 17.3627V10.6021H0.107748Z" fill="#0C1D31"/>
<path fill-rule="evenodd" clip-rule="evenodd" d="M6.74049 4.04015C6.25045 4.32015 6.25044 5.21886 6.25044 7.0208V7.50628C6.25272 7.50628 6.25728 7.50628 6.25956 7.5108L12.1675 10.8889C13.7402 11.7898 14.5266 12.2392 15.0166 13.0792C15.5044 13.9169 15.5044 14.8179 15.5044 16.6176V22.8905C17.0725 23.7869 17.8589 24.234 18.3467 23.9563C18.8344 23.6763 18.8344 22.7753 18.8344 20.9756V14.2195C18.8344 12.4198 18.8344 11.5189 18.3467 10.6811C17.8566 9.84112 17.0703 9.39402 15.4975 8.4908L9.58961 5.11273C8.0169 4.21176 7.22826 3.76241 6.74049 4.04241V4.04015Z" fill="#0C1D31"/>
<path fill-rule="evenodd" clip-rule="evenodd" d="M13.004 0.461118C12.5139 0.73886 12.5139 1.63983 12.5139 3.44176V3.92499L12.5231 3.9295L18.431 7.30983C20.0037 8.20854 20.7923 8.65789 21.2801 9.49789C21.7702 10.3356 21.7702 11.2366 21.7702 13.0363V19.3092C23.3383 20.2079 24.1224 20.655 24.6102 20.375C25.0979 20.095 25.0979 19.1963 25.0979 17.3943V10.6405C25.0979 8.8408 25.0979 7.93983 24.6102 7.09983C24.1224 6.26209 23.3338 5.81273 21.761 4.91176L15.8531 1.53144C14.2804 0.630473 13.4918 0.181118 13.004 0.461118Z" fill="#0C1D31"/>
<path d="M33.5336 6.8808C33.497 6.88081 33.4609 6.88955 33.4285 6.90629C33.396 6.92302 33.3681 6.94725 33.3471 6.97693C33.3261 7.0066 33.3126 7.04086 33.3078 7.07679C33.3029 7.11273 33.3069 7.14928 33.3193 7.18338L38.6301 21.7253C38.646 21.769 38.6751 21.8067 38.7135 21.8333C38.7518 21.86 38.7975 21.8743 38.8443 21.8743H41.4564C41.5033 21.8743 41.549 21.86 41.5873 21.8333C41.6256 21.8067 41.6547 21.769 41.6707 21.7253L44.9665 12.876L48.235 21.7253C48.251 21.769 48.2801 21.8067 48.3184 21.8333C48.3567 21.86 48.4024 21.8743 48.4493 21.8743H51.091C51.1378 21.8743 51.1835 21.86 51.2219 21.8333C51.2602 21.8067 51.2893 21.769 51.3052 21.7253L56.6479 7.18338C56.6603 7.14928 56.6643 7.11273 56.6595 7.07679C56.6547 7.04086 56.6412 7.0066 56.6202 6.97693C56.5991 6.94725 56.5712 6.92302 56.5388 6.90629C56.5063 6.88955 56.4702 6.88081 56.4337 6.8808H52.8324C52.784 6.88098 52.737 6.8964 52.6981 6.92481C52.6591 6.95323 52.6303 6.99317 52.6158 7.03886L49.7576 15.8363L46.5324 7.02983C46.5165 6.98619 46.4874 6.94847 46.449 6.9218C46.4107 6.89513 46.365 6.88082 46.3181 6.8808H43.5876C43.5404 6.88098 43.4945 6.89563 43.4562 6.92272C43.4178 6.94981 43.3889 6.98802 43.3733 7.03209L40.2051 15.834L37.3218 7.0366C37.3068 6.99096 37.2774 6.95125 37.2381 6.92323C37.1988 6.89522 37.1514 6.88035 37.103 6.8808H33.5336Z" fill="#0C1D31"/>
<path fill-rule="evenodd" clip-rule="evenodd" d="M72.3272 21.8743C72.3876 21.8743 72.4456 21.8506 72.4883 21.8082C72.5311 21.7659 72.5551 21.7084 72.5551 21.6485V7.1066C72.5551 7.04671 72.5311 6.98928 72.4883 6.94693C72.4456 6.90459 72.3876 6.8808 72.3272 6.8808H68.9948C68.9344 6.8808 68.8764 6.90459 68.8337 6.94693C68.7909 6.98928 68.7669 7.04671 68.7669 7.1066V8.38467C68.3343 7.91703 67.8151 7.53605 67.2375 7.26241C66.3258 6.8108 65.348 6.58499 64.3132 6.58499C62.9707 6.58499 61.7376 6.93273 60.6207 7.62821C59.4984 8.31195 58.5876 9.28846 57.9881 10.4508C57.3449 11.655 57.0159 12.9994 57.0308 14.3618C57.0183 15.7339 57.3471 17.088 57.9881 18.3043C58.5927 19.4697 59.5019 20.453 60.6207 21.1518L60.623 21.154C61.7399 21.8314 62.9707 22.1702 64.3155 22.1702C65.3192 22.1726 66.3094 21.9406 67.2056 21.4927C67.795 21.2202 68.3253 20.8368 68.7669 20.3637V21.6463C68.7669 21.7062 68.7909 21.7636 68.8337 21.8059C68.8764 21.8483 68.9344 21.8721 68.9948 21.8721H72.3272V21.8743ZM68.7943 16.9202C68.7897 16.9202 68.7874 16.9247 68.7851 16.9269C68.7851 16.9314 68.7806 16.936 68.776 16.9405L68.792 16.9179L68.7943 16.9202ZM65.0038 18.5685C64.2015 18.5685 63.4812 18.3879 62.8385 18.0334C62.2143 17.6589 61.6953 17.1347 61.3296 16.5092C60.965 15.8525 60.7789 15.1134 60.7894 14.364C60.7894 13.5669 60.9717 12.8511 61.3296 12.2143C61.69 11.5952 62.2089 11.0811 62.8339 10.724C63.4981 10.3621 64.2459 10.1777 65.0038 10.1889C65.8038 10.1889 66.556 10.3853 67.2626 10.7827C67.8876 11.1187 68.4078 11.6177 68.7669 12.2256V16.5498C68.3862 17.1457 67.8582 17.6353 67.2329 17.9724H67.2307C66.5469 18.3698 65.8038 18.5663 65.0038 18.5663V18.5685Z" fill="#0C1D31"/>
<path d="M77.7359 21.5943H77.7405C78.8956 21.9736 80.1044 22.168 81.3213 22.1701C82.4677 22.1701 83.4911 21.9782 84.3846 21.5876H84.3869C85.2986 21.1743 86.012 20.6166 86.5203 19.9053C87.0417 19.1934 87.3197 18.3349 87.3135 17.4553C87.3135 16.4256 87.04 15.5743 86.477 14.9308C85.9637 14.3163 85.3064 13.8357 84.5624 13.5308C83.6842 13.1741 82.7807 12.882 81.8592 12.6569C81.2438 12.4989 80.7195 12.3543 80.2865 12.2166C79.9484 12.0961 79.6291 11.9288 79.3383 11.7198C79.2465 11.6368 79.1739 11.5351 79.1255 11.4217C79.0771 11.3083 79.054 11.1858 79.0579 11.0627C79.0579 10.706 79.2061 10.4418 79.5206 10.2431C79.8716 10.0353 80.3845 9.92015 81.0819 9.92015C81.7315 9.92015 82.445 10.0534 83.2268 10.3243H83.2336C83.9548 10.5348 84.6229 10.8942 85.1938 11.3789C85.2196 11.4017 85.2503 11.4184 85.2836 11.4276C85.3169 11.4369 85.3519 11.4386 85.386 11.4325C85.42 11.4264 85.4522 11.4127 85.4801 11.3925C85.508 11.3722 85.5309 11.346 85.5471 11.3156L86.926 8.66918C86.9499 8.62413 86.9577 8.57241 86.9482 8.5224C86.9387 8.4724 86.9124 8.42705 86.8736 8.3937C86.2058 7.81338 85.3556 7.37531 84.3322 7.07047C83.3314 6.74694 82.2851 6.58306 81.2324 6.58499C80.0859 6.58499 79.0534 6.77692 78.1394 7.16757C77.29 7.52042 76.559 8.10448 76.031 8.85209C75.5232 9.59005 75.2581 10.4655 75.272 11.3585C75.272 12.3882 75.5319 13.2282 76.0766 13.856C76.581 14.4448 77.2203 14.9055 77.9411 15.1995C78.8141 15.5072 79.7065 15.7583 80.6124 15.9514C81.2278 16.0869 81.7384 16.2247 82.1509 16.3601H82.1532C82.5703 16.4956 82.8894 16.6672 83.1173 16.8795L83.1265 16.884C83.2256 16.963 83.3049 17.0636 83.3583 17.178C83.4117 17.2924 83.4376 17.4174 83.4342 17.5434C83.4342 17.9114 83.2655 18.2118 82.8803 18.4534C82.4883 18.7018 81.9549 18.835 81.262 18.835C80.3656 18.8198 79.4784 18.6533 78.6385 18.3427C77.7177 18.0131 77.0088 17.6021 76.496 17.1143C76.4705 17.0905 76.4397 17.0728 76.4061 17.0626C76.3725 17.0525 76.337 17.0502 76.3024 17.0559C76.2678 17.0615 76.2349 17.0751 76.2064 17.0954C76.1779 17.1157 76.1546 17.1423 76.1381 17.1731L74.7865 19.7608C74.7635 19.8058 74.7564 19.8572 74.7663 19.9068C74.7762 19.9563 74.8026 20.0011 74.8412 20.034C75.5866 20.6731 76.5553 21.1901 77.7359 21.5921V21.5943Z" fill="#0C1D31"/>
<path fill-rule="evenodd" clip-rule="evenodd" d="M103.02 21.8743C103.081 21.8743 103.139 21.8506 103.181 21.8082C103.224 21.7659 103.248 21.7084 103.248 21.6485V12.3385C103.227 12.1952 103.205 12.0522 103.18 11.9095C103.464 11.4397 103.854 11.041 104.319 10.7443L104.322 10.7421C104.884 10.332 105.563 10.1069 106.261 10.0985C107.209 10.0985 107.923 10.3966 108.431 10.9724L108.433 10.9769C108.969 11.5595 109.245 12.3543 109.245 13.3818V21.6463C109.245 21.7062 109.269 21.7636 109.312 21.8059C109.354 21.8483 109.412 21.8721 109.473 21.8721H112.864C112.925 21.8721 112.983 21.8483 113.026 21.8059C113.068 21.7636 113.092 21.7062 113.092 21.6463V12.7585C113.092 11.5392 112.826 10.4576 112.283 9.52725C111.782 8.5978 111.008 7.84106 110.063 7.35725C109.081 6.83214 107.979 6.56693 106.863 6.58725C105.698 6.57465 104.557 6.90814 103.585 7.54467C103.031 7.89752 102.524 8.31863 102.077 8.79789C101.668 8.13108 101.09 7.58275 100.399 7.20821C99.6172 6.79047 98.6986 6.58725 97.6478 6.58725C96.5355 6.58725 95.5737 6.82209 94.7714 7.30305C94.2634 7.58823 93.8023 7.94838 93.4038 8.37112V7.1066C93.4038 7.04671 93.3798 6.98928 93.337 6.94693C93.2943 6.90459 93.2363 6.88079 93.1759 6.88079H89.8435C89.7831 6.88079 89.7251 6.90459 89.6824 6.94693C89.6396 6.98928 89.6156 7.04671 89.6156 7.1066V21.6485C89.6156 21.7084 89.6396 21.7659 89.6824 21.8082C89.7251 21.8506 89.7831 21.8743 89.8435 21.8743H93.1759C93.2363 21.8743 93.2943 21.8506 93.337 21.8082C93.3798 21.7659 93.4038 21.7084 93.4038 21.6485V11.9479C93.6841 11.4248 94.0934 10.9805 94.5936 10.6563C95.1603 10.2831 95.8278 10.0886 96.5082 10.0985C97.3903 10.0985 98.0878 10.3921 98.6188 10.9769C99.1545 11.5595 99.4303 12.3543 99.4303 13.3818V21.6463C99.4303 21.7062 99.4543 21.7636 99.497 21.8059C99.5398 21.8483 99.5977 21.8721 99.6582 21.8721H103.02V21.8743ZM109.956 7.55144L110.059 7.35273H110.063V7.35499L109.954 7.5537L109.956 7.55144ZM112.085 9.63563L112.285 9.52725V9.52499L112.283 9.52273L112.085 9.63563ZM119.167 21.1585H119.169C120.374 21.8351 121.738 22.1841 123.124 22.1702C124.653 22.1702 126.018 21.8879 127.215 21.3166C128.432 20.7431 129.332 19.9392 129.898 18.9005C129.925 18.8495 129.932 18.79 129.917 18.7341C129.902 18.6782 129.865 18.6302 129.816 18.6001L127.176 16.9969C127.15 16.9808 127.121 16.9701 127.09 16.9655C127.06 16.9609 127.029 16.9624 126.999 16.97C126.969 16.9776 126.941 16.9911 126.917 17.0097C126.892 17.0283 126.872 17.0516 126.857 17.0782C126.563 17.6043 126.082 18.0311 125.398 18.3518H125.396C124.716 18.6764 123.97 18.8417 123.215 18.835C122.349 18.835 121.59 18.6453 120.929 18.2705C120.287 17.8981 119.765 17.3532 119.424 16.6989C119.224 16.2844 119.084 15.8444 119.007 15.3914H129.998C130.053 15.3914 130.106 15.3714 130.148 15.3353C130.189 15.2991 130.216 15.2493 130.224 15.195C130.262 14.9014 130.285 14.6531 130.285 14.4634C130.308 14.222 130.328 13.9804 130.344 13.7385C130.361 12.4801 130.036 11.2403 129.404 10.149C128.771 9.05772 127.853 8.15507 126.748 7.53563C125.627 6.90056 124.355 6.57244 123.064 6.58499C121.684 6.56852 120.325 6.92864 119.137 7.62596C117.969 8.29383 116.999 9.25491 116.324 10.4124V10.4147C115.644 11.599 115.292 12.9404 115.303 14.3031C115.286 15.7033 115.637 17.0839 116.322 18.3089V18.3111C117 19.4923 117.981 20.4747 119.167 21.1585ZM119.397 11.8734C119.289 12.0952 119.199 12.3255 119.13 12.5621H126.458C126.365 12.0957 126.166 11.6564 125.877 11.2772C125.563 10.819 125.128 10.4557 124.619 10.2272L124.612 10.2227C124.085 9.96199 123.503 9.82815 122.914 9.83208C122.089 9.83208 121.38 10.0127 120.778 10.365C120.176 10.7196 119.695 11.2451 119.397 11.8734Z" fill="#0C1D31"/>
<path d="M132.902 6.8808C132.841 6.8808 132.783 6.90459 132.741 6.94693C132.698 6.98928 132.674 7.04671 132.674 7.1066V21.6485C132.674 21.7084 132.698 21.7659 132.741 21.8082C132.783 21.8506 132.841 21.8743 132.902 21.8743H136.234C136.294 21.8743 136.352 21.8506 136.395 21.8082C136.438 21.7659 136.462 21.7084 136.462 21.6485V12.4243C136.798 11.7601 137.301 11.192 137.921 10.7737L137.925 10.7714C138.582 10.3108 139.179 10.0985 139.714 10.0985C140.33 10.0985 140.884 10.1934 141.374 10.3808C141.407 10.3937 141.443 10.3985 141.479 10.395C141.515 10.3915 141.549 10.3797 141.579 10.3605C141.609 10.3414 141.635 10.3154 141.653 10.2848C141.671 10.2542 141.682 10.2198 141.684 10.1843L141.893 7.0637C141.897 7.01371 141.884 6.96395 141.856 6.92225C141.828 6.88055 141.786 6.84928 141.739 6.83338C141.23 6.66628 140.644 6.58499 139.983 6.58499C139.236 6.58499 138.475 6.81757 137.709 7.26918L137.706 7.27144C137.231 7.55468 136.809 7.91937 136.462 8.34854V7.1066C136.462 7.04671 136.438 6.98928 136.395 6.94693C136.352 6.90459 136.294 6.8808 136.234 6.8808H132.902Z" fill="#0C1D31"/>
</svg>
