<svg width="318" height="36" viewBox="0 0 159 18" fill="none" xmlns="http://www.w3.org/2000/svg">
<path d="M155.055 11.8341C154.414 13.5099 153.132 14.471 151.381 14.471C148.472 14.471 146.697 12.4009 146.697 9.02463C146.697 5.59912 148.472 3.52903 151.381 3.52903C153.132 3.52903 154.414 4.49013 155.055 6.16593H158.975C158.013 2.46933 155.129 0.0788574 151.381 0.0788574C146.401 0.0788574 142.875 3.77547 142.875 9.02463C142.875 14.2245 146.401 17.9211 151.381 17.9211C155.154 17.9211 158.038 15.506 159 11.8341H155.055Z" fill="#0C1D31"/>
<path d="M131.485 0.380005L138.367 17.6313H142.141L135.259 0.380005H131.485Z" fill="#0C1D31"/>
<path d="M123.522 8.04443H118.959V3.70698H123.522C125.348 3.70698 126.31 4.44632 126.31 5.8757C126.31 7.30509 125.348 8.04443 123.522 8.04443ZM123.695 0.379946H115.258V17.6312H118.959V11.3714H123.695C127.617 11.3714 130.01 9.30131 130.01 5.8757C130.01 2.45009 127.617 0.379946 123.695 0.379946Z" fill="#0C1D31"/>
<path d="M103.342 14.471C100.433 14.471 98.6575 12.4009 98.6575 9.02463C98.6575 5.59912 100.433 3.52903 103.342 3.52903C106.226 3.52903 107.976 5.59912 107.976 9.02463C107.976 12.4009 106.226 14.471 103.342 14.471ZM103.342 0.0788574C98.3617 0.0788574 94.8363 3.77547 94.8363 9.02463C94.8363 14.2245 98.3617 17.9211 103.342 17.9211C108.297 17.9211 111.798 14.2245 111.798 9.02463C111.798 3.77547 108.297 0.0788574 103.342 0.0788574Z" fill="#0C1D31"/>
<path d="M80.9653 3.70704H85.5277C87.3527 3.70704 88.3145 4.37243 88.3145 5.62932C88.3145 6.88619 87.3527 7.5516 85.5277 7.5516H80.9653V3.70704ZM92.0138 5.62932C92.0138 2.37622 89.6216 0.380005 85.7004 0.380005H77.266V17.6313H80.9653V10.8786H85.0836L88.7831 17.6313H92.8771L88.7806 10.3643C90.8367 9.57442 92.0138 7.91115 92.0138 5.62932Z" fill="#0C1D31"/>
<path d="M68.999 7.25586H60.8627V0.380005H57.1644V17.6313H60.8627V10.5829H68.999V17.6313H72.6973V0.380005H68.999V7.25586Z" fill="#0C1D31"/>
<path d="M38.9144 3.70704H44.7088V17.6313H48.4074V3.70704H54.2018V0.380005H38.9144V3.70704Z" fill="#0C1D31"/>
<path d="M32.3801 12.4559L24.6137 0.380005H20.4222V17.6313H23.9973V5.55539L31.7637 17.6313H35.9551V0.380005H32.3801V12.4559Z" fill="#0C1D31"/>
<path d="M6.49986 10.8046L8.85478 4.74204L11.2097 10.8046H6.49986ZM6.88165 0.379946L0.000366211 17.6312H3.84797L5.2553 14.0084H12.4545L13.8616 17.6312H17.7092L10.8279 0.379946H6.88165Z" fill="#0C1D31"/>
</svg>
