<svg width="210" height="126" viewBox="0 0 70 42" fill="none" xmlns="http://www.w3.org/2000/svg">
<path fill-rule="evenodd" clip-rule="evenodd" d="M27.6263 31.6977H17.5559C16.9544 31.6977 16.3304 31.3068 15.9641 30.6614L11.2975 21.9114C11.0623 21.2659 11.0623 20.6205 11.2975 20.1114L15.9641 11.3614C16.3304 10.7159 16.9544 10.325 17.5559 10.325H23.3304C23.9544 10.325 24.5559 9.93409 24.9448 9.28864L29.105 1.45682C29.4758 0.811367 28.9874 0.0295486 28.386 0.0295486H12.8892C11.5507 0.0295486 10.4428 0.811367 9.70121 1.96591L0.489972 19.2159C0.345269 19.5008 0.233727 19.7992 0.155346 20.1114C0.0799804 20.4235 0.0422974 20.7432 0.0422974 21.0705C0.0422974 21.3947 0.0799804 21.7129 0.155346 22.025C0.233727 22.3402 0.345269 22.6402 0.489972 22.925L9.70121 40.0568C9.85797 40.3447 10.0524 40.6053 10.2845 40.8386C10.5046 41.072 10.7578 41.2811 11.0442 41.4659C11.3156 41.6356 11.614 41.7583 11.9396 41.8341C12.2501 41.925 12.5666 41.9705 12.8892 41.9705H32.6818C33.4189 41.9705 33.7897 41.2114 33.4189 40.5659L29.105 32.5977C28.9874 31.9523 28.386 31.6795 27.6489 31.6795L27.6263 31.6977Z" fill="#2741E7"/>
<path d="M54.9028 7.62955L50.9777 0.675003C50.6069 0.0295486 49.7522 0.0295486 49.3814 0.675003L32.7994 31.5614C32.5462 32.2068 32.5462 32.8477 32.7994 33.3568L37.0953 41.4659C37.4661 42.1068 38.3207 42.1068 38.687 41.4659L54.9028 11.3614C55.0595 11.0735 55.1756 10.7674 55.251 10.4432C55.3293 10.1311 55.3685 9.81137 55.3685 9.48409C55.3685 9.15985 55.3293 8.84167 55.251 8.52955C55.1756 8.21743 55.0595 7.91743 54.9028 7.62955Z" fill="black"/>
<path fill-rule="evenodd" clip-rule="evenodd" d="M34.8795 21.775L39.7949 12.6523C40.0481 12.125 40.0481 11.3614 39.7949 10.7159L34.1379 0.556821C33.7716 -0.0840877 32.917 -0.0840877 32.5462 0.556821L27.7619 9.425C27.5087 9.93409 27.5087 10.7159 27.7619 11.225L33.2833 21.6568C33.6541 22.4159 34.6263 22.4159 34.8795 21.775Z" fill="black"/>
<path d="M69.3866 7.62955L65.457 0.675003C65.0907 0.0295486 64.2361 0.0295486 63.8653 0.675003L47.2832 31.5614C47.0481 32.2068 47.0481 32.8477 47.2832 33.3568L51.7148 41.4659C52.0856 42.1068 52.9402 42.1068 53.3065 41.4659L69.5223 11.3614C70.1237 10.1886 70.1237 8.78409 69.3866 7.62955Z" fill="black"/>
</svg>
