<svg width="322" height="52" viewBox="0 0 161 26" fill="none" xmlns="http://www.w3.org/2000/svg">
<path d="M45.5782 14.0016C45.4083 18.5091 41.7845 22.0427 37.283 22.0427C32.5267 22.0427 29.0162 18.2587 29.0162 13.6956C29.0162 9.10465 32.8381 5.32059 37.5095 5.32059C39.6045 5.32059 41.6713 6.21095 43.4266 7.79692L42.0676 9.43849C40.737 8.29775 39.1232 7.51865 37.5095 7.51865C34.0839 7.51865 31.281 10.2732 31.281 13.6677C31.281 17.1179 33.914 19.789 37.3114 19.789C40.3407 19.789 42.7188 17.6188 43.2 14.8085H36.3204V12.8608H45.6065L45.5782 14.0016Z" fill="black"/>
<path d="M53.4771 12.9168H52.2031C50.8159 12.9168 49.6834 14.0297 49.6834 15.4209V21.9039H47.4185V10.7743H49.287V11.7203C49.9099 11.1082 50.8725 10.7743 51.9483 10.7743H54.383L53.4771 12.9168Z" fill="black"/>
<path d="M65.7926 21.9038H63.8674V20.5126C62.3952 21.9316 60.0454 22.6272 57.6672 21.5977C55.9119 20.8465 54.5813 19.2605 54.2416 17.3963C53.5621 13.807 56.3932 10.6073 59.9887 10.6073C61.5175 10.6073 62.8482 11.2194 63.8674 12.1932V10.8021H65.8208L65.7926 21.9038ZM63.471 17.1459C64.0089 14.8922 62.2537 12.8332 59.9887 12.8332C58.0352 12.8332 56.4215 14.4191 56.4215 16.3112C56.4215 18.4814 58.3467 20.1509 60.6116 19.7613C62.0271 19.5387 63.1596 18.4814 63.471 17.1459Z" fill="black"/>
<path d="M70.3507 10.1622V10.7743H73.9462V12.722H70.3507V21.876H68.1141V10.19C68.1141 7.7415 69.8977 6.29468 72.1343 6.29468H74.8522L73.9462 8.38147H72.1343C71.1434 8.43711 70.3507 9.21622 70.3507 10.1622Z" fill="black"/>
<path d="M85.9502 21.9038H84.025V20.5126C82.5526 21.9316 80.2033 22.6272 77.8246 21.5977C76.0695 20.8465 74.7389 19.2605 74.3993 17.3963C73.7197 13.807 76.551 10.6073 80.1467 10.6073C81.675 10.6073 83.0061 11.2194 84.025 12.1932V10.8021H85.9782L85.9502 21.9038ZM83.6289 17.1459C84.1664 14.8922 82.4112 12.8332 80.1467 12.8332C78.1648 12.8332 76.6077 14.4191 76.6077 16.3112C76.6077 18.4814 78.5329 20.1509 80.7975 19.7613C82.1845 19.5387 83.3175 18.4814 83.6289 17.1459Z" fill="black"/>
<path d="M98.0388 15.3095V21.9038H95.7742V15.3095C95.7742 13.9183 94.6132 12.8053 93.2262 12.8053C91.8105 12.8053 90.6782 13.9183 90.6782 15.3095V21.9038H88.4128V10.7742H90.2813V11.748C91.103 11.0246 92.1786 10.6073 93.3109 10.6073C95.9436 10.6073 98.0388 12.7219 98.0388 15.3095Z" fill="black"/>
<path d="M111.345 21.9038H109.42V20.5126C107.948 21.9316 105.598 22.6272 103.22 21.5977C101.464 20.8465 100.134 19.2605 99.794 17.3963C99.1152 13.807 101.946 10.6073 105.542 10.6073C107.07 10.6073 108.401 11.2194 109.42 12.1932V10.8021H111.374L111.345 21.9038ZM109.024 17.1459C109.561 14.8922 107.806 12.8332 105.542 12.8332C103.56 12.8332 102.003 14.4191 102.003 16.3112C102.003 18.4814 103.928 20.1509 106.192 19.7613C107.551 19.5387 108.684 18.4814 109.024 17.1459Z" fill="black"/>
<path d="M126.803 21.9037H118.281V5.34852H120.546V19.6499H126.803V21.9037Z" fill="black"/>
<path d="M138.92 21.9039H136.995V20.4848C136.005 21.4587 134.617 22.0708 133.088 22.0708C129.832 22.0708 127.227 19.4833 127.227 16.2835C127.227 13.1394 129.832 10.5239 133.088 10.5239C134.617 10.5239 135.976 11.1361 136.967 12.1099V10.6909H138.92V21.9039ZM136.683 16.2835C136.683 14.3636 135.098 12.7777 133.088 12.7777C131.107 12.7777 129.521 14.3636 129.521 16.2835C129.521 18.2589 131.107 19.8171 133.088 19.8171C135.098 19.8171 136.683 18.2589 136.683 16.2835Z" fill="black"/>
<path d="M152.538 16.3113C152.538 19.4832 149.905 22.0708 146.677 22.0708C145.148 22.0708 143.733 21.4587 142.742 20.4848V21.9039H140.816V6.23901H143.082V11.8594C144.016 11.0247 145.29 10.5239 146.677 10.5239C149.905 10.5517 152.538 13.1115 152.538 16.3113ZM150.216 16.3113C150.216 14.3636 148.603 12.8054 146.649 12.8054C144.696 12.8054 143.082 14.3636 143.082 16.3113C143.082 18.2311 144.696 19.7892 146.649 19.7892C148.603 19.7892 150.216 18.2311 150.216 16.3113Z" fill="black"/>
<path d="M160.323 11.5253L159.333 13.167C158.851 12.8887 158.031 12.4157 157.124 12.4157C156.275 12.4157 155.483 12.833 155.483 13.5287C155.483 14.2799 156.36 14.586 157.492 14.9755C159.304 15.5876 160.918 16.8119 160.918 18.6483C160.918 20.5125 159.304 22.0705 156.983 22.0705C155.567 22.0705 154.151 21.5141 153.217 20.9298L154.095 19.0656C154.746 19.4552 155.992 19.9281 156.926 19.9281C158.059 19.9281 158.568 19.2604 158.568 18.6204C158.568 17.8692 157.861 17.424 156.303 16.8397C155.171 16.3945 153.331 15.6433 153.331 13.6678C153.331 11.8036 154.944 10.5515 157.096 10.5515C158.313 10.5515 159.361 10.9688 160.323 11.5253Z" fill="black"/>
<path d="M24.2598 11.4697C24.2315 11.0245 24.1465 10.5237 24.005 9.99503C23.8634 9.43856 23.6369 8.85423 23.3255 8.21433C23.0141 7.60214 22.5895 6.9344 22.0515 6.29445C21.8533 6.04404 21.5985 5.79363 21.3721 5.57104C21.7401 4.1242 20.9191 2.87213 20.9191 2.87213C19.5035 2.78866 18.5976 3.31731 18.2578 3.5399C18.2012 3.51208 18.1446 3.48425 18.088 3.48425C17.8614 3.37295 17.6066 3.28949 17.3518 3.23384C17.0971 3.17819 16.8423 3.09472 16.5591 3.01125C16.3043 2.9556 16.0213 2.89995 15.7381 2.84431C15.6815 2.84431 15.6532 2.81648 15.5965 2.81648C14.9737 0.868812 13.1901 0.0619202 13.1901 0.0619202C11.2083 1.28617 10.8403 3.01125 10.8403 3.01125C10.8403 3.01125 10.8403 3.03907 10.812 3.12254C10.6987 3.15036 10.5855 3.17819 10.4722 3.20601C10.3307 3.26166 10.1608 3.31731 10.0193 3.37295C9.87771 3.4286 9.70787 3.48425 9.56629 3.5399C9.28314 3.65119 8.97173 3.81814 8.68865 3.95726C8.4055 4.1242 8.12243 4.29114 7.86763 4.45808C7.83928 4.43026 7.81101 4.43026 7.81101 4.43026C5.0648 3.40078 2.63003 4.65285 2.63003 4.65285C2.46017 7.51872 3.76248 9.32728 4.01729 9.66112C3.96067 9.82811 3.90404 10.0228 3.84742 10.1898C3.64924 10.8297 3.50768 11.4975 3.39444 12.1931C3.36613 12.2766 3.36613 12.3879 3.36613 12.4992C0.846434 13.7234 0.0820312 16.2275 0.0820312 16.2275C2.20537 18.6204 4.64013 18.7596 4.64013 18.7596C4.95156 19.316 5.3196 19.8169 5.71596 20.3177C5.88582 20.5124 6.05569 20.7072 6.25386 20.902C5.48946 23.0722 6.36712 24.8529 6.36712 24.8529C8.71692 24.9364 10.2741 23.8513 10.5855 23.6009C10.812 23.6843 11.0668 23.74 11.2932 23.8235C12.001 24.0182 12.7654 24.1017 13.5015 24.1574C13.6997 24.1574 13.8696 24.1574 14.0677 24.1574H14.4358C15.5399 25.7155 17.4934 25.9381 17.4934 25.9381C18.8806 24.4912 18.9656 23.0722 18.9656 22.7662V22.7383C18.9656 22.7105 18.9656 22.6827 18.9656 22.6827C18.9656 22.6549 18.9656 22.627 18.9656 22.627C19.2487 22.4322 19.5318 22.2097 19.7866 21.9871C20.3528 21.4863 20.8341 20.9298 21.2305 20.3177C21.2588 20.262 21.3154 20.2063 21.3437 20.1507C22.9009 20.2342 24.005 19.2047 24.005 19.2047C23.7502 17.5909 22.8159 16.8119 22.6177 16.6727H22.5611C22.5611 16.6727 22.5328 16.6727 22.5328 16.6449C22.5328 16.5614 22.5611 16.4502 22.5611 16.3667C22.5611 16.1997 22.5895 16.0328 22.5895 15.8381V15.6154C22.5895 15.5598 22.5895 15.5876 22.5895 15.5598V15.3094C22.5895 15.2537 22.5895 15.2259 22.5895 15.1702C22.5895 15.1146 22.5895 15.0868 22.5611 15.0312L22.5045 14.7529C22.4761 14.586 22.4479 14.3912 22.3913 14.2243C22.2213 13.5287 21.9383 12.8887 21.5985 12.2766C21.2305 11.6923 20.7775 11.1636 20.2679 10.7184C19.7583 10.2732 19.1921 9.91154 18.5976 9.66112C18.003 9.4107 17.3802 9.21593 16.7573 9.16029C16.4459 9.1325 16.1345 9.10465 15.8231 9.10465H15.6815C15.6815 9.10465 15.6249 9.10465 15.6532 9.10465H15.4833C15.4267 9.10465 15.3983 9.10465 15.3417 9.10465C15.1719 9.10465 15.0303 9.1325 14.8605 9.16029C14.2376 9.27164 13.6431 9.4942 13.1335 9.80026C12.6239 10.1063 12.1709 10.4959 11.8028 10.9132C11.4348 11.3305 11.1517 11.8314 10.9535 12.3044C10.7553 12.7774 10.6421 13.3061 10.6138 13.8069C10.6138 13.9182 10.6138 14.0573 10.6138 14.1686C10.6138 14.1964 10.6138 14.2243 10.6138 14.2521V14.3633C10.6138 14.419 10.6138 14.4747 10.6138 14.5303C10.6421 14.7807 10.6704 15.0312 10.7553 15.2537C10.8969 15.7268 11.0951 16.1441 11.3782 16.5058C11.6613 16.8675 11.9727 17.1458 12.3124 17.3962C12.6522 17.6188 13.0202 17.7857 13.3883 17.897C13.7563 18.0083 14.0961 18.0361 14.4641 18.0361C14.5207 18.0361 14.5491 18.0361 14.6057 18.0361C14.634 18.0361 14.6623 18.0361 14.6623 18.0361H14.7189C14.7472 18.0361 14.7755 18.0361 14.8321 18.0361H14.8887C14.9171 18.0361 14.9454 18.0361 14.9454 18.0361C15.002 18.0361 15.0303 18.0083 15.0587 18.0083C15.0869 18.0083 15.1435 17.9805 15.1719 17.9805C15.2568 17.9527 15.3135 17.9527 15.3983 17.9248C15.5399 17.8692 15.6815 17.8135 15.8231 17.7579C15.9646 17.7023 16.0779 17.6188 16.1911 17.5353C16.2194 17.5075 16.2477 17.4796 16.2761 17.4796C16.3893 17.3962 16.4176 17.2292 16.3327 17.1179C16.2477 17.0066 16.1061 16.9788 15.9929 17.0623C15.9646 17.0623 15.9363 17.0901 15.908 17.1179C15.8231 17.1736 15.7098 17.2014 15.5965 17.2571C15.4833 17.2848 15.3701 17.3127 15.2568 17.3405C15.2002 17.3405 15.1435 17.3683 15.0869 17.3683C15.0587 17.3683 15.0303 17.3683 15.002 17.3683C14.9737 17.3683 14.9454 17.3683 14.9171 17.3683C14.8887 17.3683 14.8605 17.3683 14.8321 17.3683C14.8039 17.3683 14.7472 17.3683 14.7189 17.3683H14.6906C14.6623 17.3683 14.6623 17.3683 14.634 17.3683C14.6057 17.3683 14.5773 17.3683 14.5491 17.3683C14.2942 17.3406 14.0111 17.2571 13.7563 17.1458C13.5015 17.0344 13.2467 16.8675 13.0202 16.6727C12.7938 16.478 12.5956 16.2275 12.454 15.9771C12.3124 15.7268 12.1992 15.4206 12.1426 15.0868C12.1142 14.9199 12.1142 14.7529 12.1142 14.6137C12.1142 14.5581 12.1142 14.5303 12.1142 14.4747V14.419C12.1142 14.3912 12.1142 14.3633 12.1142 14.3633C12.1142 14.2799 12.1426 14.1964 12.1426 14.113C12.2558 13.4174 12.6239 12.7495 13.1618 12.2488C13.3034 12.1097 13.4449 11.9984 13.5865 11.9149C13.728 11.8036 13.8979 11.7201 14.0677 11.6366C14.2376 11.5532 14.4075 11.4975 14.6057 11.4419C14.8039 11.3862 14.9737 11.3584 15.1719 11.3584C15.2568 11.3584 15.3701 11.3584 15.455 11.3584C15.4833 11.3584 15.5117 11.3584 15.5117 11.3584H15.7665C15.9646 11.3862 16.1911 11.414 16.3893 11.4419C16.7856 11.5253 17.182 11.6645 17.5783 11.887C18.3144 12.3044 18.9372 12.9165 19.3336 13.6678C19.5318 14.0573 19.6734 14.4468 19.73 14.8642C19.7583 14.9755 19.7583 15.0868 19.7583 15.1702V15.3372C19.7583 15.365 19.7583 15.3929 19.7583 15.4206C19.7583 15.4485 19.7583 15.4764 19.7583 15.5041V15.6433C19.7583 15.6989 19.7583 15.7824 19.7583 15.8381C19.7583 15.9493 19.73 16.0606 19.73 16.1719C19.7017 16.2832 19.7017 16.3945 19.6734 16.5058C19.645 16.6171 19.6168 16.7284 19.5884 16.8397C19.5318 17.0623 19.4469 17.2848 19.362 17.5075C19.1921 17.9248 18.9656 18.3422 18.6824 18.7317C18.1162 19.483 17.3518 20.0951 16.5025 20.4846C16.0779 20.6794 15.5965 20.8185 15.1435 20.902C14.9171 20.9298 14.6623 20.9576 14.4358 20.9576H14.0677C13.9262 20.9576 13.813 20.9576 13.6997 20.9298C13.1901 20.902 12.6805 20.8185 12.1992 20.6794C11.7179 20.5403 11.2366 20.3455 10.7836 20.1229C9.87771 19.6499 9.08495 19.01 8.46212 18.2309C8.1507 17.8413 7.86763 17.424 7.64109 16.9788C7.41463 16.5337 7.24476 16.0885 7.1032 15.6154C6.96164 15.1424 6.87672 14.6695 6.8484 14.1686V13.5564C6.8484 13.5008 6.8484 13.4452 6.8484 13.3895C6.8484 13.1391 6.87671 12.9165 6.90502 12.6661C6.93334 12.4157 6.98996 12.1653 7.01827 11.9149C7.04658 11.6645 7.13151 11.414 7.18814 11.1915C7.32969 10.7184 7.49956 10.2455 7.69771 9.82811C8.12243 8.96551 8.66031 8.18647 9.28314 7.57436C9.45306 7.40741 9.62291 7.26829 9.79275 7.12917C9.96267 6.99005 10.1325 6.85094 10.3307 6.73964C10.5289 6.62835 10.6987 6.51705 10.8969 6.40575C10.9818 6.3501 11.0951 6.29445 11.18 6.26663C11.2366 6.23881 11.2932 6.21099 11.3216 6.21099C11.3499 6.21099 11.4348 6.15534 11.4631 6.15534C11.6613 6.07186 11.8878 5.9884 12.086 5.93275C12.1426 5.90492 12.1992 5.90492 12.2558 5.8771C12.3124 5.84927 12.3691 5.84928 12.4257 5.82146C12.539 5.79363 12.6522 5.76581 12.7654 5.73798C12.822 5.73798 12.8787 5.71016 12.9353 5.71016C12.992 5.71016 13.0486 5.68233 13.1052 5.68233C13.1618 5.68233 13.2184 5.65451 13.275 5.65451H13.4449C13.5015 5.65451 13.5582 5.62669 13.6148 5.62669C13.6714 5.62669 13.728 5.62669 13.813 5.59887C13.8696 5.59887 13.9545 5.57104 14.0111 5.57104C14.0394 5.57104 14.0961 5.57104 14.1244 5.57104H14.2942C14.3509 5.57104 14.4075 5.57104 14.4924 5.57104H14.634C14.6906 5.57104 14.7472 5.57104 14.8039 5.57104C15.0303 5.57104 15.2285 5.57104 15.4267 5.57104C15.8513 5.59887 16.2761 5.62669 16.6724 5.71016C17.4651 5.84928 18.2295 6.09969 18.909 6.43358C19.5884 6.76746 20.2113 7.15699 20.7492 7.60214C20.7775 7.63 20.8058 7.65786 20.8341 7.68564C20.8624 7.7135 20.8907 7.74128 20.9191 7.76914C20.9757 7.82478 21.0323 7.88042 21.1172 7.93606C21.2021 7.9917 21.2305 8.04734 21.2871 8.10298C21.3437 8.15862 21.4003 8.21433 21.4569 8.26997C21.6835 8.52039 21.8817 8.74295 22.0798 8.99337C22.4479 9.46634 22.7593 9.96718 23.0141 10.4124C23.0424 10.4402 23.0424 10.468 23.0707 10.4959C23.099 10.5237 23.099 10.5515 23.1273 10.5793C23.1557 10.635 23.1839 10.6906 23.2123 10.7463C23.2406 10.8019 23.2689 10.8576 23.2972 10.9132C23.3255 10.9688 23.3538 11.0245 23.3538 11.0801C23.4387 11.3028 23.5237 11.4975 23.5803 11.6923C23.6935 11.9984 23.7785 12.2766 23.8351 12.527C23.8634 12.6105 23.9484 12.6939 24.0616 12.6661C24.1748 12.6661 24.2598 12.5826 24.2598 12.4713C24.3164 12.1374 24.2881 11.8314 24.2598 11.4697Z" fill="#FF671D"/>
</svg>
