<svg width="276" height="56" viewBox="0 0 138 28" fill="none" xmlns="http://www.w3.org/2000/svg">
<path d="M3.46304 8.44993H0.766663V6.19381H3.46304V1.89213H5.86634V6.19381H9.64714V8.44993H5.86634V17.5045C5.86634 18.1463 5.98358 18.6075 6.21805 18.8883C6.47205 19.1489 6.9019 19.2793 7.50762 19.2793H10.1161V21.5355H7.36107C5.95426 21.5355 4.948 21.2145 4.3423 20.5728C3.75612 19.9311 3.46304 18.9183 3.46304 17.5345V8.44993Z" fill="black"/>
<path d="M17.8593 21.7159C16.4134 21.7159 15.1238 21.3851 13.9905 20.7232C12.8769 20.0615 12.0073 19.1389 11.3821 17.9557C10.7568 16.7725 10.4442 15.4088 10.4442 13.8647C10.4442 12.3204 10.7568 10.9567 11.3821 9.77352C12.0073 8.59031 12.8769 7.66781 13.9905 7.00601C15.1238 6.34421 16.4134 6.01332 17.8593 6.01332C19.3051 6.01332 20.585 6.34421 21.6987 7.00601C22.832 7.66781 23.7112 8.59031 24.3364 9.77352C24.9617 10.9567 25.2743 12.3204 25.2743 13.8647C25.2743 15.4088 24.9617 16.7725 24.3364 17.9557C23.7112 19.1389 22.832 20.0615 21.6987 20.7232C20.585 21.3851 19.3051 21.7159 17.8593 21.7159ZM17.8593 19.52C18.8362 19.52 19.6959 19.2793 20.4385 18.798C21.2004 18.3167 21.7866 17.6449 22.1969 16.7825C22.6072 15.9201 22.8124 14.9476 22.8124 13.8647C22.8124 12.7817 22.6072 11.809 22.1969 10.9467C21.7866 10.0844 21.2004 9.41254 20.4385 8.93124C19.6959 8.44993 18.8362 8.20928 17.8593 8.20928C16.8823 8.20928 16.0128 8.44993 15.2508 8.93124C14.5083 9.41254 13.932 10.0844 13.5216 10.9467C13.1113 11.809 12.9061 12.7817 12.9061 13.8647C12.9061 14.9476 13.1113 15.9201 13.5216 16.7825C13.932 17.6449 14.5083 18.3167 15.2508 18.798C16.0128 19.2793 16.8823 19.52 17.8593 19.52Z" fill="black"/>
<path d="M41.7335 6.19381V20.7833C41.7335 25.416 39.2619 27.7323 34.3184 27.7323C32.3841 27.7323 30.8015 27.2811 29.5705 26.3785C28.3591 25.4761 27.6557 24.1927 27.4603 22.5281H29.9223C30.1177 23.4907 30.6158 24.2328 31.417 24.7541C32.2181 25.2756 33.2439 25.5363 34.4943 25.5363C37.7182 25.5363 39.3302 23.9219 39.3302 20.6932V18.8883C38.2557 20.7733 36.546 21.7159 34.2013 21.7159C32.814 21.7159 31.5733 21.4051 30.4791 20.7833C29.4045 20.1617 28.5545 19.2592 27.9293 18.076C27.3235 16.8928 27.0207 15.4891 27.0207 13.8647C27.0207 12.3204 27.3235 10.9567 27.9293 9.77352C28.5545 8.59031 29.4142 7.66781 30.5084 7.00601C31.6026 6.34421 32.8335 6.01332 34.2013 6.01332C35.4126 6.01332 36.4483 6.264 37.308 6.76536C38.1677 7.24667 38.8418 7.93855 39.3302 8.84099L39.6527 6.19381H41.7335ZM34.4358 19.52C35.3932 19.52 36.2431 19.2893 36.9856 18.8281C37.7476 18.3468 38.3337 17.6849 38.7441 16.8427C39.1543 15.9804 39.3596 15.0077 39.3596 13.9248C39.3596 12.8218 39.1543 11.8391 38.7441 10.9768C38.3337 10.0944 37.7476 9.41254 36.9856 8.93124C36.2431 8.44993 35.3932 8.20928 34.4358 8.20928C32.9508 8.20928 31.7492 8.74072 30.8308 9.8036C29.932 10.8464 29.4825 12.2001 29.4825 13.8647C29.4825 15.5292 29.932 16.8928 30.8308 17.9557C31.7492 18.9985 32.9508 19.52 34.4358 19.52Z" fill="black"/>
<path d="M43.9979 13.8647C43.9979 12.3004 44.291 10.9267 44.8771 9.74344C45.4829 8.56022 46.323 7.64776 47.3977 7.00601C48.4723 6.34421 49.7033 6.01332 51.0906 6.01332C52.4582 6.01332 53.6697 6.3041 54.7248 6.88568C55.7799 7.46726 56.6103 8.30955 57.2161 9.41255C57.8217 10.5155 58.1441 11.809 58.1832 13.2931C58.1832 13.5137 58.1636 13.8647 58.1246 14.3459H46.5184V14.5565C46.5575 16.0605 47.0068 17.2639 47.8665 18.1663C48.7263 19.0688 49.8498 19.52 51.2371 19.52C52.3117 19.52 53.2203 19.2492 53.9628 18.7077C54.7248 18.1463 55.2328 17.3741 55.4869 16.3915H57.9194C57.6263 17.9557 56.8936 19.2392 55.7212 20.2419C54.5489 21.2245 53.1128 21.7159 51.4129 21.7159C49.9279 21.7159 48.6286 21.3951 47.5149 20.7533C46.4012 20.0915 45.5317 19.1691 44.9065 17.9857C44.3007 16.7825 43.9979 15.4088 43.9979 13.8647ZM55.692 12.3004C55.5747 10.9968 55.096 9.98409 54.2559 9.26213C53.4352 8.54017 52.3899 8.1792 51.1198 8.1792C49.9866 8.1792 48.9901 8.56022 48.1304 9.32229C47.2707 10.0844 46.7822 11.0771 46.6649 12.3004H55.692Z" fill="black"/>
<path d="M61.2683 8.44993H58.572V6.19381H61.2683V1.89213H63.6716V6.19381H67.4524V8.44993H63.6716V17.5045C63.6716 18.1463 63.7889 18.6075 64.0234 18.8883C64.2773 19.1489 64.7072 19.2793 65.313 19.2793H67.9213V21.5355H65.1664C63.7595 21.5355 62.7533 21.2145 62.1476 20.5728C61.5614 19.9311 61.2683 18.9183 61.2683 17.5345V8.44993Z" fill="black"/>
<path d="M76.4763 6.01332C78.2934 6.01332 79.7589 6.57484 80.8726 7.69789C81.9862 8.82093 82.5432 10.5857 82.5432 12.9922V21.5355H80.1399V13.1427C80.1399 11.5584 79.7881 10.3551 79.0848 9.53286C78.3813 8.69058 77.3751 8.26944 76.066 8.26944C74.6787 8.26944 73.5748 8.7708 72.7542 9.77352C71.953 10.7762 71.5524 12.1399 71.5524 13.8647V21.5355H69.1491V0.478301H71.5524V8.72066C72.041 7.91849 72.6857 7.26672 73.4868 6.76536C74.3075 6.264 75.304 6.01332 76.4763 6.01332Z" fill="black"/>
<path d="M84.597 13.8647C84.597 12.3004 84.8901 10.9267 85.4762 9.74344C86.082 8.56022 86.9221 7.64776 87.9968 7.00601C89.0714 6.34421 90.3024 6.01332 91.6897 6.01332C93.0573 6.01332 94.2688 6.3041 95.3239 6.88568C96.379 7.46726 97.2094 8.30955 97.8152 9.41255C98.4208 10.5155 98.7432 11.809 98.7823 13.2931C98.7823 13.5137 98.7627 13.8647 98.7237 14.3459H87.1175V14.5565C87.1566 16.0605 87.6059 17.2639 88.4657 18.1663C89.3254 19.0688 90.4489 19.52 91.8362 19.52C92.9108 19.52 93.8194 19.2492 94.5619 18.7077C95.3239 18.1463 95.8319 17.3741 96.0858 16.3915H98.5185C98.2254 17.9557 97.4927 19.2392 96.3203 20.2419C95.1481 21.2245 93.7119 21.7159 92.012 21.7159C90.527 21.7159 89.2277 21.3951 88.114 20.7533C87.0003 20.0915 86.1308 19.1691 85.5056 17.9857C84.8998 16.7825 84.597 15.4088 84.597 13.8647ZM96.2911 12.3004C96.1738 10.9968 95.6951 9.98409 94.855 9.26213C94.0344 8.54017 92.989 8.1792 91.7189 8.1792C90.5857 8.1792 89.5892 8.56022 88.7295 9.32229C87.8698 10.0844 87.3813 11.0771 87.264 12.3004H96.2911Z" fill="black"/>
<path d="M108.634 6.19381V8.60033H107.432C106.006 8.60033 104.98 9.09166 104.355 10.0743C103.749 11.057 103.446 12.2703 103.446 13.7143V21.5355H101.043V6.19381H103.124L103.446 8.51009C103.876 7.80818 104.433 7.24666 105.117 6.82552C105.801 6.40438 106.748 6.19381 107.96 6.19381H108.634Z" fill="black"/>
<path d="M133.113 19.2793V21.5355H131.793C130.836 21.5355 130.152 21.3349 129.742 20.9337C129.332 20.5327 129.117 19.9411 129.097 19.1589C127.944 20.8636 126.274 21.7159 124.085 21.7159C122.424 21.7159 121.086 21.3148 120.07 20.5127C119.074 19.7105 118.575 18.6175 118.575 17.2337C118.575 15.6896 119.083 14.5064 120.099 13.6841C121.135 12.8619 122.63 12.4508 124.584 12.4508H128.98V11.3979C128.98 10.3952 128.648 9.61308 127.983 9.05156C127.339 8.49004 126.43 8.20928 125.258 8.20928C124.222 8.20928 123.362 8.44993 122.679 8.93124C122.014 9.39248 121.604 10.0142 121.448 10.7963H119.044C119.22 9.29221 119.865 8.11903 120.979 7.27675C122.112 6.43447 123.577 6.01332 125.375 6.01332C127.29 6.01332 128.765 6.49462 129.8 7.45724C130.855 8.3998 131.384 9.76349 131.384 11.5483V18.1663C131.384 18.9083 131.715 19.2793 132.38 19.2793H133.113ZM128.98 14.5264H124.349C122.122 14.5264 121.008 15.3787 121.008 17.0833C121.008 17.8455 121.301 18.4571 121.887 18.9183C122.473 19.3796 123.265 19.6103 124.261 19.6103C125.727 19.6103 126.879 19.2192 127.72 18.4371C128.56 17.6348 128.98 16.582 128.98 15.2784V14.5264Z" fill="black"/>
<path d="M135.68 0.267731C136.129 0.267731 136.501 0.418139 136.793 0.718955C137.087 1.01977 137.233 1.4008 137.233 1.86205C137.233 2.3233 137.087 2.70434 136.793 3.00516C136.501 3.30597 136.129 3.45638 135.68 3.45638C135.23 3.45638 134.859 3.30597 134.566 3.00516C134.273 2.70434 134.126 2.3233 134.126 1.86205C134.126 1.4008 134.273 1.01977 134.566 0.718955C134.859 0.418139 135.23 0.267731 135.68 0.267731ZM134.478 6.19381H136.881V21.5355H134.478V6.19381Z" fill="black"/>
<path d="M113.876 19.1995C113.876 20.4896 112.845 21.5355 111.573 21.5355C110.3 21.5355 109.269 20.4896 109.269 19.1995C109.269 17.9093 110.3 16.8635 111.573 16.8635C112.845 16.8635 113.876 17.9093 113.876 19.1995Z" fill="#0F6FFF"/>
</svg>
