<svg width="30" height="25" viewBox="0 0 30 25" fill="none" xmlns="http://www.w3.org/2000/svg">
<path d="M1.7699 24.3888C1.1499 24.3888 0.699902 24.2288 0.419902 23.9088C0.139902 23.6088 -9.76138e-05 23.2788 -9.76138e-05 22.9187C-9.76138e-05 22.5187 0.0699024 22.1987 0.209902 21.9587C0.369902 21.7187 0.669902 21.5387 1.1099 21.4187C1.5699 21.2987 2.2399 21.2287 3.1199 21.2087C4.2199 20.6487 5.3299 19.9587 6.4499 19.1387C7.5899 18.2987 8.6799 17.3687 9.7199 16.3487C10.7599 15.3287 11.6899 14.2587 12.5099 13.1387C13.3299 12.0187 13.9799 10.8887 14.4599 9.74875C14.9399 8.60875 15.1799 7.49875 15.1799 6.41875C15.1799 5.39875 14.8599 4.60875 14.2199 4.04875C13.5999 3.46875 12.6799 3.17875 11.4599 3.17875C10.2999 3.17875 9.2699 3.32875 8.3699 3.62875C7.4899 3.90875 6.7699 4.18875 6.2099 4.46875C5.6699 4.74875 5.2899 4.88875 5.0699 4.88875C4.5299 4.88875 4.2599 4.52875 4.2599 3.80875C4.2599 3.54875 4.4499 3.20875 4.8299 2.78875C5.2299 2.36875 5.7699 1.94875 6.4499 1.52875C7.1299 1.08875 7.9199 0.728748 8.8199 0.448748C9.7199 0.148748 10.6799 -0.00125146 11.6999 -0.00125146C13.4199 -0.00125146 14.8199 0.548749 15.8999 1.64875C16.9799 2.72875 17.5199 4.36875 17.5199 6.56875C17.5199 8.14875 17.1899 9.64875 16.5299 11.0687C15.8899 12.4887 15.0399 13.8287 13.9799 15.0887C12.9199 16.3287 11.7599 17.4887 10.4999 18.5687C9.2399 19.6287 7.9999 20.5787 6.7799 21.4187C8.3599 21.3987 9.6599 21.3487 10.6799 21.2687C11.6999 21.1687 12.5299 21.0687 13.1699 20.9687C13.8099 20.8487 14.3499 20.7587 14.7899 20.6987C15.2299 20.6187 15.6699 20.5787 16.1099 20.5787C16.6099 20.5787 16.9699 20.7187 17.1899 20.9987C17.4299 21.2587 17.5499 21.5787 17.5499 21.9587C17.5499 22.2787 17.4699 22.5687 17.3099 22.8287C17.1699 23.0687 16.8699 23.2688 16.4099 23.4288C15.9499 23.6088 15.2499 23.7388 14.3099 23.8188C13.3699 23.9188 12.1099 23.9688 10.5299 23.9688C9.4499 23.9688 8.3299 23.9588 7.1699 23.9388C6.0299 23.9188 4.9199 23.8888 3.8399 23.8488C2.8399 24.2088 2.1499 24.3888 1.7699 24.3888ZM27.6559 11.5487C26.7959 11.5487 26.1859 11.3887 25.8259 11.0687C25.4659 10.7487 25.2859 10.3087 25.2859 9.74875C25.2859 9.10875 25.4259 8.59875 25.7059 8.21875C25.9859 7.83875 26.3259 7.55875 26.7259 7.37875C27.1259 7.19875 27.5159 7.10875 27.8959 7.10875C28.4159 7.10875 28.8959 7.26875 29.3359 7.58875C29.7759 7.88875 29.9959 8.48875 29.9959 9.38875C29.9959 10.0287 29.7959 10.5487 29.3959 10.9487C28.9959 11.3487 28.4159 11.5487 27.6559 11.5487ZM24.8359 24.1488C24.3359 24.1488 23.8859 23.9288 23.4859 23.4888C23.1059 23.0688 22.9159 22.5587 22.9159 21.9587C22.9159 21.4787 23.0559 21.0888 23.3359 20.7887C23.6159 20.4887 23.9559 20.2687 24.3559 20.1287C24.7559 19.9687 25.1359 19.8887 25.4959 19.8887C25.9559 19.8887 26.3859 20.0187 26.7859 20.2787C27.1859 20.5387 27.3859 21.0087 27.3859 21.6887C27.3859 22.0887 27.2659 22.4787 27.0259 22.8587C26.8059 23.2388 26.4959 23.5488 26.0959 23.7888C25.7159 24.0288 25.2959 24.1488 24.8359 24.1488Z" fill="currentColor"/>
</svg>
