<svg width="20" height="20" viewBox="11 11 18 18" fill="none" xmlns="http://www.w3.org/2000/svg"><path d="M20 28.3359C20.982 28.3359 21.9362 28.1335 22.833 27.8174C26.2223 26.6217 28.5 23.4081 28.5 19.8184C28.4999 16.2287 26.2223 13.0149 22.833 11.8193C21.9235 11.4987 20.9699 11.3359 20 11.3359H17.9883C17.4842 11.3359 17.0713 11.7448 17.0713 12.252V16.3115V16.3125C17.0715 16.8333 17.4976 17.2164 17.9854 17.2178L19.9619 17.2275H19.9639C20.6478 17.2275 21.3013 17.4934 21.8057 17.9814L21.9854 18.1729C22.3777 18.6337 22.5908 19.1988 22.5977 19.79C22.6054 20.4886 22.3399 21.144 21.8477 21.6406C21.3552 22.1374 20.7 22.4102 19.999 22.4102H19.9697C19.2915 22.4023 18.6483 22.1254 18.1562 21.6201C17.6644 21.1149 17.3916 20.4613 17.3916 19.7832V17.7881C17.3915 17.2607 16.9675 16.8955 16.4844 16.8955H12.416C11.9497 16.8957 11.5001 17.2453 11.5 17.7881V21.8486C11.5 22.3351 11.892 22.7761 12.416 22.7764H15.6279C16.0855 22.7764 16.3141 22.7717 16.5 22.7969L16.6533 22.8252C16.7811 22.8573 16.8398 22.8996 16.8779 22.9375C16.927 22.9864 16.9842 23.0721 17.0166 23.3115C17.0452 23.522 17.0713 23.7763 17.0713 24.1816V27.3857C17.0714 27.7995 17.376 28.3357 17.9648 28.3359H20Z" stroke="currentColor"/></svg>
