<svg xmlns="http://www.w3.org/2000/svg" viewBox="0 0 17 17" fill="none">
  <path
    d="M8.5 0C7.38376 0 6.27846 0.225317 5.24719 0.663088C4.21592 1.10086 3.27889 1.74251 2.48959 2.5514C0.895533 4.18504 0 6.40072 0 8.71103C0 12.5613 2.4395 15.8279 5.814 16.9865C6.239 17.0562 6.375 16.7862 6.375 16.551V15.0788C4.0205 15.6015 3.519 13.9115 3.519 13.9115C3.128 12.901 2.5755 12.631 2.5755 12.631C1.802 12.0909 2.635 12.1083 2.635 12.1083C3.485 12.1693 3.9355 13.0056 3.9355 13.0056C4.675 14.3296 5.9245 13.9376 6.409 13.7286C6.4855 13.1624 6.7065 12.7791 6.9445 12.5613C5.0575 12.3435 3.077 11.5944 3.077 8.27548C3.077 7.30855 3.4 6.53327 3.9525 5.91479C3.8675 5.69701 3.57 4.79107 4.0375 3.61508C4.0375 3.61508 4.7515 3.37988 6.375 4.5036C7.0465 4.31196 7.7775 4.21614 8.5 4.21614C9.2225 4.21614 9.9535 4.31196 10.625 4.5036C12.2485 3.37988 12.9625 3.61508 12.9625 3.61508C13.43 4.79107 13.1325 5.69701 13.0475 5.91479C13.6 6.53327 13.923 7.30855 13.923 8.27548C13.923 11.6031 11.934 12.3348 10.0385 12.5526C10.3445 12.8226 10.625 13.354 10.625 14.1641V16.551C10.625 16.7862 10.761 17.0649 11.1945 16.9865C14.569 15.8192 17 12.5613 17 8.71103C17 7.56708 16.7801 6.43433 16.353 5.37746C15.9258 4.32059 15.2997 3.3603 14.5104 2.5514C13.7211 1.74251 12.7841 1.10086 11.7528 0.663088C10.7215 0.225317 9.61624 0 8.5 0Z"
    fill="currentColor"
  />
</svg>
