<svg width="32" height="33" viewBox="0 0 32 33" fill="none" xmlns="http://www.w3.org/2000/svg">
<path d="M1.19141 15.082C1.84936 15.082 2.38277 15.6155 2.38281 16.2734V26.7822C2.38288 29.3195 5.19961 31.0091 7.55566 29.7295L12.3877 27.1025C12.9656 26.7883 13.6884 27.0015 14.0029 27.5791C14.3173 28.1571 14.1034 28.8809 13.5254 29.1953L8.69434 31.8232C4.82711 33.9246 6.27515e-05 31.2132 0 26.7822V16.2734C4.28755e-05 15.6155 0.533448 15.082 1.19141 15.082ZM0 5.76465C0.000122267 1.47208 4.53009 -1.2064 8.3291 0.541016L8.69434 0.723633L28.0088 11.2285C28.9241 11.7153 29.6907 12.4424 30.2246 13.3311C30.7585 14.2196 31.041 15.2368 31.041 16.2734C31.041 17.3101 30.7585 18.3272 30.2246 19.2158C29.6907 20.1044 28.9251 20.8316 28.0098 21.3184L28.0088 21.3174L18.3574 26.5674C17.7795 26.8817 17.0557 26.6686 16.7412 26.0908C16.4269 25.5128 16.6407 24.789 17.2188 24.4746L26.8809 19.2197L26.8906 19.2139C27.424 18.9302 27.8704 18.507 28.1816 17.9893C28.4929 17.4712 28.6582 16.8778 28.6582 16.2734C28.6582 15.6692 28.4928 15.0766 28.1816 14.5586C27.8704 14.0406 27.4242 13.6167 26.8906 13.333L26.8809 13.3271L7.55566 2.81738V2.81641C5.19972 1.53723 2.38294 3.22762 2.38281 5.76465V10.2402C2.3827 10.8981 1.84932 11.4316 1.19141 11.4316C0.533488 11.4316 0.000107734 10.8981 0 10.2402V5.76465Z" fill="currentColor"/>
</svg>
