<svg xmlns="http://www.w3.org/2000/svg" width="120" height="24" viewBox="0 0 120 24" fill="none">
  <path d="M8.94628 -0.00175858C8.60353 -0.00175858 8.324 0.27507 8.324 0.61647C8.324 0.957872 8.324 6.65716 8.324 6.65716C8.324 6.99769 8.6026 7.26004 8.94628 7.26004L11.8988 7.27539C13.1186 7.27539 14.2805 7.74866 15.1708 8.607C16.0663 9.47148 16.5664 10.6127 16.5805 11.8221C16.5945 13.0611 16.1191 14.2277 15.2428 15.1079C14.3666 15.988 13.1977 16.4727 11.9515 16.4727H11.8988C10.6816 16.4587 9.53291 15.9619 8.66286 15.0721C7.79897 14.1884 7.30889 13.0332 7.30889 11.8212V8.85325C7.30889 8.51272 7.04401 8.26861 6.70039 8.26861H0.622224C0.279476 8.26861 0 8.51185 0 8.85325V14.8939C0 15.2345 0.27859 15.5304 0.622224 15.5304H5.41989C6.06496 15.5304 6.48065 15.5209 6.8234 15.5672C7.27864 15.6283 7.58365 15.7576 7.81391 15.9854C8.04418 16.2133 8.17336 16.5172 8.23484 16.9695C8.28142 17.311 8.324 17.7231 8.324 18.3649V23.1308C8.324 23.4713 8.56881 23.8008 8.91249 23.8008H11.9524C13.3173 23.8008 14.6575 23.5211 15.9363 23.0722C20.7023 21.3983 23.9048 16.8979 23.9048 11.8736C23.9048 6.84926 20.7023 2.34884 15.9363 0.674965C14.6575 0.226133 13.3173 -0.00175858 11.9524 -0.00175858H8.94715H8.94628Z" fill="var(--color-logo-object)"/>
  <path d="M106.506 8.494H106.474L105.724 18.0273H103.672L104.421 6.23611H107.532L111.835 15.3511L116.203 6.23611H119.249L119.998 18.0273H117.946L117.197 8.494H117.164L112.764 18.0273H110.923L106.506 8.494Z" fill="var(--color-logo-text)"/>
  <path d="M100.032 12.968C100.032 13.9196 99.8852 14.7359 99.5921 15.4171C99.2989 16.0875 98.8807 16.639 98.3381 17.0715C97.7949 17.504 97.1324 17.823 96.3507 18.0284C95.58 18.223 94.7111 18.3203 93.7444 18.3203C92.7783 18.3203 91.9041 18.223 91.1219 18.0284C90.3512 17.823 89.694 17.504 89.1513 17.0715C88.6081 16.639 88.1899 16.0875 87.8967 15.4171C87.6036 14.7359 87.457 13.9196 87.457 12.968V6.23714H89.7702V12.8059C89.7702 13.2924 89.8243 13.752 89.933 14.1845C90.0418 14.6062 90.2424 14.9792 90.5356 15.3036C90.8287 15.628 91.2306 15.8821 91.7413 16.0659C92.2624 16.2497 92.9301 16.3416 93.7444 16.3416C94.5593 16.3416 95.2212 16.2497 95.7318 16.0659C96.253 15.8821 96.6601 15.628 96.9532 15.3036C97.2464 14.9792 97.4476 14.6062 97.5564 14.1845C97.6646 13.752 97.7192 13.2924 97.7192 12.8059V6.23714H100.032V12.968Z" fill="var(--color-logo-text)"/>
  <path d="M76.2627 8.21485H70.9688V6.23611H83.8692V8.21485H78.5753V18.0273H76.2627V8.21485Z" fill="var(--color-logo-text)"/>
  <path d="M65.4273 13.34L62.9519 8.08513L60.4759 13.34H65.4273ZM61.6322 6.23611H64.271L70.021 18.0273H67.5775L66.3398 15.3188H59.5145L58.2605 18.0273H55.8008L61.6322 6.23611Z" fill="var(--color-logo-text)"/>
  <path d="M44.7133 16.0487C45.7015 16.0487 46.5376 15.973 47.2217 15.8216C47.9167 15.6702 48.4812 15.4323 48.9156 15.1079C49.3612 14.7835 49.6811 14.3726 49.8771 13.8753C50.083 13.3779 50.1865 12.7832 50.1865 12.0912C50.1865 11.3667 50.083 10.7613 49.8771 10.2747C49.6706 9.77731 49.3449 9.37724 48.8994 9.07447C48.4649 8.77169 47.9004 8.55544 47.2054 8.42572C46.5104 8.28516 45.6798 8.21485 44.7133 8.21485H42.3677V16.0487H44.7133ZM40.0547 6.23611H45.7557C46.6896 6.23611 47.5638 6.34424 48.3782 6.56049C49.2035 6.76597 49.9201 7.10117 50.5285 7.5661C51.1363 8.02021 51.6144 8.62031 51.9616 9.36641C52.3199 10.1017 52.499 10.9991 52.499 12.0588C52.499 13.0643 52.3362 13.9401 52.0105 14.6862C51.6848 15.4323 51.2288 16.0541 50.6425 16.5514C50.0562 17.0488 49.3554 17.4219 48.5411 17.6705C47.7267 17.9084 46.8308 18.0273 45.8535 18.0273H40.0547V6.23611Z" fill="var(--color-logo-text)"/>
</svg>
