<svg width="675" height="809" viewBox="0 0 675 809" fill="none" xmlns="http://www.w3.org/2000/svg">
<rect opacity="0.7" x="594" y="120" width="80" height="80" fill="#F6F6F5"/>
<rect opacity="0.7" y="584" width="40" height="40" fill="#F6F6F5"/>
<rect opacity="0.7" x="594" y="584" width="80" height="80" fill="#F6F6F5"/>
<rect opacity="0.7" x="555" y="664" width="40" height="40" fill="#F6F6F5"/>
<rect opacity="0.7" x="475" y="160" width="40" height="40" fill="#F6F6F5"/>
<path d="M674 0L674 159" stroke="#C3C6C9"/>
<path d="M595 120L595 199" stroke="#C3C6C9"/>
<path d="M515 160L515 199" stroke="#C3C6C9"/>
<path d="M515 584L515 623" stroke="#C3C6C9"/>
<path d="M571.495 503.496L610.495 503.496" stroke="#C3C6C9"/>
<path d="M0.495117 503.496L39.4951 503.496" stroke="#C3C6C9"/>
<path d="M572.495 279.496L611.495 279.496" stroke="#C3C6C9"/>
<path d="M459 199L635 199" stroke="#C3C6C9"/>
<path d="M555 119L674 119" stroke="#C3C6C9"/>
<path d="M595 584L595 704" stroke="#C3C6C9"/>
<path d="M40 584L40 624" stroke="#C3C6C9"/>
<path d="M0 584H40" stroke="#C3C6C9"/>
<path d="M436 584H635" stroke="#C3C6C9"/>
<path d="M674 624L674 809" stroke="#C3C6C9"/>
<path d="M556 664H675" stroke="#C3C6C9"/>
</svg>
