<svg viewBox="0 0 708 809" fill="none" xmlns="http://www.w3.org/2000/svg">
  <rect opacity="0.7" x="587" y="120" width="80" height="80" fill="#F6F6F5" />
  <rect opacity="0.7" y="584" width="40" height="40" fill="#F6F6F5" />
  <rect opacity="0.7" x="587" y="584" width="80" height="80" fill="#F6F6F5" />
  <rect opacity="0.7" x="548" y="664" width="40" height="40" fill="#F6F6F5" />
  <rect opacity="0.7" x="468" y="160" width="40" height="40" fill="#F6F6F5" />
  <path d="M667 0L667 159" stroke="#C3C6C9" />
  <path d="M588 120L588 319" stroke="#C3C6C9" />
  <path d="M508 160L508 199" stroke="#C3C6C9" />
  <path d="M508 584L508 623" stroke="#C3C6C9" />
  <path d="M587.495 503.496L626.495 503.496" stroke="#C3C6C9" />
  <path d="M0.495117 503.496L39.4951 503.496" stroke="#C3C6C9" />
  <path d="M587.495 279.496L626.495 279.496" stroke="#C3C6C9" />
  <path d="M452 199L628 199" stroke="#C3C6C9" />
  <path d="M548 119L667 119" stroke="#C3C6C9" />
  <path d="M588 39L707 39" stroke="#C3C6C9" />
  <path opacity="0.5" d="M54 239L575 239" stroke="#C3C6C9" />
  <path opacity="0.5" d="M174 351H575" stroke="#C3C6C9" />
  <path opacity="0.5" d="M174 455H575" stroke="#C3C6C9" />
  <path opacity="0.5" d="M160 254L160 584" stroke="#C3C6C9" />
  <path d="M588 465L588 704" stroke="#C3C6C9" />
  <path d="M40 504L40 624" stroke="#C3C6C9" />
  <path d="M0 584H160" stroke="#C3C6C9" />
  <path d="M429 584H628" stroke="#C3C6C9" />
  <path d="M667 624L667 809" stroke="#C3C6C9" />
  <path d="M549 664H668" stroke="#C3C6C9" />
  <path d="M589 744H708" stroke="#C3C6C9" />
</svg>
