<svg width="305" height="221" viewBox="0 0 305 221" fill="none" xmlns="http://www.w3.org/2000/svg">
<rect x="0.285645" y="0.285156" width="304" height="220" fill="url(#paint0_linear_15414_4149)"/>
<rect x="0.285645" y="0.285156" width="304" height="220" stroke="#C3C6C9" stroke-width="0.571429"/>
<rect x="8.28564" y="31.1406" width="29.7143" height="4.57143" rx="2.28571" fill="#E8E7E4"/>
<rect x="76.2856" y="39.1406" width="29.7143" height="4.57143" rx="2.28571" fill="#E8E7E4"/>
<rect x="76.2856" y="98.5703" width="29.7143" height="4.57143" rx="2.28571" fill="#E8E7E4"/>
<rect x="8.28564" y="75.7148" width="29.7143" height="4.57143" rx="2.28571" fill="#E8E7E4"/>
<rect x="8.28564" y="120.285" width="29.7143" height="4.57143" rx="2.28571" fill="#E8E7E4"/>
<rect x="14" y="39.1406" width="40" height="4.57143" rx="2.28571" fill="#EFEFED"/>
<rect x="14" y="83.7148" width="40" height="4.57143" rx="2.28571" fill="#EFEFED"/>
<rect x="14" y="128.285" width="40" height="4.57143" rx="2.28571" fill="#EFEFED"/>
<rect x="14" y="47.1406" width="29.7143" height="4.57143" rx="2.28571" fill="#EFEFED"/>
<rect x="14" y="91.7148" width="29.7143" height="4.57143" rx="2.28571" fill="#EFEFED"/>
<rect x="14" y="136.285" width="29.7143" height="4.57143" rx="2.28571" fill="#EFEFED"/>
<rect x="14" y="55.1406" width="40" height="4.57143" rx="2.28571" fill="#EFEFED"/>
<rect x="14" y="99.7148" width="40" height="4.57143" rx="2.28571" fill="#EFEFED"/>
<rect x="14" y="144.285" width="40" height="4.57143" rx="2.28571" fill="#EFEFED"/>
<rect x="14" y="63.1406" width="46.8571" height="4.57143" rx="2.28571" fill="#EFEFED"/>
<rect x="76.2856" y="47.1406" width="181.714" height="4.57143" rx="2.28571" fill="#EFEFED"/>
<rect x="76.2856" y="55.1406" width="190.286" height="4.57143" rx="2.28571" fill="#EFEFED"/>
<rect x="76.2856" y="63.1406" width="177.143" height="4.57143" rx="2.28571" fill="#EFEFED"/>
<rect x="76.2856" y="71.1406" width="130.857" height="4.57143" rx="2.28571" fill="#EFEFED"/>
<rect x="76.2856" y="106.57" width="181.714" height="4.57143" rx="2.28571" fill="#EFEFED"/>
<rect x="76.2856" y="114.57" width="190.286" height="4.57143" rx="2.28571" fill="#EFEFED"/>
<rect x="76.2856" y="122.57" width="177.143" height="4.57143" rx="2.28571" fill="#EFEFED"/>
<rect x="76.2856" y="130.57" width="130.857" height="4.57143" rx="2.28571" fill="#EFEFED"/>
<rect x="76.2856" y="158" width="29.7143" height="4.57143" rx="2.28571" fill="#E8E7E4"/>
<rect x="76.2856" y="166" width="181.714" height="4.57143" rx="2.28571" fill="#EFEFED"/>
<rect x="76.2856" y="174" width="190.286" height="4.57143" rx="2.28571" fill="#EFEFED"/>
<rect x="76.2856" y="182" width="177.143" height="4.57143" rx="2.28571" fill="#EFEFED"/>
<rect x="76.2856" y="190" width="130.857" height="4.57143" rx="2.28571" fill="#EFEFED"/>
<rect x="14" y="107.715" width="46.8571" height="4.57143" rx="2.28571" fill="#EFEFED"/>
<rect x="14" y="152.285" width="46.8571" height="4.57143" rx="2.28571" fill="#EFEFED"/>
<rect x="8.28564" y="166" width="29.7143" height="4.57143" rx="2.28571" fill="#E8E7E4"/>
<rect x="14" y="174" width="40" height="4.57143" rx="2.28571" fill="#EFEFED"/>
<rect x="14" y="182" width="29.7143" height="4.57143" rx="2.28571" fill="#EFEFED"/>
<rect x="14" y="190" width="40" height="4.57143" rx="2.28571" fill="#EFEFED"/>
<rect x="14" y="198" width="46.8571" height="4.57143" rx="2.28571" fill="#EFEFED"/>
<path opacity="0.8" d="M10.2339 12.8057V15.5449H11.3765C11.8322 15.5449 12.187 15.4245 12.4409 15.1836C12.6981 14.9427 12.8267 14.6058 12.8267 14.1729C12.8267 13.7399 12.6997 13.4046 12.4458 13.167C12.1919 12.9261 11.8354 12.8057 11.3765 12.8057H10.2339ZM9.24756 11.9951H11.3765C12.1903 11.9951 12.8071 12.1807 13.2271 12.5518C13.647 12.9196 13.8569 13.46 13.8569 14.1729C13.8569 14.8923 13.647 15.4359 13.2271 15.8037C12.8104 16.1715 12.1935 16.3555 11.3765 16.3555H10.2339V19.2852H9.24756V11.9951ZM18.022 15.8428C18.2759 15.9079 18.4924 16.0316 18.6714 16.2139C18.8504 16.3929 19.0734 16.7526 19.3403 17.293L20.3315 19.2852H19.272L18.4028 17.4443C18.1522 16.9202 17.9259 16.5833 17.7241 16.4336C17.5256 16.2806 17.2651 16.2041 16.9429 16.2041H16.0005V19.2852H15.0093V11.9951H17.0405C17.8413 11.9951 18.4549 12.1758 18.8813 12.5371C19.3078 12.8984 19.521 13.4209 19.521 14.1045C19.521 14.5863 19.3892 14.9801 19.1255 15.2861C18.8651 15.5889 18.4972 15.7744 18.022 15.8428ZM16.0005 12.8057V15.3936H17.0796C17.5516 15.3936 17.9032 15.2878 18.1343 15.0762C18.3654 14.8646 18.481 14.5407 18.481 14.1045C18.481 13.6846 18.3573 13.3639 18.1099 13.1426C17.8657 12.918 17.5093 12.8057 17.0405 12.8057H16.0005ZM24.7554 15.6475C24.7554 14.5765 24.6447 13.8115 24.4233 13.3525C24.2052 12.8936 23.8455 12.6641 23.3442 12.6641C22.8462 12.6641 22.4865 12.8936 22.2651 13.3525C22.047 13.8115 21.938 14.5765 21.938 15.6475C21.938 16.7152 22.047 17.4785 22.2651 17.9375C22.4865 18.3965 22.8462 18.626 23.3442 18.626C23.8455 18.626 24.2052 18.3981 24.4233 17.9424C24.6447 17.4834 24.7554 16.7184 24.7554 15.6475ZM25.7856 15.6475C25.7856 16.917 25.5838 17.8643 25.1802 18.4893C24.7798 19.1143 24.1678 19.4268 23.3442 19.4268C22.5207 19.4268 21.9087 19.1159 21.5083 18.4941C21.1079 17.8724 20.9077 16.9235 20.9077 15.6475C20.9077 14.3747 21.1079 13.4258 21.5083 12.8008C21.9119 12.1758 22.5239 11.8633 23.3442 11.8633C24.1678 11.8633 24.7798 12.1758 25.1802 12.8008C25.5838 13.4258 25.7856 14.3747 25.7856 15.6475ZM28.4907 18.4746C29.3208 18.4746 29.9002 18.2712 30.229 17.8643C30.5578 17.4541 30.7222 16.7152 30.7222 15.6475C30.7222 14.57 30.5578 13.8278 30.229 13.4209C29.9035 13.0107 29.3241 12.8057 28.4907 12.8057H28.022V18.4746H28.4907ZM28.5103 11.9951C29.6235 11.9951 30.4438 12.2913 30.9712 12.8838C31.4985 13.4762 31.7622 14.3975 31.7622 15.6475C31.7622 16.891 31.4985 17.8089 30.9712 18.4014C30.4438 18.9906 29.6235 19.2852 28.5103 19.2852H27.0308V11.9951H28.5103ZM33.105 16.4873V11.9951H34.0962V16.9365C34.0962 17.2913 34.106 17.5452 34.1255 17.6982C34.145 17.848 34.1792 17.9635 34.228 18.0449C34.3322 18.237 34.4819 18.3818 34.6772 18.4795C34.8758 18.5771 35.1151 18.626 35.395 18.626C35.6782 18.626 35.9175 18.5771 36.1128 18.4795C36.3081 18.3818 36.4595 18.237 36.5669 18.0449C36.6157 17.9635 36.6499 17.848 36.6694 17.6982C36.689 17.5485 36.6987 17.2979 36.6987 16.9463V11.9951H37.6851V16.4873C37.6851 17.2327 37.6379 17.7633 37.5435 18.0791C37.4523 18.3916 37.2928 18.6504 37.0649 18.8555C36.8501 19.0475 36.6043 19.1908 36.3276 19.2852C36.0509 19.3796 35.7401 19.4268 35.395 19.4268C35.0532 19.4268 34.744 19.3796 34.4673 19.2852C34.1906 19.1908 33.9432 19.0475 33.7251 18.8555C33.5005 18.6536 33.341 18.3932 33.2466 18.0742C33.1522 17.752 33.105 17.223 33.105 16.4873ZM43.6519 19.0264C43.4012 19.1598 43.144 19.2591 42.8804 19.3242C42.6167 19.3926 42.3368 19.4268 42.0405 19.4268C41.1063 19.4268 40.3804 19.0964 39.8628 18.4355C39.3485 17.7747 39.0913 16.8454 39.0913 15.6475C39.0913 14.4561 39.3501 13.5283 39.8677 12.8643C40.3885 12.1969 41.1128 11.8633 42.0405 11.8633C42.3368 11.8633 42.6167 11.8975 42.8804 11.9658C43.144 12.0309 43.4012 12.1302 43.6519 12.2637V13.2744C43.411 13.0758 43.1522 12.9245 42.8755 12.8203C42.5988 12.7161 42.3205 12.6641 42.0405 12.6641C41.3993 12.6641 40.9191 12.9115 40.6001 13.4062C40.2811 13.901 40.1216 14.6481 40.1216 15.6475C40.1216 16.6436 40.2811 17.389 40.6001 17.8838C40.9191 18.3786 41.3993 18.626 42.0405 18.626C42.327 18.626 42.6069 18.5739 42.8804 18.4697C43.1571 18.3656 43.4142 18.2142 43.6519 18.0156V19.0264ZM44.6675 11.9951H50.229V12.8252H47.9487V19.2852H46.9575V12.8252H44.6675V11.9951ZM60.9077 15.6475C60.9077 14.5765 60.797 13.8115 60.5757 13.3525C60.3576 12.8936 59.9979 12.6641 59.4966 12.6641C58.9985 12.6641 58.6388 12.8936 58.4175 13.3525C58.1994 13.8115 58.0903 14.5765 58.0903 15.6475C58.0903 16.7152 58.1994 17.4785 58.4175 17.9375C58.6388 18.3965 58.9985 18.626 59.4966 18.626C59.9979 18.626 60.3576 18.3981 60.5757 17.9424C60.797 17.4834 60.9077 16.7184 60.9077 15.6475ZM61.938 15.6475C61.938 16.917 61.7362 17.8643 61.3325 18.4893C60.9321 19.1143 60.3201 19.4268 59.4966 19.4268C58.673 19.4268 58.061 19.1159 57.6606 18.4941C57.2603 17.8724 57.0601 16.9235 57.0601 15.6475C57.0601 14.3747 57.2603 13.4258 57.6606 12.8008C58.0643 12.1758 58.6763 11.8633 59.4966 11.8633C60.3201 11.8633 60.9321 12.1758 61.3325 12.8008C61.7362 13.4258 61.938 14.3747 61.938 15.6475ZM65.522 18.4551L67.2358 11.9951H68.2563L66.1226 19.2852H64.9263L62.7925 11.9951H63.813L65.522 18.4551ZM69.5015 11.9951H73.8276V12.8252H70.4878V14.9834H73.6812V15.8135H70.4878V18.4551H73.9204V19.2852H69.5015V11.9951ZM78.2759 15.8428C78.5298 15.9079 78.7463 16.0316 78.9253 16.2139C79.1043 16.3929 79.3273 16.7526 79.5942 17.293L80.5854 19.2852H79.5259L78.6567 17.4443C78.4061 16.9202 78.1799 16.5833 77.978 16.4336C77.7795 16.2806 77.519 16.2041 77.1968 16.2041H76.2544V19.2852H75.2632V11.9951H77.2944C78.0952 11.9951 78.7088 12.1758 79.1353 12.5371C79.5617 12.8984 79.7749 13.4209 79.7749 14.1045C79.7749 14.5863 79.6431 14.9801 79.3794 15.2861C79.119 15.5889 78.7511 15.7744 78.2759 15.8428ZM76.2544 12.8057V15.3936H77.3335C77.8055 15.3936 78.1571 15.2878 78.3882 15.0762C78.6193 14.8646 78.7349 14.5407 78.7349 14.1045C78.7349 13.6846 78.6112 13.3639 78.3638 13.1426C78.1196 12.918 77.7632 12.8057 77.2944 12.8057H76.2544ZM83.5981 18.4551L85.312 11.9951H86.3325L84.1987 19.2852H83.0024L80.8687 11.9951H81.8892L83.5981 18.4551ZM87.5972 11.9951H91.645V12.8252H90.1167V18.4551H91.645V19.2852H87.5972V18.4551H89.1255V12.8252H87.5972V11.9951ZM93.603 11.9951H97.9292V12.8252H94.5894V14.9834H97.7827V15.8135H94.5894V18.4551H98.022V19.2852H93.603V11.9951ZM98.6665 11.9951H99.6284L100.327 17.9131L101.157 13.9971H102.187L103.027 17.9229L103.725 11.9951H104.687L103.598 19.2852H102.666L101.674 14.9541L100.688 19.2852H99.7554L98.6665 11.9951Z" fill="#0C1D31"/>
<path opacity="0.8" d="M267.25 18.4551H270.599V19.2852H266.171V18.4551C266.779 17.8138 267.312 17.2474 267.767 16.7559C268.223 16.2643 268.537 15.9176 268.71 15.7158C269.035 15.3187 269.255 14.998 269.369 14.7539C269.483 14.5065 269.54 14.2542 269.54 13.9971C269.54 13.5902 269.419 13.2712 269.178 13.04C268.941 12.8089 268.614 12.6934 268.197 12.6934C267.901 12.6934 267.59 12.7471 267.264 12.8545C266.939 12.9619 266.594 13.1247 266.229 13.3428V12.3467C266.565 12.1872 266.893 12.0667 267.216 11.9854C267.541 11.904 267.862 11.8633 268.177 11.8633C268.89 11.8633 269.463 12.0537 269.896 12.4346C270.332 12.8122 270.551 13.3086 270.551 13.9238C270.551 14.2363 270.477 14.5488 270.331 14.8613C270.188 15.1738 269.953 15.5189 269.628 15.8965C269.445 16.1081 269.18 16.401 268.832 16.7754C268.487 17.1497 267.959 17.7096 267.25 18.4551ZM277.899 11.9951H279.218L280.477 15.7061L281.747 11.9951H283.07V19.2852H282.157V12.8447L280.858 16.6875H280.111L278.807 12.8447V19.2852H277.899V11.9951ZM284.486 11.9951H288.534V12.8252H287.006V18.4551H288.534V19.2852H284.486V18.4551H286.014V12.8252H284.486V11.9951ZM290.209 11.9951H291.459L293.92 17.9961V11.9951H294.872V19.2852H293.622L291.161 13.2842V19.2852H290.209V11.9951Z" fill="#0C1D31"/>
<defs>
<linearGradient id="paint0_linear_15414_4149" x1="152.286" y1="0.285156" x2="152.286" y2="220.285" gradientUnits="userSpaceOnUse">
<stop offset="0.302885" stop-color="white"/>
<stop offset="1" stop-color="#F6F6F5" stop-opacity="0.7"/>
</linearGradient>
</defs>
</svg>
