<svg width="702" height="531" viewBox="0 0 702 531" fill="none" xmlns="http://www.w3.org/2000/svg">
<rect opacity="0.7" x="593.505" y="-9" width="80" height="80" fill="#F6F6F5"/>
<rect opacity="0.7" x="394.505" y="455" width="40" height="40" fill="#F6F6F5"/>
<rect opacity="0.7" x="593.505" y="455" width="80" height="80" fill="#F6F6F5"/>
<rect opacity="0.7" x="474.505" y="31" width="40" height="40" fill="#F6F6F5"/>
<path d="M673.505 -129L673.505 30" stroke="#C3C6C9"/>
<path d="M594.505 -9L594.505 70" stroke="#C3C6C9"/>
<path d="M514.505 31L514.505 70" stroke="#C3C6C9"/>
<path d="M514.505 455L514.505 494" stroke="#C3C6C9"/>
<path d="M571 374.496L610 374.496" stroke="#C3C6C9"/>
<path d="M0 374.496L39 374.496" stroke="#C3C6C9"/>
<path d="M572 150.496L611 150.496" stroke="#C3C6C9"/>
<path d="M458.505 70L634.505 70" stroke="#C3C6C9"/>
<path d="M594.505 455L594.505 575" stroke="#C3C6C9"/>
<path d="M434.505 455L434.505 495" stroke="#C3C6C9"/>
<path d="M394.505 455H434.505" stroke="#C3C6C9"/>
<path d="M435.505 455H634.505" stroke="#C3C6C9"/>
<path d="M673.505 495L673.505 680" stroke="#C3C6C9"/>
<g filter="url(#filter0_d_15440_2053)">
<rect x="434.505" y="70" width="532" height="385" fill="url(#paint0_linear_15440_2053)" shape-rendering="crispEdges"/>
<rect x="434.505" y="70" width="532" height="385" stroke="#C3C6C9" shape-rendering="crispEdges"/>
<rect x="448.505" y="124" width="52" height="8" rx="4" fill="#E8E7E4"/>
<rect x="567.505" y="138" width="52" height="8" rx="4" fill="#E8E7E4"/>
<rect x="567.505" y="242" width="52" height="8" rx="4" fill="#E8E7E4"/>
<rect x="448.505" y="202" width="52" height="8" rx="4" fill="#E8E7E4"/>
<rect x="448.505" y="280" width="52" height="8" rx="4" fill="#E8E7E4"/>
<rect x="458.505" y="138" width="70" height="8" rx="4" fill="#EFEFED"/>
<rect x="458.505" y="216" width="70" height="8" rx="4" fill="#EFEFED"/>
<rect x="458.505" y="294" width="70" height="8" rx="4" fill="#EFEFED"/>
<rect x="458.505" y="152" width="52" height="8" rx="4" fill="#EFEFED"/>
<rect x="458.505" y="230" width="52" height="8" rx="4" fill="#EFEFED"/>
<rect x="458.505" y="308" width="52" height="8" rx="4" fill="#EFEFED"/>
<rect x="458.505" y="166" width="70" height="8" rx="4" fill="#EFEFED"/>
<rect x="458.505" y="244" width="70" height="8" rx="4" fill="#EFEFED"/>
<rect x="458.505" y="322" width="70" height="8" rx="4" fill="#EFEFED"/>
<rect x="458.505" y="180" width="82" height="8" rx="4" fill="#EFEFED"/>
<rect x="567.505" y="152" width="318" height="8" rx="4" fill="#EFEFED"/>
<rect x="567.505" y="166" width="333" height="8" rx="4" fill="#EFEFED"/>
<rect x="567.505" y="180" width="310" height="8" rx="4" fill="#EFEFED"/>
<rect x="567.505" y="194" width="229" height="8" rx="4" fill="#EFEFED"/>
<rect x="567.505" y="256" width="318" height="8" rx="4" fill="#EFEFED"/>
<rect x="567.505" y="270" width="333" height="8" rx="4" fill="#EFEFED"/>
<rect x="567.505" y="284" width="310" height="8" rx="4" fill="#EFEFED"/>
<rect x="567.505" y="298" width="229" height="8" rx="4" fill="#EFEFED"/>
<rect x="567.505" y="346" width="52" height="8" rx="4" fill="#E8E7E4"/>
<rect x="567.505" y="360" width="318" height="8" rx="4" fill="#EFEFED"/>
<rect x="567.505" y="374" width="333" height="8" rx="4" fill="#EFEFED"/>
<rect x="567.505" y="388" width="310" height="8" rx="4" fill="#EFEFED"/>
<rect x="567.505" y="402" width="229" height="8" rx="4" fill="#EFEFED"/>
<rect x="458.505" y="258" width="82" height="8" rx="4" fill="#EFEFED"/>
<rect x="458.505" y="336" width="82" height="8" rx="4" fill="#EFEFED"/>
<rect x="448.505" y="360" width="52" height="8" rx="4" fill="#E8E7E4"/>
<rect x="458.505" y="374" width="70" height="8" rx="4" fill="#EFEFED"/>
<rect x="458.505" y="388" width="52" height="8" rx="4" fill="#EFEFED"/>
<rect x="458.505" y="402" width="70" height="8" rx="4" fill="#EFEFED"/>
<rect x="458.505" y="416" width="82" height="8" rx="4" fill="#EFEFED"/>
<path opacity="0.8" d="M450.453 86.5205V89.2598H451.596C452.051 89.2598 452.406 89.1393 452.66 88.8984C452.917 88.6576 453.046 88.3206 453.046 87.8877C453.046 87.4548 452.919 87.1195 452.665 86.8818C452.411 86.641 452.055 86.5205 451.596 86.5205H450.453ZM449.467 85.71H451.596C452.41 85.71 453.026 85.8955 453.446 86.2666C453.866 86.6344 454.076 87.1748 454.076 87.8877C454.076 88.6071 453.866 89.1507 453.446 89.5186C453.03 89.8864 452.413 90.0703 451.596 90.0703H450.453V93H449.467V85.71ZM458.241 89.5576C458.495 89.6227 458.712 89.7464 458.891 89.9287C459.07 90.1077 459.293 90.4674 459.56 91.0078L460.551 93H459.491L458.622 91.1592C458.371 90.6351 458.145 90.2982 457.943 90.1484C457.745 89.9954 457.484 89.9189 457.162 89.9189H456.22V93H455.229V85.71H457.26C458.061 85.71 458.674 85.8906 459.101 86.252C459.527 86.6133 459.74 87.1357 459.74 87.8193C459.74 88.3011 459.608 88.695 459.345 89.001C459.084 89.3037 458.716 89.4893 458.241 89.5576ZM456.22 86.5205V89.1084H457.299C457.771 89.1084 458.122 89.0026 458.354 88.791C458.585 88.5794 458.7 88.2555 458.7 87.8193C458.7 87.3994 458.576 87.0788 458.329 86.8574C458.085 86.6328 457.729 86.5205 457.26 86.5205H456.22ZM464.975 89.3623C464.975 88.2913 464.864 87.5264 464.643 87.0674C464.424 86.6084 464.065 86.3789 463.563 86.3789C463.065 86.3789 462.706 86.6084 462.484 87.0674C462.266 87.5264 462.157 88.2913 462.157 89.3623C462.157 90.43 462.266 91.1934 462.484 91.6523C462.706 92.1113 463.065 92.3408 463.563 92.3408C464.065 92.3408 464.424 92.113 464.643 91.6572C464.864 91.1982 464.975 90.4333 464.975 89.3623ZM466.005 89.3623C466.005 90.6318 465.803 91.5791 465.399 92.2041C464.999 92.8291 464.387 93.1416 463.563 93.1416C462.74 93.1416 462.128 92.8307 461.728 92.209C461.327 91.5872 461.127 90.6383 461.127 89.3623C461.127 88.0895 461.327 87.1406 461.728 86.5156C462.131 85.8906 462.743 85.5781 463.563 85.5781C464.387 85.5781 464.999 85.8906 465.399 86.5156C465.803 87.1406 466.005 88.0895 466.005 89.3623ZM468.71 92.1895C469.54 92.1895 470.119 91.986 470.448 91.5791C470.777 91.1689 470.941 90.43 470.941 89.3623C470.941 88.2848 470.777 87.5426 470.448 87.1357C470.123 86.7256 469.543 86.5205 468.71 86.5205H468.241V92.1895H468.71ZM468.729 85.71C469.843 85.71 470.663 86.0062 471.19 86.5986C471.718 87.1911 471.981 88.1123 471.981 89.3623C471.981 90.6058 471.718 91.5238 471.19 92.1162C470.663 92.7054 469.843 93 468.729 93H467.25V85.71H468.729ZM473.324 90.2021V85.71H474.315V90.6514C474.315 91.0062 474.325 91.2601 474.345 91.4131C474.364 91.5628 474.398 91.6784 474.447 91.7598C474.551 91.9518 474.701 92.0967 474.896 92.1943C475.095 92.292 475.334 92.3408 475.614 92.3408C475.897 92.3408 476.137 92.292 476.332 92.1943C476.527 92.0967 476.679 91.9518 476.786 91.7598C476.835 91.6784 476.869 91.5628 476.889 91.4131C476.908 91.2633 476.918 91.0127 476.918 90.6611V85.71H477.904V90.2021C477.904 90.9476 477.857 91.4782 477.763 91.7939C477.672 92.1064 477.512 92.3652 477.284 92.5703C477.069 92.7624 476.824 92.9056 476.547 93C476.27 93.0944 475.959 93.1416 475.614 93.1416C475.272 93.1416 474.963 93.0944 474.687 93C474.41 92.9056 474.162 92.7624 473.944 92.5703C473.72 92.3685 473.56 92.1081 473.466 91.7891C473.371 91.4668 473.324 90.9378 473.324 90.2021ZM483.871 92.7412C483.62 92.8747 483.363 92.974 483.1 93.0391C482.836 93.1074 482.556 93.1416 482.26 93.1416C481.326 93.1416 480.6 92.8112 480.082 92.1504C479.568 91.4896 479.311 90.5602 479.311 89.3623C479.311 88.1709 479.569 87.2432 480.087 86.5791C480.608 85.9118 481.332 85.5781 482.26 85.5781C482.556 85.5781 482.836 85.6123 483.1 85.6807C483.363 85.7458 483.62 85.8451 483.871 85.9785V86.9893C483.63 86.7907 483.371 86.6393 483.095 86.5352C482.818 86.431 482.54 86.3789 482.26 86.3789C481.618 86.3789 481.138 86.6263 480.819 87.1211C480.5 87.6159 480.341 88.363 480.341 89.3623C480.341 90.3584 480.5 91.1038 480.819 91.5986C481.138 92.0934 481.618 92.3408 482.26 92.3408C482.546 92.3408 482.826 92.2887 483.1 92.1846C483.376 92.0804 483.633 91.929 483.871 91.7305V92.7412ZM484.887 85.71H490.448V86.54H488.168V93H487.177V86.54H484.887V85.71ZM501.127 89.3623C501.127 88.2913 501.016 87.5264 500.795 87.0674C500.577 86.6084 500.217 86.3789 499.716 86.3789C499.218 86.3789 498.858 86.6084 498.637 87.0674C498.419 87.5264 498.31 88.2913 498.31 89.3623C498.31 90.43 498.419 91.1934 498.637 91.6523C498.858 92.1113 499.218 92.3408 499.716 92.3408C500.217 92.3408 500.577 92.113 500.795 91.6572C501.016 91.1982 501.127 90.4333 501.127 89.3623ZM502.157 89.3623C502.157 90.6318 501.955 91.5791 501.552 92.2041C501.151 92.8291 500.539 93.1416 499.716 93.1416C498.892 93.1416 498.28 92.8307 497.88 92.209C497.479 91.5872 497.279 90.6383 497.279 89.3623C497.279 88.0895 497.479 87.1406 497.88 86.5156C498.284 85.8906 498.896 85.5781 499.716 85.5781C500.539 85.5781 501.151 85.8906 501.552 86.5156C501.955 87.1406 502.157 88.0895 502.157 89.3623ZM505.741 92.1699L507.455 85.71H508.476L506.342 93H505.146L503.012 85.71H504.032L505.741 92.1699ZM509.721 85.71H514.047V86.54H510.707V88.6982H513.9V89.5283H510.707V92.1699H514.14V93H509.721V85.71ZM518.495 89.5576C518.749 89.6227 518.965 89.7464 519.145 89.9287C519.324 90.1077 519.547 90.4674 519.813 91.0078L520.805 93H519.745L518.876 91.1592C518.625 90.6351 518.399 90.2982 518.197 90.1484C517.999 89.9954 517.738 89.9189 517.416 89.9189H516.474V93H515.482V85.71H517.514C518.314 85.71 518.928 85.8906 519.354 86.252C519.781 86.6133 519.994 87.1357 519.994 87.8193C519.994 88.3011 519.862 88.695 519.599 89.001C519.338 89.3037 518.97 89.4893 518.495 89.5576ZM516.474 86.5205V89.1084H517.553C518.025 89.1084 518.376 89.0026 518.607 88.791C518.839 88.5794 518.954 88.2555 518.954 87.8193C518.954 87.3994 518.83 87.0788 518.583 86.8574C518.339 86.6328 517.982 86.5205 517.514 86.5205H516.474ZM523.817 92.1699L525.531 85.71H526.552L524.418 93H523.222L521.088 85.71H522.108L523.817 92.1699ZM527.816 85.71H531.864V86.54H530.336V92.1699H531.864V93H527.816V92.1699H529.345V86.54H527.816V85.71ZM533.822 85.71H538.148V86.54H534.809V88.6982H538.002V89.5283H534.809V92.1699H538.241V93H533.822V85.71ZM538.886 85.71H539.848L540.546 91.6279L541.376 87.7119H542.406L543.246 91.6377L543.944 85.71H544.906L543.817 93H542.885L541.894 88.6689L540.907 93H539.975L538.886 85.71Z" fill="#0C1D31"/>
<path opacity="0.8" d="M563.326 92.1699H566.676V93H562.247V92.1699C562.856 91.5286 563.388 90.9622 563.844 90.4707C564.299 89.9792 564.614 89.6325 564.786 89.4307C565.112 89.0335 565.331 88.7129 565.445 88.4688C565.559 88.2214 565.616 87.9691 565.616 87.7119C565.616 87.305 565.496 86.986 565.255 86.7549C565.017 86.5238 564.69 86.4082 564.273 86.4082C563.977 86.4082 563.666 86.4619 563.341 86.5693C563.015 86.6768 562.67 86.8395 562.306 87.0576V86.0615C562.641 85.902 562.97 85.7816 563.292 85.7002C563.618 85.6188 563.938 85.5781 564.254 85.5781C564.967 85.5781 565.54 85.7686 565.973 86.1494C566.409 86.527 566.627 87.0234 566.627 87.6387C566.627 87.9512 566.554 88.2637 566.407 88.5762C566.264 88.8887 566.03 89.2337 565.704 89.6113C565.522 89.8229 565.257 90.1159 564.908 90.4902C564.563 90.8646 564.036 91.4245 563.326 92.1699ZM573.976 85.71H575.294L576.554 89.4209L577.823 85.71H579.146V93H578.233V86.5596L576.935 90.4023H576.188L574.884 86.5596V93H573.976V85.71ZM580.562 85.71H584.61V86.54H583.082V92.1699H584.61V93H580.562V92.1699H582.091V86.54H580.562V85.71ZM586.285 85.71H587.535L589.996 91.7109V85.71H590.948V93H589.698L587.237 86.999V93H586.285V85.71Z" fill="#0C1D31"/>
</g>
<defs>
<filter id="filter0_d_15440_2053" x="414.005" y="59.5" width="573" height="426" filterUnits="userSpaceOnUse" color-interpolation-filters="sRGB">
<feFlood flood-opacity="0" result="BackgroundImageFix"/>
<feColorMatrix in="SourceAlpha" type="matrix" values="0 0 0 0 0 0 0 0 0 0 0 0 0 0 0 0 0 0 127 0" result="hardAlpha"/>
<feMorphology radius="40" operator="erode" in="SourceAlpha" result="effect1_dropShadow_15440_2053"/>
<feOffset dy="10"/>
<feGaussianBlur stdDeviation="30"/>
<feComposite in2="hardAlpha" operator="out"/>
<feColorMatrix type="matrix" values="0 0 0 0 0.0470588 0 0 0 0 0.113725 0 0 0 0 0.192157 0 0 0 0.6 0"/>
<feBlend mode="normal" in2="BackgroundImageFix" result="effect1_dropShadow_15440_2053"/>
<feBlend mode="normal" in="SourceGraphic" in2="effect1_dropShadow_15440_2053" result="shape"/>
</filter>
<linearGradient id="paint0_linear_15440_2053" x1="700.505" y1="70" x2="700.505" y2="455" gradientUnits="userSpaceOnUse">
<stop offset="0.302885" stop-color="white"/>
<stop offset="1" stop-color="#F6F6F5" stop-opacity="0.7"/>
</linearGradient>
</defs>
</svg>
