<svg width="468" height="637" viewBox="0 0 468 637" fill="none" xmlns="http://www.w3.org/2000/svg">
  <rect opacity="0.7" x="360" y="40" width="80" height="80" fill="#F6F6F5" />
  <rect opacity="0.7" y="504" width="40" height="40" fill="#F6F6F5" />
  <rect opacity="0.7" x="360" y="504" width="80" height="80" fill="#F6F6F5" />
  <rect opacity="0.7" x="321" y="584" width="40" height="40" fill="#F6F6F5" />
  <rect opacity="0.7" x="241" y="80" width="40" height="40" fill="#F6F6F5" />
  <path d="M440 -80L440 79" stroke="#C3C6C9" />
  <path d="M361 40L361 119" stroke="#C3C6C9" />
  <path d="M281 80L281 119" stroke="#C3C6C9" />
  <path d="M281 504L281 543" stroke="#C3C6C9" />
  <path d="M337.495 423.496L376.495 423.496" stroke="#C3C6C9" />
  <path d="M338.495 199.496L377.495 199.496" stroke="#C3C6C9" />
  <path d="M225 119L401 119" stroke="#C3C6C9" />
  <path d="M321 39L440 39" stroke="#C3C6C9" />
  <path d="M361 504L361 624" stroke="#C3C6C9" />
  <path d="M40 504L40 544" stroke="#C3C6C9" />
  <path d="M0 504H40" stroke="#C3C6C9" />
  <path d="M202 504H401" stroke="#C3C6C9" />
  <path d="M440 544L440 729" stroke="#C3C6C9" />
  <path d="M322 584H441" stroke="#C3C6C9" />
  <g filter="url(#filter0_d_15440_2049)">
    <rect x="40" y="119" width="532" height="385" fill="url(#paint0_linear_15440_2049)"
      shape-rendering="crispEdges" />
    <rect x="40" y="119" width="532" height="385" stroke="#C3C6C9" shape-rendering="crispEdges" />
    <rect x="54" y="173" width="52" height="8" rx="4" fill="#E8E7E4" />
    <rect x="173" y="187" width="52" height="8" rx="4" fill="#E8E7E4" />
    <rect x="173" y="291" width="52" height="8" rx="4" fill="#E8E7E4" />
    <rect x="54" y="251" width="52" height="8" rx="4" fill="#E8E7E4" />
    <rect x="54" y="329" width="52" height="8" rx="4" fill="#E8E7E4" />
    <rect x="64" y="187" width="70" height="8" rx="4" fill="#EFEFED" />
    <rect x="64" y="265" width="70" height="8" rx="4" fill="#EFEFED" />
    <rect x="64" y="343" width="70" height="8" rx="4" fill="#EFEFED" />
    <rect x="64" y="201" width="52" height="8" rx="4" fill="#EFEFED" />
    <rect x="64" y="279" width="52" height="8" rx="4" fill="#EFEFED" />
    <rect x="64" y="357" width="52" height="8" rx="4" fill="#EFEFED" />
    <rect x="64" y="215" width="70" height="8" rx="4" fill="#EFEFED" />
    <rect x="64" y="293" width="70" height="8" rx="4" fill="#EFEFED" />
    <rect x="64" y="371" width="70" height="8" rx="4" fill="#EFEFED" />
    <rect x="64" y="229" width="82" height="8" rx="4" fill="#EFEFED" />
    <rect x="173" y="201" width="318" height="8" rx="4" fill="#EFEFED" />
    <rect x="173" y="215" width="333" height="8" rx="4" fill="#EFEFED" />
    <rect x="173" y="229" width="310" height="8" rx="4" fill="#EFEFED" />
    <rect x="173" y="243" width="229" height="8" rx="4" fill="#EFEFED" />
    <rect x="173" y="305" width="318" height="8" rx="4" fill="#EFEFED" />
    <rect x="173" y="319" width="333" height="8" rx="4" fill="#EFEFED" />
    <rect x="173" y="333" width="310" height="8" rx="4" fill="#EFEFED" />
    <rect x="173" y="347" width="229" height="8" rx="4" fill="#EFEFED" />
    <rect x="173" y="395" width="52" height="8" rx="4" fill="#E8E7E4" />
    <rect x="173" y="409" width="318" height="8" rx="4" fill="#EFEFED" />
    <rect x="173" y="423" width="333" height="8" rx="4" fill="#EFEFED" />
    <rect x="173" y="437" width="310" height="8" rx="4" fill="#EFEFED" />
    <rect x="173" y="451" width="229" height="8" rx="4" fill="#EFEFED" />
    <rect x="64" y="307" width="82" height="8" rx="4" fill="#EFEFED" />
    <rect x="64" y="385" width="82" height="8" rx="4" fill="#EFEFED" />
    <rect x="54" y="409" width="52" height="8" rx="4" fill="#E8E7E4" />
    <rect x="64" y="423" width="70" height="8" rx="4" fill="#EFEFED" />
    <rect x="64" y="437" width="52" height="8" rx="4" fill="#EFEFED" />
    <rect x="64" y="451" width="70" height="8" rx="4" fill="#EFEFED" />
    <rect x="64" y="465" width="82" height="8" rx="4" fill="#EFEFED" />
    <path opacity="0.8"
      d="M55.9482 135.521V138.26H57.0908C57.5465 138.26 57.9014 138.139 58.1553 137.898C58.4124 137.658 58.541 137.321 58.541 136.888C58.541 136.455 58.4141 136.119 58.1602 135.882C57.9062 135.641 57.5498 135.521 57.0908 135.521H55.9482ZM54.9619 134.71H57.0908C57.9046 134.71 58.5215 134.896 58.9414 135.267C59.3613 135.634 59.5713 136.175 59.5713 136.888C59.5713 137.607 59.3613 138.151 58.9414 138.519C58.5247 138.886 57.9079 139.07 57.0908 139.07H55.9482V142H54.9619V134.71ZM63.7363 138.558C63.9902 138.623 64.2067 138.746 64.3857 138.929C64.5648 139.108 64.7878 139.467 65.0547 140.008L66.0459 142H64.9863L64.1172 140.159C63.8665 139.635 63.6403 139.298 63.4385 139.148C63.2399 138.995 62.9795 138.919 62.6572 138.919H61.7148V142H60.7236V134.71H62.7549C63.5557 134.71 64.1693 134.891 64.5957 135.252C65.0221 135.613 65.2354 136.136 65.2354 136.819C65.2354 137.301 65.1035 137.695 64.8398 138.001C64.5794 138.304 64.2116 138.489 63.7363 138.558ZM61.7148 135.521V138.108H62.7939C63.266 138.108 63.6175 138.003 63.8486 137.791C64.0798 137.579 64.1953 137.256 64.1953 136.819C64.1953 136.399 64.0716 136.079 63.8242 135.857C63.5801 135.633 63.2236 135.521 62.7549 135.521H61.7148ZM70.4697 138.362C70.4697 137.291 70.359 136.526 70.1377 136.067C69.9196 135.608 69.5599 135.379 69.0586 135.379C68.5605 135.379 68.2008 135.608 67.9795 136.067C67.7614 136.526 67.6523 137.291 67.6523 138.362C67.6523 139.43 67.7614 140.193 67.9795 140.652C68.2008 141.111 68.5605 141.341 69.0586 141.341C69.5599 141.341 69.9196 141.113 70.1377 140.657C70.359 140.198 70.4697 139.433 70.4697 138.362ZM71.5 138.362C71.5 139.632 71.2982 140.579 70.8945 141.204C70.4941 141.829 69.8822 142.142 69.0586 142.142C68.235 142.142 67.623 141.831 67.2227 141.209C66.8223 140.587 66.6221 139.638 66.6221 138.362C66.6221 137.09 66.8223 136.141 67.2227 135.516C67.6263 134.891 68.2383 134.578 69.0586 134.578C69.8822 134.578 70.4941 134.891 70.8945 135.516C71.2982 136.141 71.5 137.09 71.5 138.362ZM74.2051 141.189C75.0352 141.189 75.6146 140.986 75.9434 140.579C76.2721 140.169 76.4365 139.43 76.4365 138.362C76.4365 137.285 76.2721 136.543 75.9434 136.136C75.6178 135.726 75.0384 135.521 74.2051 135.521H73.7363V141.189H74.2051ZM74.2246 134.71C75.3379 134.71 76.1582 135.006 76.6855 135.599C77.2129 136.191 77.4766 137.112 77.4766 138.362C77.4766 139.606 77.2129 140.524 76.6855 141.116C76.1582 141.705 75.3379 142 74.2246 142H72.7451V134.71H74.2246ZM78.8193 139.202V134.71H79.8105V139.651C79.8105 140.006 79.8203 140.26 79.8398 140.413C79.8594 140.563 79.8936 140.678 79.9424 140.76C80.0465 140.952 80.1963 141.097 80.3916 141.194C80.5902 141.292 80.8294 141.341 81.1094 141.341C81.3926 141.341 81.6318 141.292 81.8271 141.194C82.0225 141.097 82.1738 140.952 82.2812 140.76C82.3301 140.678 82.3643 140.563 82.3838 140.413C82.4033 140.263 82.4131 140.013 82.4131 139.661V134.71H83.3994V139.202C83.3994 139.948 83.3522 140.478 83.2578 140.794C83.1667 141.106 83.0072 141.365 82.7793 141.57C82.5645 141.762 82.3187 141.906 82.042 142C81.7653 142.094 81.4544 142.142 81.1094 142.142C80.7676 142.142 80.4583 142.094 80.1816 142C79.9049 141.906 79.6576 141.762 79.4395 141.57C79.2148 141.368 79.0553 141.108 78.9609 140.789C78.8665 140.467 78.8193 139.938 78.8193 139.202ZM89.3662 141.741C89.1156 141.875 88.8584 141.974 88.5947 142.039C88.3311 142.107 88.0511 142.142 87.7549 142.142C86.8206 142.142 86.0947 141.811 85.5771 141.15C85.0628 140.49 84.8057 139.56 84.8057 138.362C84.8057 137.171 85.0645 136.243 85.582 135.579C86.1029 134.912 86.8271 134.578 87.7549 134.578C88.0511 134.578 88.3311 134.612 88.5947 134.681C88.8584 134.746 89.1156 134.845 89.3662 134.979V135.989C89.1253 135.791 88.8665 135.639 88.5898 135.535C88.3132 135.431 88.0348 135.379 87.7549 135.379C87.1136 135.379 86.6335 135.626 86.3145 136.121C85.9954 136.616 85.8359 137.363 85.8359 138.362C85.8359 139.358 85.9954 140.104 86.3145 140.599C86.6335 141.093 87.1136 141.341 87.7549 141.341C88.0413 141.341 88.3213 141.289 88.5947 141.185C88.8714 141.08 89.1286 140.929 89.3662 140.73V141.741ZM90.3818 134.71H95.9434V135.54H93.6631V142H92.6719V135.54H90.3818V134.71ZM106.622 138.362C106.622 137.291 106.511 136.526 106.29 136.067C106.072 135.608 105.712 135.379 105.211 135.379C104.713 135.379 104.353 135.608 104.132 136.067C103.914 136.526 103.805 137.291 103.805 138.362C103.805 139.43 103.914 140.193 104.132 140.652C104.353 141.111 104.713 141.341 105.211 141.341C105.712 141.341 106.072 141.113 106.29 140.657C106.511 140.198 106.622 139.433 106.622 138.362ZM107.652 138.362C107.652 139.632 107.451 140.579 107.047 141.204C106.646 141.829 106.035 142.142 105.211 142.142C104.387 142.142 103.775 141.831 103.375 141.209C102.975 140.587 102.774 139.638 102.774 138.362C102.774 137.09 102.975 136.141 103.375 135.516C103.779 134.891 104.391 134.578 105.211 134.578C106.035 134.578 106.646 134.891 107.047 135.516C107.451 136.141 107.652 137.09 107.652 138.362ZM111.236 141.17L112.95 134.71H113.971L111.837 142H110.641L108.507 134.71H109.527L111.236 141.17ZM115.216 134.71H119.542V135.54H116.202V137.698H119.396V138.528H116.202V141.17H119.635V142H115.216V134.71ZM123.99 138.558C124.244 138.623 124.461 138.746 124.64 138.929C124.819 139.108 125.042 139.467 125.309 140.008L126.3 142H125.24L124.371 140.159C124.12 139.635 123.894 139.298 123.692 139.148C123.494 138.995 123.233 138.919 122.911 138.919H121.969V142H120.978V134.71H123.009C123.81 134.71 124.423 134.891 124.85 135.252C125.276 135.613 125.489 136.136 125.489 136.819C125.489 137.301 125.357 137.695 125.094 138.001C124.833 138.304 124.465 138.489 123.99 138.558ZM121.969 135.521V138.108H123.048C123.52 138.108 123.871 138.003 124.103 137.791C124.334 137.579 124.449 137.256 124.449 136.819C124.449 136.399 124.326 136.079 124.078 135.857C123.834 135.633 123.478 135.521 123.009 135.521H121.969ZM129.312 141.17L131.026 134.71H132.047L129.913 142H128.717L126.583 134.71H127.604L129.312 141.17ZM133.312 134.71H137.359V135.54H135.831V141.17H137.359V142H133.312V141.17H134.84V135.54H133.312V134.71ZM139.317 134.71H143.644V135.54H140.304V137.698H143.497V138.528H140.304V141.17H143.736V142H139.317V134.71ZM144.381 134.71H145.343L146.041 140.628L146.871 136.712H147.901L148.741 140.638L149.439 134.71H150.401L149.312 142H148.38L147.389 137.669L146.402 142H145.47L144.381 134.71Z"
      fill="#0C1D31" />
    <path opacity="0.8"
      d="M168.821 141.17H172.171V142H167.742V141.17C168.351 140.529 168.883 139.962 169.339 139.471C169.795 138.979 170.109 138.632 170.281 138.431C170.607 138.034 170.826 137.713 170.94 137.469C171.054 137.221 171.111 136.969 171.111 136.712C171.111 136.305 170.991 135.986 170.75 135.755C170.512 135.524 170.185 135.408 169.769 135.408C169.472 135.408 169.161 135.462 168.836 135.569C168.51 135.677 168.165 135.84 167.801 136.058V135.062C168.136 134.902 168.465 134.782 168.787 134.7C169.113 134.619 169.433 134.578 169.749 134.578C170.462 134.578 171.035 134.769 171.468 135.149C171.904 135.527 172.122 136.023 172.122 136.639C172.122 136.951 172.049 137.264 171.902 137.576C171.759 137.889 171.525 138.234 171.199 138.611C171.017 138.823 170.752 139.116 170.403 139.49C170.058 139.865 169.531 140.424 168.821 141.17ZM179.471 134.71H180.789L182.049 138.421L183.318 134.71H184.642V142H183.729V135.56L182.43 139.402H181.683L180.379 135.56V142H179.471V134.71ZM186.058 134.71H190.105V135.54H188.577V141.17H190.105V142H186.058V141.17H187.586V135.54H186.058V134.71ZM191.78 134.71H193.03L195.491 140.711V134.71H196.443V142H195.193L192.732 135.999V142H191.78V134.71Z"
      fill="#0C1D31" />
  </g>
  <defs>
    <filter id="filter0_d_15440_2049" x="19.5" y="108.5" width="573" height="426"
      filterUnits="userSpaceOnUse" color-interpolation-filters="sRGB">
      <feFlood flood-opacity="0" result="BackgroundImageFix" />
      <feColorMatrix in="SourceAlpha" type="matrix"
        values="0 0 0 0 0 0 0 0 0 0 0 0 0 0 0 0 0 0 127 0" result="hardAlpha" />
      <feMorphology radius="40" operator="erode" in="SourceAlpha"
        result="effect1_dropShadow_15440_2049" />
      <feOffset dy="10" />
      <feGaussianBlur stdDeviation="30" />
      <feComposite in2="hardAlpha" operator="out" />
      <feColorMatrix type="matrix"
        values="0 0 0 0 0.0470588 0 0 0 0 0.113725 0 0 0 0 0.192157 0 0 0 0.6 0" />
      <feBlend mode="normal" in2="BackgroundImageFix" result="effect1_dropShadow_15440_2049" />
      <feBlend mode="normal" in="SourceGraphic" in2="effect1_dropShadow_15440_2049" result="shape" />
    </filter>
    <linearGradient id="paint0_linear_15440_2049" x1="306" y1="119" x2="306" y2="504"
      gradientUnits="userSpaceOnUse">
      <stop offset="0.302885" stop-color="white" />
      <stop offset="1" stop-color="#F6F6F5" stop-opacity="0.7" />
    </linearGradient>
  </defs>
</svg>