<svg width="675" height="804" viewBox="0 0 675 804" fill="none" xmlns="http://www.w3.org/2000/svg">
  <rect opacity="0.7" x="594" y="120" width="80" height="80" fill="#F6F6F5" />
  <rect opacity="0.7" y="584" width="40" height="40" fill="#F6F6F5" />
  <rect opacity="0.7" x="594" y="584" width="80" height="80" fill="#F6F6F5" />
  <rect opacity="0.7" x="555" y="664" width="40" height="40" fill="#F6F6F5" />
  <rect opacity="0.7" x="475" y="160" width="40" height="40" fill="#F6F6F5" />
  <path d="M674 0L674 159" stroke="#C3C6C9" />
  <path d="M595 120L595 199" stroke="#C3C6C9" />
  <path d="M515 160L515 199" stroke="#C3C6C9" />
  <path d="M515 584L515 623" stroke="#C3C6C9" />
  <path d="M571.495 503.496L610.495 503.496" stroke="#C3C6C9" />
  <path d="M0.495117 503.496L39.4951 503.496" stroke="#C3C6C9" />
  <path d="M572.495 279.496L611.495 279.496" stroke="#C3C6C9" />
  <path d="M459 199L635 199" stroke="#C3C6C9" />
  <path d="M555 119L674 119" stroke="#C3C6C9" />
  <path d="M595 584L595 704" stroke="#C3C6C9" />
  <path d="M40 584L40 624" stroke="#C3C6C9" />
  <path d="M0 584H40" stroke="#C3C6C9" />
  <path d="M436 584H635" stroke="#C3C6C9" />
  <path d="M674 624L674 809" stroke="#C3C6C9" />
  <path d="M556 664H675" stroke="#C3C6C9" />
  <g filter="url(#filter0_d_15383_44993)">
    <rect x="40" y="199" width="532" height="385" fill="url(#paint0_linear_15383_44993)"
      shape-rendering="crispEdges" />
    <rect x="40" y="199" width="532" height="385" stroke="#C3C6C9" shape-rendering="crispEdges" />
    <rect x="54" y="253" width="52" height="8" rx="4" fill="#E8E7E4" />
    <rect x="173" y="267" width="52" height="8" rx="4" fill="#E8E7E4" />
    <rect x="173" y="371" width="52" height="8" rx="4" fill="#E8E7E4" />
    <rect x="54" y="331" width="52" height="8" rx="4" fill="#E8E7E4" />
    <rect x="54" y="409" width="52" height="8" rx="4" fill="#E8E7E4" />
    <rect x="64" y="267" width="70" height="8" rx="4" fill="#EFEFED" />
    <rect x="64" y="345" width="70" height="8" rx="4" fill="#EFEFED" />
    <rect x="64" y="423" width="70" height="8" rx="4" fill="#EFEFED" />
    <rect x="64" y="281" width="52" height="8" rx="4" fill="#EFEFED" />
    <rect x="64" y="359" width="52" height="8" rx="4" fill="#EFEFED" />
    <rect x="64" y="437" width="52" height="8" rx="4" fill="#EFEFED" />
    <rect x="64" y="295" width="70" height="8" rx="4" fill="#EFEFED" />
    <rect x="64" y="373" width="70" height="8" rx="4" fill="#EFEFED" />
    <rect x="64" y="451" width="70" height="8" rx="4" fill="#EFEFED" />
    <rect x="64" y="309" width="82" height="8" rx="4" fill="#EFEFED" />
    <rect x="173" y="281" width="318" height="8" rx="4" fill="#EFEFED" />
    <rect x="173" y="295" width="333" height="8" rx="4" fill="#EFEFED" />
    <rect x="173" y="309" width="310" height="8" rx="4" fill="#EFEFED" />
    <rect x="173" y="323" width="229" height="8" rx="4" fill="#EFEFED" />
    <rect x="173" y="385" width="318" height="8" rx="4" fill="#EFEFED" />
    <rect x="173" y="399" width="333" height="8" rx="4" fill="#EFEFED" />
    <rect x="173" y="413" width="310" height="8" rx="4" fill="#EFEFED" />
    <rect x="173" y="427" width="229" height="8" rx="4" fill="#EFEFED" />
    <rect x="173" y="475" width="52" height="8" rx="4" fill="#E8E7E4" />
    <rect x="173" y="489" width="318" height="8" rx="4" fill="#EFEFED" />
    <rect x="173" y="503" width="333" height="8" rx="4" fill="#EFEFED" />
    <rect x="173" y="517" width="310" height="8" rx="4" fill="#EFEFED" />
    <rect x="173" y="531" width="229" height="8" rx="4" fill="#EFEFED" />
    <rect x="64" y="387" width="82" height="8" rx="4" fill="#EFEFED" />
    <rect x="64" y="465" width="82" height="8" rx="4" fill="#EFEFED" />
    <rect x="54" y="489" width="52" height="8" rx="4" fill="#E8E7E4" />
    <rect x="64" y="503" width="70" height="8" rx="4" fill="#EFEFED" />
    <rect x="64" y="517" width="52" height="8" rx="4" fill="#EFEFED" />
    <rect x="64" y="531" width="70" height="8" rx="4" fill="#EFEFED" />
    <rect x="64" y="545" width="82" height="8" rx="4" fill="#EFEFED" />
    <path opacity="0.8"
      d="M55.9482 215.521V218.26H57.0908C57.5465 218.26 57.9014 218.139 58.1553 217.898C58.4124 217.658 58.541 217.321 58.541 216.888C58.541 216.455 58.4141 216.119 58.1602 215.882C57.9062 215.641 57.5498 215.521 57.0908 215.521H55.9482ZM54.9619 214.71H57.0908C57.9046 214.71 58.5215 214.896 58.9414 215.267C59.3613 215.634 59.5713 216.175 59.5713 216.888C59.5713 217.607 59.3613 218.151 58.9414 218.519C58.5247 218.886 57.9079 219.07 57.0908 219.07H55.9482V222H54.9619V214.71ZM63.7363 218.558C63.9902 218.623 64.2067 218.746 64.3857 218.929C64.5648 219.108 64.7878 219.467 65.0547 220.008L66.0459 222H64.9863L64.1172 220.159C63.8665 219.635 63.6403 219.298 63.4385 219.148C63.2399 218.995 62.9795 218.919 62.6572 218.919H61.7148V222H60.7236V214.71H62.7549C63.5557 214.71 64.1693 214.891 64.5957 215.252C65.0221 215.613 65.2354 216.136 65.2354 216.819C65.2354 217.301 65.1035 217.695 64.8398 218.001C64.5794 218.304 64.2116 218.489 63.7363 218.558ZM61.7148 215.521V218.108H62.7939C63.266 218.108 63.6175 218.003 63.8486 217.791C64.0798 217.579 64.1953 217.256 64.1953 216.819C64.1953 216.399 64.0716 216.079 63.8242 215.857C63.5801 215.633 63.2236 215.521 62.7549 215.521H61.7148ZM70.4697 218.362C70.4697 217.291 70.359 216.526 70.1377 216.067C69.9196 215.608 69.5599 215.379 69.0586 215.379C68.5605 215.379 68.2008 215.608 67.9795 216.067C67.7614 216.526 67.6523 217.291 67.6523 218.362C67.6523 219.43 67.7614 220.193 67.9795 220.652C68.2008 221.111 68.5605 221.341 69.0586 221.341C69.5599 221.341 69.9196 221.113 70.1377 220.657C70.359 220.198 70.4697 219.433 70.4697 218.362ZM71.5 218.362C71.5 219.632 71.2982 220.579 70.8945 221.204C70.4941 221.829 69.8822 222.142 69.0586 222.142C68.235 222.142 67.623 221.831 67.2227 221.209C66.8223 220.587 66.6221 219.638 66.6221 218.362C66.6221 217.09 66.8223 216.141 67.2227 215.516C67.6263 214.891 68.2383 214.578 69.0586 214.578C69.8822 214.578 70.4941 214.891 70.8945 215.516C71.2982 216.141 71.5 217.09 71.5 218.362ZM74.2051 221.189C75.0352 221.189 75.6146 220.986 75.9434 220.579C76.2721 220.169 76.4365 219.43 76.4365 218.362C76.4365 217.285 76.2721 216.543 75.9434 216.136C75.6178 215.726 75.0384 215.521 74.2051 215.521H73.7363V221.189H74.2051ZM74.2246 214.71C75.3379 214.71 76.1582 215.006 76.6855 215.599C77.2129 216.191 77.4766 217.112 77.4766 218.362C77.4766 219.606 77.2129 220.524 76.6855 221.116C76.1582 221.705 75.3379 222 74.2246 222H72.7451V214.71H74.2246ZM78.8193 219.202V214.71H79.8105V219.651C79.8105 220.006 79.8203 220.26 79.8398 220.413C79.8594 220.563 79.8936 220.678 79.9424 220.76C80.0465 220.952 80.1963 221.097 80.3916 221.194C80.5902 221.292 80.8294 221.341 81.1094 221.341C81.3926 221.341 81.6318 221.292 81.8271 221.194C82.0225 221.097 82.1738 220.952 82.2812 220.76C82.3301 220.678 82.3643 220.563 82.3838 220.413C82.4033 220.263 82.4131 220.013 82.4131 219.661V214.71H83.3994V219.202C83.3994 219.948 83.3522 220.478 83.2578 220.794C83.1667 221.106 83.0072 221.365 82.7793 221.57C82.5645 221.762 82.3187 221.906 82.042 222C81.7653 222.094 81.4544 222.142 81.1094 222.142C80.7676 222.142 80.4583 222.094 80.1816 222C79.9049 221.906 79.6576 221.762 79.4395 221.57C79.2148 221.368 79.0553 221.108 78.9609 220.789C78.8665 220.467 78.8193 219.938 78.8193 219.202ZM89.3662 221.741C89.1156 221.875 88.8584 221.974 88.5947 222.039C88.3311 222.107 88.0511 222.142 87.7549 222.142C86.8206 222.142 86.0947 221.811 85.5771 221.15C85.0628 220.49 84.8057 219.56 84.8057 218.362C84.8057 217.171 85.0645 216.243 85.582 215.579C86.1029 214.912 86.8271 214.578 87.7549 214.578C88.0511 214.578 88.3311 214.612 88.5947 214.681C88.8584 214.746 89.1156 214.845 89.3662 214.979V215.989C89.1253 215.791 88.8665 215.639 88.5898 215.535C88.3132 215.431 88.0348 215.379 87.7549 215.379C87.1136 215.379 86.6335 215.626 86.3145 216.121C85.9954 216.616 85.8359 217.363 85.8359 218.362C85.8359 219.358 85.9954 220.104 86.3145 220.599C86.6335 221.093 87.1136 221.341 87.7549 221.341C88.0413 221.341 88.3213 221.289 88.5947 221.185C88.8714 221.08 89.1286 220.929 89.3662 220.73V221.741ZM90.3818 214.71H95.9434V215.54H93.6631V222H92.6719V215.54H90.3818V214.71ZM106.622 218.362C106.622 217.291 106.511 216.526 106.29 216.067C106.072 215.608 105.712 215.379 105.211 215.379C104.713 215.379 104.353 215.608 104.132 216.067C103.914 216.526 103.805 217.291 103.805 218.362C103.805 219.43 103.914 220.193 104.132 220.652C104.353 221.111 104.713 221.341 105.211 221.341C105.712 221.341 106.072 221.113 106.29 220.657C106.511 220.198 106.622 219.433 106.622 218.362ZM107.652 218.362C107.652 219.632 107.451 220.579 107.047 221.204C106.646 221.829 106.035 222.142 105.211 222.142C104.387 222.142 103.775 221.831 103.375 221.209C102.975 220.587 102.774 219.638 102.774 218.362C102.774 217.09 102.975 216.141 103.375 215.516C103.779 214.891 104.391 214.578 105.211 214.578C106.035 214.578 106.646 214.891 107.047 215.516C107.451 216.141 107.652 217.09 107.652 218.362ZM111.236 221.17L112.95 214.71H113.971L111.837 222H110.641L108.507 214.71H109.527L111.236 221.17ZM115.216 214.71H119.542V215.54H116.202V217.698H119.396V218.528H116.202V221.17H119.635V222H115.216V214.71ZM123.99 218.558C124.244 218.623 124.461 218.746 124.64 218.929C124.819 219.108 125.042 219.467 125.309 220.008L126.3 222H125.24L124.371 220.159C124.12 219.635 123.894 219.298 123.692 219.148C123.494 218.995 123.233 218.919 122.911 218.919H121.969V222H120.978V214.71H123.009C123.81 214.71 124.423 214.891 124.85 215.252C125.276 215.613 125.489 216.136 125.489 216.819C125.489 217.301 125.357 217.695 125.094 218.001C124.833 218.304 124.465 218.489 123.99 218.558ZM121.969 215.521V218.108H123.048C123.52 218.108 123.871 218.003 124.103 217.791C124.334 217.579 124.449 217.256 124.449 216.819C124.449 216.399 124.326 216.079 124.078 215.857C123.834 215.633 123.478 215.521 123.009 215.521H121.969ZM129.312 221.17L131.026 214.71H132.047L129.913 222H128.717L126.583 214.71H127.604L129.312 221.17ZM133.312 214.71H137.359V215.54H135.831V221.17H137.359V222H133.312V221.17H134.84V215.54H133.312V214.71ZM139.317 214.71H143.644V215.54H140.304V217.698H143.497V218.528H140.304V221.17H143.736V222H139.317V214.71ZM144.381 214.71H145.343L146.041 220.628L146.871 216.712H147.901L148.741 220.638L149.439 214.71H150.401L149.312 222H148.38L147.389 217.669L146.402 222H145.47L144.381 214.71Z"
      fill="#0C1D31" />
    <path opacity="0.8"
      d="M526.821 221.17H530.171V222H525.742V221.17C526.351 220.529 526.883 219.962 527.339 219.471C527.795 218.979 528.109 218.632 528.281 218.431C528.607 218.034 528.826 217.713 528.94 217.469C529.054 217.221 529.111 216.969 529.111 216.712C529.111 216.305 528.991 215.986 528.75 215.755C528.512 215.524 528.185 215.408 527.769 215.408C527.472 215.408 527.161 215.462 526.836 215.569C526.51 215.677 526.165 215.84 525.801 216.058V215.062C526.136 214.902 526.465 214.782 526.787 214.7C527.113 214.619 527.433 214.578 527.749 214.578C528.462 214.578 529.035 214.769 529.468 215.149C529.904 215.527 530.122 216.023 530.122 216.639C530.122 216.951 530.049 217.264 529.902 217.576C529.759 217.889 529.525 218.234 529.199 218.611C529.017 218.823 528.752 219.116 528.403 219.49C528.058 219.865 527.531 220.424 526.821 221.17ZM537.471 214.71H538.789L540.049 218.421L541.318 214.71H542.642V222H541.729V215.56L540.43 219.402H539.683L538.379 215.56V222H537.471V214.71ZM544.058 214.71H548.105V215.54H546.577V221.17H548.105V222H544.058V221.17H545.586V215.54H544.058V214.71ZM549.78 214.71H551.03L553.491 220.711V214.71H554.443V222H553.193L550.732 215.999V222H549.78V214.71Z"
      fill="#0C1D31" />
  </g>
  <defs>
    <filter id="filter0_d_15383_44993" x="19.5" y="188.5" width="573" height="426"
      filterUnits="userSpaceOnUse" color-interpolation-filters="sRGB">
      <feFlood flood-opacity="0" result="BackgroundImageFix" />
      <feColorMatrix in="SourceAlpha" type="matrix"
        values="0 0 0 0 0 0 0 0 0 0 0 0 0 0 0 0 0 0 127 0" result="hardAlpha" />
      <feMorphology radius="40" operator="erode" in="SourceAlpha"
        result="effect1_dropShadow_15383_44993" />
      <feOffset dy="10" />
      <feGaussianBlur stdDeviation="30" />
      <feComposite in2="hardAlpha" operator="out" />
      <feColorMatrix type="matrix"
        values="0 0 0 0 0.0470588 0 0 0 0 0.113725 0 0 0 0 0.192157 0 0 0 0.6 0" />
      <feBlend mode="normal" in2="BackgroundImageFix" result="effect1_dropShadow_15383_44993" />
      <feBlend mode="normal" in="SourceGraphic" in2="effect1_dropShadow_15383_44993"
        result="shape" />
    </filter>
    <linearGradient id="paint0_linear_15383_44993" x1="306" y1="199" x2="306" y2="584"
      gradientUnits="userSpaceOnUse">
      <stop offset="0.302885" stop-color="white" />
      <stop offset="1" stop-color="#F6F6F5" stop-opacity="0.7" />
    </linearGradient>
  </defs>
</svg>