<svg width="549" height="386" viewBox="0 0 549 386" fill="none" xmlns="http://www.w3.org/2000/svg">
<rect x="0.5" y="0.5" width="548" height="385" fill="url(#paint0_linear_14985_63764)"/>
<rect x="0.5" y="0.5" width="548" height="385" stroke="#C3C6C9"/>
<rect x="14.5" y="54.5" width="52" height="8" rx="4" fill="#E8E7E4"/>
<rect x="133.5" y="68.5" width="52" height="8" rx="4" fill="#E8E7E4"/>
<rect x="133.5" y="172.5" width="52" height="8" rx="4" fill="#E8E7E4"/>
<rect x="14.5" y="132.5" width="52" height="8" rx="4" fill="#E8E7E4"/>
<rect x="14.5" y="210.5" width="52" height="8" rx="4" fill="#E8E7E4"/>
<rect x="24.5" y="68.5" width="70" height="8" rx="4" fill="#EFEFED"/>
<rect x="24.5" y="146.5" width="70" height="8" rx="4" fill="#EFEFED"/>
<rect x="24.5" y="224.5" width="70" height="8" rx="4" fill="#EFEFED"/>
<rect x="24.5" y="82.5" width="52" height="8" rx="4" fill="#EFEFED"/>
<rect x="24.5" y="160.5" width="52" height="8" rx="4" fill="#EFEFED"/>
<rect x="24.5" y="238.5" width="52" height="8" rx="4" fill="#EFEFED"/>
<rect x="24.5" y="96.5" width="70" height="8" rx="4" fill="#EFEFED"/>
<rect x="24.5" y="174.5" width="70" height="8" rx="4" fill="#EFEFED"/>
<rect x="24.5" y="252.5" width="70" height="8" rx="4" fill="#EFEFED"/>
<rect x="24.5" y="110.5" width="82" height="8" rx="4" fill="#EFEFED"/>
<rect x="133.5" y="82.5" width="318" height="8" rx="4" fill="#EFEFED"/>
<rect x="133.5" y="96.5" width="333" height="8" rx="4" fill="#EFEFED"/>
<rect x="133.5" y="110.5" width="310" height="8" rx="4" fill="#EFEFED"/>
<rect x="133.5" y="124.5" width="229" height="8" rx="4" fill="#EFEFED"/>
<rect x="133.5" y="186.5" width="318" height="8" rx="4" fill="#EFEFED"/>
<rect x="133.5" y="200.5" width="333" height="8" rx="4" fill="#EFEFED"/>
<rect x="133.5" y="214.5" width="310" height="8" rx="4" fill="#EFEFED"/>
<rect x="133.5" y="228.5" width="229" height="8" rx="4" fill="#EFEFED"/>
<rect x="133.5" y="276.5" width="52" height="8" rx="4" fill="#E8E7E4"/>
<rect x="133.5" y="290.5" width="318" height="8" rx="4" fill="#EFEFED"/>
<rect x="133.5" y="304.5" width="333" height="8" rx="4" fill="#EFEFED"/>
<rect x="133.5" y="318.5" width="310" height="8" rx="4" fill="#EFEFED"/>
<rect x="133.5" y="332.5" width="229" height="8" rx="4" fill="#EFEFED"/>
<rect x="24.5" y="188.5" width="82" height="8" rx="4" fill="#EFEFED"/>
<rect x="24.5" y="266.5" width="82" height="8" rx="4" fill="#EFEFED"/>
<rect x="14.5" y="290.5" width="52" height="8" rx="4" fill="#E8E7E4"/>
<rect x="24.5" y="304.5" width="70" height="8" rx="4" fill="#EFEFED"/>
<rect x="24.5" y="318.5" width="52" height="8" rx="4" fill="#EFEFED"/>
<rect x="24.5" y="332.5" width="70" height="8" rx="4" fill="#EFEFED"/>
<rect x="24.5" y="346.5" width="82" height="8" rx="4" fill="#EFEFED"/>
<path opacity="0.8" d="M16.4482 17.0205V19.7598H17.5908C18.0465 19.7598 18.4014 19.6393 18.6553 19.3984C18.9124 19.1576 19.041 18.8206 19.041 18.3877C19.041 17.9548 18.9141 17.6195 18.6602 17.3818C18.4062 17.141 18.0498 17.0205 17.5908 17.0205H16.4482ZM15.4619 16.21H17.5908C18.4046 16.21 19.0215 16.3955 19.4414 16.7666C19.8613 17.1344 20.0713 17.6748 20.0713 18.3877C20.0713 19.1071 19.8613 19.6507 19.4414 20.0186C19.0247 20.3864 18.4079 20.5703 17.5908 20.5703H16.4482V23.5H15.4619V16.21ZM24.2363 20.0576C24.4902 20.1227 24.7067 20.2464 24.8857 20.4287C25.0648 20.6077 25.2878 20.9674 25.5547 21.5078L26.5459 23.5H25.4863L24.6172 21.6592C24.3665 21.1351 24.1403 20.7982 23.9385 20.6484C23.7399 20.4954 23.4795 20.4189 23.1572 20.4189H22.2148V23.5H21.2236V16.21H23.2549C24.0557 16.21 24.6693 16.3906 25.0957 16.752C25.5221 17.1133 25.7354 17.6357 25.7354 18.3193C25.7354 18.8011 25.6035 19.195 25.3398 19.501C25.0794 19.8037 24.7116 19.9893 24.2363 20.0576ZM22.2148 17.0205V19.6084H23.2939C23.766 19.6084 24.1175 19.5026 24.3486 19.291C24.5798 19.0794 24.6953 18.7555 24.6953 18.3193C24.6953 17.8994 24.5716 17.5788 24.3242 17.3574C24.0801 17.1328 23.7236 17.0205 23.2549 17.0205H22.2148ZM30.9697 19.8623C30.9697 18.7913 30.859 18.0264 30.6377 17.5674C30.4196 17.1084 30.0599 16.8789 29.5586 16.8789C29.0605 16.8789 28.7008 17.1084 28.4795 17.5674C28.2614 18.0264 28.1523 18.7913 28.1523 19.8623C28.1523 20.93 28.2614 21.6934 28.4795 22.1523C28.7008 22.6113 29.0605 22.8408 29.5586 22.8408C30.0599 22.8408 30.4196 22.613 30.6377 22.1572C30.859 21.6982 30.9697 20.9333 30.9697 19.8623ZM32 19.8623C32 21.1318 31.7982 22.0791 31.3945 22.7041C30.9941 23.3291 30.3822 23.6416 29.5586 23.6416C28.735 23.6416 28.123 23.3307 27.7227 22.709C27.3223 22.0872 27.1221 21.1383 27.1221 19.8623C27.1221 18.5895 27.3223 17.6406 27.7227 17.0156C28.1263 16.3906 28.7383 16.0781 29.5586 16.0781C30.3822 16.0781 30.9941 16.3906 31.3945 17.0156C31.7982 17.6406 32 18.5895 32 19.8623ZM34.7051 22.6895C35.5352 22.6895 36.1146 22.486 36.4434 22.0791C36.7721 21.6689 36.9365 20.93 36.9365 19.8623C36.9365 18.7848 36.7721 18.0426 36.4434 17.6357C36.1178 17.2256 35.5384 17.0205 34.7051 17.0205H34.2363V22.6895H34.7051ZM34.7246 16.21C35.8379 16.21 36.6582 16.5062 37.1855 17.0986C37.7129 17.6911 37.9766 18.6123 37.9766 19.8623C37.9766 21.1058 37.7129 22.0238 37.1855 22.6162C36.6582 23.2054 35.8379 23.5 34.7246 23.5H33.2451V16.21H34.7246ZM39.3193 20.7021V16.21H40.3105V21.1514C40.3105 21.5062 40.3203 21.7601 40.3398 21.9131C40.3594 22.0628 40.3936 22.1784 40.4424 22.2598C40.5465 22.4518 40.6963 22.5967 40.8916 22.6943C41.0902 22.792 41.3294 22.8408 41.6094 22.8408C41.8926 22.8408 42.1318 22.792 42.3271 22.6943C42.5225 22.5967 42.6738 22.4518 42.7812 22.2598C42.8301 22.1784 42.8643 22.0628 42.8838 21.9131C42.9033 21.7633 42.9131 21.5127 42.9131 21.1611V16.21H43.8994V20.7021C43.8994 21.4476 43.8522 21.9782 43.7578 22.2939C43.6667 22.6064 43.5072 22.8652 43.2793 23.0703C43.0645 23.2624 42.8187 23.4056 42.542 23.5C42.2653 23.5944 41.9544 23.6416 41.6094 23.6416C41.2676 23.6416 40.9583 23.5944 40.6816 23.5C40.4049 23.4056 40.1576 23.2624 39.9395 23.0703C39.7148 22.8685 39.5553 22.6081 39.4609 22.2891C39.3665 21.9668 39.3193 21.4378 39.3193 20.7021ZM49.8662 23.2412C49.6156 23.3747 49.3584 23.474 49.0947 23.5391C48.8311 23.6074 48.5511 23.6416 48.2549 23.6416C47.3206 23.6416 46.5947 23.3112 46.0771 22.6504C45.5628 21.9896 45.3057 21.0602 45.3057 19.8623C45.3057 18.6709 45.5645 17.7432 46.082 17.0791C46.6029 16.4118 47.3271 16.0781 48.2549 16.0781C48.5511 16.0781 48.8311 16.1123 49.0947 16.1807C49.3584 16.2458 49.6156 16.3451 49.8662 16.4785V17.4893C49.6253 17.2907 49.3665 17.1393 49.0898 17.0352C48.8132 16.931 48.5348 16.8789 48.2549 16.8789C47.6136 16.8789 47.1335 17.1263 46.8145 17.6211C46.4954 18.1159 46.3359 18.863 46.3359 19.8623C46.3359 20.8584 46.4954 21.6038 46.8145 22.0986C47.1335 22.5934 47.6136 22.8408 48.2549 22.8408C48.5413 22.8408 48.8213 22.7887 49.0947 22.6846C49.3714 22.5804 49.6286 22.429 49.8662 22.2305V23.2412ZM50.8818 16.21H56.4434V17.04H54.1631V23.5H53.1719V17.04H50.8818V16.21ZM67.1221 19.8623C67.1221 18.7913 67.0114 18.0264 66.79 17.5674C66.5719 17.1084 66.2122 16.8789 65.7109 16.8789C65.2129 16.8789 64.8532 17.1084 64.6318 17.5674C64.4137 18.0264 64.3047 18.7913 64.3047 19.8623C64.3047 20.93 64.4137 21.6934 64.6318 22.1523C64.8532 22.6113 65.2129 22.8408 65.7109 22.8408C66.2122 22.8408 66.5719 22.613 66.79 22.1572C67.0114 21.6982 67.1221 20.9333 67.1221 19.8623ZM68.1523 19.8623C68.1523 21.1318 67.9505 22.0791 67.5469 22.7041C67.1465 23.3291 66.5345 23.6416 65.7109 23.6416C64.8874 23.6416 64.2754 23.3307 63.875 22.709C63.4746 22.0872 63.2744 21.1383 63.2744 19.8623C63.2744 18.5895 63.4746 17.6406 63.875 17.0156C64.2786 16.3906 64.8906 16.0781 65.7109 16.0781C66.5345 16.0781 67.1465 16.3906 67.5469 17.0156C67.9505 17.6406 68.1523 18.5895 68.1523 19.8623ZM71.7363 22.6699L73.4502 16.21H74.4707L72.3369 23.5H71.1406L69.0068 16.21H70.0273L71.7363 22.6699ZM75.7158 16.21H80.042V17.04H76.7021V19.1982H79.8955V20.0283H76.7021V22.6699H80.1348V23.5H75.7158V16.21ZM84.4902 20.0576C84.7441 20.1227 84.9606 20.2464 85.1396 20.4287C85.3187 20.6077 85.5417 20.9674 85.8086 21.5078L86.7998 23.5H85.7402L84.8711 21.6592C84.6204 21.1351 84.3942 20.7982 84.1924 20.6484C83.9938 20.4954 83.7334 20.4189 83.4111 20.4189H82.4688V23.5H81.4775V16.21H83.5088C84.3096 16.21 84.9232 16.3906 85.3496 16.752C85.776 17.1133 85.9893 17.6357 85.9893 18.3193C85.9893 18.8011 85.8574 19.195 85.5938 19.501C85.3333 19.8037 84.9655 19.9893 84.4902 20.0576ZM82.4688 17.0205V19.6084H83.5479C84.0199 19.6084 84.3714 19.5026 84.6025 19.291C84.8337 19.0794 84.9492 18.7555 84.9492 18.3193C84.9492 17.8994 84.8255 17.5788 84.5781 17.3574C84.334 17.1328 83.9775 17.0205 83.5088 17.0205H82.4688ZM89.8125 22.6699L91.5264 16.21H92.5469L90.4131 23.5H89.2168L87.083 16.21H88.1035L89.8125 22.6699ZM93.8115 16.21H97.8594V17.04H96.3311V22.6699H97.8594V23.5H93.8115V22.6699H95.3398V17.04H93.8115V16.21ZM99.8174 16.21H104.144V17.04H100.804V19.1982H103.997V20.0283H100.804V22.6699H104.236V23.5H99.8174V16.21ZM104.881 16.21H105.843L106.541 22.1279L107.371 18.2119H108.401L109.241 22.1377L109.939 16.21H110.901L109.812 23.5H108.88L107.889 19.1689L106.902 23.5H105.97L104.881 16.21Z" fill="#0C1D31"/>
<path opacity="0.8" d="M499.321 22.6699H502.671V23.5H498.242V22.6699C498.851 22.0286 499.383 21.4622 499.839 20.9707C500.295 20.4792 500.609 20.1325 500.781 19.9307C501.107 19.5335 501.326 19.2129 501.44 18.9688C501.554 18.7214 501.611 18.4691 501.611 18.2119C501.611 17.805 501.491 17.486 501.25 17.2549C501.012 17.0238 500.685 16.9082 500.269 16.9082C499.972 16.9082 499.661 16.9619 499.336 17.0693C499.01 17.1768 498.665 17.3395 498.301 17.5576V16.5615C498.636 16.402 498.965 16.2816 499.287 16.2002C499.613 16.1188 499.933 16.0781 500.249 16.0781C500.962 16.0781 501.535 16.2686 501.968 16.6494C502.404 17.027 502.622 17.5234 502.622 18.1387C502.622 18.4512 502.549 18.7637 502.402 19.0762C502.259 19.3887 502.025 19.7337 501.699 20.1113C501.517 20.3229 501.252 20.6159 500.903 20.9902C500.558 21.3646 500.031 21.9245 499.321 22.6699ZM509.971 16.21H511.289L512.549 19.9209L513.818 16.21H515.142V23.5H514.229V17.0596L512.93 20.9023H512.183L510.879 17.0596V23.5H509.971V16.21ZM516.558 16.21H520.605V17.04H519.077V22.6699H520.605V23.5H516.558V22.6699H518.086V17.04H516.558V16.21ZM522.28 16.21H523.53L525.991 22.2109V16.21H526.943V23.5H525.693L523.232 17.499V23.5H522.28V16.21Z" fill="#0C1D31"/>
<defs>
<linearGradient id="paint0_linear_14985_63764" x1="274.5" y1="0.5" x2="274.5" y2="385.5" gradientUnits="userSpaceOnUse">
<stop offset="0.302885" stop-color="white"/>
<stop offset="1" stop-color="#F6F6F5" stop-opacity="0.7"/>
</linearGradient>
</defs>
</svg>
