<svg width="307" height="531" viewBox="0 0 307 531" fill="none" xmlns="http://www.w3.org/2000/svg">
  <rect opacity="0.7" x="199" y="-9" width="80" height="80" fill="#F6F6F5" />
  <rect opacity="0.7" y="455" width="40" height="40" fill="#F6F6F5" />
  <rect opacity="0.7" x="199" y="455" width="80" height="80" fill="#F6F6F5" />
  <rect opacity="0.7" x="80" y="31" width="40" height="40" fill="#F6F6F5" />
  <path d="M279 -129L279 30" stroke="#C3C6C9" />
  <path d="M200 -9L200 70" stroke="#C3C6C9" />
  <path d="M120 31L120 70" stroke="#C3C6C9" />
  <path d="M120 455L120 494" stroke="#C3C6C9" />
  <path d="M176.495 374.496L215.495 374.496" stroke="#C3C6C9" />
  <path d="M177.495 150.496L216.495 150.496" stroke="#C3C6C9" />
  <path d="M64 70L240 70" stroke="#C3C6C9" />
  <path d="M200 455L200 575" stroke="#C3C6C9" />
  <path d="M40 455L40 495" stroke="#C3C6C9" />
  <path d="M0 455H40" stroke="#C3C6C9" />
  <path d="M41 455H240" stroke="#C3C6C9" />
  <path d="M279 495L279 680" stroke="#C3C6C9" />
  <g filter="url(#filter0_d_15440_2053)">
    <rect x="40" y="70" width="532" height="385" fill="url(#paint0_linear_15440_2053)"
      shape-rendering="crispEdges" />
    <rect x="40" y="70" width="532" height="385" stroke="#C3C6C9" shape-rendering="crispEdges" />
    <rect x="54" y="124" width="52" height="8" rx="4" fill="#E8E7E4" />
    <rect x="173" y="138" width="52" height="8" rx="4" fill="#E8E7E4" />
    <rect x="173" y="242" width="52" height="8" rx="4" fill="#E8E7E4" />
    <rect x="54" y="202" width="52" height="8" rx="4" fill="#E8E7E4" />
    <rect x="54" y="280" width="52" height="8" rx="4" fill="#E8E7E4" />
    <rect x="64" y="138" width="70" height="8" rx="4" fill="#EFEFED" />
    <rect x="64" y="216" width="70" height="8" rx="4" fill="#EFEFED" />
    <rect x="64" y="294" width="70" height="8" rx="4" fill="#EFEFED" />
    <rect x="64" y="152" width="52" height="8" rx="4" fill="#EFEFED" />
    <rect x="64" y="230" width="52" height="8" rx="4" fill="#EFEFED" />
    <rect x="64" y="308" width="52" height="8" rx="4" fill="#EFEFED" />
    <rect x="64" y="166" width="70" height="8" rx="4" fill="#EFEFED" />
    <rect x="64" y="244" width="70" height="8" rx="4" fill="#EFEFED" />
    <rect x="64" y="322" width="70" height="8" rx="4" fill="#EFEFED" />
    <rect x="64" y="180" width="82" height="8" rx="4" fill="#EFEFED" />
    <rect x="173" y="152" width="318" height="8" rx="4" fill="#EFEFED" />
    <rect x="173" y="166" width="333" height="8" rx="4" fill="#EFEFED" />
    <rect x="173" y="180" width="310" height="8" rx="4" fill="#EFEFED" />
    <rect x="173" y="194" width="229" height="8" rx="4" fill="#EFEFED" />
    <rect x="173" y="256" width="318" height="8" rx="4" fill="#EFEFED" />
    <rect x="173" y="270" width="333" height="8" rx="4" fill="#EFEFED" />
    <rect x="173" y="284" width="310" height="8" rx="4" fill="#EFEFED" />
    <rect x="173" y="298" width="229" height="8" rx="4" fill="#EFEFED" />
    <rect x="173" y="346" width="52" height="8" rx="4" fill="#E8E7E4" />
    <rect x="173" y="360" width="318" height="8" rx="4" fill="#EFEFED" />
    <rect x="173" y="374" width="333" height="8" rx="4" fill="#EFEFED" />
    <rect x="173" y="388" width="310" height="8" rx="4" fill="#EFEFED" />
    <rect x="173" y="402" width="229" height="8" rx="4" fill="#EFEFED" />
    <rect x="64" y="258" width="82" height="8" rx="4" fill="#EFEFED" />
    <rect x="64" y="336" width="82" height="8" rx="4" fill="#EFEFED" />
    <rect x="54" y="360" width="52" height="8" rx="4" fill="#E8E7E4" />
    <rect x="64" y="374" width="70" height="8" rx="4" fill="#EFEFED" />
    <rect x="64" y="388" width="52" height="8" rx="4" fill="#EFEFED" />
    <rect x="64" y="402" width="70" height="8" rx="4" fill="#EFEFED" />
    <rect x="64" y="416" width="82" height="8" rx="4" fill="#EFEFED" />
    <path opacity="0.8"
      d="M55.9482 86.5205V89.2598H57.0908C57.5465 89.2598 57.9014 89.1393 58.1553 88.8984C58.4124 88.6576 58.541 88.3206 58.541 87.8877C58.541 87.4548 58.4141 87.1195 58.1602 86.8818C57.9062 86.641 57.5498 86.5205 57.0908 86.5205H55.9482ZM54.9619 85.71H57.0908C57.9046 85.71 58.5215 85.8955 58.9414 86.2666C59.3613 86.6344 59.5713 87.1748 59.5713 87.8877C59.5713 88.6071 59.3613 89.1507 58.9414 89.5186C58.5247 89.8864 57.9079 90.0703 57.0908 90.0703H55.9482V93H54.9619V85.71ZM63.7363 89.5576C63.9902 89.6227 64.2067 89.7464 64.3857 89.9287C64.5648 90.1077 64.7878 90.4674 65.0547 91.0078L66.0459 93H64.9863L64.1172 91.1592C63.8665 90.6351 63.6403 90.2982 63.4385 90.1484C63.2399 89.9954 62.9795 89.9189 62.6572 89.9189H61.7148V93H60.7236V85.71H62.7549C63.5557 85.71 64.1693 85.8906 64.5957 86.252C65.0221 86.6133 65.2354 87.1357 65.2354 87.8193C65.2354 88.3011 65.1035 88.695 64.8398 89.001C64.5794 89.3037 64.2116 89.4893 63.7363 89.5576ZM61.7148 86.5205V89.1084H62.7939C63.266 89.1084 63.6175 89.0026 63.8486 88.791C64.0798 88.5794 64.1953 88.2555 64.1953 87.8193C64.1953 87.3994 64.0716 87.0788 63.8242 86.8574C63.5801 86.6328 63.2236 86.5205 62.7549 86.5205H61.7148ZM70.4697 89.3623C70.4697 88.2913 70.359 87.5264 70.1377 87.0674C69.9196 86.6084 69.5599 86.3789 69.0586 86.3789C68.5605 86.3789 68.2008 86.6084 67.9795 87.0674C67.7614 87.5264 67.6523 88.2913 67.6523 89.3623C67.6523 90.43 67.7614 91.1934 67.9795 91.6523C68.2008 92.1113 68.5605 92.3408 69.0586 92.3408C69.5599 92.3408 69.9196 92.113 70.1377 91.6572C70.359 91.1982 70.4697 90.4333 70.4697 89.3623ZM71.5 89.3623C71.5 90.6318 71.2982 91.5791 70.8945 92.2041C70.4941 92.8291 69.8822 93.1416 69.0586 93.1416C68.235 93.1416 67.623 92.8307 67.2227 92.209C66.8223 91.5872 66.6221 90.6383 66.6221 89.3623C66.6221 88.0895 66.8223 87.1406 67.2227 86.5156C67.6263 85.8906 68.2383 85.5781 69.0586 85.5781C69.8822 85.5781 70.4941 85.8906 70.8945 86.5156C71.2982 87.1406 71.5 88.0895 71.5 89.3623ZM74.2051 92.1895C75.0352 92.1895 75.6146 91.986 75.9434 91.5791C76.2721 91.1689 76.4365 90.43 76.4365 89.3623C76.4365 88.2848 76.2721 87.5426 75.9434 87.1357C75.6178 86.7256 75.0384 86.5205 74.2051 86.5205H73.7363V92.1895H74.2051ZM74.2246 85.71C75.3379 85.71 76.1582 86.0062 76.6855 86.5986C77.2129 87.1911 77.4766 88.1123 77.4766 89.3623C77.4766 90.6058 77.2129 91.5238 76.6855 92.1162C76.1582 92.7054 75.3379 93 74.2246 93H72.7451V85.71H74.2246ZM78.8193 90.2021V85.71H79.8105V90.6514C79.8105 91.0062 79.8203 91.2601 79.8398 91.4131C79.8594 91.5628 79.8936 91.6784 79.9424 91.7598C80.0465 91.9518 80.1963 92.0967 80.3916 92.1943C80.5902 92.292 80.8294 92.3408 81.1094 92.3408C81.3926 92.3408 81.6318 92.292 81.8271 92.1943C82.0225 92.0967 82.1738 91.9518 82.2812 91.7598C82.3301 91.6784 82.3643 91.5628 82.3838 91.4131C82.4033 91.2633 82.4131 91.0127 82.4131 90.6611V85.71H83.3994V90.2021C83.3994 90.9476 83.3522 91.4782 83.2578 91.7939C83.1667 92.1064 83.0072 92.3652 82.7793 92.5703C82.5645 92.7624 82.3187 92.9056 82.042 93C81.7653 93.0944 81.4544 93.1416 81.1094 93.1416C80.7676 93.1416 80.4583 93.0944 80.1816 93C79.9049 92.9056 79.6576 92.7624 79.4395 92.5703C79.2148 92.3685 79.0553 92.1081 78.9609 91.7891C78.8665 91.4668 78.8193 90.9378 78.8193 90.2021ZM89.3662 92.7412C89.1156 92.8747 88.8584 92.974 88.5947 93.0391C88.3311 93.1074 88.0511 93.1416 87.7549 93.1416C86.8206 93.1416 86.0947 92.8112 85.5771 92.1504C85.0628 91.4896 84.8057 90.5602 84.8057 89.3623C84.8057 88.1709 85.0645 87.2432 85.582 86.5791C86.1029 85.9118 86.8271 85.5781 87.7549 85.5781C88.0511 85.5781 88.3311 85.6123 88.5947 85.6807C88.8584 85.7458 89.1156 85.8451 89.3662 85.9785V86.9893C89.1253 86.7907 88.8665 86.6393 88.5898 86.5352C88.3132 86.431 88.0348 86.3789 87.7549 86.3789C87.1136 86.3789 86.6335 86.6263 86.3145 87.1211C85.9954 87.6159 85.8359 88.363 85.8359 89.3623C85.8359 90.3584 85.9954 91.1038 86.3145 91.5986C86.6335 92.0934 87.1136 92.3408 87.7549 92.3408C88.0413 92.3408 88.3213 92.2887 88.5947 92.1846C88.8714 92.0804 89.1286 91.929 89.3662 91.7305V92.7412ZM90.3818 85.71H95.9434V86.54H93.6631V93H92.6719V86.54H90.3818V85.71ZM106.622 89.3623C106.622 88.2913 106.511 87.5264 106.29 87.0674C106.072 86.6084 105.712 86.3789 105.211 86.3789C104.713 86.3789 104.353 86.6084 104.132 87.0674C103.914 87.5264 103.805 88.2913 103.805 89.3623C103.805 90.43 103.914 91.1934 104.132 91.6523C104.353 92.1113 104.713 92.3408 105.211 92.3408C105.712 92.3408 106.072 92.113 106.29 91.6572C106.511 91.1982 106.622 90.4333 106.622 89.3623ZM107.652 89.3623C107.652 90.6318 107.451 91.5791 107.047 92.2041C106.646 92.8291 106.035 93.1416 105.211 93.1416C104.387 93.1416 103.775 92.8307 103.375 92.209C102.975 91.5872 102.774 90.6383 102.774 89.3623C102.774 88.0895 102.975 87.1406 103.375 86.5156C103.779 85.8906 104.391 85.5781 105.211 85.5781C106.035 85.5781 106.646 85.8906 107.047 86.5156C107.451 87.1406 107.652 88.0895 107.652 89.3623ZM111.236 92.1699L112.95 85.71H113.971L111.837 93H110.641L108.507 85.71H109.527L111.236 92.1699ZM115.216 85.71H119.542V86.54H116.202V88.6982H119.396V89.5283H116.202V92.1699H119.635V93H115.216V85.71ZM123.99 89.5576C124.244 89.6227 124.461 89.7464 124.64 89.9287C124.819 90.1077 125.042 90.4674 125.309 91.0078L126.3 93H125.24L124.371 91.1592C124.12 90.6351 123.894 90.2982 123.692 90.1484C123.494 89.9954 123.233 89.9189 122.911 89.9189H121.969V93H120.978V85.71H123.009C123.81 85.71 124.423 85.8906 124.85 86.252C125.276 86.6133 125.489 87.1357 125.489 87.8193C125.489 88.3011 125.357 88.695 125.094 89.001C124.833 89.3037 124.465 89.4893 123.99 89.5576ZM121.969 86.5205V89.1084H123.048C123.52 89.1084 123.871 89.0026 124.103 88.791C124.334 88.5794 124.449 88.2555 124.449 87.8193C124.449 87.3994 124.326 87.0788 124.078 86.8574C123.834 86.6328 123.478 86.5205 123.009 86.5205H121.969ZM129.312 92.1699L131.026 85.71H132.047L129.913 93H128.717L126.583 85.71H127.604L129.312 92.1699ZM133.312 85.71H137.359V86.54H135.831V92.1699H137.359V93H133.312V92.1699H134.84V86.54H133.312V85.71ZM139.317 85.71H143.644V86.54H140.304V88.6982H143.497V89.5283H140.304V92.1699H143.736V93H139.317V85.71ZM144.381 85.71H145.343L146.041 91.6279L146.871 87.7119H147.901L148.741 91.6377L149.439 85.71H150.401L149.312 93H148.38L147.389 88.6689L146.402 93H145.47L144.381 85.71Z"
      fill="#0C1D31" />
    <path opacity="0.8"
      d="M168.821 92.1699H172.171V93H167.742V92.1699C168.351 91.5286 168.883 90.9622 169.339 90.4707C169.795 89.9792 170.109 89.6325 170.281 89.4307C170.607 89.0335 170.826 88.7129 170.94 88.4688C171.054 88.2214 171.111 87.9691 171.111 87.7119C171.111 87.305 170.991 86.986 170.75 86.7549C170.512 86.5238 170.185 86.4082 169.769 86.4082C169.472 86.4082 169.161 86.4619 168.836 86.5693C168.51 86.6768 168.165 86.8395 167.801 87.0576V86.0615C168.136 85.902 168.465 85.7816 168.787 85.7002C169.113 85.6188 169.433 85.5781 169.749 85.5781C170.462 85.5781 171.035 85.7686 171.468 86.1494C171.904 86.527 172.122 87.0234 172.122 87.6387C172.122 87.9512 172.049 88.2637 171.902 88.5762C171.759 88.8887 171.525 89.2337 171.199 89.6113C171.017 89.8229 170.752 90.1159 170.403 90.4902C170.058 90.8646 169.531 91.4245 168.821 92.1699ZM179.471 85.71H180.789L182.049 89.4209L183.318 85.71H184.642V93H183.729V86.5596L182.43 90.4023H181.683L180.379 86.5596V93H179.471V85.71ZM186.058 85.71H190.105V86.54H188.577V92.1699H190.105V93H186.058V92.1699H187.586V86.54H186.058V85.71ZM191.78 85.71H193.03L195.491 91.7109V85.71H196.443V93H195.193L192.732 86.999V93H191.78V85.71Z"
      fill="#0C1D31" />
  </g>
  <defs>
    <filter id="filter0_d_15440_2053" x="19.5" y="59.5" width="573" height="426"
      filterUnits="userSpaceOnUse" color-interpolation-filters="sRGB">
      <feFlood flood-opacity="0" result="BackgroundImageFix" />
      <feColorMatrix in="SourceAlpha" type="matrix"
        values="0 0 0 0 0 0 0 0 0 0 0 0 0 0 0 0 0 0 127 0" result="hardAlpha" />
      <feMorphology radius="40" operator="erode" in="SourceAlpha"
        result="effect1_dropShadow_15440_2053" />
      <feOffset dy="10" />
      <feGaussianBlur stdDeviation="30" />
      <feComposite in2="hardAlpha" operator="out" />
      <feColorMatrix type="matrix"
        values="0 0 0 0 0.0470588 0 0 0 0 0.113725 0 0 0 0 0.192157 0 0 0 0.6 0" />
      <feBlend mode="normal" in2="BackgroundImageFix" result="effect1_dropShadow_15440_2053" />
      <feBlend mode="normal" in="SourceGraphic" in2="effect1_dropShadow_15440_2053" result="shape" />
    </filter>
    <linearGradient id="paint0_linear_15440_2053" x1="306" y1="70" x2="306" y2="455"
      gradientUnits="userSpaceOnUse">
      <stop offset="0.302885" stop-color="white" />
      <stop offset="1" stop-color="#F6F6F5" stop-opacity="0.7" />
    </linearGradient>
  </defs>
</svg>