<svg width="573" height="426" viewBox="0 0 573 426" fill="none" xmlns="http://www.w3.org/2000/svg">
<g filter="url(#filter0_d_15383_45015)">
<rect x="20.5" y="10.5" width="532" height="385" fill="url(#paint0_linear_15383_45015)" shape-rendering="crispEdges"/>
<rect x="20.5" y="10.5" width="532" height="385" stroke="#C3C6C9" shape-rendering="crispEdges"/>
<rect x="34.5" y="64.5" width="52" height="8" rx="4" fill="#E8E7E4"/>
<rect x="153.5" y="78.5" width="52" height="8" rx="4" fill="#E8E7E4"/>
<rect x="153.5" y="182.5" width="52" height="8" rx="4" fill="#E8E7E4"/>
<rect x="34.5" y="142.5" width="52" height="8" rx="4" fill="#E8E7E4"/>
<rect x="34.5" y="220.5" width="52" height="8" rx="4" fill="#E8E7E4"/>
<rect x="44.5" y="78.5" width="70" height="8" rx="4" fill="#EFEFED"/>
<rect x="44.5" y="156.5" width="70" height="8" rx="4" fill="#EFEFED"/>
<rect x="44.5" y="234.5" width="70" height="8" rx="4" fill="#EFEFED"/>
<rect x="44.5" y="92.5" width="52" height="8" rx="4" fill="#EFEFED"/>
<rect x="44.5" y="170.5" width="52" height="8" rx="4" fill="#EFEFED"/>
<rect x="44.5" y="248.5" width="52" height="8" rx="4" fill="#EFEFED"/>
<rect x="44.5" y="106.5" width="70" height="8" rx="4" fill="#EFEFED"/>
<rect x="44.5" y="184.5" width="70" height="8" rx="4" fill="#EFEFED"/>
<rect x="44.5" y="262.5" width="70" height="8" rx="4" fill="#EFEFED"/>
<rect x="44.5" y="120.5" width="82" height="8" rx="4" fill="#EFEFED"/>
<rect x="153.5" y="92.5" width="318" height="8" rx="4" fill="#EFEFED"/>
<rect x="153.5" y="106.5" width="333" height="8" rx="4" fill="#EFEFED"/>
<rect x="153.5" y="120.5" width="310" height="8" rx="4" fill="#EFEFED"/>
<rect x="153.5" y="134.5" width="229" height="8" rx="4" fill="#EFEFED"/>
<rect x="153.5" y="196.5" width="318" height="8" rx="4" fill="#EFEFED"/>
<rect x="153.5" y="210.5" width="333" height="8" rx="4" fill="#EFEFED"/>
<rect x="153.5" y="224.5" width="310" height="8" rx="4" fill="#EFEFED"/>
<rect x="153.5" y="238.5" width="229" height="8" rx="4" fill="#EFEFED"/>
<rect x="153.5" y="286.5" width="52" height="8" rx="4" fill="#E8E7E4"/>
<rect x="153.5" y="300.5" width="318" height="8" rx="4" fill="#EFEFED"/>
<rect x="153.5" y="314.5" width="333" height="8" rx="4" fill="#EFEFED"/>
<rect x="153.5" y="328.5" width="310" height="8" rx="4" fill="#EFEFED"/>
<rect x="153.5" y="342.5" width="229" height="8" rx="4" fill="#EFEFED"/>
<rect x="44.5" y="198.5" width="82" height="8" rx="4" fill="#EFEFED"/>
<rect x="44.5" y="276.5" width="82" height="8" rx="4" fill="#EFEFED"/>
<rect x="34.5" y="300.5" width="52" height="8" rx="4" fill="#E8E7E4"/>
<rect x="44.5" y="314.5" width="70" height="8" rx="4" fill="#EFEFED"/>
<rect x="44.5" y="328.5" width="52" height="8" rx="4" fill="#EFEFED"/>
<rect x="44.5" y="342.5" width="70" height="8" rx="4" fill="#EFEFED"/>
<rect x="44.5" y="356.5" width="82" height="8" rx="4" fill="#EFEFED"/>
<path opacity="0.8" d="M36.4482 27.0205V29.7598H37.5908C38.0465 29.7598 38.4014 29.6393 38.6553 29.3984C38.9124 29.1576 39.041 28.8206 39.041 28.3877C39.041 27.9548 38.9141 27.6195 38.6602 27.3818C38.4062 27.141 38.0498 27.0205 37.5908 27.0205H36.4482ZM35.4619 26.21H37.5908C38.4046 26.21 39.0215 26.3955 39.4414 26.7666C39.8613 27.1344 40.0713 27.6748 40.0713 28.3877C40.0713 29.1071 39.8613 29.6507 39.4414 30.0186C39.0247 30.3864 38.4079 30.5703 37.5908 30.5703H36.4482V33.5H35.4619V26.21ZM44.2363 30.0576C44.4902 30.1227 44.7067 30.2464 44.8857 30.4287C45.0648 30.6077 45.2878 30.9674 45.5547 31.5078L46.5459 33.5H45.4863L44.6172 31.6592C44.3665 31.1351 44.1403 30.7982 43.9385 30.6484C43.7399 30.4954 43.4795 30.4189 43.1572 30.4189H42.2148V33.5H41.2236V26.21H43.2549C44.0557 26.21 44.6693 26.3906 45.0957 26.752C45.5221 27.1133 45.7354 27.6357 45.7354 28.3193C45.7354 28.8011 45.6035 29.195 45.3398 29.501C45.0794 29.8037 44.7116 29.9893 44.2363 30.0576ZM42.2148 27.0205V29.6084H43.2939C43.766 29.6084 44.1175 29.5026 44.3486 29.291C44.5798 29.0794 44.6953 28.7555 44.6953 28.3193C44.6953 27.8994 44.5716 27.5788 44.3242 27.3574C44.0801 27.1328 43.7236 27.0205 43.2549 27.0205H42.2148ZM50.9697 29.8623C50.9697 28.7913 50.859 28.0264 50.6377 27.5674C50.4196 27.1084 50.0599 26.8789 49.5586 26.8789C49.0605 26.8789 48.7008 27.1084 48.4795 27.5674C48.2614 28.0264 48.1523 28.7913 48.1523 29.8623C48.1523 30.93 48.2614 31.6934 48.4795 32.1523C48.7008 32.6113 49.0605 32.8408 49.5586 32.8408C50.0599 32.8408 50.4196 32.613 50.6377 32.1572C50.859 31.6982 50.9697 30.9333 50.9697 29.8623ZM52 29.8623C52 31.1318 51.7982 32.0791 51.3945 32.7041C50.9941 33.3291 50.3822 33.6416 49.5586 33.6416C48.735 33.6416 48.123 33.3307 47.7227 32.709C47.3223 32.0872 47.1221 31.1383 47.1221 29.8623C47.1221 28.5895 47.3223 27.6406 47.7227 27.0156C48.1263 26.3906 48.7383 26.0781 49.5586 26.0781C50.3822 26.0781 50.9941 26.3906 51.3945 27.0156C51.7982 27.6406 52 28.5895 52 29.8623ZM54.7051 32.6895C55.5352 32.6895 56.1146 32.486 56.4434 32.0791C56.7721 31.6689 56.9365 30.93 56.9365 29.8623C56.9365 28.7848 56.7721 28.0426 56.4434 27.6357C56.1178 27.2256 55.5384 27.0205 54.7051 27.0205H54.2363V32.6895H54.7051ZM54.7246 26.21C55.8379 26.21 56.6582 26.5062 57.1855 27.0986C57.7129 27.6911 57.9766 28.6123 57.9766 29.8623C57.9766 31.1058 57.7129 32.0238 57.1855 32.6162C56.6582 33.2054 55.8379 33.5 54.7246 33.5H53.2451V26.21H54.7246ZM59.3193 30.7021V26.21H60.3105V31.1514C60.3105 31.5062 60.3203 31.7601 60.3398 31.9131C60.3594 32.0628 60.3936 32.1784 60.4424 32.2598C60.5465 32.4518 60.6963 32.5967 60.8916 32.6943C61.0902 32.792 61.3294 32.8408 61.6094 32.8408C61.8926 32.8408 62.1318 32.792 62.3271 32.6943C62.5225 32.5967 62.6738 32.4518 62.7812 32.2598C62.8301 32.1784 62.8643 32.0628 62.8838 31.9131C62.9033 31.7633 62.9131 31.5127 62.9131 31.1611V26.21H63.8994V30.7021C63.8994 31.4476 63.8522 31.9782 63.7578 32.2939C63.6667 32.6064 63.5072 32.8652 63.2793 33.0703C63.0645 33.2624 62.8187 33.4056 62.542 33.5C62.2653 33.5944 61.9544 33.6416 61.6094 33.6416C61.2676 33.6416 60.9583 33.5944 60.6816 33.5C60.4049 33.4056 60.1576 33.2624 59.9395 33.0703C59.7148 32.8685 59.5553 32.6081 59.4609 32.2891C59.3665 31.9668 59.3193 31.4378 59.3193 30.7021ZM69.8662 33.2412C69.6156 33.3747 69.3584 33.474 69.0947 33.5391C68.8311 33.6074 68.5511 33.6416 68.2549 33.6416C67.3206 33.6416 66.5947 33.3112 66.0771 32.6504C65.5628 31.9896 65.3057 31.0602 65.3057 29.8623C65.3057 28.6709 65.5645 27.7432 66.082 27.0791C66.6029 26.4118 67.3271 26.0781 68.2549 26.0781C68.5511 26.0781 68.8311 26.1123 69.0947 26.1807C69.3584 26.2458 69.6156 26.3451 69.8662 26.4785V27.4893C69.6253 27.2907 69.3665 27.1393 69.0898 27.0352C68.8132 26.931 68.5348 26.8789 68.2549 26.8789C67.6136 26.8789 67.1335 27.1263 66.8145 27.6211C66.4954 28.1159 66.3359 28.863 66.3359 29.8623C66.3359 30.8584 66.4954 31.6038 66.8145 32.0986C67.1335 32.5934 67.6136 32.8408 68.2549 32.8408C68.5413 32.8408 68.8213 32.7887 69.0947 32.6846C69.3714 32.5804 69.6286 32.429 69.8662 32.2305V33.2412ZM70.8818 26.21H76.4434V27.04H74.1631V33.5H73.1719V27.04H70.8818V26.21ZM87.1221 29.8623C87.1221 28.7913 87.0114 28.0264 86.79 27.5674C86.5719 27.1084 86.2122 26.8789 85.7109 26.8789C85.2129 26.8789 84.8532 27.1084 84.6318 27.5674C84.4137 28.0264 84.3047 28.7913 84.3047 29.8623C84.3047 30.93 84.4137 31.6934 84.6318 32.1523C84.8532 32.6113 85.2129 32.8408 85.7109 32.8408C86.2122 32.8408 86.5719 32.613 86.79 32.1572C87.0114 31.6982 87.1221 30.9333 87.1221 29.8623ZM88.1523 29.8623C88.1523 31.1318 87.9505 32.0791 87.5469 32.7041C87.1465 33.3291 86.5345 33.6416 85.7109 33.6416C84.8874 33.6416 84.2754 33.3307 83.875 32.709C83.4746 32.0872 83.2744 31.1383 83.2744 29.8623C83.2744 28.5895 83.4746 27.6406 83.875 27.0156C84.2786 26.3906 84.8906 26.0781 85.7109 26.0781C86.5345 26.0781 87.1465 26.3906 87.5469 27.0156C87.9505 27.6406 88.1523 28.5895 88.1523 29.8623ZM91.7363 32.6699L93.4502 26.21H94.4707L92.3369 33.5H91.1406L89.0068 26.21H90.0273L91.7363 32.6699ZM95.7158 26.21H100.042V27.04H96.7021V29.1982H99.8955V30.0283H96.7021V32.6699H100.135V33.5H95.7158V26.21ZM104.49 30.0576C104.744 30.1227 104.961 30.2464 105.14 30.4287C105.319 30.6077 105.542 30.9674 105.809 31.5078L106.8 33.5H105.74L104.871 31.6592C104.62 31.1351 104.394 30.7982 104.192 30.6484C103.994 30.4954 103.733 30.4189 103.411 30.4189H102.469V33.5H101.478V26.21H103.509C104.31 26.21 104.923 26.3906 105.35 26.752C105.776 27.1133 105.989 27.6357 105.989 28.3193C105.989 28.8011 105.857 29.195 105.594 29.501C105.333 29.8037 104.965 29.9893 104.49 30.0576ZM102.469 27.0205V29.6084H103.548C104.02 29.6084 104.371 29.5026 104.603 29.291C104.834 29.0794 104.949 28.7555 104.949 28.3193C104.949 27.8994 104.826 27.5788 104.578 27.3574C104.334 27.1328 103.978 27.0205 103.509 27.0205H102.469ZM109.812 32.6699L111.526 26.21H112.547L110.413 33.5H109.217L107.083 26.21H108.104L109.812 32.6699ZM113.812 26.21H117.859V27.04H116.331V32.6699H117.859V33.5H113.812V32.6699H115.34V27.04H113.812V26.21ZM119.817 26.21H124.144V27.04H120.804V29.1982H123.997V30.0283H120.804V32.6699H124.236V33.5H119.817V26.21ZM124.881 26.21H125.843L126.541 32.1279L127.371 28.2119H128.401L129.241 32.1377L129.939 26.21H130.901L129.812 33.5H128.88L127.889 29.1689L126.902 33.5H125.97L124.881 26.21Z" fill="#0C1D31"/>
<path opacity="0.8" d="M507.321 32.6699H510.671V33.5H506.242V32.6699C506.851 32.0286 507.383 31.4622 507.839 30.9707C508.295 30.4792 508.609 30.1325 508.781 29.9307C509.107 29.5335 509.326 29.2129 509.44 28.9688C509.554 28.7214 509.611 28.4691 509.611 28.2119C509.611 27.805 509.491 27.486 509.25 27.2549C509.012 27.0238 508.685 26.9082 508.269 26.9082C507.972 26.9082 507.661 26.9619 507.336 27.0693C507.01 27.1768 506.665 27.3395 506.301 27.5576V26.5615C506.636 26.402 506.965 26.2816 507.287 26.2002C507.613 26.1188 507.933 26.0781 508.249 26.0781C508.962 26.0781 509.535 26.2686 509.968 26.6494C510.404 27.027 510.622 27.5234 510.622 28.1387C510.622 28.4512 510.549 28.7637 510.402 29.0762C510.259 29.3887 510.025 29.7337 509.699 30.1113C509.517 30.3229 509.252 30.6159 508.903 30.9902C508.558 31.3646 508.031 31.9245 507.321 32.6699ZM517.971 26.21H519.289L520.549 29.9209L521.818 26.21H523.142V33.5H522.229V27.0596L520.93 30.9023H520.183L518.879 27.0596V33.5H517.971V26.21ZM524.558 26.21H528.605V27.04H527.077V32.6699H528.605V33.5H524.558V32.6699H526.086V27.04H524.558V26.21ZM530.28 26.21H531.53L533.991 32.2109V26.21H534.943V33.5H533.693L531.232 27.499V33.5H530.28V26.21Z" fill="#0C1D31"/>
</g>
<defs>
<filter id="filter0_d_15383_45015" x="0" y="0" width="573" height="426" filterUnits="userSpaceOnUse" color-interpolation-filters="sRGB">
<feFlood flood-opacity="0" result="BackgroundImageFix"/>
<feColorMatrix in="SourceAlpha" type="matrix" values="0 0 0 0 0 0 0 0 0 0 0 0 0 0 0 0 0 0 127 0" result="hardAlpha"/>
<feMorphology radius="40" operator="erode" in="SourceAlpha" result="effect1_dropShadow_15383_45015"/>
<feOffset dy="10"/>
<feGaussianBlur stdDeviation="30"/>
<feComposite in2="hardAlpha" operator="out"/>
<feColorMatrix type="matrix" values="0 0 0 0 0.0470588 0 0 0 0 0.113725 0 0 0 0 0.192157 0 0 0 0.6 0"/>
<feBlend mode="normal" in2="BackgroundImageFix" result="effect1_dropShadow_15383_45015"/>
<feBlend mode="normal" in="SourceGraphic" in2="effect1_dropShadow_15383_45015" result="shape"/>
</filter>
<linearGradient id="paint0_linear_15383_45015" x1="286.5" y1="10.5" x2="286.5" y2="395.5" gradientUnits="userSpaceOnUse">
<stop offset="0.302885" stop-color="white"/>
<stop offset="1" stop-color="#F6F6F5" stop-opacity="0.7"/>
</linearGradient>
</defs>
</svg>
