<svg width="1224" height="313" viewBox="0 0 1224 313" fill="none" xmlns="http://www.w3.org/2000/svg">
<g opacity="0.4">
<line x1="148.5" y1="0.171875" x2="148.5" y2="312.172" stroke="#0C1D31" stroke-dasharray="4 4"/>
<line x1="380.5" y1="0.171875" x2="380.5" y2="312.172" stroke="#0C1D31" stroke-dasharray="4 4"/>
<line x1="612.5" y1="0.171875" x2="612.5" y2="312.172" stroke="#0C1D31" stroke-dasharray="4 4"/>
<line x1="844.5" y1="0.171875" x2="844.5" y2="312.172" stroke="#0C1D31" stroke-dasharray="4 4"/>
<line x1="1078.5" y1="0.171875" x2="1078.5" y2="312.172" stroke="#0C1D31" stroke-dasharray="4 4"/>
<line x1="7.08594" y1="158.328" x2="1216.91" y2="158.328" stroke="#0C1D31" stroke-dasharray="4 4"/>
</g>
<rect x="42" width="1119" height="46" fill="url(#paint0_linear_6079_44326)"/>
<rect width="1119" height="45" transform="matrix(1 0 0 -1 42 311.828)" fill="url(#paint1_linear_6079_44326)"/>
<rect width="228" height="42" transform="matrix(-3.88846e-08 1 1 4.91374e-08 0 51.8281)" fill="url(#paint2_linear_6079_44326)"/>
<rect x="1224" y="51.8281" width="228" height="44" transform="rotate(90 1224 51.8281)" fill="url(#paint3_linear_6079_44326)"/>
<defs>
<linearGradient id="paint0_linear_6079_44326" x1="579.981" y1="2.04216e-06" x2="579.981" y2="43.7" gradientUnits="userSpaceOnUse">
<stop stop-color="#EFEFED"/>
<stop offset="1" stop-color="#EFEFED" stop-opacity="0"/>
</linearGradient>
<linearGradient id="paint1_linear_6079_44326" x1="537.981" y1="1.99777e-06" x2="537.981" y2="42.75" gradientUnits="userSpaceOnUse">
<stop stop-color="#EFEFED"/>
<stop offset="1" stop-color="#EFEFED" stop-opacity="0"/>
</linearGradient>
<linearGradient id="paint2_linear_6079_44326" x1="109.615" y1="1.86459e-06" x2="109.615" y2="39.9" gradientUnits="userSpaceOnUse">
<stop stop-color="#EFEFED"/>
<stop offset="1" stop-color="#EFEFED" stop-opacity="0"/>
</linearGradient>
<linearGradient id="paint3_linear_6079_44326" x1="1333.62" y1="51.8281" x2="1333.62" y2="93.6281" gradientUnits="userSpaceOnUse">
<stop stop-color="#EFEFED"/>
<stop offset="1" stop-color="#EFEFED" stop-opacity="0"/>
</linearGradient>
</defs>
</svg>
