<?xml version="1.0" encoding="UTF-8"?>
<svg id="Layer_1" xmlns="http://www.w3.org/2000/svg" version="1.1" viewBox="0 0 141 39">
  <!-- Generator: Adobe Illustrator 29.8.1, SVG Export Plug-In . SVG Version: 2.1.1 Build 2)  -->
  <defs>
    <style>
      .st0 {
        fill: #fff;
      }

      .st1 {
        fill: #e6f59f;
      }
    </style>
  </defs>
  <path class="st1" d="M14.42,0C13.87,0,13.42.45,13.42,1v9.8c0,.55.45.98,1,.98l4.76.02c1.97,0,3.84.77,5.27,2.16,1.44,1.4,2.25,3.25,2.27,5.22.02,2.01-.74,3.9-2.16,5.33-1.41,1.43-3.3,2.21-5.31,2.21h-.09c-1.96-.02-3.81-.83-5.22-2.27-1.39-1.43-2.18-3.31-2.18-5.27v-4.82c0-.55-.43-.95-.98-.95H1c-.55,0-1,.39-1,.95v9.8c0,.55.45,1.03,1,1.03h7.73c1.04,0,1.71-.02,2.26.06.73.1,1.23.31,1.6.68.37.37.58.86.68,1.6.08.55.14,1.22.14,2.26v7.73c0,.55.39,1.09.95,1.09h4.9c2.2,0,4.36-.45,6.42-1.18,7.68-2.72,12.84-10.02,12.84-18.17S33.37,3.81,25.69,1.1C23.63.37,21.47,0,19.27,0h-4.85Z"/>
  <path class="st0" d="M126,16.46h-.04l-.81,10.41h-2.23l.81-12.87h3.38l4.68,9.95,4.75-9.95h3.31l.81,12.87h-2.23l-.81-10.41h-.04l-4.78,10.41h-2l-4.8-10.41Z"/>
  <path class="st0" d="M118.97,21.35c0,1.04-.16,1.93-.48,2.67-.32.73-.77,1.33-1.36,1.81-.59.47-1.31.82-2.16,1.04-.84.21-1.78.32-2.83.32s-2-.11-2.85-.32c-.84-.22-1.55-.57-2.14-1.04-.59-.47-1.04-1.07-1.36-1.81-.32-.74-.48-1.63-.48-2.67v-7.35h2.51v7.17c0,.53.06,1.03.18,1.51.12.46.34.87.65,1.22.32.35.76.63,1.31.83.57.2,1.29.3,2.18.3s1.6-.1,2.16-.3c.57-.2,1.01-.48,1.33-.83.32-.35.54-.76.65-1.22.12-.47.18-.97.18-1.51v-7.17h2.51v7.35Z"/>
  <path class="st0" d="M93.13,16.16h-5.75v-2.16h14.02v2.16h-5.76v10.71h-2.51v-10.71Z"/>
  <path class="st0" d="M77.21,14h2.87l6.25,12.87h-2.66l-1.35-2.96h-7.42l-1.36,2.96h-2.67l6.34-12.87ZM81.34,21.76l-2.69-5.74-2.69,5.74h5.38Z"/>
  <path class="st0" d="M53.77,14h6.2c1.02,0,1.97.12,2.85.35.9.22,1.68.59,2.34,1.1.66.5,1.18,1.15,1.56,1.97.39.8.58,1.78.58,2.94s-.18,2.05-.53,2.87c-.35.81-.85,1.49-1.49,2.04-.64.54-1.4.95-2.28,1.22-.89.26-1.86.39-2.92.39h-6.3v-12.87ZM58.83,24.71c1.07,0,1.98-.08,2.73-.25.76-.17,1.37-.42,1.84-.78.48-.35.83-.8,1.04-1.35.22-.54.34-1.19.34-1.95s-.11-1.45-.34-1.98c-.22-.54-.58-.98-1.06-1.31-.47-.33-1.09-.57-1.84-.71-.76-.15-1.66-.23-2.71-.23h-2.55v8.55h2.55Z"/>
</svg>