<svg xmlns="http://www.w3.org/2000/svg" version="1.1" xmlns:xlink="http://www.w3.org/1999/xlink" width="1000" height="1000"><style>
    #light-icon {
      display: inline;
    }
    #dark-icon {
      display: none;
    }

    @media (prefers-color-scheme: dark) {
      #light-icon {
        display: none;
      }
      #dark-icon {
        display: inline;
      }
    }
  </style><g id="light-icon"><svg xmlns="http://www.w3.org/2000/svg" version="1.1" xmlns:xlink="http://www.w3.org/1999/xlink" width="1000" height="1000"><g><g transform="matrix(25.641025641025642,0,0,25.641025641025642,0,0)"><svg xmlns="http://www.w3.org/2000/svg" version="1.1" xmlns:xlink="http://www.w3.org/1999/xlink" width="39" height="39"><svg width="39" height="39" viewBox="0 0 39 39" fill="none" xmlns="http://www.w3.org/2000/svg">
<path d="M14.6552 6.48499e-05C14.1027 6.48499e-05 13.6522 0.449142 13.6522 1.00306C13.6522 1.55697 13.6522 10.8035 13.6522 10.8035C13.6522 11.356 14.1013 11.7816 14.6552 11.7816L19.4145 11.8065C21.3808 11.8065 23.2536 12.5743 24.6887 13.9669C26.1323 15.3694 26.9384 17.2209 26.961 19.183C26.9837 21.1933 26.2173 23.0859 24.8049 24.5139C23.3925 25.9419 21.5083 26.7281 19.4995 26.7281H19.4145C17.4524 26.7055 15.6009 25.8994 14.1984 24.4558C12.8058 23.0222 12.0159 21.1479 12.0159 19.1816V14.3664C12.0159 13.8139 11.5889 13.4179 11.035 13.4179H1.23737C0.684872 13.4179 0.234375 13.8125 0.234375 14.3664V24.1668C0.234375 24.7193 0.683455 25.1994 1.23737 25.1994H8.9709C10.0107 25.1994 10.6808 25.184 11.2333 25.2591C11.9671 25.3582 12.4587 25.5679 12.8299 25.9376C13.201 26.3074 13.4093 26.8004 13.5085 27.5342C13.5835 28.0881 13.6522 28.7568 13.6522 29.798V37.5301C13.6522 38.0826 14.0468 38.6172 14.6007 38.6172H19.5009C21.701 38.6172 23.8614 38.1634 25.9226 37.4352C33.6051 34.7195 38.7674 27.418 38.7674 19.2666C38.7674 11.1152 33.6051 3.81371 25.9226 1.09797C23.8614 0.369812 21.701 6.48499e-05 19.5009 6.48499e-05H14.6566H14.6552Z" fill="#C49D9D"></path>
</svg></svg></g></g></svg></g><g id="dark-icon"><svg xmlns="http://www.w3.org/2000/svg" version="1.1" xmlns:xlink="http://www.w3.org/1999/xlink" width="1000" height="1000"><g><g transform="matrix(25.641025641025642,0,0,25.641025641025642,0,0)"><svg xmlns="http://www.w3.org/2000/svg" version="1.1" xmlns:xlink="http://www.w3.org/1999/xlink" width="39" height="39"><svg width="39" height="39" viewBox="0 0 39 39" fill="none" xmlns="http://www.w3.org/2000/svg">
<path d="M14.6552 6.48499e-05C14.1027 6.48499e-05 13.6522 0.449142 13.6522 1.00306C13.6522 1.55697 13.6522 10.8035 13.6522 10.8035C13.6522 11.356 14.1013 11.7816 14.6552 11.7816L19.4145 11.8065C21.3808 11.8065 23.2536 12.5743 24.6887 13.9669C26.1323 15.3694 26.9384 17.2209 26.961 19.183C26.9837 21.1933 26.2173 23.0859 24.8049 24.5139C23.3925 25.9419 21.5083 26.7281 19.4995 26.7281H19.4145C17.4524 26.7055 15.6009 25.8994 14.1984 24.4558C12.8058 23.0222 12.0159 21.1479 12.0159 19.1816V14.3664C12.0159 13.8139 11.5889 13.4179 11.035 13.4179H1.23737C0.684872 13.4179 0.234375 13.8125 0.234375 14.3664V24.1668C0.234375 24.7193 0.683455 25.1994 1.23737 25.1994H8.9709C10.0107 25.1994 10.6808 25.184 11.2333 25.2591C11.9671 25.3582 12.4587 25.5679 12.8299 25.9376C13.201 26.3074 13.4093 26.8004 13.5085 27.5342C13.5835 28.0881 13.6522 28.7568 13.6522 29.798V37.5301C13.6522 38.0826 14.0468 38.6172 14.6007 38.6172H19.5009C21.701 38.6172 23.8614 38.1634 25.9226 37.4352C33.6051 34.7195 38.7674 27.418 38.7674 19.2666C38.7674 11.1152 33.6051 3.81371 25.9226 1.09797C23.8614 0.369812 21.701 6.48499e-05 19.5009 6.48499e-05H14.6566H14.6552Z" fill="#E6F59E"></path>
</svg></svg></g></g></svg></g></svg>