<svg width="196" height="196" viewBox="0 0 196 196" fill="none" xmlns="http://www.w3.org/2000/svg">
<path d="M78.8228 22.6154C76.6693 22.6154 74.9135 24.3687 74.9135 26.5313C74.9135 28.6939 74.9135 64.7942 74.9135 64.7942C74.9135 66.9513 76.6638 68.6129 78.8228 68.6129L97.3731 68.7101C105.037 68.7101 112.337 71.7079 117.93 77.1448C123.557 82.6204 126.699 89.8493 126.787 97.5096C126.875 105.358 123.888 112.747 118.383 118.322C112.878 123.898 105.534 126.967 97.7044 126.967H97.3731C89.7256 126.879 82.5088 123.732 77.0423 118.096C71.6145 112.498 68.5356 105.181 68.5356 97.5041V78.7045C68.5356 76.5474 66.8714 75.0014 64.7124 75.0014H26.5246C24.3711 75.0014 22.6152 76.5419 22.6152 78.7045V116.967C22.6152 119.124 24.3656 120.999 26.5246 120.999H56.6674C60.7203 120.999 63.332 120.939 65.4855 121.232C68.3457 121.619 70.2617 122.437 71.7084 123.881C73.1551 125.325 73.9667 127.249 74.3533 130.114C74.6459 132.277 74.9135 134.888 74.9135 138.953V169.141C74.9135 171.298 76.4515 173.385 78.6105 173.385H97.7099C106.285 173.385 114.706 171.613 122.74 168.77C152.684 158.167 172.805 129.661 172.805 97.836C172.805 66.011 152.684 37.5047 122.74 26.9019C114.706 24.059 106.285 22.6154 97.7099 22.6154H78.8283H78.8228Z" fill="#BF9595"/>
</svg>
