<svg width="396" height="56" viewBox="0 0 198 28" fill="none" xmlns="http://www.w3.org/2000/svg">
<path fill-rule="evenodd" clip-rule="evenodd" d="M144.91 23.8552V16.254C144.91 15.554 144.839 14.2722 143.67 14.2722C142.805 14.2722 141.822 14.7158 141.238 15.1358V21.3842C141.238 21.7569 141.261 21.8042 141.611 21.8505L142.735 22.0133V23.8552H136.28V22.0133L137.333 21.8505C137.659 21.8042 137.706 21.7333 137.706 21.3842V9.07291C137.706 8.81653 137.636 8.65291 137.402 8.58291L136.116 8.14103L136.374 6.25103H141.19V12.8503L141.308 12.873C142.36 12.0112 143.577 11.4748 145.049 11.4748C147.529 11.4748 148.441 12.8267 148.441 15.2513V21.3842C148.441 21.7569 148.464 21.8042 148.815 21.8505L149.984 22.0133V23.8552H144.909" fill="#151F34"/>
<path fill-rule="evenodd" clip-rule="evenodd" d="M45.8794 22.8524C44.4997 23.6924 42.1607 24.1352 40.0324 24.1352C34.21 24.1352 31.8237 20.7542 31.8237 15.3458C31.8237 10.3784 34.7007 6.6719 40.5239 6.6719C42.4653 6.6719 44.5462 7.1619 45.8328 8.00015V12.5703L43.2596 12.3603L42.8866 10.0765C42.8392 9.84291 42.7461 9.72653 42.5118 9.65653C41.9975 9.49291 41.2023 9.37653 40.43 9.37653C37.46 9.37653 35.566 11.3803 35.566 15.3458C35.566 19.4723 37.367 21.4769 40.2668 21.4769C41.0391 21.4769 41.9975 21.3605 42.6048 21.1742C42.8857 21.1042 42.9559 21.0342 43.0261 20.6842L43.3772 18.5168H45.8794V22.8524ZM55.8197 17.7232C55.8197 14.9722 54.9772 13.9922 53.4579 13.9922C51.9133 13.9922 50.8846 14.9494 50.8846 17.7459C50.8846 20.5678 51.7974 21.6869 53.364 21.6869C54.8841 21.6869 55.8197 20.6369 55.8197 17.7232ZM47.1897 17.8632C47.1897 13.9922 49.225 11.4748 53.5044 11.4748C57.8304 11.4748 59.5146 14.0394 59.5146 17.6068C59.5146 21.5705 57.503 24.1343 53.1999 24.1343C48.9204 24.1343 47.1897 21.5233 47.1897 17.8632ZM71.4192 22.9933C70.3432 23.646 68.6826 24.1352 66.9756 24.1352C62.7426 24.1352 60.8487 21.5014 60.8487 17.9559C60.8487 13.5967 63.515 11.4748 67.2564 11.4748C69.0802 11.4748 70.6942 11.9875 71.4192 12.4548V16.1149L68.917 15.9977L68.6361 14.4585C68.6124 14.2958 68.5659 14.1567 68.3553 14.0858C68.0744 13.9922 67.6303 13.923 67.1625 13.923C65.76 13.923 64.5673 14.8785 64.5673 17.6068C64.5673 20.6378 65.9233 21.5005 67.5838 21.5005C68.7537 21.5005 69.8051 21.1269 70.5073 20.8242L71.4192 22.9933ZM81.593 23.8552L78.623 17.9104L77.36 19.2859V21.3842C77.36 21.7569 77.3837 21.8042 77.7348 21.8505L79.1381 22.0133V23.8552H72.2854V22.0133L73.4553 21.8505C73.7818 21.8042 73.8283 21.7333 73.8283 21.3842V9.07291C73.8283 8.81653 73.7581 8.65291 73.5247 8.58291L72.2389 8.14103L72.496 6.25103H77.36V16.2077L81.6403 11.7075H84.8675V13.5503L83.6511 13.783C83.3465 13.8294 83.2772 13.8994 83.0665 14.133L81.406 15.8813L84.3988 21.4533C84.5629 21.7805 84.7271 21.8269 85.1009 21.8733L86.1304 22.0369V23.8552H81.593ZM87.2073 23.8552V21.9669L88.2596 21.8269C88.587 21.7805 88.6335 21.7105 88.6335 21.3605V14.5294C88.6335 14.2722 88.5633 14.1094 88.329 14.0394L87.0669 13.5967L87.3232 11.7075H91.4394L91.7202 13.573H91.8607C92.633 12.383 93.6616 11.4748 95.158 11.4748C95.696 11.4748 96.772 11.5684 97.1933 11.6848V15.9285L94.3865 15.8349L94.1531 14.5985C94.1066 14.3885 94.0355 14.343 93.8485 14.343C93.2403 14.343 92.5145 14.8549 92.1652 15.1585V21.3369C92.1652 21.7105 92.1889 21.7805 92.5391 21.8042L94.8543 21.9905V23.8552H87.2073ZM106.876 17.7232C106.876 14.9722 106.033 13.9922 104.515 13.9922C102.97 13.9922 101.941 14.9494 101.941 17.7459C101.941 20.5678 102.853 21.6869 104.42 21.6869C105.94 21.6869 106.876 20.6369 106.876 17.7232ZM98.2465 17.8632C98.2465 13.9922 100.281 11.4748 104.56 11.4748C108.887 11.4748 110.571 14.0394 110.571 17.6068C110.571 21.5705 108.56 24.1343 104.257 24.1343C99.9772 24.1343 98.2465 21.5233 98.2465 17.8632ZM118.617 18.8423L117.026 18.9587C115.646 19.0523 115.155 19.4023 115.155 20.3342C115.155 21.2678 115.717 21.6169 116.489 21.6169C117.284 21.6169 118.079 21.1742 118.617 20.7778V18.8423ZM119.248 23.856L119.014 22.596L118.897 22.5733C118.009 23.4352 116.84 24.1352 114.968 24.1352C112.021 24.1352 111.554 22.1297 111.554 20.6842C111.554 18.3523 113.003 17.2804 115.927 17.094L118.617 16.9077V15.6249C118.617 14.5294 118.499 13.783 117.049 13.783C115.927 13.783 115.342 13.9467 115.342 15.3458L112.045 15.0649C112.045 11.9175 114.921 11.4748 117.073 11.4748C120.628 11.4748 122.055 12.4312 122.055 15.6949V21.3605C122.055 21.7333 122.077 21.7805 122.429 21.8269L123.552 22.0133V23.8552L119.248 23.856ZM134.637 22.9933C133.562 23.646 131.901 24.1352 130.194 24.1352C125.96 24.1352 124.066 21.5014 124.066 17.9559C124.066 13.5967 126.733 11.4748 130.475 11.4748C132.299 11.4748 133.913 11.9875 134.637 12.4548V16.1149L132.135 15.9977L131.855 14.4585C131.831 14.2958 131.784 14.1567 131.574 14.0858C131.293 13.9922 130.848 13.923 130.38 13.923C128.978 13.923 127.785 14.8785 127.785 17.6068C127.785 20.6378 129.142 21.5005 130.802 21.5005C131.971 21.5005 133.024 21.1269 133.725 20.8242L134.638 22.9933" fill="#151F34"/>
<path fill-rule="evenodd" clip-rule="evenodd" d="M156.64 11.732H159.319V21.3894H164.282V23.8552H156.64V11.732ZM171.341 15.26L169.864 19.026H172.836L171.341 15.2592V15.26ZM170.311 11.732H172.527L177.817 23.8552H174.794L173.746 21.2862H169.022L168.01 23.8552H165.055L170.311 11.732ZM181.596 21.595H184C184.207 21.595 184.416 21.5723 184.627 21.5259C184.833 21.4834 185.028 21.4021 185.203 21.2862C185.375 21.1724 185.515 21.0245 185.624 20.8417C185.738 20.6377 185.795 20.4066 185.787 20.1732C185.787 19.8879 185.715 19.6569 185.572 19.481C185.429 19.3039 185.243 19.1655 185.032 19.0785C184.806 18.9851 184.569 18.9212 184.327 18.8887C184.094 18.8561 183.859 18.8392 183.623 18.8379H181.596V21.595ZM181.596 16.5778H183.537C183.742 16.578 183.947 16.5552 184.147 16.5095C184.346 16.464 184.528 16.3897 184.688 16.2873C184.847 16.1832 184.977 16.0475 185.074 15.876C185.171 15.7045 185.22 15.4998 185.22 15.2592C185.22 15.008 185.166 14.7998 185.057 14.6344C184.952 14.4725 184.807 14.34 184.636 14.2494C184.453 14.1541 184.256 14.0874 184.052 14.0517C183.843 14.0125 183.63 13.9926 183.417 13.9922H181.596V16.5778ZM178.916 11.732H183.451C183.978 11.732 184.508 11.7688 185.04 11.8432C185.54 11.9076 186.026 12.0583 186.475 12.2885C186.898 12.5108 187.241 12.8223 187.504 13.2213C187.767 13.6212 187.899 14.1523 187.899 14.8138C187.899 15.4989 187.708 16.0668 187.324 16.5183C186.941 16.9698 186.434 17.2918 185.805 17.4852V17.5202C186.205 17.577 186.569 17.6882 186.895 17.8535C187.222 18.0198 187.501 18.2298 187.737 18.487C187.971 18.7443 188.152 19.0435 188.277 19.3857C188.404 19.7287 188.467 20.0944 188.467 20.482C188.467 21.1217 188.329 21.6545 188.054 22.0833C187.779 22.512 187.424 22.8559 186.989 23.1193C186.554 23.3818 186.065 23.5699 185.521 23.6837C184.987 23.7971 184.443 23.8546 183.897 23.8552H178.916V11.732ZM196.145 14.6939C195.914 14.4111 195.607 14.2001 195.26 14.0858C194.921 13.9612 194.564 13.8949 194.203 13.8898C194.008 13.8898 193.808 13.9125 193.602 13.958C193.399 14.0025 193.202 14.0743 193.018 14.1715C192.841 14.2632 192.688 14.3951 192.572 14.5565C192.458 14.7167 192.4 14.9118 192.4 15.1393C192.4 15.505 192.537 15.7842 192.812 15.9793C193.087 16.1735 193.433 16.338 193.851 16.4745C194.269 16.6119 194.718 16.7484 195.199 16.8858C195.68 17.0232 196.13 17.2165 196.548 17.4677C196.966 17.7197 197.312 18.0565 197.587 18.4783C197.862 18.9009 198 19.467 198 20.1732C198 20.8469 197.873 21.4349 197.622 21.938C197.381 22.4268 197.031 22.8544 196.599 23.1884C196.153 23.5272 195.646 23.7768 195.105 23.9234C194.52 24.086 193.916 24.167 193.31 24.164C192.562 24.171 191.819 24.0494 191.112 23.8044C190.436 23.5647 189.806 23.177 189.222 22.6389L191.129 20.5503C191.404 20.916 191.75 21.1978 192.168 21.399C192.586 21.5977 193.018 21.6974 193.464 21.6974C193.682 21.6974 193.903 21.672 194.126 21.6204C194.349 21.5688 194.55 21.4927 194.727 21.3894C194.905 21.2862 195.048 21.1558 195.157 20.9957C195.265 20.8355 195.32 20.6474 195.32 20.4304C195.32 20.0655 195.179 19.7768 194.899 19.5659C194.618 19.3542 194.266 19.1748 193.843 19.026C193.388 18.868 192.93 18.7195 192.469 18.5807C191.988 18.438 191.526 18.237 191.095 17.9822C190.673 17.7333 190.312 17.394 190.039 16.989C189.758 16.5778 189.618 16.0353 189.618 15.3615C189.618 14.7114 189.746 14.1409 190.004 13.65C190.253 13.1689 190.605 12.7479 191.034 12.4163C191.479 12.078 191.982 11.8255 192.52 11.6717C193.083 11.5061 193.668 11.4227 194.255 11.424C194.942 11.424 195.607 11.5203 196.247 11.7145C196.888 11.9088 197.467 12.2343 197.982 12.6902L196.144 14.6939" fill="#348540"/>
<path fill-rule="evenodd" clip-rule="evenodd" d="M17.044 8.02378C16.0349 8.25775 15.0021 8.37519 13.966 8.37378C12.9085 8.37378 11.8755 8.25478 10.8837 8.02378C11.7099 6.71718 12.7521 5.55952 13.966 4.5999C15.1779 5.56073 16.2178 6.71822 17.044 8.02378ZM26.3559 0.502277C25.0841 0.16642 23.7738 -0.0024243 22.4582 2.62958e-05C19.4346 -0.00411012 16.4779 0.886635 13.9625 2.5594C11.4477 0.885624 8.49056 -0.00521652 5.46681 2.62958e-05C4.11961 2.62958e-05 2.81014 0.171526 1.56826 0.502277C1.04955 0.635907 0.538816 0.798624 0.0385029 0.989652C0.0308747 0.992712 0.0239403 0.997267 0.0181106 1.00305C0.0122809 1.00883 0.0076745 1.01572 0.00456439 1.02331C0.00145427 1.0309 -9.62978e-05 1.03903 4.62849e-06 1.04723C0.000105555 1.05542 0.00185594 1.06352 0.00515196 1.07103C0.222811 1.54178 0.465044 1.99765 0.725708 2.43865C0.73975 2.46315 0.76959 2.47365 0.79592 2.46403C2.29219 1.92096 3.87272 1.64491 5.46505 1.64853C8.05853 1.64853 10.4844 2.37128 12.5565 3.61728C11.2389 4.72919 10.1186 6.05439 9.24249 7.53728C8.78194 8.30776 8.3927 9.11844 8.07959 9.95928C7.44323 11.6642 7.11805 13.4689 7.11943 15.288C7.11943 19.6175 8.93618 23.5323 11.8474 26.3183C12.0738 26.5405 12.309 26.7497 12.5565 26.9544C12.7496 27.1207 12.9427 27.2764 13.1445 27.4269C13.3982 27.6282 13.6624 27.8128 13.9283 27.9895C13.9382 27.9964 13.95 28 13.9621 28C13.9741 28 13.9859 27.9964 13.9959 27.9895C14.2609 27.8084 14.5225 27.6238 14.7761 27.4269C14.9815 27.2764 15.1746 27.1207 15.3676 26.9544C15.6108 26.7497 15.8547 26.5362 16.0812 26.3183C18.988 23.5323 20.8056 19.6132 20.8056 15.2889C20.8073 13.1236 20.3453 10.9829 19.4505 9.00991C19.3591 8.80594 19.2637 8.60378 19.1644 8.40353C19.0118 8.11028 18.8508 7.82141 18.6817 7.53728C17.8043 6.05532 16.6841 4.73033 15.3676 3.61728C17.5065 2.32782 19.9587 1.64695 22.4582 1.64853C24.0506 1.64491 25.6311 1.92096 27.1274 2.46403C27.1546 2.47278 27.1844 2.46228 27.1985 2.43778C27.4598 1.99402 27.6999 1.53822 27.9181 1.0719C27.9216 1.06435 27.9234 1.05617 27.9236 1.04788C27.9238 1.03959 27.9223 1.03134 27.9191 1.02365C27.916 1.01596 27.9114 1.00898 27.9055 1.00314C27.8996 0.997291 27.8925 0.992704 27.8848 0.989652C27.3845 0.802402 26.8755 0.634402 26.3559 0.502277Z" fill="#151F34"/>
<path fill-rule="evenodd" clip-rule="evenodd" d="M19.1521 15.2898C19.1521 18.907 17.7329 22.1979 15.4177 24.6418C15.0011 23.3159 14.7893 21.9345 14.7893 20.545C14.7893 16.9278 16.2084 13.6308 18.5237 11.193C18.9309 12.4872 19.1521 13.8635 19.1521 15.2898Z" fill="#348540"/>
<path fill-rule="evenodd" clip-rule="evenodd" d="M13.1349 20.545C13.1349 21.9687 12.9155 23.345 12.5065 24.6418C10.1056 22.1167 8.76884 18.769 8.77206 15.2898C8.77206 13.8635 8.99586 12.4872 9.40573 11.193C11.806 13.718 13.1411 17.0662 13.1349 20.545Z" fill="#7DBC42"/>
</svg>
