<svg width="267" height="102" viewBox="0 0 89 34" fill="none" xmlns="http://www.w3.org/2000/svg">
<path d="M83.1909 7.38062H88.1558V24.235C88.1558 30.8003 84.3015 33.1194 78.2588 33.1194C76.8869 33.1194 75.417 33.0214 73.8492 32.7928V28.3505C74.8944 28.4485 75.8743 28.5139 76.7562 28.5139C81.1658 28.5139 83.1909 27.142 83.1909 24.235V23.1244C82.1784 24.2676 80.7412 24.9535 78.814 24.9535C74.6984 24.9535 72.7386 21.4912 72.7386 16.8203V7.38062H77.7035V16.8203C77.7035 18.7148 78.4221 20.3153 80.4472 20.3153C82.4397 20.3153 83.1909 18.7475 83.1909 16.8857V7.38062Z" fill="black"/>
<path d="M64.8468 7.21733C69.4524 7.21733 71.8695 11.1696 71.8695 16.0691C71.8695 20.9686 68.9297 24.9536 63.4749 24.9536C58.0201 24.9536 55.0804 20.9686 55.0804 16.0691V0.880615H60.0453V9.73242C61.0252 8.13191 62.593 7.21733 64.8468 7.21733ZM63.4749 20.348C65.6307 20.348 66.8066 18.4209 66.8066 16.0691C66.8066 13.7173 65.6307 11.8229 63.4749 11.8229C61.3191 11.8229 60.1433 13.7173 60.1433 16.0691C60.1433 18.4209 61.2865 20.348 63.4749 20.348Z" fill="black"/>
<path d="M47.0821 12.5415C47.0821 14.5666 54.1701 14.0767 54.1701 20.0214C54.1701 23.2224 51.1324 24.9536 48.0293 24.9536C44.861 24.9536 41.6273 23.1244 41.6273 19.1722L46.2329 19.1395C46.2329 20.4134 47.1148 20.9687 47.8987 20.9687C48.5846 20.9687 49.2052 20.544 49.2052 19.8581C49.2052 16.9184 42.0519 18.2903 42.0519 12.3128C42.0519 8.91586 44.959 7.1847 47.9314 7.1847C50.9364 7.1847 54.0068 9.01384 54.0068 12.7701H49.4339C49.4339 11.8882 48.8459 11.5289 48.258 11.5289C47.67 11.5289 47.0821 11.8882 47.0821 12.5415Z" fill="black"/>
<path d="M32.7796 7.21729C38.2344 7.21729 41.1741 11.1696 41.1741 16.0691C41.1741 20.9686 38.2018 24.9535 32.7796 24.9535C27.3248 24.9535 24.3851 20.9686 24.3851 16.0691C24.3851 11.1696 27.3248 7.21729 32.7796 7.21729ZM32.7796 20.348C34.9354 20.348 36.1113 18.4208 36.1113 16.0691C36.1113 13.7173 34.9354 11.8228 32.7796 11.8228C30.6238 11.8228 29.448 13.7173 29.448 16.0691C29.448 18.4208 30.6238 20.348 32.7796 20.348Z" fill="black"/>
<path d="M20.8961 7.38062H24.3258V12.0188H22.5946C21.2554 12.0188 20.7328 12.7701 20.7328 14.1419V24.7902H15.7679V12.4761C15.7679 9.2751 17.4664 7.38062 20.8961 7.38062Z" fill="black"/>
<path d="M14.6281 11.9861C13.3869 11.7902 12.2763 11.6922 11.2964 11.6922C7.44214 11.6922 5.90696 13.26 5.90696 16.0691C5.90696 18.8781 7.4748 20.4786 11.3291 20.4786C12.309 20.4786 13.3869 20.3806 14.6281 20.1847V24.6269C13.0602 24.8555 11.623 24.9535 10.3165 24.9535C4.37177 24.9535 0.844116 22.6018 0.844116 16.0691C0.844116 9.5364 4.37177 7.21729 10.2839 7.21729C11.623 7.21729 13.0602 7.31528 14.6281 7.54393V11.9861Z" fill="black"/>
</svg>
