<svg width="306" height="52" viewBox="0 0 153 26" fill="none" xmlns="http://www.w3.org/2000/svg">
<path d="M21.2334 10.8385L11.2293 16.5809L0.51697 10.4449L0.00117493 10.7285V15.184L11.2293 21.6025L21.2322 15.8825V18.2402L11.2293 23.9838L0.51697 17.8478L0.00117493 18.1315V18.8949L11.2293 25.3145L22.4354 18.8949V14.4406L21.9196 14.157L11.2293 20.2705L1.20315 14.5505V12.1916L11.2293 17.9116L22.4354 11.4944V7.10273L21.8767 6.77536L11.2293 12.8676L1.71895 7.45255L11.2293 2.01618L19.0427 6.49173L19.7301 6.09936V5.55336L11.2293 0.685455L0.00117493 7.10391V7.80355L11.2293 14.2232L21.2322 8.47955L21.2334 10.8385Z" fill="#0C1D31"/>
<path d="M43.4106 21.6734V2.06584H40.448V9.40139C40.448 9.5113 40.383 9.59875 40.2764 9.64248C40.2287 9.65949 40.1772 9.6623 40.1279 9.65058C40.0786 9.63886 40.0337 9.6131 39.9982 9.5763C38.9887 8.37557 37.4216 7.69839 35.7038 7.69839C32.033 7.69839 29.1549 10.842 29.1549 14.8602C29.1549 16.8256 29.8214 18.6385 31.0443 19.9704C31.6391 20.6229 32.3605 21.1422 33.1626 21.4953C33.9647 21.8485 34.8301 22.0279 35.7038 22.022C37.3995 22.022 38.9666 21.3011 39.9971 20.0578C40.062 19.9704 40.1906 19.9479 40.2753 19.9704C40.383 20.0141 40.4491 20.1004 40.4491 20.2103V21.6734H43.4106ZM36.3483 19.2932C33.986 19.2932 32.1408 17.3503 32.1408 14.8614C32.1408 12.3713 33.986 10.4284 36.3483 10.4284C38.7105 10.4284 40.5558 12.3713 40.5558 14.8602C40.5558 17.3491 38.7093 19.292 36.3483 19.292M59.2542 21.6746V8.02693H56.3136V9.40257C56.3136 9.51248 56.2487 9.59875 56.1409 9.64248C56.0918 9.66261 56.0375 9.66503 55.9869 9.64934C55.9363 9.63365 55.8925 9.60078 55.8627 9.55621C54.8752 8.3543 53.3289 7.67712 51.5683 7.67712C47.8974 7.67712 45.0206 10.8219 45.0206 14.8389C45.0206 18.8571 47.8974 22.0008 51.5694 22.0008C53.2652 22.0008 54.8323 21.2798 55.8627 20.0153C55.9265 19.9267 56.0551 19.9054 56.1409 19.9267C56.2487 19.9704 56.3136 20.0578 56.3136 20.1678V21.6521H59.2542V21.6746ZM52.2348 19.2944C49.8725 19.2944 48.0273 17.3503 48.0273 14.8626C48.0273 12.3725 49.8725 10.4296 52.2348 10.4296C54.597 10.4296 56.4423 12.3725 56.4423 14.8614C56.4423 17.3503 54.5958 19.2944 52.2348 19.2944ZM84.4355 21.6746V8.02693H81.4937V9.40257C81.4937 9.51248 81.4299 9.59875 81.3221 9.64248C81.2143 9.68621 81.1077 9.64248 81.044 9.55621C80.0553 8.3543 78.5102 7.67712 76.7495 7.67712C73.0567 7.67712 70.2018 10.8219 70.2018 14.8626C70.2018 18.9008 73.0787 22.0244 76.7495 22.0244C78.4453 22.0244 80.0124 21.3035 81.0428 20.0366C81.1077 19.9491 81.2364 19.9267 81.3221 19.9491C81.4299 19.9928 81.4937 20.0791 81.4937 20.189V21.6734L84.4355 21.6746ZM77.4149 19.2944C75.0538 19.2944 73.2073 17.3503 73.2073 14.8626C73.2073 12.3725 75.0538 10.4296 77.4149 10.4296C79.7759 10.4296 81.6224 12.3725 81.6224 14.8614C81.6224 17.3503 79.7759 19.2944 77.4149 19.2944ZM89.8241 20.0578C89.8461 20.0578 89.889 20.0354 89.9099 20.0354C89.9748 20.0354 90.0605 20.0791 90.1034 20.1228C91.1118 21.3236 92.6789 22.0008 94.3967 22.0008C98.0675 22.0008 100.946 18.8571 100.946 14.8389C100.946 12.8736 100.279 11.0618 99.0562 9.72993C98.4615 9.07725 97.7401 8.55774 96.938 8.20435C96.1359 7.85097 95.2705 7.67142 94.3967 7.67712C92.7009 7.67712 91.1339 8.39802 90.1034 9.64248C90.0385 9.72993 89.9319 9.75121 89.8252 9.72993C89.7174 9.68621 89.6525 9.59875 89.6525 9.48884V2.06584H86.6899V21.6722H89.6525V20.2989C89.6525 20.189 89.7174 20.1016 89.8241 20.0578ZM89.5227 14.8614C89.5227 12.3725 91.3703 10.4296 93.7314 10.4296C96.0924 10.4296 97.9389 12.3725 97.9389 14.8614C97.9389 17.3503 96.0924 19.2932 93.7314 19.2932C91.3703 19.2932 89.5227 17.329 89.5227 14.8614ZM109.511 10.8243C109.789 10.8243 110.048 10.8468 110.218 10.8905V7.78939C110.056 7.75993 109.891 7.7453 109.726 7.74566C108.179 7.74566 106.763 8.55403 106.012 9.84221C105.947 9.95093 105.839 9.99584 105.733 9.95093C105.679 9.93752 105.632 9.90692 105.597 9.8637C105.562 9.82047 105.542 9.76693 105.539 9.71103V8.0293H102.598V21.6982H105.561V15.6709C105.561 12.6809 107.063 10.8255 109.511 10.8255M115.092 8.02812H112.087V21.697H115.092V8.02812ZM113.546 2.08712C113.303 2.08087 113.061 2.12425 112.835 2.21472C112.609 2.30518 112.403 2.4409 112.229 2.61386C112.055 2.78683 111.917 2.99355 111.822 3.22185C111.728 3.45015 111.679 3.6954 111.679 3.94316C111.679 4.19092 111.728 4.43617 111.822 4.66447C111.917 4.89277 112.055 5.09949 112.229 5.27246C112.403 5.44543 112.609 5.58114 112.835 5.67161C113.061 5.76207 113.303 5.80546 113.546 5.79921C113.79 5.8081 114.034 5.7667 114.263 5.67746C114.491 5.58822 114.699 5.45298 114.875 5.2798C115.051 5.10663 115.191 4.89908 115.287 4.66953C115.383 4.43998 115.432 4.19314 115.432 3.94375C115.432 3.69436 115.383 3.44752 115.287 3.21798C115.191 2.98843 115.051 2.78087 114.875 2.6077C114.699 2.43453 114.491 2.29928 114.263 2.21005C114.034 2.12081 113.79 2.0794 113.546 2.0883M123.894 7.67712C119.773 7.67712 116.788 10.6908 116.788 14.8626C116.788 16.8918 117.497 18.7035 118.763 20.0153C120.052 21.3248 121.854 22.0457 123.872 22.0457C125.547 22.0457 126.835 21.7183 129.283 19.8829L127.587 18.0712C126.384 18.8796 125.268 19.2719 124.174 19.2719C121.683 19.2719 119.816 17.3728 119.816 14.8614C119.816 12.35 121.683 10.4508 124.174 10.4508C125.354 10.4508 126.449 10.8444 127.544 11.6516L129.433 9.83984C127.222 7.91821 125.225 7.67712 123.894 7.67712ZM134.499 15.6686C134.522 15.6463 134.549 15.629 134.579 15.6178C134.608 15.6067 134.64 15.6018 134.672 15.6036H134.693C134.757 15.6036 134.821 15.6473 134.886 15.6898L139.63 21.6734H143.28L137.141 14.118C137.054 14.0093 137.054 13.8557 137.161 13.7694L142.807 8.02575H139.179L134.307 13.0048C134.242 13.0698 134.135 13.0922 134.027 13.0698C133.983 13.0479 133.945 13.0139 133.919 12.9715C133.892 12.9292 133.877 12.8801 133.876 12.8298V2.08712H130.893V21.6947H133.856V16.367C133.856 16.302 133.876 16.2134 133.941 16.1708L134.499 15.6686Z" fill="#0C1D31"/>
<path d="M148.104 22.0231C150.53 22.0231 152.999 20.5163 152.999 17.6563C152.999 15.7784 151.84 14.4891 149.479 13.7043L147.868 13.1583C146.773 12.7872 146.258 12.2625 146.258 11.5428C146.258 10.7131 146.988 10.1447 148.018 10.1447C149.006 10.1447 149.885 10.8006 150.444 11.9351L152.827 10.6257C151.948 8.79151 150.122 7.65578 148.018 7.65578C145.356 7.65578 143.425 9.40251 143.425 11.7827C143.425 13.6819 144.541 14.9488 146.837 15.691L148.491 16.237C149.65 16.6081 150.144 17.0879 150.144 17.8525C150.144 19.0107 149.092 19.4243 148.19 19.4243C146.988 19.4243 145.914 18.6384 145.4 17.3502L142.974 18.6609C143.768 20.735 145.721 22.0231 148.104 22.0231ZM67.4939 21.892C68.4385 21.892 69.2766 21.8045 69.7483 21.7383V19.1194C69.2561 19.1712 68.7618 19.2 68.267 19.2057C67.065 19.2057 66.1424 18.9882 66.1424 16.3457V10.7344C66.1424 10.5808 66.249 10.4721 66.3997 10.4721H69.2974V8.00442H66.3997C66.3656 8.00573 66.3317 7.99989 66.3 7.98724C66.2682 7.9746 66.2394 7.95543 66.2153 7.93093C66.1911 7.90642 66.1722 7.87711 66.1597 7.84482C66.1471 7.81253 66.1412 7.77795 66.1424 7.74323V3.81251H63.1797V7.76451C63.1797 7.91814 63.0719 8.02687 62.9213 8.02687H60.8604V10.4945H62.9213C63.0719 10.4945 63.1797 10.6032 63.1797 10.7557V17.1103C63.1797 21.892 66.3139 21.892 67.4939 21.892Z" fill="#0C1D31"/>
</svg>
