<svg width="162" height="132" viewBox="0 0 54 44" fill="none" xmlns="http://www.w3.org/2000/svg">
<path d="M34.3643 12.2868L36.0939 12.3163L40.7936 7.61659L41.0214 5.62534C37.2938 2.30434 32.3722 0.281876 26.9941 0.281876C17.2572 0.281876 9.03909 6.907 6.60656 15.8811C7.11956 15.5234 8.21644 15.7917 8.21644 15.7917L17.6074 14.2476C17.6074 14.2476 18.09 13.4486 18.3347 13.4883C19.4328 12.2818 20.7708 11.3181 22.263 10.6589C23.7552 9.99972 25.3687 9.65953 27 9.66016C29.7844 9.66606 32.3494 10.6499 34.3643 12.2775V12.2868Z" fill="#EA4335"/>
<path d="M47.3934 15.8997C46.3025 11.875 44.0539 8.32112 41.0189 5.62534L34.3643 12.28C37.0305 14.4316 38.7408 17.7239 38.7408 21.4094V22.5839C41.9782 22.5839 44.6082 25.2197 44.6082 28.4513C44.6082 31.6888 41.9723 34.3187 38.7408 34.3187H27.0059L25.8314 35.5V42.5419L27.0059 43.7105H38.7408C42.7859 43.7049 46.6638 42.0956 49.5242 39.2353C52.3846 36.3751 53.9942 32.4973 54 28.4522C53.9941 23.2589 51.3844 18.6638 47.3934 15.8997Z" fill="#4285F4"/>
<path d="M15.2592 43.7181H26.9873V34.3187H15.2592C14.426 34.3189 13.6024 34.1399 12.8444 33.7939L11.151 34.3128L6.45131 39.0125L6.03956 40.5988C8.688 42.6192 11.9272 43.7129 15.2584 43.7114L15.2592 43.7181Z" fill="#34A853"/>
<path d="M15.2592 13.1997C11.2141 13.2053 7.33621 14.8146 4.47578 17.6749C1.61536 20.5351 0.00580364 24.4129 0 28.4581C0 33.4134 2.37347 37.8195 6.04631 40.6106L12.8503 33.8066C11.8204 33.3422 10.9464 32.5906 10.3329 31.6419C9.7195 30.6933 9.39272 29.5878 9.39178 28.4581C9.39178 25.2206 12.0277 22.5906 15.2592 22.5906C17.6386 22.5906 19.6838 24.025 20.6086 26.05L27.4126 19.246C24.6223 15.5732 20.2146 13.1997 15.2592 13.1997Z" fill="#FBBC05"/>
</svg>
