<svg width="274" height="48" viewBox="0 0 137 24" fill="none" xmlns="http://www.w3.org/2000/svg">
<path d="M128.944 23.9523C127.252 23.9523 125.781 23.62 124.533 22.9556C123.285 22.2802 122.311 21.2673 121.613 19.9166C120.926 18.5659 120.582 16.8938 120.582 14.9005C120.582 13.0052 120.941 11.3713 121.661 9.99888C122.38 8.61552 123.375 7.56438 124.644 6.84548C125.914 6.12657 127.358 5.76711 128.976 5.76711C130.531 5.76711 131.912 6.11568 133.118 6.8128C134.324 7.50993 135.26 8.52293 135.927 9.85183C136.604 11.1807 136.942 12.771 136.942 14.6228C136.942 15.2872 136.937 15.8155 136.927 16.2076H124.279V12.7765H133.864L132.055 13.4137C132.055 12.5205 131.928 11.7744 131.674 11.1753C131.431 10.5653 131.071 10.1078 130.595 9.80281C130.119 9.49782 129.542 9.34532 128.865 9.34532C128.156 9.34532 127.532 9.52506 126.993 9.8845C126.464 10.2331 126.051 10.7559 125.755 11.453C125.469 12.1502 125.326 12.9889 125.326 13.9692V15.6522C125.326 16.6543 125.474 17.5039 125.771 18.201C126.067 18.8981 126.49 19.4264 127.04 19.7859C127.59 20.1345 128.241 20.3086 128.992 20.3086C129.817 20.3086 130.5 20.0908 131.039 19.6552C131.579 19.2085 131.917 18.5822 132.055 17.7761H136.863C136.715 19.0397 136.297 20.1345 135.609 21.0602C134.932 21.9862 134.028 22.6997 132.896 23.2007C131.764 23.7018 130.447 23.9523 128.944 23.9523Z" fill="black"/>
<path d="M114.335 0.0481355H119.143V23.478H114.335V0.0481355Z" fill="black"/>
<path d="M106.153 23.9518C105.243 23.9518 104.429 23.7885 103.709 23.4618C103 23.1349 102.398 22.6449 101.9 21.9913C101.403 21.3269 101.033 20.5098 100.79 19.5403L101.297 19.6874V23.478H96.5367V6.24057H101.345V10.0965L100.805 10.1946C101.049 9.26871 101.419 8.479 101.916 7.82544C102.424 7.161 103.043 6.65449 103.773 6.30592C104.503 5.94647 105.323 5.76674 106.233 5.76674C107.597 5.76674 108.782 6.13165 109.787 6.86145C110.792 7.59125 111.564 8.64239 112.104 10.0148C112.643 11.3764 112.913 12.994 112.913 14.8675C112.913 16.7302 112.638 18.3476 112.088 19.7201C111.538 21.0818 110.75 22.1274 109.724 22.8571C108.708 23.587 107.518 23.9518 106.153 23.9518ZM104.661 20.1777C105.381 20.1777 105.984 19.9598 106.47 19.5241C106.968 19.0884 107.338 18.4729 107.581 17.6778C107.835 16.8827 107.962 15.9459 107.962 14.8675C107.962 13.7891 107.835 12.8524 107.581 12.0572C107.338 11.262 106.968 10.6466 106.47 10.2109C105.984 9.76432 105.381 9.54102 104.661 9.54102C103.953 9.54102 103.344 9.76432 102.837 10.2109C102.339 10.6466 101.964 11.2675 101.71 12.0735C101.456 12.8687 101.329 13.8 101.329 14.8675C101.329 15.9459 101.456 16.8827 101.71 17.6778C101.964 18.4729 102.339 19.0884 102.837 19.5241C103.344 19.9598 103.953 20.1777 104.661 20.1777ZM96.5367 0.0481355H101.345V6.24057H96.5367V0.0481355Z" fill="black"/>
<path d="M84.4677 23.9523C83.4203 23.9523 82.4787 23.7399 81.6431 23.315C80.8179 22.8903 80.1672 22.2858 79.6912 21.5014C79.2256 20.7063 78.993 19.7805 78.993 18.7239C78.993 17.1117 79.4532 15.8809 80.3735 15.0312C81.2939 14.1707 82.6216 13.6098 84.3566 13.3484L87.2607 12.9235C87.8425 12.8364 88.3027 12.7275 88.6412 12.5968C88.9797 12.466 89.2283 12.2918 89.3869 12.0739C89.5458 11.8452 89.625 11.5565 89.625 11.208C89.625 10.8485 89.5298 10.5217 89.3394 10.2276C89.1596 9.92264 88.8845 9.68299 88.5143 9.50871C88.1545 9.32354 87.7154 9.23096 87.1971 9.23096C86.3719 9.23096 85.7108 9.45425 85.2135 9.90085C84.7163 10.3366 84.4465 10.9356 84.4043 11.6981H79.4372C79.4796 10.5435 79.8181 9.51961 80.4529 8.62642C81.0982 7.72233 81.9921 7.01975 83.1347 6.51869C84.2772 6.01764 85.5997 5.76711 87.1019 5.76711C88.6782 5.76711 90.0112 6.03399 91.1009 6.56772C92.1906 7.09056 93.0105 7.84215 93.5606 8.82248C94.1212 9.80281 94.4015 10.9738 94.4015 12.3353V19.5244C94.4015 20.2978 94.4544 21.0167 94.5603 21.6811C94.6766 22.3347 94.8406 22.7486 95.0522 22.9229V23.4785H90.0535C89.9372 23.0101 89.8473 22.4818 89.7838 21.8936C89.7202 21.3053 89.6832 20.6844 89.6727 20.031L90.4502 19.6879C90.2493 20.4612 89.879 21.1747 89.3394 21.8282C88.8104 22.4708 88.1281 22.9883 87.2924 23.3803C86.4671 23.7617 85.5255 23.9523 84.4677 23.9523ZM86.245 20.3251C86.922 20.3251 87.5198 20.1725 88.0381 19.8675C88.5565 19.5516 88.9532 19.1159 89.2283 18.5605C89.514 18.005 89.6567 17.3732 89.6567 16.6651V14.4104L90.0535 14.6391C89.7996 14.9877 89.4823 15.2546 89.1014 15.4397C88.7311 15.6249 88.2285 15.7829 87.5938 15.9135L86.3719 16.1587C85.5574 16.322 84.9437 16.5725 84.5312 16.9102C84.1292 17.2479 83.9281 17.7218 83.9281 18.3317C83.9281 18.9417 84.145 19.4264 84.5787 19.7859C85.0126 20.1453 85.5679 20.3251 86.245 20.3251Z" fill="black"/>
<path d="M62.639 6.24087H67.7488L72.1443 21.0276H70.6052L74.8261 6.24087H79.7932L74.001 23.4783H68.6532L62.639 6.24087Z" fill="black"/>
<path d="M55.1227 23.9523C53.4617 23.9523 52.0017 23.5819 50.7429 22.8412C49.4944 22.1006 48.5265 21.044 47.8388 19.6715C47.1618 18.299 46.8232 16.6924 46.8232 14.8515C46.8232 13.0107 47.1618 11.4095 47.8388 10.0479C48.5265 8.67543 49.4944 7.61885 50.7429 6.87815C52.0017 6.13747 53.4617 5.76711 55.1227 5.76711C56.7835 5.76711 58.2382 6.13747 59.4865 6.87815C60.7348 7.61885 61.6976 8.67543 62.3746 10.0479C63.0623 11.4095 63.4061 13.0107 63.4061 14.8515C63.4061 16.6924 63.0623 18.299 62.3746 19.6715C61.6976 21.044 60.7348 22.1006 59.4865 22.8412C58.2382 23.5819 56.7835 23.9523 55.1227 23.9523ZM55.1227 20.1617C55.8209 20.1617 56.4185 19.9655 56.9158 19.5735C57.413 19.1704 57.7938 18.5768 58.0583 17.7925C58.3228 16.9974 58.455 16.017 58.455 14.8515C58.455 13.1196 58.1642 11.807 57.5822 10.9139C57.0004 10.0098 56.1805 9.55773 55.1227 9.55773C54.4244 9.55773 53.8214 9.75924 53.3135 10.1623C52.8164 10.5544 52.4354 11.148 52.1711 11.9432C51.9065 12.7275 51.7742 13.6969 51.7742 14.8515C51.7742 16.0061 51.9065 16.981 52.1711 17.7761C52.4354 18.5714 52.8164 19.1704 53.3135 19.5735C53.8214 19.9655 54.4244 20.1617 55.1227 20.1617Z" fill="black"/>
<path d="M32.7682 0.047989H37.751V19.8269L36.8623 18.7649C36.8623 18.7649 39.3302 18.7649 43.5757 18.7649C47.8211 18.7649 47.2406 23.4779 47.2406 23.4779H32.7682V0.047989Z" fill="black"/>
<path fill-rule="evenodd" clip-rule="evenodd" d="M6.77236 0.0476913C10.4808 0.0476913 13.487 3.15117 13.487 6.9795V9.61401H15.7217C19.4302 9.61401 22.4363 12.7175 22.4363 16.5458C22.4363 20.3741 19.4302 23.4776 15.7217 23.4776H0.0576782V6.9795C0.0576782 3.15117 3.06395 0.0476913 6.77236 0.0476913Z" fill="url(#paint0_linear_649_4703)"/>
<defs>
<linearGradient id="paint0_linear_649_4703" x1="7.58853" y1="4.16508" x2="14.766" y2="23.3341" gradientUnits="userSpaceOnUse">
<stop offset="0.025" stop-color="#FF8E63"/>
<stop offset="0.56" stop-color="#FF7EB0"/>
<stop offset="0.95" stop-color="#4B73FF"/>
</linearGradient>
</defs>
</svg>
