<svg width="129" height="150" viewBox="0 0 43 50" fill="none" xmlns="http://www.w3.org/2000/svg">
<path fill-rule="evenodd" clip-rule="evenodd" d="M5.85053 0L20.0756 13.1179V13.1149V0.0302689H22.8447V13.1766L37.1335 0V14.9563H43V36.5294H37.1515V49.8473L22.8447 37.2666V49.9918H20.0756V37.474L5.86665 50V36.5294H0V14.9563H5.85053V0ZM17.9881 17.694H2.76906V33.7918H5.86318V28.7139L17.9881 17.694ZM8.63557 29.9286V43.8911L20.0756 33.8062V19.5286L8.63557 29.9286ZM22.9244 33.6728V19.5152L34.3677 29.9158V36.5294H34.3825V43.7486L22.9244 33.6728ZM37.1515 33.7918H40.2309V17.694H25.1253L37.1515 28.5998V33.7918ZM34.3644 14.9563V6.2972L24.9743 14.9563H34.3644ZM18.0096 14.9563H8.6196V6.2972L18.0096 14.9563Z" fill="black"/>
</svg>
