<svg width="316" height="80" viewBox="0 0 158 40" fill="none" xmlns="http://www.w3.org/2000/svg">
<path d="M32.0438 19.955C32.0438 20.7658 31.5112 21.4865 30.8899 21.7568V29.2342C30.8899 31.7568 29.5584 34.0991 27.4281 35.3604L21.3034 38.964C20.2382 39.5946 18.9955 39.955 17.8416 39.955C16.6876 39.955 15.4449 39.6847 14.3798 39.0541H14.2022C14.2022 38.964 14.4685 38.7838 14.4685 38.7838C15.1787 38.3333 16.0663 38.1532 17.0427 38.3333C18.2854 38.5135 19.5281 38.3333 20.5933 37.7027L26.718 34.0991C28.4045 33.1081 29.4697 31.3063 29.4697 29.3243V21.8468C28.7595 21.5766 28.3157 20.8559 28.3157 20.045C28.3157 19.2342 29.2034 18.0631 30.2685 18.0631C31.3337 18.0631 32.2213 18.964 32.2213 20.045L32.0438 19.955ZM32.5764 13.6486L26.1854 9.86486V9.14414C26.0079 8.6036 25.7416 8.24324 25.2978 7.97297C24.8539 7.7027 24.3213 7.61261 23.7888 7.79279C23.2562 7.97297 22.9011 8.24324 22.6348 8.69369C22.1022 9.68468 22.4573 10.8559 23.3449 11.3964C23.6112 11.5766 23.9663 11.6667 24.3213 11.6667C24.6764 11.6667 25.1202 11.4865 25.4753 11.3063L31.8663 15.0901C33.5528 16.0811 34.618 17.8829 34.618 19.8649V27.0721C34.618 28.3333 34.1742 29.5045 33.464 30.4955C32.8427 31.2162 32.5764 32.1171 32.5764 33.018V33.3784H32.7539C33.8191 32.6577 34.618 31.7568 35.2393 30.6757C35.8607 29.5946 36.2157 28.3333 36.2157 27.1622V19.955C36.2157 17.4324 34.8843 15.0901 32.7539 13.8288L32.5764 13.6486ZM36.6595 13.9189C36.6595 12.7477 36.3045 11.4865 35.6831 10.4955C35.0618 9.41441 34.1742 8.51351 33.109 7.88288L26.9843 4.27928C24.8539 3.01802 22.1022 3.01802 19.9719 4.27928L13.5809 8.06306C13.4034 7.88288 13.1371 7.79279 12.9596 7.7027C12.427 7.52252 11.8944 7.7027 11.4506 7.88288C11.0067 8.15315 10.6517 8.6036 10.5629 9.05405C10.3854 9.59459 10.5629 10.1351 10.7404 10.5856C11.0955 11.2162 11.8056 11.5766 12.427 11.5766C13.0483 11.5766 13.1371 11.5766 13.4034 11.3063C14.1135 10.8559 14.4685 10.1351 14.3798 9.32432L20.7708 5.54054C22.4573 4.54955 24.5876 4.54955 26.1854 5.54054L32.3101 9.14414C33.3753 9.77477 34.1742 10.7658 34.618 11.8468C34.973 12.7477 35.5056 13.4685 36.3045 13.8288L36.5708 14.009V13.8288L36.6595 13.9189ZM6.56854 21.9369C7.63371 21.9369 8.52135 21.036 8.52135 19.955C8.52135 18.8739 7.98876 18.4234 7.36742 18.1532V10.6757C7.36742 8.69369 8.43258 6.89189 10.1191 5.9009L16.2438 2.2973C17.309 1.66667 18.5517 1.48649 19.7944 1.66667C20.7708 1.84685 21.6584 1.66667 22.3685 1.21622L22.6348 1.03603H22.4573C21.3921 0.315314 20.2382 0.0450439 18.9955 0.0450439C17.7528 0.0450439 16.5101 0.405404 15.5337 1.03603L9.40899 4.63964C7.27865 5.9009 5.94719 8.24324 5.94719 10.7658V18.2432C5.23708 18.5135 4.79326 19.2342 4.79326 20.045C4.79326 20.8559 5.6809 22.027 6.74607 22.027L6.56854 21.9369ZM4.08315 26.3513L10.4742 30.1351V30.8559C10.6517 31.3964 10.918 31.7568 11.3618 32.027C11.6281 32.2072 11.9831 32.2973 12.3382 32.2973H12.8708C13.4034 32.1171 13.7584 31.8468 14.0247 31.3964C14.5573 30.4054 14.2022 29.2342 13.3146 28.6937C12.6045 28.2432 11.8056 28.3333 11.1843 28.7838L4.79326 25C3.10674 24.009 2.04157 22.2072 2.04157 20.2252V13.018C2.04157 11.7568 2.48539 10.5856 3.19551 9.59459C3.81685 8.87387 4.08315 7.97297 4.08315 7.07207V6.71171H3.90562C2.84045 7.43243 2.04157 8.33333 1.42022 9.41441C0.798876 10.4955 0.44382 11.7568 0.44382 12.9279V20.1351C0.44382 22.6577 1.77528 25 3.90562 26.2613L4.08315 26.3513ZM22.9899 31.9369C23.1674 32.1171 23.4337 32.2072 23.6112 32.2973H24.1438C24.4989 32.2973 24.8539 32.2072 25.1202 32.027C25.564 31.7568 25.9191 31.3063 26.0079 30.8559C26.1854 30.3153 26.0079 29.7748 25.8303 29.3243C25.2978 28.3333 24.0551 28.0631 23.1674 28.6036C22.4573 29.0541 22.1022 29.7748 22.191 30.5856L15.8 34.3694C14.9784 34.8562 14.0441 35.1127 13.0927 35.1127C12.1413 35.1127 11.207 34.8562 10.3854 34.3694L4.26067 30.7658C3.19551 30.1351 2.39663 29.1441 1.95281 28.0631C1.59775 27.1622 1.06517 26.4414 0.266292 26.0811L0 25.9009V26.0811C0 27.2523 0.355056 28.5135 0.976404 29.5045C1.59775 30.5856 2.48539 31.4865 3.55056 32.1171L9.67528 35.7207C10.7404 36.3514 11.9831 36.7117 13.1371 36.7117C14.291 36.7117 15.5337 36.3514 16.5989 35.7207L22.9899 31.9369Z" fill="#F2229C"/>
<path d="M80.7753 20.4054C80.509 20.2252 80.2427 20.045 79.9764 20.045V19.7748C80.2427 19.7748 80.509 19.5946 80.7753 19.4144C81.0416 19.2342 81.3079 18.964 81.4854 18.6036C81.6629 18.2432 81.7517 17.7928 81.7517 17.2523V17.0721C81.7517 16.4414 81.5742 15.991 81.3079 15.5405C81.0416 15.0901 80.5977 14.7297 80.0652 14.5495C79.5326 14.2793 78.9112 14.1892 78.2899 14.1892H73.9405V25.9009H78.2899C79 25.9009 79.5326 25.8108 80.0652 25.5405C80.5977 25.2703 80.9528 24.9099 81.3079 24.4595C81.5742 24.009 81.7517 23.4685 81.7517 22.8378V22.6577C81.7517 22.1171 81.6629 21.6667 81.4854 21.3063C81.3079 20.9459 81.0416 20.6757 80.7753 20.4955V20.4054ZM75.8045 15.7207H78.1124C78.6449 15.7207 79.1775 15.9009 79.4438 16.1712C79.7989 16.4414 79.9764 16.8018 79.9764 17.3423V17.5225C79.9764 17.973 79.7989 18.4234 79.4438 18.6937C79.0888 18.964 78.6449 19.1441 78.1124 19.1441H75.8045V15.7207ZM80.0652 22.5676C80.0652 23.1081 79.8876 23.4685 79.5326 23.7387C79.1775 24.009 78.7337 24.1892 78.1124 24.1892H75.8045V20.7658H78.1124C78.7337 20.7658 79.1775 20.9459 79.5326 21.2162C79.8876 21.4865 80.0652 21.9369 80.0652 22.3874V22.5676ZM54.6786 14.4595C54.1461 14.1892 53.5247 14.0991 52.8146 14.0991H47.9326V25.8108H49.7079V21.2162H53.2584C53.6135 21.2162 53.8798 21.2162 53.9685 21.4865C54.1461 21.6667 54.2348 21.9369 54.2348 22.2072V25.8108H56.0101V21.9369C56.0101 21.4865 55.9213 21.036 55.6551 20.7658C55.3888 20.4955 55.0337 20.4054 54.6786 20.3153V20.045C55.2112 19.8649 55.5663 19.5946 55.9213 19.1441C56.2764 18.6937 56.4539 18.1532 56.4539 17.3423V17.1622C56.4539 16.5315 56.2764 15.991 56.0101 15.4504C55.7438 15 55.3 14.6396 54.7674 14.3694L54.6786 14.4595ZM54.5899 17.7027C54.5899 18.2432 54.4124 18.6937 54.0573 19.0541C53.7022 19.4144 53.1697 19.5045 52.5483 19.5045H49.7079V15.7207H52.5483C53.1697 15.7207 53.7022 15.9009 54.0573 16.1712C54.4124 16.5315 54.5899 16.982 54.5899 17.5225V17.7027ZM105.718 14.0991H107.582L104.387 25.8108H101.28L98.0843 14.0991H99.9483L102.789 24.6396H102.966L105.718 14.0991ZM111.31 14.0991H113.085V25.8108H111.31V14.0991ZM125.335 20.8559C125.69 21.3063 125.867 21.8468 125.867 22.5676C125.867 23.2883 125.69 23.9189 125.335 24.3694C124.98 24.9099 124.536 25.2703 123.826 25.6306C123.204 25.9009 122.406 26.0811 121.607 26.0811C120.719 26.0811 120.009 25.9009 119.299 25.6306C118.589 25.3604 118.145 24.8198 117.701 24.2793C117.346 23.6486 117.169 22.9279 117.169 22.027V21.5766H118.944V22.027C118.944 22.8378 119.21 23.4685 119.654 23.9189C120.187 24.3694 120.808 24.5495 121.607 24.5495C122.406 24.5495 123.027 24.3694 123.471 24.009C123.915 23.6486 124.092 23.1982 124.092 22.6577C124.092 22.1171 124.003 22.027 123.826 21.7568C123.648 21.4865 123.382 21.3063 123.027 21.2162C122.672 21.036 122.228 20.9459 121.696 20.8559L121.074 20.6757C120.364 20.4955 119.743 20.3153 119.121 20.045C118.589 19.7748 118.145 19.4144 117.879 18.964C117.612 18.5135 117.435 17.973 117.435 17.2523C117.435 16.5315 117.612 15.991 117.967 15.4504C118.322 15 118.766 14.5495 119.388 14.2793C120.009 14.009 120.719 13.9189 121.518 13.9189C122.317 13.9189 123.027 14.0991 123.648 14.3694C124.27 14.6396 124.802 15.0901 125.157 15.6306C125.512 16.1712 125.69 16.8919 125.69 17.7027V18.3333H123.915V17.7027C123.915 17.1622 123.826 16.8018 123.648 16.4414C123.471 16.1712 123.204 15.9009 122.761 15.7207C122.406 15.5405 121.962 15.5405 121.518 15.5405C120.808 15.5405 120.275 15.7207 119.92 15.991C119.565 16.2613 119.299 16.7117 119.299 17.2523C119.299 17.7928 119.299 17.8829 119.565 18.1532C119.743 18.4234 120.009 18.6036 120.275 18.6937C120.63 18.8739 120.985 18.964 121.518 19.0541L122.139 19.2342C122.849 19.4144 123.56 19.5946 124.092 19.8649C124.625 20.1351 125.157 20.4955 125.424 20.9459L125.335 20.8559ZM129.862 14.0991H131.637V25.8108H129.862V14.0991ZM158 14.0991V25.8108H154.538L151.431 15.2703H151.165V25.8108H149.39V14.0991H152.852L155.958 24.6396H156.225V14.0991H158ZM64.8865 13.8288C62.3124 13.8288 60.2708 15.9009 60.2708 18.5135V21.3063C60.2708 23.9189 62.3124 25.991 64.8865 25.991C67.4607 25.991 69.5023 23.9189 69.5023 21.3063V18.5135C69.5023 15.9009 67.4607 13.8288 64.8865 13.8288ZM67.727 21.3964C67.727 23.018 66.3955 24.2793 64.8865 24.2793C63.3775 24.2793 62.0461 22.9279 62.0461 21.3964V18.6036C62.0461 16.982 63.3775 15.7207 64.8865 15.7207C66.3955 15.7207 67.727 17.0721 67.727 18.6036V21.3964ZM90.273 13.9189C87.6989 13.9189 85.6573 15.991 85.6573 18.6036V21.3964C85.6573 24.009 87.6989 26.0811 90.273 26.0811C92.8472 26.0811 94.8888 24.009 94.8888 21.3964V18.6036C94.8888 15.991 92.8472 13.9189 90.273 13.9189ZM93.2022 21.3964C93.2022 23.018 91.8708 24.2793 90.3618 24.2793C88.8528 24.2793 87.5213 22.9279 87.5213 21.3964V18.6036C87.5213 16.982 88.8528 15.7207 90.3618 15.7207C91.8708 15.7207 93.2022 17.0721 93.2022 18.6036V21.3964ZM140.425 13.9189C137.851 13.9189 135.809 15.991 135.809 18.6036V21.3964C135.809 24.009 137.851 26.0811 140.425 26.0811C142.999 26.0811 145.04 24.009 145.04 21.3964V18.6036C145.04 15.991 142.999 13.9189 140.425 13.9189ZM143.354 21.3964C143.354 23.018 142.022 24.2793 140.513 24.2793C139.004 24.2793 137.673 22.9279 137.673 21.3964V18.6036C137.673 16.982 139.004 15.7207 140.513 15.7207C142.022 15.7207 143.354 17.0721 143.354 18.6036V21.3964Z" fill="black"/>
</svg>
