<svg width="141" height="138" viewBox="0 0 47 46" fill="none" xmlns="http://www.w3.org/2000/svg">
<path fill-rule="evenodd" clip-rule="evenodd" d="M44.8571 19.8687L39.4357 23.0033L44.8571 26.128C45.1917 26.3103 45.4865 26.5576 45.7241 26.8555C45.9617 27.1534 46.1373 27.4958 46.2406 27.8626C46.3438 28.2293 46.3727 28.6131 46.3254 28.9911C46.2782 29.3692 46.1558 29.7341 45.9654 30.0641C45.7751 30.3942 45.5206 30.6829 45.217 30.9131C44.9135 31.1434 44.5669 31.3106 44.1977 31.4049C43.8285 31.4992 43.4442 31.5187 43.0674 31.4623C42.6906 31.4059 42.3288 31.2746 42.0035 31.0763L32.2925 25.4709C31.6676 25.1126 31.2033 24.529 30.9947 23.8395C30.9 23.5395 30.8567 23.2257 30.8665 22.9113C30.8731 22.6862 30.906 22.4611 30.9651 22.2361C31.1655 21.5129 31.6408 20.8968 32.2893 20.5193L41.9969 14.9204C42.3217 14.7331 42.6802 14.6117 43.0519 14.563C43.4236 14.5143 43.8013 14.5394 44.1633 14.6367C44.5254 14.7341 44.8647 14.9018 45.1619 15.1303C45.4591 15.3588 45.7083 15.6437 45.8954 15.9686C46.0846 16.2924 46.2079 16.6504 46.2581 17.022C46.3083 17.3937 46.2845 17.7716 46.1879 18.134C46.0914 18.4964 45.9241 18.8361 45.6957 19.1335C45.4673 19.431 45.1823 19.6819 44.8571 19.8687ZM39.7232 35.0586L30.0205 29.463C29.5209 29.1705 28.943 29.0396 28.3661 29.0884C27.6472 29.1412 26.9749 29.4644 26.4847 29.993C25.9946 30.5216 25.7229 31.2163 25.7244 31.9371V43.1414C25.7153 43.5223 25.7824 43.9011 25.9218 44.2556C26.0612 44.6101 26.2702 44.9331 26.5363 45.2057C26.8024 45.4783 27.1203 45.6949 27.4714 45.8428C27.8225 45.9907 28.1996 46.0669 28.5805 46.0669C28.9615 46.0669 29.3386 45.9907 29.6896 45.8428C30.0407 45.6949 30.3586 45.4783 30.6247 45.2057C30.8909 44.9331 31.0998 44.6101 31.2392 44.2556C31.3786 43.9011 31.4458 43.5223 31.4366 43.1414V36.8739L36.8696 40.0101C37.1938 40.1986 37.5521 40.3212 37.9239 40.3708C38.2957 40.4204 38.6736 40.3962 39.036 40.2994C39.3983 40.2026 39.738 40.0353 40.0355 39.8069C40.3331 39.5785 40.5825 39.2936 40.7697 38.9686C41.1486 38.3111 41.2512 37.5302 41.055 36.7972C40.8588 36.0641 40.3798 35.4389 39.7232 35.0586ZM28.5255 24.0974L24.4906 28.1274C24.3525 28.2561 24.1732 28.3318 23.9846 28.3409H22.8001C22.6118 28.3306 22.4329 28.2551 22.2941 28.1274L18.2593 24.0974C18.1337 23.959 18.06 23.7814 18.0506 23.5947V22.4086C18.0506 22.2443 18.1426 22.0159 18.2593 21.8993L22.2908 17.871C22.4299 17.7441 22.6088 17.6698 22.7968 17.6607H23.9846C24.1489 17.6607 24.374 17.7527 24.4906 17.871L28.5255 21.9009C28.6405 22.0159 28.7341 22.2443 28.7341 22.4102V23.5964C28.7236 23.7827 28.65 23.9584 28.5255 24.0974ZM25.3006 22.9803C25.2876 22.7913 25.2119 22.612 25.0853 22.471L23.9189 21.3062C23.7791 21.1793 23.5998 21.1045 23.4113 21.0943H23.3653C23.1781 21.1053 23.0004 21.1807 22.8626 21.3079L21.6961 22.471C21.5724 22.6129 21.5001 22.7923 21.4908 22.9803V23.0263C21.4908 23.1889 21.5795 23.414 21.6945 23.529L22.8626 24.6954C22.9776 24.8121 23.2026 24.909 23.3653 24.909H23.4113C23.5993 24.8974 23.7778 24.8221 23.9173 24.6954L25.0853 23.529C25.2118 23.3907 25.2871 23.2133 25.2989 23.0263L25.3006 22.9803ZM7.05991 10.9349L16.7676 16.537C17.29 16.8376 17.8683 16.9576 18.4236 16.9116C19.1427 16.8573 19.8147 16.5332 20.3049 16.0043C20.7951 15.4754 21.0673 14.7807 21.0669 14.0596V2.85528C21.049 2.10966 20.7403 1.40059 20.2066 0.879557C19.6729 0.358529 18.9566 0.066859 18.2108 0.066859C17.465 0.066859 16.7487 0.358529 16.215 0.879557C15.6813 1.40059 15.3726 2.10966 15.3547 2.85528V9.12443L9.91684 5.98328C9.26022 5.60421 8.47991 5.50151 7.74756 5.69777C7.01522 5.89402 6.39084 6.37316 6.01177 7.02978C5.6327 7.6864 5.52999 8.46671 5.72625 9.19906C5.92251 9.9314 6.40329 10.5558 7.05991 10.9349ZM28.3678 16.9116C28.944 16.9587 29.5209 16.828 30.0205 16.537L39.7232 10.9349C40.3796 10.5552 40.8585 9.93051 41.0548 9.19802C41.251 8.46553 41.1484 7.6851 40.7697 7.02814C40.391 6.37244 39.7674 5.894 39.036 5.69805C38.3046 5.50211 37.5253 5.60471 36.8696 5.98328L31.435 9.12607V2.852C31.435 2.09473 31.1342 1.36848 30.5987 0.833006C30.0632 0.297536 29.337 -0.00328827 28.5797 -0.00328827C27.8224 -0.00328827 27.0962 0.297536 26.5607 0.833006C26.0252 1.36848 25.7244 2.09473 25.7244 2.852V14.0579C25.7228 14.7791 25.9944 15.4742 26.4845 16.0033C26.9746 16.5325 27.6469 16.8564 28.3661 16.9099L28.3678 16.9116ZM18.4236 29.0884C17.8461 29.0393 17.2676 29.1701 16.7676 29.463L7.05827 35.0586C6.4025 35.4397 5.92451 36.0652 5.72898 36.7981C5.53345 37.5309 5.63632 38.3114 6.01505 38.9686C6.39427 39.6233 7.01783 40.1007 7.74879 40.296C8.47975 40.4913 9.25834 40.3885 9.91355 40.0101L15.3514 36.8739V43.1431C15.3514 43.9006 15.6523 44.627 16.1879 45.1626C16.7236 45.6983 17.45 45.9992 18.2075 45.9992C18.965 45.9992 19.6915 45.6983 20.2271 45.1626C20.7627 44.627 21.0636 43.9006 21.0636 43.1431V31.9371C21.0656 31.2164 20.7942 30.5217 20.3043 29.9931C19.8144 29.4645 19.1423 29.1412 18.4236 29.0884ZM15.7917 23.8395C15.887 23.5356 15.9264 23.2218 15.9198 22.9113C15.9062 22.4232 15.7673 21.9468 15.5164 21.5279C15.2655 21.109 14.9111 20.7617 14.4873 20.5193L4.78784 14.9204C4.46305 14.7327 4.10442 14.6108 3.73247 14.5619C3.36053 14.513 2.98259 14.5379 2.62029 14.6353C2.258 14.7326 1.91847 14.9005 1.62117 15.1293C1.32386 15.3581 1.07461 15.6433 0.887695 15.9686C0.699409 16.2929 0.577063 16.6513 0.527683 17.0231C0.478304 17.3948 0.502865 17.7727 0.599955 18.135C0.697045 18.4972 0.864751 18.8367 1.09344 19.134C1.32213 19.4312 1.60729 19.6804 1.93255 19.8671L7.35398 23.0033L1.92927 26.128C1.5974 26.3118 1.30548 26.5599 1.07053 26.8578C0.835578 27.1557 0.662307 27.4974 0.560828 27.8629C0.459349 28.2285 0.431694 28.6106 0.479477 28.9869C0.52726 29.3633 0.649524 29.7264 0.839134 30.055C1.02874 30.3836 1.2819 30.6711 1.58383 30.9008C1.88577 31.1305 2.23043 31.2978 2.5977 31.3929C2.96497 31.4879 3.34751 31.5089 3.72297 31.4546C4.09844 31.4002 4.45932 31.2716 4.78455 31.0763L14.4856 25.4709C15.1428 25.0963 15.5863 24.5049 15.7917 23.8395Z" fill="#249EDC"/>
</svg>
