<svg width="254" height="52" viewBox="0 0 127 26" fill="none" xmlns="http://www.w3.org/2000/svg">
<path d="M28.9882 26L14.4947 0L0.00114441 26H28.9882ZM43.6064 24.8164L55.7188 1.18183H50.4798L42.1244 18.3461L33.769 1.18183H28.5299L40.6423 24.8164H43.6064ZM126.152 1.18183V24.8165H121.815V1.18183H126.152ZM102.008 15.995C102.008 14.1531 102.381 12.533 103.127 11.1349C103.872 9.73685 104.911 8.6605 106.244 7.906C107.577 7.15145 109.136 6.7742 110.921 6.7742C112.502 6.7742 113.925 7.12925 115.19 7.8394C116.455 8.54955 117.46 9.6037 118.206 11.0018C118.951 12.3999 119.335 14.1087 119.358 16.1282V17.1601H106.583C106.673 18.6248 107.091 19.7788 107.837 20.6221C108.605 21.4432 109.633 21.8538 110.921 21.8538C111.734 21.8538 112.479 21.6318 113.157 21.188C113.834 20.7441 114.343 20.1449 114.682 19.3904L119.121 19.7233C118.578 21.3877 117.562 22.7192 116.071 23.7179C114.58 24.7165 112.863 25.2159 110.921 25.2159C109.136 25.2159 107.577 24.8386 106.244 24.084C104.911 23.3295 103.872 22.2532 103.127 20.8551C102.381 19.457 102.008 17.8369 102.008 15.995ZM114.885 14.3306C114.727 12.8881 114.286 11.834 113.563 11.1683C112.841 10.4803 111.959 10.1363 110.921 10.1363C109.723 10.1363 108.752 10.5025 108.006 11.2348C107.261 11.9672 106.798 12.9991 106.617 14.3306H114.885ZM94.6913 11.1683C95.4141 11.7674 95.8658 12.5997 96.0466 13.6649L100.52 13.4319C100.361 12.0781 99.8983 10.902 99.1305 9.9033C98.3622 8.90465 97.368 8.139 96.1484 7.6064C94.9511 7.0516 93.6298 6.7742 92.1838 6.7742C90.399 6.7742 88.8406 7.15145 87.5076 7.906C86.1746 8.6605 85.1358 9.73685 84.3903 11.1349C83.6447 12.533 83.272 14.1531 83.272 15.995C83.272 17.8369 83.6447 19.457 84.3903 20.8551C85.1358 22.2532 86.1746 23.3295 87.5076 24.084C88.8406 24.8386 90.399 25.2159 92.1838 25.2159C93.6748 25.2159 95.0302 24.9384 96.2502 24.3836C97.4698 23.8066 98.464 22.9966 99.2318 21.9536C100 20.9106 100.463 19.69 100.621 18.2919L96.1145 18.0922C95.9565 19.2683 95.5159 20.1783 94.7931 20.8218C94.0699 21.4432 93.2003 21.7539 92.1838 21.7539C90.7834 21.7539 89.6991 21.2545 88.9308 20.2559C88.1629 19.2572 87.7785 17.8369 87.7785 15.995C87.7785 14.1531 88.1629 12.7328 88.9308 11.7341C89.6991 10.7355 90.7834 10.2361 92.1838 10.2361C93.1552 10.2361 93.9909 10.5469 94.6913 11.1683ZM72.6883 7.17285H76.7242L76.841 10.5684C77.1275 9.6073 77.526 8.8609 78.0364 8.32925C78.7761 7.5583 79.8076 7.17285 81.1304 7.17285H82.7785V10.8073H81.097C80.1552 10.8073 79.3815 10.9394 78.7761 11.2037C78.193 11.4681 77.7446 11.8866 77.431 12.4593C77.1391 13.032 76.9937 13.7589 76.9937 14.6399V24.8164H72.6883V7.17285ZM54.0712 11.1349C53.3257 12.533 52.9529 14.1531 52.9529 15.995C52.9529 17.8369 53.3257 19.457 54.0712 20.8551C54.8167 22.2532 55.8555 23.3295 57.1885 24.084C58.5215 24.8386 60.0799 25.2159 61.8647 25.2159C63.8075 25.2159 65.5245 24.7165 67.0155 23.7179C68.5061 22.7192 69.523 21.3877 70.065 19.7233L65.6258 19.3904C65.2869 20.1449 64.7789 20.7441 64.1013 21.188C63.4236 21.6318 62.6781 21.8538 61.8647 21.8538C60.5773 21.8538 59.5492 21.4432 58.7813 20.6221C58.0358 19.7788 57.618 18.6248 57.5273 17.1601H70.302V16.1282C70.2797 14.1087 69.8958 12.3999 69.1503 11.0018C68.4048 9.6037 67.3994 8.54955 66.1343 7.8394C64.8691 7.12925 63.4459 6.7742 61.8647 6.7742C60.0799 6.7742 58.5215 7.15145 57.1885 7.906C55.8555 8.6605 54.8167 9.73685 54.0712 11.1349ZM64.508 11.1683C65.2307 11.834 65.6713 12.8881 65.8294 14.3306H57.5613C57.7421 12.9991 58.205 11.9672 58.9505 11.2348C59.696 10.5025 60.6674 10.1363 61.8647 10.1363C62.904 10.1363 63.7848 10.4803 64.508 11.1683Z" fill="black"/>
</svg>
