<svg width="284" height="56" viewBox="0 0 142 28" fill="none" xmlns="http://www.w3.org/2000/svg">
<path d="M0.107962 10.6021C0.107962 8.80247 0.107962 7.90376 0.595731 7.6215C1.08578 7.34376 1.87214 7.79311 3.44485 8.69408L9.35278 12.0721C10.9255 12.9731 11.7141 13.4225 12.2019 14.2625C12.6919 15.1002 12.6919 16.0012 12.6919 17.8009V24.5592C12.6919 26.3589 12.6919 27.2599 12.2042 27.5399C11.7141 27.8176 10.9278 27.3683 9.35506 26.4673L3.44713 23.0892C1.87441 22.1883 1.08578 21.7389 0.59801 20.8989C0.105682 20.0657 0.105682 19.1625 0.105682 17.3628V10.6021H0.107962Z" fill="#0F0518"/>
<path fill-rule="evenodd" clip-rule="evenodd" d="M6.74071 4.04021C6.25066 4.32021 6.25066 5.21892 6.25066 7.02086V7.50634C6.25294 7.50634 6.2575 7.50634 6.25978 7.51086L12.1677 10.8889C13.7404 11.7899 14.5268 12.2392 15.0168 13.0792C15.5046 13.917 15.5046 14.818 15.5046 16.6176V22.8905C17.0727 23.787 17.8591 24.2341 18.3469 23.9563C18.8346 23.6763 18.8346 22.7754 18.8346 20.9757V14.2196C18.8346 12.4199 18.8346 11.5189 18.3469 10.6812C17.8568 9.84118 17.0705 9.39408 15.4978 8.49086L9.58982 5.11279C8.01711 4.21182 7.22848 3.76247 6.74071 4.04247V4.04021Z" fill="#0F0518"/>
<path fill-rule="evenodd" clip-rule="evenodd" d="M13.0042 0.461179C12.5142 0.738921 12.5142 1.63989 12.5142 3.44182V3.92505L12.5233 3.92957L18.4312 7.30989C20.0039 8.2086 20.7926 8.65795 21.2803 9.49795C21.7704 10.3357 21.7704 11.2367 21.7704 13.0363V19.3092C23.3385 20.208 24.1226 20.655 24.6104 20.375C25.0981 20.095 25.0981 19.1963 25.0981 17.3944V10.6405C25.0981 8.84086 25.0981 7.93989 24.6104 7.09989C24.1226 6.26215 23.334 5.81279 21.7613 4.91182L15.8533 1.5315C14.2806 0.630534 13.492 0.181179 13.0042 0.461179Z" fill="#0F0518"/>
<path d="M33.5338 6.88086C33.4972 6.88087 33.4612 6.88962 33.4287 6.90635C33.3962 6.92308 33.3683 6.94731 33.3473 6.97699C33.3263 7.00666 33.3128 7.04092 33.308 7.07685C33.3031 7.11279 33.3071 7.14934 33.3196 7.18344L38.6303 21.7254C38.6462 21.769 38.6753 21.8067 38.7137 21.8334C38.752 21.8601 38.7977 21.8744 38.8446 21.8744H41.4566C41.5035 21.8744 41.5492 21.8601 41.5875 21.8334C41.6258 21.8067 41.655 21.769 41.6709 21.7254L44.9667 12.876L48.2352 21.7254C48.2512 21.769 48.2803 21.8067 48.3186 21.8334C48.357 21.8601 48.4027 21.8744 48.4495 21.8744H51.0912C51.138 21.8744 51.1837 21.8601 51.2221 21.8334C51.2604 21.8067 51.2895 21.769 51.3055 21.7254L56.6481 7.18344C56.6606 7.14934 56.6645 7.11279 56.6597 7.07685C56.6549 7.04092 56.6414 7.00666 56.6204 6.97699C56.5994 6.94731 56.5714 6.92308 56.539 6.90635C56.5065 6.88962 56.4705 6.88087 56.4339 6.88086H52.8326C52.7842 6.88105 52.7372 6.89646 52.6983 6.92487C52.6594 6.95329 52.6306 6.99323 52.6161 7.03892L49.7578 15.8363L46.5326 7.02989C46.5167 6.98625 46.4876 6.94853 46.4492 6.92186C46.4109 6.89519 46.3652 6.88088 46.3184 6.88086H43.5878C43.5407 6.88104 43.4948 6.89569 43.4564 6.92278C43.418 6.94988 43.3891 6.98808 43.3735 7.03215L40.2053 15.8341L37.322 7.03666C37.307 6.99102 37.2777 6.95131 37.2383 6.9233C37.199 6.89528 37.1516 6.88041 37.1032 6.88086H33.5338Z" fill="#0F0518"/>
<path fill-rule="evenodd" clip-rule="evenodd" d="M72.3274 21.8744C72.3878 21.8744 72.4458 21.8506 72.4885 21.8083C72.5313 21.7659 72.5553 21.7085 72.5553 21.6486V7.10666C72.5553 7.04678 72.5313 6.98934 72.4885 6.94699C72.4458 6.90465 72.3878 6.88086 72.3274 6.88086H68.9951C68.9346 6.88086 68.8766 6.90465 68.8339 6.94699C68.7911 6.98934 68.7671 7.04678 68.7671 7.10666V8.38473C68.3345 7.9171 67.8153 7.53611 67.2377 7.26247C66.326 6.81086 65.3482 6.58505 64.3134 6.58505C62.9709 6.58505 61.7378 6.93279 60.6209 7.62828C59.4986 8.31201 58.5878 9.28852 57.9883 10.4509C57.3452 11.6551 57.0161 12.9995 57.031 14.3618C57.0185 15.734 57.3473 17.088 57.9883 18.3044C58.5929 19.4698 59.5021 20.4531 60.6209 21.1518L60.6232 21.1541C61.7401 21.8315 62.9709 22.1702 64.3157 22.1702C65.3194 22.1727 66.3096 21.9406 67.2058 21.4928C67.7952 21.2203 68.3255 20.8368 68.7671 20.3638V21.6463C68.7671 21.7062 68.7911 21.7637 68.8339 21.806C68.8766 21.8484 68.9346 21.8721 68.9951 21.8721H72.3274V21.8744ZM68.7945 16.9202C68.7899 16.9202 68.7876 16.9247 68.7854 16.927C68.7854 16.9315 68.7808 16.936 68.7762 16.9405L68.7922 16.918L68.7945 16.9202ZM65.004 18.5686C64.2017 18.5686 63.4814 18.388 62.8387 18.0334C62.2145 17.659 61.6956 17.1348 61.3298 16.5092C60.9652 15.8526 60.7791 15.1134 60.7896 14.3641C60.7896 13.567 60.9719 12.8512 61.3298 12.2144C61.6902 11.5952 62.2091 11.0812 62.8341 10.7241C63.4983 10.3622 64.2461 10.1777 65.004 10.1889C65.804 10.1889 66.5562 10.3854 67.2628 10.7828C67.8878 11.1187 68.408 11.6177 68.7671 12.2257V16.5499C68.3864 17.1457 67.8584 17.6354 67.2332 17.9725H67.2309C66.5471 18.3699 65.804 18.5663 65.004 18.5663V18.5686Z" fill="#0F0518"/>
<path d="M77.7361 21.5944H77.7407C78.8958 21.9737 80.1046 22.1681 81.3215 22.1702C82.468 22.1702 83.4914 21.9783 84.3848 21.5876H84.3871C85.2988 21.1744 86.0123 20.6167 86.5205 19.9054C87.042 19.1934 87.3199 18.335 87.3137 17.4554C87.3137 16.4257 87.0402 15.5744 86.4772 14.9309C85.9639 14.3164 85.3066 13.8357 84.5626 13.5309C83.6845 13.1741 82.7809 12.882 81.8594 12.657C81.244 12.4989 80.7197 12.3544 80.2867 12.2167C79.9486 12.0961 79.6294 11.9289 79.3385 11.7199C79.2467 11.6369 79.1741 11.5352 79.1257 11.4217C79.0773 11.3083 79.0543 11.1859 79.0581 11.0628C79.0581 10.706 79.2063 10.4418 79.5208 10.2431C79.8718 10.0354 80.3847 9.92021 81.0822 9.92021C81.7318 9.92021 82.4452 10.0534 83.227 10.3244H83.2338C83.955 10.5349 84.6231 10.8942 85.194 11.3789C85.2198 11.4017 85.2505 11.4184 85.2838 11.4277C85.3171 11.437 85.3521 11.4387 85.3862 11.4326C85.4202 11.4265 85.4524 11.4128 85.4803 11.3925C85.5083 11.3723 85.5311 11.346 85.5473 11.3157L86.9263 8.66924C86.9501 8.62419 86.9579 8.57247 86.9484 8.52247C86.9389 8.47246 86.9126 8.42711 86.8738 8.39376C86.206 7.81344 85.3558 7.37537 84.3324 7.07053C83.3316 6.747 82.2853 6.58312 81.2326 6.58505C80.0861 6.58505 79.0536 6.77699 78.1396 7.16763C77.2902 7.52048 76.5592 8.10455 76.0312 8.85215C75.5234 9.59011 75.2583 10.4656 75.2722 11.3586C75.2722 12.3883 75.5321 13.2283 76.0768 13.856C76.5812 14.4448 77.2205 14.9055 77.9413 15.1996C78.8144 15.5072 79.7067 15.7584 80.6126 15.9515C81.228 16.087 81.7386 16.2247 82.1511 16.3602H82.1534C82.5705 16.4957 82.8896 16.6673 83.1176 16.8796L83.1267 16.8841C83.2258 16.9631 83.3051 17.0637 83.3585 17.178C83.4119 17.2924 83.4379 17.4175 83.4344 17.5434C83.4344 17.9115 83.2657 18.2118 82.8805 18.4534C82.4885 18.7018 81.9551 18.835 81.2622 18.835C80.3658 18.8199 79.4786 18.6534 78.6387 18.3428C77.7179 18.0131 77.0091 17.6021 76.4962 17.1144C76.4707 17.0905 76.4399 17.0728 76.4063 17.0627C76.3727 17.0526 76.3372 17.0502 76.3026 17.0559C76.268 17.0616 76.2351 17.0751 76.2066 17.0955C76.1781 17.1158 76.1548 17.1424 76.1384 17.1731L74.7867 19.7609C74.7637 19.8059 74.7566 19.8573 74.7665 19.9068C74.7764 19.9563 74.8028 20.0012 74.8414 20.0341C75.5868 20.6731 76.5555 21.1902 77.7361 21.5921V21.5944Z" fill="#0F0518"/>
<path fill-rule="evenodd" clip-rule="evenodd" d="M103.02 21.8744C103.081 21.8744 103.139 21.8506 103.182 21.8083C103.224 21.7659 103.248 21.7085 103.248 21.6486V12.3386C103.228 12.1953 103.205 12.0522 103.18 11.9096C103.465 11.4397 103.854 11.0411 104.32 10.7444L104.322 10.7421C104.885 10.332 105.563 10.107 106.262 10.0986C107.21 10.0986 107.923 10.3967 108.431 10.9725L108.434 10.977C108.969 11.5596 109.245 12.3544 109.245 13.3818V21.6463C109.245 21.7062 109.269 21.7637 109.312 21.806C109.355 21.8484 109.413 21.8721 109.473 21.8721H112.865C112.925 21.8721 112.983 21.8484 113.026 21.806C113.069 21.7637 113.093 21.7062 113.093 21.6463V12.7586C113.093 11.5392 112.826 10.4576 112.283 9.52731C111.782 8.59786 111.008 7.84112 110.063 7.35731C109.081 6.8322 107.979 6.56699 106.863 6.58731C105.699 6.57471 104.557 6.9082 103.586 7.54473C103.031 7.89759 102.524 8.31869 102.077 8.79795C101.668 8.13114 101.09 7.58281 100.399 7.20828C99.6174 6.79053 98.6988 6.58731 97.6481 6.58731C96.5358 6.58731 95.5739 6.82215 94.7716 7.30311C94.2636 7.5883 93.8025 7.94845 93.404 8.37118V7.10666C93.404 7.04677 93.38 6.98934 93.3372 6.94699C93.2945 6.90465 93.2365 6.88086 93.1761 6.88086H89.8438C89.7833 6.88086 89.7253 6.90465 89.6826 6.94699C89.6398 6.98934 89.6158 7.04677 89.6158 7.10666V21.6486C89.6158 21.7085 89.6398 21.7659 89.6826 21.8083C89.7253 21.8506 89.7833 21.8744 89.8438 21.8744H93.1761C93.2365 21.8744 93.2945 21.8506 93.3372 21.8083C93.38 21.7659 93.404 21.7085 93.404 21.6486V11.948C93.6843 11.4249 94.0936 10.9806 94.5938 10.6563C95.1605 10.2831 95.828 10.0887 96.5084 10.0986C97.3905 10.0986 98.088 10.3921 98.619 10.977C99.1547 11.5596 99.4305 12.3544 99.4305 13.3818V21.6463C99.4305 21.7062 99.4545 21.7637 99.4972 21.806C99.54 21.8484 99.5979 21.8721 99.6584 21.8721H103.02V21.8744ZM109.956 7.5515L110.059 7.35279H110.063V7.35505L109.954 7.55376L109.956 7.5515ZM112.085 9.63569L112.286 9.52731V9.52505L112.283 9.52279L112.085 9.63569ZM119.167 21.1586H119.169C120.374 21.8352 121.739 22.1842 123.124 22.1702C124.653 22.1702 126.018 21.888 127.215 21.3167C128.432 20.7431 129.333 19.9392 129.898 18.9005C129.926 18.8496 129.933 18.79 129.917 18.7341C129.902 18.6782 129.866 18.6303 129.816 18.6002L127.176 16.997C127.15 16.9809 127.121 16.9702 127.091 16.9656C127.06 16.9609 127.029 16.9625 126.999 16.9701C126.969 16.9777 126.941 16.9912 126.917 17.0098C126.893 17.0284 126.872 17.0517 126.857 17.0783C126.563 17.6044 126.082 18.0312 125.398 18.3518H125.396C124.716 18.6764 123.97 18.8418 123.215 18.835C122.349 18.835 121.59 18.6454 120.929 18.2705C120.287 17.8982 119.766 17.3532 119.424 16.6989C119.225 16.2845 119.084 15.8444 119.007 15.3915H129.998C130.053 15.3914 130.107 15.3714 130.148 15.3353C130.19 15.2992 130.217 15.2493 130.224 15.195C130.262 14.9015 130.285 14.6531 130.285 14.4634C130.308 14.2221 130.328 13.9805 130.345 13.7386C130.361 12.4802 130.037 11.2404 129.404 10.1491C128.771 9.05778 127.854 8.15513 126.748 7.53569C125.627 6.90062 124.356 6.57251 123.064 6.58505C121.684 6.56858 120.325 6.9287 119.137 7.62602C117.969 8.29389 116.999 9.25497 116.325 10.4125V10.4147C115.644 11.599 115.292 12.9405 115.303 14.3031C115.286 15.7034 115.637 17.084 116.322 18.3089V18.3112C117 19.4923 117.982 20.4747 119.167 21.1586ZM119.397 11.8734C119.289 12.0952 119.2 12.3256 119.13 12.5621H126.458C126.365 12.0958 126.167 11.6565 125.877 11.2773C125.563 10.8191 125.128 10.4557 124.619 10.2273L124.612 10.2228C124.085 9.96206 123.503 9.82821 122.914 9.83215C122.089 9.83215 121.38 10.0128 120.778 10.365C120.176 10.7197 119.695 11.2451 119.397 11.8734Z" fill="#0F0518"/>
<path d="M132.902 6.88086C132.841 6.88086 132.783 6.90465 132.741 6.94699C132.698 6.98934 132.674 7.04678 132.674 7.10666V21.6486C132.674 21.7085 132.698 21.7659 132.741 21.8083C132.783 21.8506 132.841 21.8744 132.902 21.8744H136.234C136.295 21.8744 136.353 21.8506 136.395 21.8083C136.438 21.7659 136.462 21.7085 136.462 21.6486V12.4244C136.799 11.7602 137.301 11.192 137.921 10.7738L137.925 10.7715C138.582 10.3109 139.179 10.0986 139.715 10.0986C140.33 10.0986 140.884 10.1934 141.374 10.3809C141.407 10.3937 141.443 10.3986 141.479 10.3951C141.515 10.3915 141.549 10.3797 141.579 10.3606C141.61 10.3414 141.635 10.3155 141.653 10.2849C141.671 10.2543 141.682 10.2199 141.684 10.1844L141.894 7.06376C141.897 7.01377 141.884 6.96401 141.856 6.92231C141.828 6.88061 141.787 6.84935 141.739 6.83344C141.23 6.66634 140.645 6.58505 139.984 6.58505C139.236 6.58505 138.475 6.81763 137.709 7.26924L137.707 7.2715C137.231 7.55474 136.809 7.91943 136.462 8.3486V7.10666C136.462 7.04678 136.438 6.98934 136.395 6.94699C136.353 6.90465 136.295 6.88086 136.234 6.88086H132.902Z" fill="#0F0518"/>
</svg>
