<svg preserveAspectRatio="none" width="100%" height="100%" overflow="visible" style="display: block;" viewBox="0 0 16 16" fill="none" xmlns="http://www.w3.org/2000/svg">
<g id="SVG" clip-path="url(#clip0_0_18)">
<path id="Vector" d="M14.8547 6.54733C15.0334 6.00865 15.0952 5.43801 15.0359 4.87354C14.9766 4.30907 14.7975 3.76375 14.5107 3.274C14.0853 2.53358 13.4358 1.94737 12.6558 1.5999C11.8758 1.25243 11.0056 1.16166 10.1707 1.34067C9.69645 0.813113 9.09178 0.419603 8.41738 0.199645C7.74298 -0.0203117 7.02258 -0.0589741 6.32852 0.0875401C5.63445 0.234054 4.99114 0.560588 4.46318 1.03436C3.93522 1.50813 3.5412 2.11245 3.32067 2.78667C2.76441 2.90071 2.23891 3.13217 1.77927 3.46557C1.31963 3.79898 0.936451 4.22665 0.655333 4.72C0.2253 5.45919 0.0415169 6.316 0.130561 7.16654C0.219605 8.01707 0.57686 8.81724 1.15067 9.45133C0.97098 9.9898 0.90836 10.5604 0.966996 11.1251C1.02563 11.6897 1.20417 12.2353 1.49067 12.7253C1.91658 13.466 2.56668 14.0524 3.34727 14.3998C4.12785 14.7473 4.99859 14.8379 5.834 14.6587C6.21081 15.0832 6.67386 15.4225 7.19223 15.6538C7.71061 15.8851 8.27237 16.0031 8.84 16C9.69579 16.0008 10.5297 15.7296 11.2213 15.2256C11.913 14.7216 12.4266 14.0109 12.688 13.196C13.2441 13.0817 13.7693 12.8501 14.2288 12.5167C14.6883 12.1833 15.0715 11.7558 15.3527 11.2627C15.7776 10.5246 15.9582 9.67111 15.8688 8.82419C15.7794 7.97727 15.4244 7.18033 14.8547 6.54733ZM8.84 14.9533C8.13931 14.9545 7.46055 14.7091 6.92267 14.26L7.01667 14.206L10.2027 12.3673C10.2818 12.3208 10.3475 12.2545 10.3933 12.1749C10.4392 12.0953 10.4635 12.0052 10.464 11.9133V7.422L11.8107 8.20067C11.8173 8.20404 11.8231 8.20894 11.8275 8.21496C11.8319 8.22099 11.8348 8.22797 11.836 8.23533V11.9573C11.8342 12.7514 11.518 13.5124 10.9565 14.0739C10.3951 14.6354 9.63405 14.9516 8.84 14.9533ZM2.4 12.2027C2.04833 11.5957 1.92203 10.8842 2.04333 10.1933L2.138 10.25L5.32667 12.0893C5.40551 12.1356 5.49526 12.1599 5.58667 12.1599C5.67807 12.1599 5.76782 12.1356 5.84667 12.0893L9.742 9.84333V11.398C9.74172 11.4061 9.73959 11.414 9.73578 11.4212C9.73197 11.4284 9.72657 11.4346 9.72 11.4393L6.49333 13.3C5.8048 13.6964 4.98715 13.8035 4.21976 13.5977C3.45238 13.392 2.79793 12.8903 2.4 12.2027ZM1.56 5.264C1.91398 4.65307 2.47274 4.18712 3.13733 3.94867V7.73333C3.13617 7.82473 3.15956 7.91476 3.20506 7.99403C3.25056 8.0733 3.3165 8.1389 3.396 8.184L7.27267 10.4207L5.926 11.1993C5.91871 11.2032 5.91058 11.2052 5.90233 11.2052C5.89408 11.2052 5.88596 11.2032 5.87867 11.1993L2.65867 9.342C1.97116 8.94379 1.4695 8.28933 1.26357 7.52197C1.05764 6.75461 1.16423 5.93692 1.56 5.248V5.264ZM12.6247 7.834L8.736 5.576L10.0793 4.8C10.0866 4.79615 10.0948 4.79413 10.103 4.79413C10.1112 4.79413 10.1194 4.79615 10.1267 4.8L13.3467 6.66067C13.8393 6.94462 14.2409 7.36289 14.5047 7.86662C14.7684 8.37034 14.8834 8.93873 14.8361 9.50536C14.7889 10.072 14.5813 10.6135 14.2378 11.0665C13.8942 11.5196 13.4289 11.8656 12.896 12.064V8.27867C12.8932 8.18738 12.8667 8.0984 12.8192 8.02044C12.7716 7.94248 12.7046 7.87823 12.6247 7.834ZM13.9647 5.81867L13.8707 5.762L10.688 3.90733C10.6086 3.86081 10.5183 3.83628 10.4263 3.83628C10.3343 3.83628 10.244 3.86081 10.1647 3.90733L6.27267 6.15333V4.598C6.27186 4.59017 6.27316 4.58227 6.27644 4.57512C6.27973 4.56796 6.28487 4.56182 6.29133 4.55733L9.51133 2.69933C10.0049 2.41528 10.5691 2.27758 11.138 2.30231C11.707 2.32705 12.2571 2.51321 12.7242 2.83902C13.1912 3.16484 13.5559 3.61686 13.7756 4.14225C13.9952 4.66764 14.0608 5.24471 13.9647 5.806V5.81867ZM5.538 8.57533L4.19133 7.79933C4.18456 7.79527 4.17877 7.78975 4.17439 7.78318C4.17001 7.77661 4.16715 7.76915 4.166 7.76133V4.05C4.16712 3.48073 4.33018 2.92353 4.63615 2.44348C4.94211 1.96342 5.37835 1.58033 5.89391 1.33894C6.40947 1.09756 6.98307 1.00784 7.54771 1.08028C8.11235 1.15271 8.64473 1.3843 9.08267 1.748L8.988 1.80133L5.80267 3.64C5.72338 3.68647 5.65754 3.75275 5.61161 3.83234C5.56568 3.91194 5.54123 4.00211 5.54067 4.094L5.538 8.57533ZM6.26933 6.99867L8.004 5.99867L9.742 6.99867V8.998L8.01067 9.998L6.27267 8.998L6.26933 6.99867Z" fill="var(--fill-0, white)"/>
</g>
<defs>
<clipPath id="clip0_0_18">
<rect width="16" height="16" fill="white"/>
</clipPath>
</defs>
</svg>
