<svg preserveAspectRatio="none" width="100%" height="100%" overflow="visible" style="display: block;" viewBox="0 0 16 16" fill="none" xmlns="http://www.w3.org/2000/svg">
<g id="SVG" clip-path="url(#clip0_0_14)">
<path id="Vector" d="M14.9318 4.7264H13.3914V0.0450664L8.38513 4.2812V0.105133H7.61487V4.2362L2.9936 -2.38419e-07V4.7264H1.0682V11.6581H2.99367V16L7.615 11.7606V15.8943H8.38527V11.863L13.0065 15.9835V11.6582H14.9319L14.9318 4.7264ZM12.6213 1.70573V4.7264H9.05133L12.6213 1.70573ZM3.76387 1.7508L7.00993 4.7264H3.76387V1.7508ZM1.8384 10.888V5.49667H7.07013L2.99353 9.57313V10.888H1.8384ZM3.76387 14.2483V11.6581L3.76393 9.89227L7.6148 6.04133V10.7154L3.76387 14.2483ZM12.2363 14.2648L8.3852 10.8309V6.0412L12.2363 9.89227V14.2648ZM14.1617 10.888H13.0064V9.57313L8.92987 5.49667H14.1617V10.888Z" fill="var(--fill-0, white)"/>
</g>
<defs>
<clipPath id="clip0_0_14">
<rect width="16" height="16" fill="white"/>
</clipPath>
</defs>
</svg>
